<svg xmlns="http://www.w3.org/2000/svg" width="900" height="520" viewBox="0 0 900 520">
<rect width="100%" height="100%" fill="white"/>
<text x="450.0" y="30" text-anchor="middle" font-family="sans-serif" font-size="20">TinyStories architecture ablations</text>
<line x1="80.0" y1="55" x2="80.0" y2="450" stroke="#e5e7eb"/>
<text x="80.0" y="474" text-anchor="middle" font-family="sans-serif" font-size="12">1</text>
<line x1="80" y1="55.0" x2="875" y2="55.0" stroke="#e5e7eb"/>
<text x="70" y="59.0" text-anchor="end" font-family="sans-serif" font-size="12">27.20</text>
<line x1="239.0" y1="55" x2="239.0" y2="450" stroke="#e5e7eb"/>
<text x="239.0" y="474" text-anchor="middle" font-family="sans-serif" font-size="12">2001</text>
<line x1="80" y1="134.0" x2="875" y2="134.0" stroke="#e5e7eb"/>
<text x="70" y="138.0" text-anchor="end" font-family="sans-serif" font-size="12">21.82</text>
<line x1="398.0" y1="55" x2="398.0" y2="450" stroke="#e5e7eb"/>
<text x="398.0" y="474" text-anchor="middle" font-family="sans-serif" font-size="12">4001</text>
<line x1="80" y1="213.0" x2="875" y2="213.0" stroke="#e5e7eb"/>
<text x="70" y="217.0" text-anchor="end" font-family="sans-serif" font-size="12">16.43</text>
<line x1="557.0" y1="55" x2="557.0" y2="450" stroke="#e5e7eb"/>
<text x="557.0" y="474" text-anchor="middle" font-family="sans-serif" font-size="12">6000</text>
<line x1="80" y1="292.0" x2="875" y2="292.0" stroke="#e5e7eb"/>
<text x="70" y="296.0" text-anchor="end" font-family="sans-serif" font-size="12">11.05</text>
<line x1="716.0" y1="55" x2="716.0" y2="450" stroke="#e5e7eb"/>
<text x="716.0" y="474" text-anchor="middle" font-family="sans-serif" font-size="12">8000</text>
<line x1="80" y1="371.0" x2="875" y2="371.0" stroke="#e5e7eb"/>
<text x="70" y="375.0" text-anchor="end" font-family="sans-serif" font-size="12">5.66</text>
<line x1="875.0" y1="55" x2="875.0" y2="450" stroke="#e5e7eb"/>
<text x="875.0" y="474" text-anchor="middle" font-family="sans-serif" font-size="12">10000</text>
<line x1="80" y1="450.0" x2="875" y2="450.0" stroke="#e5e7eb"/>
<text x="70" y="454.0" text-anchor="end" font-family="sans-serif" font-size="12">0.28</text>
<line x1="80" y1="450" x2="875" y2="450" stroke="#111827"/>
<line x1="80" y1="55" x2="80" y2="450" stroke="#111827"/>
<text x="477.5" y="500" text-anchor="middle" font-family="sans-serif" font-size="14">step</text>
<text x="18" y="252.5" text-anchor="middle" transform="rotate(-90 18 252.5)" font-family="sans-serif" font-size="14">val_loss</text>
<polyline points="80.0,318.2 87.9,343.6 95.8,377.9 103.8,396.2 111.7,404.0 119.7,408.8 127.6,411.9 135.6,414.5 143.5,416.3 151.5,418.1 159.4,419.3 167.4,420.6 175.3,421.5 183.3,422.4 191.2,423.3 199.2,423.6 207.1,424.4 215.1,424.8 223.0,425.4 231.0,425.7 238.9,425.9 246.9,426.2 254.8,426.8 262.8,426.8 270.7,427.0 278.7,427.1 286.6,427.5 294.6,427.7 302.5,428.0 310.5,428.2 318.4,428.3 326.4,428.3 334.3,428.5 342.3,428.4 350.2,428.7 358.2,428.9 366.1,429.2 374.1,429.0 382.1,429.2 390.0,429.2 398.0,429.3 405.9,429.6 413.9,429.6 421.8,429.7 429.8,429.7 437.7,430.2 445.7,430.0 453.6,429.9 461.6,429.9 469.5,430.1 477.5,430.3 485.4,430.4 493.4,430.5 501.3,430.4 509.3,430.7 517.2,430.5 525.2,430.7 533.1,430.8 541.1,430.6 549.0,430.7 557.0,430.7 564.9,430.9 572.9,430.9 580.8,431.0 588.8,431.2 596.7,431.2 604.7,431.0 612.6,431.1 620.6,431.2 628.5,431.2 636.5,431.3 644.4,431.4 652.4,431.4 660.3,431.4 668.3,431.5 676.2,431.4 684.2,431.5 692.1,431.5 700.1,431.2 708.0,431.5 716.0,431.6 723.9,431.6 731.9,431.6 739.8,431.6 747.8,431.8 755.7,431.8 763.7,431.6 771.6,431.8 779.6,431.8 787.5,431.7 795.5,431.9 803.4,431.7 811.4,431.9 819.3,431.6 827.3,431.9 835.2,432.0 843.2,431.8 851.1,432.0 859.1,431.9 867.0,431.9 875.0,432.0" fill="none" stroke="#2563eb" stroke-width="2"/>
<line x1="92" y1="73" x2="116" y2="73" stroke="#2563eb" stroke-width="3"/>
<text x="122" y="77" font-family="sans-serif" font-size="12">baseline</text>
<polyline points="80.0,73.0 87.9,329.5 95.8,388.7 103.8,398.4 111.7,403.8 119.7,407.4 127.6,410.0 135.6,412.3 143.5,414.0 151.5,415.9 159.4,417.1 167.4,418.5 175.3,419.6 183.3,420.4 191.2,421.4 199.2,421.8 207.1,422.7 215.1,423.2 223.0,424.0 231.0,424.3 238.9,424.5 246.9,424.9 254.8,425.5 262.8,425.6 270.7,425.8 278.7,425.9 286.6,426.3 294.6,426.5 302.5,426.9 310.5,427.1 318.4,427.2 326.4,427.2 334.3,427.4 342.3,427.4 350.2,427.7 358.2,427.9 366.1,428.3 374.1,428.0 382.1,428.2 390.0,428.2 398.0,428.3 405.9,428.7 413.9,428.7 421.8,428.8 429.8,428.7 437.7,429.3 445.7,429.1 453.6,429.1 461.6,429.0 469.5,429.2 477.5,429.4 485.4,429.5 493.4,429.7 501.3,429.6 509.3,429.9 517.2,429.7 525.2,430.0 533.1,430.1 541.1,429.9 549.0,430.0 557.0,430.0 564.9,430.2 572.9,430.2 580.8,430.2 588.8,430.5 596.7,430.5 604.7,430.4 612.6,430.5 620.6,430.5 628.5,430.6 636.5,430.7 644.4,430.7 652.4,430.8 660.3,430.8 668.3,430.8 676.2,430.8 684.2,430.9 692.1,430.8 700.1,430.6 708.0,430.9 716.0,431.0 723.9,431.0 731.9,431.0 739.8,431.0 747.8,431.2 755.7,431.2 763.7,431.1 771.6,431.2 779.6,431.2 787.5,431.2 795.5,431.3 803.4,431.1 811.4,431.3 819.3,431.1 827.3,431.4 835.2,431.5 843.2,431.3 851.1,431.5 859.1,431.4 867.0,431.3 875.0,431.5" fill="none" stroke="#dc2626" stroke-width="2"/>
<line x1="282" y1="73" x2="306" y2="73" stroke="#dc2626" stroke-width="3"/>
<text x="312" y="77" font-family="sans-serif" font-size="12">No RMSNorm</text>
<polyline points="80.0,318.2 87.9,344.5 95.8,379.2 103.8,397.1 111.7,404.5 119.7,409.0 127.6,411.9 135.6,414.4 143.5,416.2 151.5,417.9 159.4,419.1 167.4,420.3 175.3,421.2 183.3,421.9 191.2,422.8 199.2,423.1 207.1,423.9 215.1,424.4 223.0,425.0 231.0,425.3 238.9,425.6 246.9,425.8 254.8,426.4 262.8,426.4 270.7,426.6 278.7,426.8 286.6,427.2 294.6,427.4 302.5,427.7 310.5,427.8 318.4,428.0 326.4,428.0 334.3,428.2 342.3,428.2 350.2,428.5 358.2,428.6 366.1,429.0 374.1,428.8 382.1,428.9 390.0,428.9 398.0,429.0 405.9,429.4 413.9,429.3 421.8,429.5 429.8,429.4 437.7,429.9 445.7,429.8 453.6,429.7 461.6,429.7 469.5,429.8 477.5,430.1 485.4,430.2 493.4,430.3 501.3,430.2 509.3,430.5 517.2,430.4 525.2,430.6 533.1,430.6 541.1,430.5 549.0,430.6 557.0,430.5 564.9,430.7 572.9,430.8 580.8,430.8 588.8,431.1 596.7,431.0 604.7,430.9 612.6,431.0 620.6,431.0 628.5,431.1 636.5,431.2 644.4,431.2 652.4,431.2 660.3,431.3 668.3,431.3 676.2,431.3 684.2,431.4 692.1,431.3 700.1,431.0 708.0,431.3 716.0,431.4 723.9,431.5 731.9,431.5 739.8,431.4 747.8,431.6 755.7,431.6 763.7,431.5 771.6,431.6 779.6,431.6 787.5,431.6 795.5,431.7 803.4,431.6 811.4,431.7 819.3,431.5 827.3,431.8 835.2,431.9 843.2,431.7 851.1,431.9 859.1,431.8 867.0,431.7 875.0,431.9" fill="none" stroke="#16a34a" stroke-width="2"/>
<line x1="472" y1="73" x2="496" y2="73" stroke="#16a34a" stroke-width="3"/>
<text x="502" y="77" font-family="sans-serif" font-size="12">Post-Norm</text>
<polyline points="80.0,318.2 87.9,343.8 95.8,377.8 103.8,393.6 111.7,399.1 119.7,402.8 127.6,405.4 135.6,408.7 143.5,411.5 151.5,414.1 159.4,415.7 167.4,417.4 175.3,418.6 183.3,419.5 191.2,420.4 199.2,421.0 207.1,421.9 215.1,422.3 223.0,423.1 231.0,423.4 238.9,423.7 246.9,424.1 254.8,424.7 262.8,424.7 270.7,425.0 278.7,425.1 286.6,425.6 294.6,425.8 302.5,426.1 310.5,426.3 318.4,426.4 326.4,426.4 334.3,426.7 342.3,426.7 350.2,427.0 358.2,427.1 366.1,427.5 374.1,427.3 382.1,427.5 390.0,427.5 398.0,427.6 405.9,428.0 413.9,428.0 421.8,428.1 429.8,428.0 437.7,428.6 445.7,428.4 453.6,428.4 461.6,428.4 469.5,428.5 477.5,428.7 485.4,428.9 493.4,429.0 501.3,428.9 509.3,429.2 517.2,429.0 525.2,429.3 533.1,429.3 541.1,429.2 549.0,429.2 557.0,429.2 564.9,429.4 572.9,429.5 580.8,429.5 588.8,429.8 596.7,429.8 604.7,429.6 612.6,429.7 620.6,429.8 628.5,429.8 636.5,429.9 644.4,430.0 652.4,430.0 660.3,430.0 668.3,430.1 676.2,430.0 684.2,430.1 692.1,430.1 700.1,429.8 708.0,430.1 716.0,430.2 723.9,430.3 731.9,430.3 739.8,430.2 747.8,430.4 755.7,430.4 763.7,430.2 771.6,430.4 779.6,430.4 787.5,430.4 795.5,430.5 803.4,430.3 811.4,430.5 819.3,430.2 827.3,430.5 835.2,430.7 843.2,430.5 851.1,430.7 859.1,430.6 867.0,430.5 875.0,430.7" fill="none" stroke="#9333ea" stroke-width="2"/>
<line x1="662" y1="73" x2="686" y2="73" stroke="#9333ea" stroke-width="3"/>
<text x="692" y="77" font-family="sans-serif" font-size="12">NoPE</text>
<polyline points="80.0,318.1 87.9,344.6 95.8,377.3 103.8,395.3 111.7,403.1 119.7,407.7 127.6,410.7 135.6,413.2 143.5,415.1 151.5,416.8 159.4,418.0 167.4,419.1 175.3,420.2 183.3,420.9 191.2,421.8 199.2,422.2 207.1,423.0 215.1,423.5 223.0,424.2 231.0,424.4 238.9,424.6 246.9,425.1 254.8,425.6 262.8,425.7 270.7,425.9 278.7,426.0 286.6,426.4 294.6,426.6 302.5,427.0 310.5,427.1 318.4,427.3 326.4,427.4 334.3,427.6 342.3,427.5 350.2,427.8 358.2,428.0 366.1,428.4 374.1,428.2 382.1,428.4 390.0,428.3 398.0,428.5 405.9,428.8 413.9,428.8 421.8,429.0 429.8,428.9 437.7,429.4 445.7,429.2 453.6,429.2 461.6,429.2 469.5,429.3 477.5,429.6 485.4,429.7 493.4,429.8 501.3,429.8 509.3,430.0 517.2,429.9 525.2,430.1 533.1,430.1 541.1,430.0 549.0,430.1 557.0,430.1 564.9,430.3 572.9,430.3 580.8,430.4 588.8,430.6 596.7,430.6 604.7,430.5 612.6,430.6 620.6,430.6 628.5,430.7 636.5,430.8 644.4,430.8 652.4,430.9 660.3,430.8 668.3,430.9 676.2,430.9 684.2,431.0 692.1,430.9 700.1,430.7 708.0,430.9 716.0,431.0 723.9,431.1 731.9,431.1 739.8,431.0 747.8,431.2 755.7,431.3 763.7,431.1 771.6,431.2 779.6,431.3 787.5,431.2 795.5,431.4 803.4,431.2 811.4,431.4 819.3,431.1 827.3,431.4 835.2,431.6 843.2,431.4 851.1,431.5 859.1,431.4 867.0,431.4 875.0,431.6" fill="none" stroke="#ea580c" stroke-width="2"/>
<line x1="92" y1="95" x2="116" y2="95" stroke="#ea580c" stroke-width="3"/>
<text x="122" y="99" font-family="sans-serif" font-size="12">SiLU</text>
</svg>