<svg xmlns="http://www.w3.org/2000/svg" width="900" height="520" viewBox="0 0 900 520">
<rect width="100%" height="100%" fill="white"/>
<text x="450.0" y="30" text-anchor="middle" font-family="sans-serif" font-size="20">TinyStories stable learning-rate sweep</text>
<line x1="80.0" y1="55" x2="80.0" y2="450" stroke="#e5e7eb"/>
<text x="80.0" y="474" text-anchor="middle" font-family="sans-serif" font-size="12">1</text>
<line x1="80" y1="55.0" x2="875" y2="55.0" stroke="#e5e7eb"/>
<text x="70" y="59.0" text-anchor="end" font-family="sans-serif" font-size="12">9.66</text>
<line x1="239.0" y1="55" x2="239.0" y2="450" stroke="#e5e7eb"/>
<text x="239.0" y="474" text-anchor="middle" font-family="sans-serif" font-size="12">2001</text>
<line x1="80" y1="134.0" x2="875" y2="134.0" stroke="#e5e7eb"/>
<text x="70" y="138.0" text-anchor="end" font-family="sans-serif" font-size="12">7.92</text>
<line x1="398.0" y1="55" x2="398.0" y2="450" stroke="#e5e7eb"/>
<text x="398.0" y="474" text-anchor="middle" font-family="sans-serif" font-size="12">4001</text>
<line x1="80" y1="213.0" x2="875" y2="213.0" stroke="#e5e7eb"/>
<text x="70" y="217.0" text-anchor="end" font-family="sans-serif" font-size="12">6.18</text>
<line x1="557.0" y1="55" x2="557.0" y2="450" stroke="#e5e7eb"/>
<text x="557.0" y="474" text-anchor="middle" font-family="sans-serif" font-size="12">6000</text>
<line x1="80" y1="292.0" x2="875" y2="292.0" stroke="#e5e7eb"/>
<text x="70" y="296.0" text-anchor="end" font-family="sans-serif" font-size="12">4.45</text>
<line x1="716.0" y1="55" x2="716.0" y2="450" stroke="#e5e7eb"/>
<text x="716.0" y="474" text-anchor="middle" font-family="sans-serif" font-size="12">8000</text>
<line x1="80" y1="371.0" x2="875" y2="371.0" stroke="#e5e7eb"/>
<text x="70" y="375.0" text-anchor="end" font-family="sans-serif" font-size="12">2.71</text>
<line x1="875.0" y1="55" x2="875.0" y2="450" stroke="#e5e7eb"/>
<text x="875.0" y="474" text-anchor="middle" font-family="sans-serif" font-size="12">10000</text>
<line x1="80" y1="450.0" x2="875" y2="450.0" stroke="#e5e7eb"/>
<text x="70" y="454.0" text-anchor="end" font-family="sans-serif" font-size="12">0.97</text>
<line x1="80" y1="450" x2="875" y2="450" stroke="#111827"/>
<line x1="80" y1="55" x2="80" y2="450" stroke="#111827"/>
<text x="477.5" y="500" text-anchor="middle" font-family="sans-serif" font-size="14">step</text>
<text x="18" y="252.5" text-anchor="middle" transform="rotate(-90 18 252.5)" font-family="sans-serif" font-size="14">val_loss</text>
<polyline points="80.0,73.0 87.9,105.8 95.8,171.4 103.8,234.8 111.7,285.0 119.7,313.2 127.6,329.6 135.6,341.7 143.5,350.6 151.5,358.4 159.4,363.9 167.4,368.7 175.3,372.3 183.3,375.1 191.2,378.1 199.2,379.6 207.1,382.2 215.1,383.7 223.0,386.2 231.0,387.5 238.9,388.2 246.9,389.5 254.8,391.7 262.8,392.2 270.7,393.3 278.7,393.9 286.6,395.5 294.6,396.2 302.5,397.6 310.5,398.2 318.4,398.7 326.4,399.3 334.3,400.1 342.3,400.1 350.2,401.2 358.2,401.7 366.1,403.3 374.1,402.6 382.1,403.3 390.0,403.3 398.0,403.8 405.9,404.8 413.9,405.1 421.8,405.5 429.8,405.3 437.7,407.2 445.7,406.6 453.6,406.5 461.6,406.4 469.5,407.0 477.5,407.9 485.4,408.3 493.4,408.5 501.3,408.5 509.3,409.3 517.2,408.8 525.2,409.6 533.1,409.8 541.1,409.3 549.0,409.5 557.0,409.5 564.9,410.2 572.9,410.4 580.8,410.4 588.8,411.3 596.7,411.3 604.7,410.6 612.6,411.0 620.6,411.2 628.5,411.3 636.5,411.6 644.4,411.9 652.4,412.0 660.3,411.9 668.3,411.9 676.2,411.9 684.2,412.2 692.1,412.0 700.1,411.1 708.0,412.1 716.0,412.3 723.9,412.5 731.9,412.5 739.8,412.3 747.8,412.9 755.7,413.0 763.7,412.5 771.6,412.8 779.6,413.0 787.5,412.8 795.5,413.2 803.4,412.7 811.4,413.2 819.3,412.4 827.3,413.4 835.2,413.9 843.2,413.2 851.1,413.7 859.1,413.3 867.0,413.1 875.0,413.8" fill="none" stroke="#2563eb" stroke-width="2"/>
<line x1="92" y1="73" x2="116" y2="73" stroke="#2563eb" stroke-width="3"/>
<text x="122" y="77" font-family="sans-serif" font-size="12">1e-4</text>
<polyline points="80.0,73.0 87.9,151.7 95.8,257.8 103.8,314.6 111.7,339.0 119.7,353.8 127.6,363.5 135.6,371.4 143.5,377.0 151.5,382.5 159.4,386.4 167.4,390.4 175.3,393.3 183.3,396.0 191.2,398.6 199.2,399.8 207.1,402.1 215.1,403.3 223.0,405.2 231.0,406.1 238.9,406.7 246.9,407.7 254.8,409.5 262.8,409.5 270.7,410.2 278.7,410.5 286.6,411.8 294.6,412.4 302.5,413.3 310.5,413.8 318.4,414.2 326.4,414.4 334.3,414.8 342.3,414.7 350.2,415.6 358.2,416.0 366.1,417.1 374.1,416.6 382.1,417.0 390.0,416.9 398.0,417.3 405.9,418.3 413.9,418.3 421.8,418.6 429.8,418.5 437.7,420.0 445.7,419.5 453.6,419.3 461.6,419.3 469.5,419.7 477.5,420.4 485.4,420.7 493.4,421.0 501.3,420.9 509.3,421.7 517.2,421.2 525.2,421.8 533.1,422.0 541.1,421.5 549.0,421.8 557.0,421.7 564.9,422.3 572.9,422.5 580.8,422.6 588.8,423.4 596.7,423.3 604.7,422.8 612.6,423.0 620.6,423.1 628.5,423.4 636.5,423.6 644.4,423.8 652.4,423.8 660.3,424.0 668.3,424.1 676.2,423.9 684.2,424.2 692.1,424.0 700.1,423.3 708.0,424.2 716.0,424.3 723.9,424.6 731.9,424.6 739.8,424.4 747.8,425.0 755.7,425.0 763.7,424.6 771.6,425.0 779.6,425.0 787.5,424.9 795.5,425.3 803.4,424.8 811.4,425.4 819.3,424.6 827.3,425.4 835.2,425.9 843.2,425.2 851.1,425.8 859.1,425.5 867.0,425.3 875.0,425.8" fill="none" stroke="#dc2626" stroke-width="2"/>
<line x1="282" y1="73" x2="306" y2="73" stroke="#dc2626" stroke-width="3"/>
<text x="312" y="77" font-family="sans-serif" font-size="12">3e-4 baseline</text>
<polyline points="80.0,73.0 87.9,196.0 95.8,305.8 103.8,341.1 111.7,359.3 119.7,370.4 127.6,378.0 135.6,384.6 143.5,389.5 151.5,394.7 159.4,397.8 167.4,401.4 175.3,403.7 183.3,405.4 191.2,407.3 199.2,408.2 207.1,409.9 215.1,410.9 223.0,412.4 231.0,413.0 238.9,413.3 246.9,414.2 254.8,415.6 262.8,415.6 270.7,416.0 278.7,416.1 286.6,417.1 294.6,417.7 302.5,418.5 310.5,419.0 318.4,419.3 326.4,419.3 334.3,419.7 342.3,419.5 350.2,420.3 358.2,420.5 366.1,421.6 374.1,421.1 382.1,421.5 390.0,421.4 398.0,421.7 405.9,422.5 413.9,422.5 421.8,422.8 429.8,422.5 437.7,424.1 445.7,423.5 453.6,423.5 461.6,423.4 469.5,423.8 477.5,424.4 485.4,424.8 493.4,425.0 501.3,424.9 509.3,425.7 517.2,425.2 525.2,425.8 533.1,426.0 541.1,425.5 549.0,425.8 557.0,425.7 564.9,426.3 572.9,426.4 580.8,426.5 588.8,427.3 596.7,427.3 604.7,426.8 612.6,427.1 620.6,427.1 628.5,427.4 636.5,427.7 644.4,427.8 652.4,427.9 660.3,428.1 668.3,428.1 676.2,428.0 684.2,428.3 692.1,428.2 700.1,427.4 708.0,428.3 716.0,428.5 723.9,428.7 731.9,428.8 739.8,428.5 747.8,429.1 755.7,429.2 763.7,428.8 771.6,429.2 779.6,429.3 787.5,429.1 795.5,429.5 803.4,429.2 811.4,429.6 819.3,428.9 827.3,429.6 835.2,430.1 843.2,429.6 851.1,430.0 859.1,429.8 867.0,429.6 875.0,430.1" fill="none" stroke="#16a34a" stroke-width="2"/>
<line x1="472" y1="73" x2="496" y2="73" stroke="#16a34a" stroke-width="3"/>
<text x="502" y="77" font-family="sans-serif" font-size="12">6e-4</text>
<polyline points="80.0,73.0 87.9,236.8 95.8,327.7 103.8,355.5 111.7,370.8 119.7,380.1 127.6,386.8 135.6,392.8 143.5,397.0 151.5,401.5 159.4,403.5 167.4,406.0 175.3,408.1 183.3,409.4 191.2,411.1 199.2,411.6 207.1,413.1 215.1,413.7 223.0,415.1 231.0,415.8 238.9,416.0 246.9,416.7 254.8,418.0 262.8,417.9 270.7,418.3 278.7,418.2 286.6,419.2 294.6,419.8 302.5,420.4 310.5,420.9 318.4,421.1 326.4,421.1 334.3,421.5 342.3,421.3 350.2,422.0 358.2,422.2 366.1,423.3 374.1,422.8 382.1,423.1 390.0,422.9 398.0,423.3 405.9,424.1 413.9,424.1 421.8,424.3 429.8,424.2 437.7,425.6 445.7,425.1 453.6,425.0 461.6,424.9 469.5,425.3 477.5,425.8 485.4,426.2 493.4,426.5 501.3,426.3 509.3,427.2 517.2,426.7 525.2,427.3 533.1,427.5 541.1,427.1 549.0,427.3 557.0,427.3 564.9,427.8 572.9,427.9 580.8,428.1 588.8,428.9 596.7,428.7 604.7,428.4 612.6,428.6 620.6,428.7 628.5,429.0 636.5,429.3 644.4,429.4 652.4,429.5 660.3,429.7 668.3,429.8 676.2,429.7 684.2,430.0 692.1,429.9 700.1,429.2 708.0,430.0 716.0,430.2 723.9,430.5 731.9,430.6 739.8,430.3 747.8,430.9 755.7,431.1 763.7,430.7 771.6,431.1 779.6,431.2 787.5,431.0 795.5,431.4 803.4,431.0 811.4,431.6 819.3,430.8 827.3,431.6 835.2,432.0 843.2,431.5 851.1,431.9 859.1,431.7 867.0,431.6 875.0,432.0" fill="none" stroke="#9333ea" stroke-width="2"/>
<line x1="662" y1="73" x2="686" y2="73" stroke="#9333ea" stroke-width="3"/>
<text x="692" y="77" font-family="sans-serif" font-size="12">1e-3</text>
</svg>