<svg xmlns="http://www.w3.org/2000/svg" width="900" height="520" viewBox="0 0 900 520">
<rect width="100%" height="100%" fill="white"/>
<text x="450.0" y="30" text-anchor="middle" font-family="sans-serif" font-size="20">TinyStories learning-rate sweep</text>
<line x1="80.0" y1="55" x2="80.0" y2="450" stroke="#e5e7eb"/>
<text x="80.0" y="474" text-anchor="middle" font-family="sans-serif" font-size="12">1</text>
<line x1="80" y1="55.0" x2="875" y2="55.0" stroke="#e5e7eb"/>
<text x="70" y="59.0" text-anchor="end" font-family="sans-serif" font-size="12">12.98</text>
<line x1="239.0" y1="55" x2="239.0" y2="450" stroke="#e5e7eb"/>
<text x="239.0" y="474" text-anchor="middle" font-family="sans-serif" font-size="12">2001</text>
<line x1="80" y1="134.0" x2="875" y2="134.0" stroke="#e5e7eb"/>
<text x="70" y="138.0" text-anchor="end" font-family="sans-serif" font-size="12">10.55</text>
<line x1="398.0" y1="55" x2="398.0" y2="450" stroke="#e5e7eb"/>
<text x="398.0" y="474" text-anchor="middle" font-family="sans-serif" font-size="12">4001</text>
<line x1="80" y1="213.0" x2="875" y2="213.0" stroke="#e5e7eb"/>
<text x="70" y="217.0" text-anchor="end" font-family="sans-serif" font-size="12">8.11</text>
<line x1="557.0" y1="55" x2="557.0" y2="450" stroke="#e5e7eb"/>
<text x="557.0" y="474" text-anchor="middle" font-family="sans-serif" font-size="12">6000</text>
<line x1="80" y1="292.0" x2="875" y2="292.0" stroke="#e5e7eb"/>
<text x="70" y="296.0" text-anchor="end" font-family="sans-serif" font-size="12">5.68</text>
<line x1="716.0" y1="55" x2="716.0" y2="450" stroke="#e5e7eb"/>
<text x="716.0" y="474" text-anchor="middle" font-family="sans-serif" font-size="12">8000</text>
<line x1="80" y1="371.0" x2="875" y2="371.0" stroke="#e5e7eb"/>
<text x="70" y="375.0" text-anchor="end" font-family="sans-serif" font-size="12">3.25</text>
<line x1="875.0" y1="55" x2="875.0" y2="450" stroke="#e5e7eb"/>
<text x="875.0" y="474" text-anchor="middle" font-family="sans-serif" font-size="12">10000</text>
<line x1="80" y1="450.0" x2="875" y2="450.0" stroke="#e5e7eb"/>
<text x="70" y="454.0" text-anchor="end" font-family="sans-serif" font-size="12">0.82</text>
<line x1="80" y1="450" x2="875" y2="450" stroke="#111827"/>
<line x1="80" y1="55" x2="80" y2="450" stroke="#111827"/>
<text x="477.5" y="500" text-anchor="middle" font-family="sans-serif" font-size="14">step</text>
<text x="18" y="252.5" text-anchor="middle" transform="rotate(-90 18 252.5)" font-family="sans-serif" font-size="14">val_loss</text>
<polyline points="80.0,175.7 87.9,199.1 95.8,246.0 103.8,291.2 111.7,327.1 119.7,347.2 127.6,358.9 135.6,367.6 143.5,373.9 151.5,379.5 159.4,383.4 167.4,386.8 175.3,389.4 183.3,391.4 191.2,393.5 199.2,394.6 207.1,396.5 215.1,397.6 223.0,399.3 231.0,400.2 238.9,400.8 246.9,401.7 254.8,403.3 262.8,403.6 270.7,404.4 278.7,404.8 286.6,405.9 294.6,406.4 302.5,407.5 310.5,407.9 318.4,408.3 326.4,408.7 334.3,409.2 342.3,409.3 350.2,410.1 358.2,410.4 366.1,411.5 374.1,411.1 382.1,411.5 390.0,411.5 398.0,411.9 405.9,412.6 413.9,412.8 421.8,413.1 429.8,413.0 437.7,414.3 445.7,413.9 453.6,413.8 461.6,413.8 469.5,414.2 477.5,414.8 485.4,415.1 493.4,415.3 501.3,415.2 509.3,415.8 517.2,415.4 525.2,416.0 533.1,416.2 541.1,415.8 549.0,415.9 557.0,415.9 564.9,416.4 572.9,416.6 580.8,416.6 588.8,417.2 596.7,417.2 604.7,416.8 612.6,417.1 620.6,417.2 628.5,417.3 636.5,417.5 644.4,417.7 652.4,417.7 660.3,417.6 668.3,417.7 676.2,417.6 684.2,417.9 692.1,417.7 700.1,417.1 708.0,417.8 716.0,418.0 723.9,418.1 731.9,418.1 739.8,418.0 747.8,418.4 755.7,418.4 763.7,418.1 771.6,418.3 779.6,418.4 787.5,418.3 795.5,418.6 803.4,418.2 811.4,418.6 819.3,418.0 827.3,418.7 835.2,419.1 843.2,418.6 851.1,419.0 859.1,418.7 867.0,418.5 875.0,419.0" fill="none" stroke="#2563eb" stroke-width="2"/>
<line x1="92" y1="73" x2="116" y2="73" stroke="#2563eb" stroke-width="3"/>
<text x="122" y="77" font-family="sans-serif" font-size="12">1e-4</text>
<polyline points="80.0,175.7 87.9,231.9 95.8,307.7 103.8,348.2 111.7,365.6 119.7,376.2 127.6,383.1 135.6,388.7 143.5,392.8 151.5,396.7 159.4,399.5 167.4,402.3 175.3,404.4 183.3,406.3 191.2,408.2 199.2,409.0 207.1,410.7 215.1,411.5 223.0,412.9 231.0,413.5 238.9,414.0 246.9,414.6 254.8,415.9 262.8,416.0 270.7,416.5 278.7,416.6 286.6,417.6 294.6,418.0 302.5,418.7 310.5,419.0 318.4,419.3 326.4,419.4 334.3,419.7 342.3,419.7 350.2,420.3 358.2,420.6 366.1,421.4 374.1,421.0 382.1,421.3 390.0,421.3 398.0,421.6 405.9,422.2 413.9,422.2 421.8,422.5 429.8,422.3 437.7,423.5 445.7,423.1 453.6,423.0 461.6,422.9 469.5,423.3 477.5,423.7 485.4,424.0 493.4,424.2 501.3,424.1 509.3,424.7 517.2,424.3 525.2,424.7 533.1,424.9 541.1,424.5 549.0,424.7 557.0,424.7 564.9,425.1 572.9,425.2 580.8,425.3 588.8,425.8 596.7,425.8 604.7,425.4 612.6,425.6 620.6,425.7 628.5,425.9 636.5,426.0 644.4,426.2 652.4,426.2 660.3,426.3 668.3,426.4 676.2,426.2 684.2,426.5 692.1,426.3 700.1,425.8 708.0,426.4 716.0,426.5 723.9,426.7 731.9,426.7 739.8,426.6 747.8,427.0 755.7,427.0 763.7,426.7 771.6,427.0 779.6,427.0 787.5,426.9 795.5,427.3 803.4,426.9 811.4,427.3 819.3,426.7 827.3,427.3 835.2,427.6 843.2,427.2 851.1,427.6 859.1,427.3 867.0,427.2 875.0,427.6" fill="none" stroke="#dc2626" stroke-width="2"/>
<line x1="282" y1="73" x2="306" y2="73" stroke="#dc2626" stroke-width="3"/>
<text x="312" y="77" font-family="sans-serif" font-size="12">3e-4 baseline</text>
<polyline points="80.0,175.7 87.9,263.5 95.8,341.9 103.8,367.1 111.7,380.1 119.7,388.1 127.6,393.4 135.6,398.2 143.5,401.6 151.5,405.4 159.4,407.6 167.4,410.2 175.3,411.8 183.3,413.0 191.2,414.4 199.2,415.0 207.1,416.2 215.1,416.9 223.0,418.0 231.0,418.5 238.9,418.7 246.9,419.3 254.8,420.3 262.8,420.3 270.7,420.6 278.7,420.6 286.6,421.4 294.6,421.8 302.5,422.4 310.5,422.7 318.4,422.9 326.4,422.9 334.3,423.3 342.3,423.1 350.2,423.7 358.2,423.8 366.1,424.6 374.1,424.3 382.1,424.5 390.0,424.4 398.0,424.7 405.9,425.3 413.9,425.3 421.8,425.5 429.8,425.3 437.7,426.4 445.7,425.9 453.6,425.9 461.6,425.8 469.5,426.1 477.5,426.6 485.4,426.8 493.4,427.0 501.3,426.9 509.3,427.5 517.2,427.2 525.2,427.6 533.1,427.7 541.1,427.4 549.0,427.6 557.0,427.5 564.9,427.9 572.9,428.0 580.8,428.1 588.8,428.7 596.7,428.6 604.7,428.3 612.6,428.5 620.6,428.5 628.5,428.7 636.5,428.9 644.4,429.0 652.4,429.1 660.3,429.2 668.3,429.3 676.2,429.1 684.2,429.4 692.1,429.3 700.1,428.7 708.0,429.4 716.0,429.5 723.9,429.7 731.9,429.7 739.8,429.5 747.8,429.9 755.7,430.0 763.7,429.7 771.6,430.0 779.6,430.1 787.5,429.9 795.5,430.3 803.4,430.0 811.4,430.3 819.3,429.8 827.3,430.3 835.2,430.7 843.2,430.3 851.1,430.6 859.1,430.4 867.0,430.3 875.0,430.7" fill="none" stroke="#16a34a" stroke-width="2"/>
<line x1="472" y1="73" x2="496" y2="73" stroke="#16a34a" stroke-width="3"/>
<text x="502" y="77" font-family="sans-serif" font-size="12">6e-4</text>
<polyline points="80.0,175.7 87.9,292.7 95.8,357.5 103.8,377.4 111.7,388.3 119.7,395.0 127.6,399.8 135.6,404.0 143.5,407.0 151.5,410.2 159.4,411.7 167.4,413.4 175.3,414.9 183.3,415.9 191.2,417.1 199.2,417.4 207.1,418.5 215.1,419.0 223.0,420.0 231.0,420.4 238.9,420.6 246.9,421.1 254.8,422.0 262.8,421.9 270.7,422.2 278.7,422.2 286.6,422.9 294.6,423.3 302.5,423.8 310.5,424.1 318.4,424.3 326.4,424.3 334.3,424.5 342.3,424.3 350.2,424.9 358.2,425.0 366.1,425.8 374.1,425.4 382.1,425.7 390.0,425.5 398.0,425.8 405.9,426.4 413.9,426.4 421.8,426.5 429.8,426.4 437.7,427.5 445.7,427.1 453.6,427.0 461.6,426.9 469.5,427.2 477.5,427.6 485.4,427.9 493.4,428.1 501.3,427.9 509.3,428.6 517.2,428.2 525.2,428.6 533.1,428.8 541.1,428.5 549.0,428.6 557.0,428.6 564.9,429.0 572.9,429.1 580.8,429.2 588.8,429.8 596.7,429.7 604.7,429.4 612.6,429.6 620.6,429.6 628.5,429.9 636.5,430.1 644.4,430.2 652.4,430.2 660.3,430.4 668.3,430.5 676.2,430.3 684.2,430.6 692.1,430.5 700.1,430.0 708.0,430.6 716.0,430.8 723.9,431.0 731.9,431.0 739.8,430.8 747.8,431.2 755.7,431.3 763.7,431.1 771.6,431.3 779.6,431.4 787.5,431.3 795.5,431.6 803.4,431.3 811.4,431.7 819.3,431.2 827.3,431.7 835.2,432.0 843.2,431.6 851.1,431.9 859.1,431.8 867.0,431.7 875.0,432.0" fill="none" stroke="#9333ea" stroke-width="2"/>
<line x1="662" y1="73" x2="686" y2="73" stroke="#9333ea" stroke-width="3"/>
<text x="692" y="77" font-family="sans-serif" font-size="12">1e-3</text>
<polyline points="80.0,175.7 87.9,377.0 95.8,347.5 103.8,319.6 111.7,299.1 119.7,292.4 127.6,311.2 135.6,306.1 143.5,321.9 151.5,319.3 159.4,315.7 167.4,319.6 175.3,317.5 183.3,321.1 191.2,321.7 199.2,318.8 207.1,315.3 215.1,313.6 223.0,315.9 231.0,315.3 238.9,311.9 246.9,315.3 254.8,311.8 262.8,275.0 270.7,73.0 278.7,242.5 286.6,292.3 294.6,317.7 302.5,319.8 310.5,332.0 318.4,342.1 326.4,351.6 334.3,360.2 342.3,369.3 350.2,377.8 358.2,382.2 366.1,387.5 374.1,388.0 382.1,390.7 390.0,391.6 398.0,392.7 405.9,394.2 413.9,395.0 421.8,395.1 429.8,395.5 437.7,397.0 445.7,396.8 453.6,396.9 461.6,397.2 469.5,397.7 477.5,398.3 485.4,398.7 493.4,399.1 501.3,399.2 509.3,399.8 517.2,399.5 525.2,400.2 533.1,400.0 541.1,400.1 549.0,400.4 557.0,400.6 564.9,401.3 572.9,401.7 580.8,401.8 588.8,402.7 596.7,402.7 604.7,402.4 612.6,403.0 620.6,403.3 628.5,403.5 636.5,404.1 644.4,404.3 652.4,404.5 660.3,404.5 668.3,405.0 676.2,405.1 684.2,405.4 692.1,405.5 700.1,405.3 708.0,405.9 716.0,406.5 723.9,407.0 731.9,407.0 739.8,407.0 747.8,407.8 755.7,408.0 763.7,407.8 771.6,408.4 779.6,408.7 787.5,408.7 795.5,409.2 803.4,408.9 811.4,409.5 819.3,409.0 827.3,410.0 835.2,410.3 843.2,410.0 851.1,410.3 859.1,410.2 867.0,409.9 875.0,410.4" fill="none" stroke="#ea580c" stroke-width="2"/>
<line x1="92" y1="95" x2="116" y2="95" stroke="#ea580c" stroke-width="3"/>
<text x="122" y="99" font-family="sans-serif" font-size="12">1e-1 divergent</text>
</svg>