<svg xmlns="http://www.w3.org/2000/svg" width="900" height="520" viewBox="0 0 900 520">
<rect width="100%" height="100%" fill="white"/>
<text x="450.0" y="30" text-anchor="middle" font-family="sans-serif" font-size="20">OWT baseline validation loss</text>
<line x1="80.0" y1="55" x2="80.0" y2="450" stroke="#e5e7eb"/>
<text x="80.0" y="474" text-anchor="middle" font-family="sans-serif" font-size="12">1</text>
<line x1="80" y1="55.0" x2="875" y2="55.0" stroke="#e5e7eb"/>
<text x="70" y="59.0" text-anchor="end" font-family="sans-serif" font-size="12">10.69</text>
<line x1="239.0" y1="55" x2="239.0" y2="450" stroke="#e5e7eb"/>
<text x="239.0" y="474" text-anchor="middle" font-family="sans-serif" font-size="12">2001</text>
<line x1="80" y1="134.0" x2="875" y2="134.0" stroke="#e5e7eb"/>
<text x="70" y="138.0" text-anchor="end" font-family="sans-serif" font-size="12">9.34</text>
<line x1="398.0" y1="55" x2="398.0" y2="450" stroke="#e5e7eb"/>
<text x="398.0" y="474" text-anchor="middle" font-family="sans-serif" font-size="12">4001</text>
<line x1="80" y1="213.0" x2="875" y2="213.0" stroke="#e5e7eb"/>
<text x="70" y="217.0" text-anchor="end" font-family="sans-serif" font-size="12">7.98</text>
<line x1="557.0" y1="55" x2="557.0" y2="450" stroke="#e5e7eb"/>
<text x="557.0" y="474" text-anchor="middle" font-family="sans-serif" font-size="12">6000</text>
<line x1="80" y1="292.0" x2="875" y2="292.0" stroke="#e5e7eb"/>
<text x="70" y="296.0" text-anchor="end" font-family="sans-serif" font-size="12">6.63</text>
<line x1="716.0" y1="55" x2="716.0" y2="450" stroke="#e5e7eb"/>
<text x="716.0" y="474" text-anchor="middle" font-family="sans-serif" font-size="12">8000</text>
<line x1="80" y1="371.0" x2="875" y2="371.0" stroke="#e5e7eb"/>
<text x="70" y="375.0" text-anchor="end" font-family="sans-serif" font-size="12">5.27</text>
<line x1="875.0" y1="55" x2="875.0" y2="450" stroke="#e5e7eb"/>
<text x="875.0" y="474" text-anchor="middle" font-family="sans-serif" font-size="12">10000</text>
<line x1="80" y1="450.0" x2="875" y2="450.0" stroke="#e5e7eb"/>
<text x="70" y="454.0" text-anchor="end" font-family="sans-serif" font-size="12">3.92</text>
<line x1="80" y1="450" x2="875" y2="450" stroke="#111827"/>
<line x1="80" y1="55" x2="80" y2="450" stroke="#111827"/>
<text x="477.5" y="500" text-anchor="middle" font-family="sans-serif" font-size="14">step</text>
<text x="18" y="252.5" text-anchor="middle" transform="rotate(-90 18 252.5)" font-family="sans-serif" font-size="14">val_loss</text>
<polyline points="80.0,73.0 87.9,127.6 95.8,227.1 103.8,261.8 111.7,291.5 119.7,308.9 127.6,323.4 135.6,332.0 143.5,341.3 151.5,348.2 159.4,354.3 167.4,361.1 175.3,366.0 183.3,371.1 191.2,374.5 199.2,378.1 207.1,381.6 215.1,384.8 223.0,387.8 231.0,389.9 238.9,391.2 246.9,392.6 254.8,394.6 262.8,396.4 270.7,398.0 278.7,398.8 286.6,400.9 294.6,401.5 302.5,402.8 310.5,403.7 318.4,406.4 326.4,406.8 334.3,406.2 342.3,408.2 350.2,409.5 358.2,410.5 366.1,411.9 374.1,411.7 382.1,412.6 390.0,414.6 398.0,415.2 405.9,414.7 413.9,416.6 421.8,416.9 429.8,417.9 437.7,418.0 445.7,419.3 453.6,419.2 461.6,419.8 469.5,419.2 477.5,421.4 485.4,421.4 493.4,421.3 501.3,422.6 509.3,422.6 517.2,423.1 525.2,424.1 533.1,424.6 541.1,423.5 549.0,424.7 557.0,425.0 564.9,425.4 572.9,426.2 580.8,424.6 588.8,426.1 596.7,427.0 604.7,427.1 612.6,425.9 620.6,427.8 628.5,428.5 636.5,428.5 644.4,427.6 652.4,429.0 660.3,429.1 668.3,428.8 676.2,428.4 684.2,429.8 692.1,429.4 700.1,429.4 708.0,430.3 716.0,430.1 723.9,430.9 731.9,430.8 739.8,430.5 747.8,430.5 755.7,431.2 763.7,430.2 771.6,430.5 779.6,429.8 787.5,431.2 795.5,431.2 803.4,431.0 811.4,430.9 819.3,431.6 827.3,431.8 835.2,431.4 843.2,431.4 851.1,431.7 859.1,431.6 867.0,432.0 875.0,432.0" fill="none" stroke="#2563eb" stroke-width="2"/>
<line x1="92" y1="73" x2="116" y2="73" stroke="#2563eb" stroke-width="3"/>
<text x="122" y="77" font-family="sans-serif" font-size="12">OWT baseline</text>
</svg>