<svg xmlns="http://www.w3.org/2000/svg" width="1040" height="600" viewBox="0 0 1040 600">
<rect width="100%" height="100%" fill="#f7f3e8"/>
<text x="78" y="36" font-family="Georgia,serif" font-size="24" font-weight="700" fill="#172a2a">TinyStories architecture ablations</text>
<g stroke="#d8d2c2" stroke-width="1" fill="#53605f" font-family="monospace" font-size="11"><line x1="78.0" y1="62" x2="78.0" y2="536"/><text x="78.0" y="570" text-anchor="middle">0</text><line x1="78" y1="62.0" x2="830" y2="62.0"/><text x="66" y="66.0" text-anchor="end">3.74</text><line x1="228.4" y1="62" x2="228.4" y2="536"/><text x="228.4" y="570" text-anchor="middle">2,000</text><line x1="78" y1="156.8" x2="830" y2="156.8"/><text x="66" y="160.8" text-anchor="end">3.26</text><line x1="378.8" y1="62" x2="378.8" y2="536"/><text x="378.8" y="570" text-anchor="middle">4,000</text><line x1="78" y1="251.6" x2="830" y2="251.6"/><text x="66" y="255.6" text-anchor="end">2.78</text><line x1="529.2" y1="62" x2="529.2" y2="536"/><text x="529.2" y="570" text-anchor="middle">6,000</text><line x1="78" y1="346.4" x2="830" y2="346.4"/><text x="66" y="350.4" text-anchor="end">2.30</text><line x1="679.6" y1="62" x2="679.6" y2="536"/><text x="679.6" y="570" text-anchor="middle">8,000</text><line x1="78" y1="441.2" x2="830" y2="441.2"/><text x="66" y="445.2" text-anchor="end">1.82</text><line x1="830.0" y1="62" x2="830.0" y2="536"/><text x="830.0" y="570" text-anchor="middle">10,000</text><line x1="78" y1="536.0" x2="830" y2="536.0"/><text x="66" y="540.0" text-anchor="end">1.34</text></g>
<polyline points="96.8,149.9 115.6,298.3 134.4,364.1 153.2,401.4 172.0,419.3 190.8,433.0 209.6,443.2 228.4,453.3 247.2,458.3 266.0,462.6 284.8,467.7 303.6,473.3 322.4,477.0 341.2,478.8 360.0,483.0 378.8,485.6 397.6,487.3 416.4,490.9 435.2,493.1 454.0,493.7 472.8,496.1 491.6,498.8 510.4,497.6 529.2,501.8 548.0,503.0 566.8,504.6 585.6,507.1 604.4,508.9 623.2,506.4 642.0,508.8 660.8,509.4 679.6,509.8 698.4,512.6 717.2,514.3 736.0,515.2 754.8,512.9 773.6,514.8 792.4,514.0 811.2,514.1 830.0,514.3" fill="none" stroke="#157f78" stroke-width="2.4"/><polyline points="96.8,168.2 115.6,291.8 134.4,356.0 153.2,391.1 172.0,407.4 190.8,421.0 209.6,431.0 228.4,441.0 247.2,446.6 266.0,451.5 284.8,456.3 303.6,462.6 322.4,466.9 341.2,469.2 360.0,474.0 378.8,476.6 397.6,478.6 416.4,482.6 435.2,485.3 454.0,486.0 472.8,488.6 491.6,491.9 510.4,491.2 529.2,495.4 548.0,497.4 566.8,499.1 585.6,501.8 604.4,503.6 623.2,501.5 642.0,504.2 660.8,505.4 679.6,506.0 698.4,509.1 717.2,510.7 736.0,511.9 754.8,509.8 773.6,511.9 792.4,511.1 811.2,511.0 830.0,511.1" fill="none" stroke="#d4512d" stroke-width="2.4"/><polyline points="96.8,153.3 115.6,300.1 134.4,365.7 153.2,403.7 172.0,420.7 190.8,434.9 209.6,443.5 228.4,454.4 247.2,459.1 266.0,463.1 284.8,467.9 303.6,474.1 322.4,477.6 341.2,479.4 360.0,484.0 378.8,485.7 397.6,488.1 416.4,491.7 435.2,493.6 454.0,494.5 472.8,496.7 491.6,499.2 510.4,498.6 529.2,502.5 548.0,503.9 566.8,505.7 585.6,507.9 604.4,509.9 623.2,507.1 642.0,509.5 660.8,510.5 679.6,510.6 698.4,513.5 717.2,515.1 736.0,516.2 754.8,513.7 773.6,515.9 792.4,515.3 811.2,515.0 830.0,515.1" fill="none" stroke="#315c9b" stroke-width="2.4"/><polyline points="96.8,81.8 115.6,221.0 134.4,312.2 153.2,358.7 172.0,383.1 190.8,400.9 209.6,413.9 228.4,424.1 247.2,431.2 266.0,437.4 284.8,443.6 303.6,449.6 322.4,454.9 341.2,457.0 360.0,462.0 378.8,464.7 397.6,467.3 416.4,471.2 435.2,473.6 454.0,474.7 472.8,477.4 491.6,480.0 510.4,479.6 529.2,483.7 548.0,485.1 566.8,487.6 585.6,489.9 604.4,491.8 623.2,489.3 642.0,492.3 660.8,492.8 679.6,493.6 698.4,496.7 717.2,498.6 736.0,499.2 754.8,497.0 773.6,499.0 792.4,498.1 811.2,498.1 830.0,498.2" fill="none" stroke="#9a6b16" stroke-width="2.4"/><polyline points="96.8,130.7 115.6,275.8 134.4,337.6 153.2,376.1 172.0,397.2 190.8,413.3 209.6,424.1 228.4,436.2 247.2,442.3 266.0,447.7 284.8,453.3 303.6,460.2 322.4,464.4 341.2,467.1 360.0,471.8 378.8,474.3 397.6,477.0 416.4,480.7 435.2,483.1 454.0,484.2 472.8,486.7 491.6,489.7 510.4,488.9 529.2,493.0 548.0,494.5 566.8,496.8 585.6,499.2 604.4,500.8 623.2,498.5 642.0,501.0 660.8,502.2 679.6,502.3 698.4,505.6 717.2,507.2 736.0,507.8 754.8,505.6 773.6,508.0 792.4,507.2 811.2,507.3 830.0,507.4" fill="none" stroke="#7b4d8e" stroke-width="2.4"/>
<line x1="78" y1="536" x2="830" y2="536" stroke="#172a2a"/>
<line x1="78" y1="62" x2="78" y2="536" stroke="#172a2a"/>
<text x="454.0" y="592" text-anchor="middle" font-family="Georgia,serif" font-size="14" fill="#172a2a">Training step</text>
<text x="18" y="299.0" text-anchor="middle" transform="rotate(-90 18 299.0)" font-family="Georgia,serif" font-size="14" fill="#172a2a">Validation loss</text>
<g font-family="monospace" font-size="12"><line x1="858" y1="92" x2="888" y2="92" stroke="#157f78" stroke-width="3"/><text x="898" y="96" fill="#172a2a">baseline</text><line x1="858" y1="120" x2="888" y2="120" stroke="#d4512d" stroke-width="3"/><text x="898" y="124" fill="#172a2a">no_rmsnorm</text><line x1="858" y1="148" x2="888" y2="148" stroke="#315c9b" stroke-width="3"/><text x="898" y="152" fill="#172a2a">postnorm</text><line x1="858" y1="176" x2="888" y2="176" stroke="#9a6b16" stroke-width="3"/><text x="898" y="180" fill="#172a2a">nope</text><line x1="858" y1="204" x2="888" y2="204" stroke="#7b4d8e" stroke-width="3"/><text x="898" y="208" fill="#172a2a">silu</text></g>
</svg>