<svg xmlns="http://www.w3.org/2000/svg" width="960" height="540" viewBox="0 0 960 540">
<rect width="100%" height="100%" fill="#f7f3e8"/>
<text x="78" y="36" font-family="Georgia,serif" font-size="24" font-weight="700" fill="#172a2a">TinyStories baseline loss</text>
<g stroke="#d8d2c2" stroke-width="1" fill="#53605f" font-family="monospace" font-size="11"><line x1="78.0" y1="62" x2="78.0" y2="476"/><text x="78.0" y="510" text-anchor="middle">0</text><line x1="78" y1="62.0" x2="932" y2="62.0"/><text x="66" y="66.0" text-anchor="end">9.53</text><line x1="248.8" y1="62" x2="248.8" y2="476"/><text x="248.8" y="510" text-anchor="middle">2,000</text><line x1="78" y1="144.8" x2="932" y2="144.8"/><text x="66" y="148.8" text-anchor="end">7.85</text><line x1="419.6" y1="62" x2="419.6" y2="476"/><text x="419.6" y="510" text-anchor="middle">4,000</text><line x1="78" y1="227.6" x2="932" y2="227.6"/><text x="66" y="231.6" text-anchor="end">6.17</text><line x1="590.4" y1="62" x2="590.4" y2="476"/><text x="590.4" y="510" text-anchor="middle">6,000</text><line x1="78" y1="310.4" x2="932" y2="310.4"/><text x="66" y="314.4" text-anchor="end">4.49</text><line x1="761.2" y1="62" x2="761.2" y2="476"/><text x="761.2" y="510" text-anchor="middle">8,000</text><line x1="78" y1="393.2" x2="932" y2="393.2"/><text x="66" y="397.2" text-anchor="end">2.81</text><line x1="932.0" y1="62" x2="932.0" y2="476"/><text x="932.0" y="510" text-anchor="middle">10,000</text><line x1="78" y1="476.0" x2="932" y2="476.0"/><text x="66" y="480.0" text-anchor="end">1.13</text></g>
<polyline points="78.1,74.3 78.9,76.5 79.7,85.1 80.6,99.0 81.4,118.0 82.3,138.4 83.1,159.4 84.0,181.1 84.8,204.9 85.7,227.0 86.5,247.5 87.4,265.6 88.2,280.4 89.1,296.1 90.0,311.4 90.8,321.1 91.7,329.1 92.5,336.2 93.4,342.0 94.2,345.2 95.1,350.1 95.9,352.8 96.8,358.2 97.6,362.4 98.5,365.0 99.3,371.2 100.2,370.2 101.1,374.6 101.9,376.6 102.8,383.1 103.6,382.2 104.5,382.0 105.3,383.7 106.2,385.2 107.0,390.2 107.9,387.0 108.7,390.9 109.6,393.5 110.5,393.6 111.3,395.7 112.2,398.2 113.0,396.3 113.9,396.9 114.7,399.8 115.6,399.8 116.4,401.1 117.3,403.1 118.1,405.4 119.0,404.5 119.8,402.0 120.7,406.0 121.6,403.6 122.4,408.2 123.3,408.9 124.1,409.7 125.0,406.8 125.8,413.8 126.7,412.2 127.5,412.9 128.4,412.5 129.2,410.9 130.1,413.5 130.9,412.2 131.8,414.7 132.7,416.5 133.5,416.4 134.4,417.5 135.2,418.2 136.1,420.5 136.9,420.1 137.8,419.0 138.6,420.8 139.5,420.6 140.3,419.5 141.2,420.6 142.1,423.1 142.9,423.2 143.8,421.4 144.6,423.4 145.5,423.0 146.3,426.8 147.2,424.4 148.0,426.1 148.9,425.3 149.7,426.7 150.6,426.8 151.4,428.4 152.3,427.6 153.2,426.9 154.0,427.7 154.9,426.9 155.7,427.0 156.6,429.4 157.4,428.7 158.3,430.5 159.1,427.3 160.0,430.3 160.8,430.1 161.7,429.5 162.5,431.5 163.4,432.0 164.3,431.3 165.1,432.3 166.0,434.2 166.8,433.2 167.7,430.4 168.5,433.8 169.4,433.9 170.2,433.3 171.1,430.2 171.9,433.6 172.8,433.4 173.6,436.7 174.5,434.2 175.4,435.5 176.2,433.2 177.1,436.2 177.9,437.3 178.8,432.4 179.6,433.6 180.5,436.5 181.3,435.2 182.2,433.1 183.0,435.4 183.9,437.1 184.8,437.3 185.6,434.6 186.5,433.9 187.3,439.5 188.2,437.9 189.0,435.0 189.9,436.3 190.7,439.9 191.6,436.7 192.4,437.6 193.3,435.3 194.1,439.6 195.0,440.9 195.9,438.2 196.7,438.8 197.6,441.3 198.4,438.3 199.3,438.3 200.1,436.4 201.0,439.0 201.8,439.6 202.7,436.0 203.5,440.5 204.4,438.6 205.2,440.1 206.1,443.3 207.0,440.4 207.8,439.7 208.7,440.7 209.5,439.0 210.4,438.5 211.2,440.9 212.1,438.7 212.9,441.3 213.8,441.5 214.6,441.1 215.5,440.2 216.3,441.5 217.2,441.8 218.1,441.7 218.9,444.2 219.8,441.8 220.6,440.1 221.5,439.1 222.3,442.1 223.2,442.6 224.0,442.2 224.9,442.3 225.7,445.5 226.6,442.7 227.4,445.0 228.3,444.8 229.2,442.2 230.0,441.2 230.9,442.4 231.7,442.7 232.6,443.0 233.4,441.6 234.3,446.3 235.1,445.4 236.0,441.1 236.8,440.6 237.7,442.0 238.6,443.9 239.4,445.3 240.3,443.8 241.1,443.6 242.0,445.6 242.8,441.6 243.7,443.7 244.5,443.8 245.4,442.8 246.2,446.0 247.1,443.3 247.9,445.3 248.8,446.1 249.7,443.7 250.5,446.9 251.4,442.5 252.2,443.0 253.1,444.4 253.9,444.5 254.8,444.3 255.6,441.3 256.5,442.7 257.3,442.2 258.2,446.0 259.0,444.6 259.9,445.6 260.8,447.0 261.6,447.7 262.5,446.6 263.3,446.8 264.2,443.5 265.0,445.6 265.9,445.4 266.7,445.2 267.6,447.5 268.4,445.9 269.3,447.1 270.1,444.8 271.0,446.1 271.9,446.0 272.7,444.5 273.6,446.8 274.4,447.4 275.3,444.2 276.1,449.7 277.0,446.3 277.8,449.2 278.7,447.6 279.5,447.5 280.4,447.3 281.3,448.5 282.1,446.3 283.0,447.6 283.8,447.6 284.7,447.9 285.5,445.9 286.4,450.7 287.2,448.3 288.1,448.3 288.9,445.2 289.8,444.2 290.6,447.2 291.5,450.3 292.4,448.8 293.2,448.0 294.1,447.0 294.9,451.2 295.8,450.3 296.6,447.9 297.5,447.7 298.3,447.0 299.2,450.3 300.0,447.9 300.9,447.6 301.7,450.9 302.6,448.1 303.5,446.8 304.3,447.9 305.2,447.5 306.0,446.5 306.9,450.1 307.7,451.0 308.6,449.3 309.4,445.8 310.3,451.4 311.1,448.5 312.0,450.3 312.9,447.3 313.7,446.7 314.6,449.0 315.4,450.9 316.3,448.7 317.1,447.9 318.0,448.4 318.8,447.8 319.7,449.9 320.5,451.4 321.4,451.0 322.2,448.5 323.1,450.7 324.0,446.5 324.8,449.5 325.7,447.6 326.5,447.5 327.4,449.4 328.2,449.2 329.1,449.0 329.9,447.5 330.8,449.6 331.6,450.3 332.5,450.5 333.3,447.9 334.2,448.9 335.1,450.4 335.9,450.9 336.8,447.6 337.6,452.8 338.5,445.4 339.3,448.3 340.2,449.1 341.0,452.9 341.9,452.7 342.7,449.1 343.6,448.8 344.4,451.5 345.3,451.1 346.2,448.9 347.0,448.4 347.9,450.5 348.7,448.7 349.6,450.1 350.4,451.1 351.3,449.7 352.1,449.3 353.0,448.3 353.8,448.6 354.7,451.9 355.6,450.6 356.4,450.5 357.3,452.2 358.1,448.7 359.0,451.7 359.8,448.5 360.7,449.9 361.5,447.9 362.4,454.0 363.2,450.5 364.1,448.1 364.9,450.4 365.8,450.4 366.7,455.2 367.5,451.2 368.4,450.3 369.2,451.6 370.1,450.6 370.9,450.3 371.8,449.8 372.6,450.6 373.5,452.1 374.3,450.8 375.2,453.2 376.0,451.5 376.9,450.2 377.8,454.2 378.6,450.3 379.5,452.8 380.3,454.4 381.2,452.2 382.0,449.7 382.9,450.8 383.7,450.2 384.6,453.2 385.4,450.2 386.3,449.7 387.1,454.1 388.0,452.1 388.9,451.6 389.7,449.9 390.6,452.3 391.4,452.4 392.3,452.0 393.1,452.0 394.0,449.9 394.8,456.0 395.7,453.0 396.5,451.3 397.4,453.0 398.2,450.0 399.1,451.5 400.0,456.3 400.8,452.5 401.7,452.9 402.5,452.8 403.4,454.1 404.2,451.8 405.1,451.9 405.9,452.3 406.8,450.9 407.6,449.0 408.5,455.5 409.4,453.6 410.2,454.1 411.1,451.2 411.9,453.1 412.8,452.5 413.6,452.2 414.5,452.5 415.3,452.9 416.2,453.8 417.0,454.4 417.9,450.7 418.7,452.2 419.6,452.0 420.5,455.7 421.3,455.2 422.2,452.5 423.0,455.2 423.9,455.2 424.7,452.4 425.6,454.1 426.4,454.9 427.3,452.4 428.1,453.0 429.0,452.3 429.8,451.7 430.7,450.7 431.6,451.3 432.4,456.1 433.3,451.2 434.1,451.5 435.0,453.8 435.8,455.9 436.7,452.8 437.5,456.3 438.4,452.9 439.2,453.5 440.1,451.8 440.9,451.9 441.8,453.9 442.7,452.9 443.5,457.5 444.4,453.4 445.2,452.5 446.1,453.7 446.9,450.1 447.8,453.2 448.6,454.2 449.5,452.2 450.3,455.2 451.2,453.3 452.1,456.4 452.9,454.7 453.8,454.9 454.6,452.0 455.5,457.2 456.3,453.7 457.2,455.3 458.0,453.3 458.9,454.0 459.7,453.3 460.6,454.2 461.4,454.6 462.3,451.6 463.2,451.5 464.0,455.8 464.9,454.1 465.7,456.2 466.6,456.6 467.4,454.6 468.3,454.3 469.1,455.4 470.0,456.2 470.8,454.7 471.7,455.0 472.5,453.6 473.4,457.3 474.3,455.1 475.1,456.1 476.0,456.5 476.8,454.4 477.7,455.4 478.5,457.0 479.4,458.7 480.2,456.1 481.1,455.5 481.9,456.0 482.8,456.0 483.6,454.6 484.5,453.9 485.4,452.5 486.2,453.3 487.1,457.7 487.9,453.3 488.8,453.0 489.6,452.3 490.5,454.4 491.3,453.0 492.2,454.6 493.0,455.2 493.9,454.2 494.8,458.3 495.6,454.6 496.5,456.2 497.3,455.1 498.2,455.3 499.0,456.6 499.9,455.5 500.7,456.7 501.6,457.4 502.4,452.1 503.3,456.4 504.1,454.9 505.0,454.9 505.9,456.6 506.7,455.1 507.6,456.5 508.4,453.4 509.3,453.9 510.1,456.1 511.0,455.6 511.8,455.8 512.7,456.7 513.5,456.2 514.4,458.7 515.2,451.5 516.1,453.4 517.0,457.1 517.8,454.2 518.7,456.8 519.5,455.1 520.4,455.8 521.2,455.7 522.1,458.5 522.9,456.1 523.8,459.2 524.6,454.5 525.5,457.9 526.4,456.6 527.2,456.7 528.1,460.0 528.9,457.2 529.8,455.1 530.6,452.9 531.5,455.9 532.3,457.0 533.2,454.3 534.0,454.7 534.9,454.1 535.7,455.5 536.6,454.6 537.5,451.5 538.3,456.6 539.2,456.2 540.0,455.4 540.9,456.6 541.7,455.5 542.6,455.3 543.4,456.0 544.3,456.3 545.1,458.8 546.0,457.3 546.8,457.3 547.7,455.3 548.6,456.9 549.4,455.3 550.3,455.2 551.1,456.2 552.0,458.9 552.8,456.1 553.7,453.7 554.5,454.0 555.4,455.0 556.2,457.5 557.1,454.9 557.9,453.2 558.8,455.2 559.7,455.0 560.5,458.9 561.4,456.1 562.2,455.4 563.1,459.2 563.9,458.0 564.8,458.3 565.6,454.3 566.5,457.2 567.3,456.1 568.2,457.9 569.0,456.3 569.9,456.8 570.8,457.0 571.6,457.0 572.5,456.7 573.3,456.8 574.2,457.2 575.0,456.7 575.9,457.2 576.7,458.0 577.6,458.5 578.4,456.2 579.3,457.9 580.2,457.9 581.0,457.0 581.9,457.7 582.7,455.6 583.6,459.4 584.4,456.3 585.3,457.6 586.1,453.2 587.0,456.0 587.8,458.3 588.7,456.3 589.5,455.9 590.4,456.7 591.3,455.9 592.1,458.3 593.0,456.8 593.8,456.8 594.7,457.1 595.5,459.6 596.4,456.8 597.2,456.3 598.1,458.8 598.9,455.9 599.8,456.4 600.6,455.7 601.5,453.9 602.4,456.2 603.2,458.3 604.1,456.6 604.9,458.8 605.8,456.4 606.6,458.7 607.5,459.9 608.3,457.2 609.2,458.0 610.0,460.3 610.9,457.2 611.8,454.8 612.6,456.6 613.5,457.7 614.3,456.7 615.2,460.1 616.0,458.9 616.9,458.7 617.7,456.9 618.6,459.2 619.4,455.7 620.3,457.3 621.1,457.3 622.0,458.1 622.9,456.0 623.7,460.5 624.6,459.5 625.4,455.3 626.3,458.4 627.1,458.6 628.0,458.0 628.8,457.4 629.7,457.1 630.5,457.3 631.4,454.7 632.2,460.4 633.1,456.2 634.0,456.2 634.8,456.5 635.7,456.2 636.5,458.8 637.4,457.5 638.2,458.3 639.1,456.5 639.9,458.3 640.8,456.5 641.6,459.7 642.5,459.6 643.3,457.8 644.2,456.3 645.1,457.3 645.9,456.2 646.8,458.0 647.6,457.4 648.5,457.0 649.3,458.8 650.2,457.2 651.0,456.6 651.9,458.3 652.7,456.7 653.6,458.7 654.5,458.9 655.3,459.8 656.2,458.0 657.0,459.4 657.9,457.6 658.7,457.4 659.6,461.4 660.4,458.3 661.3,455.8 662.1,460.1 663.0,459.4 663.8,459.2 664.7,459.1 665.6,460.2 666.4,458.4 667.3,454.7 668.1,456.4 669.0,457.9 669.8,460.7 670.7,459.1 671.5,458.2 672.4,459.7 673.2,457.7 674.1,460.1 674.9,460.8 675.8,457.7 676.7,460.2 677.5,457.6 678.4,459.7 679.2,457.2 680.1,457.6 680.9,460.8 681.8,459.8 682.6,461.4 683.5,458.2 684.3,457.2 685.2,461.1 686.0,459.5 686.9,459.6 687.8,458.9 688.6,460.6 689.5,456.7 690.3,461.3 691.2,459.9 692.0,458.1 692.9,457.7 693.7,459.4 694.6,458.5 695.4,460.8 696.3,459.0 697.1,460.7 698.0,458.8 698.9,459.6 699.7,457.1 700.6,462.5 701.4,458.0 702.3,457.9 703.1,458.7 704.0,456.1 704.8,458.6 705.7,457.5 706.5,457.6 707.4,459.2 708.3,456.9 709.1,456.0 710.0,460.8 710.8,458.0 711.7,458.1 712.5,458.4 713.4,459.9 714.2,459.0 715.1,460.1 715.9,458.5 716.8,457.1 717.6,459.2 718.5,458.2 719.4,459.5 720.2,459.2 721.1,459.3 721.9,459.5 722.8,460.1 723.6,460.4 724.5,461.0 725.3,456.4 726.2,459.0 727.0,457.7 727.9,458.6 728.7,458.3 729.6,461.6 730.5,458.6 731.3,461.5 732.2,461.2 733.0,459.3 733.9,460.5 734.7,459.6 735.6,458.5 736.4,458.8 737.3,457.0 738.1,459.5 739.0,458.5 739.9,458.2 740.7,459.7 741.6,460.8 742.4,460.6 743.3,462.5 744.1,458.6 745.0,458.1 745.8,458.7 746.7,461.5 747.5,459.1 748.4,459.5 749.2,461.4 750.1,459.0 751.0,459.6 751.8,461.5 752.7,461.0 753.5,458.0 754.4,459.9 755.2,460.6 756.1,458.7 756.9,459.1 757.8,457.6 758.6,458.5 759.5,461.1 760.3,460.5 761.2,461.5 762.1,460.3 762.9,460.3 763.8,459.2 764.6,460.7 765.5,456.4 766.3,456.5 767.2,456.2 768.0,456.9 768.9,459.3 769.7,460.6 770.6,460.1 771.4,459.9 772.3,460.9 773.2,460.8 774.0,459.4 774.9,456.9 775.7,456.9 776.6,459.9 777.4,460.9 778.3,460.5 779.1,458.1 780.0,459.8 780.8,460.2 781.7,463.4 782.5,459.1 783.4,461.9 784.3,459.2 785.1,457.2 786.0,460.1 786.8,461.2 787.7,460.2 788.5,461.2 789.4,459.4 790.2,457.1 791.1,461.5 791.9,457.6 792.8,459.0 793.7,459.0 794.5,456.4 795.4,459.2 796.2,459.2 797.1,458.0 797.9,461.0 798.8,458.9 799.6,459.4 800.5,460.7 801.3,461.8 802.2,460.5 803.0,459.6 803.9,461.7 804.8,458.7 805.6,461.9 806.5,461.0 807.3,459.7 808.2,460.4 809.0,459.0 809.9,457.0 810.7,460.6 811.6,459.0 812.4,458.6 813.3,461.1 814.1,460.0 815.0,460.7 815.9,461.3 816.7,461.3 817.6,460.3 818.4,457.9 819.3,457.1 820.1,457.4 821.0,459.5 821.8,459.4 822.7,459.1 823.5,459.2 824.4,458.5 825.2,461.1 826.1,461.6 827.0,459.8 827.8,462.8 828.7,457.6 829.5,457.8 830.4,460.4 831.2,460.8 832.1,460.5 832.9,460.5 833.8,462.0 834.6,460.4 835.5,461.0 836.4,461.9 837.2,459.2 838.1,457.6 838.9,458.8 839.8,460.9 840.6,460.0 841.5,460.3 842.3,459.2 843.2,459.0 844.0,462.5 844.9,458.6 845.7,461.4 846.6,461.9 847.5,463.7 848.3,461.9 849.2,460.7 850.0,460.1 850.9,458.6 851.7,460.2 852.6,460.1 853.4,459.8 854.3,461.2 855.1,458.5 856.0,460.0 856.8,460.7 857.7,459.3 858.6,461.3 859.4,460.4 860.3,461.5 861.1,460.3 862.0,460.3 862.8,459.9 863.7,457.9 864.5,461.9 865.4,460.1 866.2,460.7 867.1,463.5 868.0,457.9 868.8,461.7 869.7,460.4 870.5,458.0 871.4,458.1 872.2,459.0 873.1,457.8 873.9,459.6 874.8,461.3 875.6,458.9 876.5,460.9 877.3,460.0 878.2,459.1 879.1,460.0 879.9,461.3 880.8,459.6 881.6,459.7 882.5,463.6 883.3,461.9 884.2,460.3 885.0,461.5 885.9,462.9 886.7,462.0 887.6,463.1 888.4,459.8 889.3,458.8 890.2,463.6 891.0,462.6 891.9,461.5 892.7,458.8 893.6,460.6 894.4,459.1 895.3,461.2 896.1,461.9 897.0,460.5 897.8,459.5 898.7,459.9 899.5,462.1 900.4,461.0 901.3,460.0 902.1,460.1 903.0,458.4 903.8,460.6 904.7,461.2 905.5,460.9 906.4,461.5 907.2,459.9 908.1,459.7 908.9,459.4 909.8,462.1 910.6,457.6 911.5,459.0 912.4,460.1 913.2,462.1 914.1,461.7 914.9,461.3 915.8,459.8 916.6,458.7 917.5,460.9 918.3,462.5 919.2,460.0 920.0,459.3 920.9,458.1 921.8,459.8 922.6,461.8 923.5,459.0 924.3,456.9 925.2,458.8 926.0,459.3 926.9,461.5 927.7,461.6 928.6,458.9 929.4,460.5 930.3,459.7 931.1,462.9 932.0,461.0" fill="none" stroke="#157f78" stroke-width="2" stroke-opacity="0.78"/>
<polyline points="99.3,369.3 120.7,406.2 142.1,422.6 163.4,431.9 184.8,436.3 206.1,439.8 227.4,442.3 248.8,444.8 270.1,446.1 291.5,447.1 312.9,448.4 334.2,449.8 355.6,450.7 376.9,451.2 398.2,452.2 419.6,452.9 440.9,453.3 462.3,454.2 483.6,454.7 505.0,454.9 526.4,455.5 547.7,456.2 569.0,455.9 590.4,456.9 611.8,457.2 633.1,457.6 654.5,458.2 675.8,458.7 697.1,458.1 718.5,458.6 739.9,458.8 761.2,458.9 782.5,459.6 803.9,460.0 825.2,460.2 846.6,459.6 868.0,460.1 889.3,459.9 910.6,460.0 932.0,460.0" fill="none" stroke="#d4512d" stroke-width="2.6"/>
<g fill="#d4512d"><circle cx="99.3" cy="369.3" r="3.4"/><circle cx="120.7" cy="406.2" r="3.4"/><circle cx="142.1" cy="422.6" r="3.4"/><circle cx="163.4" cy="431.9" r="3.4"/><circle cx="184.8" cy="436.3" r="3.4"/><circle cx="206.1" cy="439.8" r="3.4"/><circle cx="227.4" cy="442.3" r="3.4"/><circle cx="248.8" cy="444.8" r="3.4"/><circle cx="270.1" cy="446.1" r="3.4"/><circle cx="291.5" cy="447.1" r="3.4"/><circle cx="312.9" cy="448.4" r="3.4"/><circle cx="334.2" cy="449.8" r="3.4"/><circle cx="355.6" cy="450.7" r="3.4"/><circle cx="376.9" cy="451.2" r="3.4"/><circle cx="398.2" cy="452.2" r="3.4"/><circle cx="419.6" cy="452.9" r="3.4"/><circle cx="440.9" cy="453.3" r="3.4"/><circle cx="462.3" cy="454.2" r="3.4"/><circle cx="483.6" cy="454.7" r="3.4"/><circle cx="505.0" cy="454.9" r="3.4"/><circle cx="526.4" cy="455.5" r="3.4"/><circle cx="547.7" cy="456.2" r="3.4"/><circle cx="569.0" cy="455.9" r="3.4"/><circle cx="590.4" cy="456.9" r="3.4"/><circle cx="611.8" cy="457.2" r="3.4"/><circle cx="633.1" cy="457.6" r="3.4"/><circle cx="654.5" cy="458.2" r="3.4"/><circle cx="675.8" cy="458.7" r="3.4"/><circle cx="697.1" cy="458.1" r="3.4"/><circle cx="718.5" cy="458.6" r="3.4"/><circle cx="739.9" cy="458.8" r="3.4"/><circle cx="761.2" cy="458.9" r="3.4"/><circle cx="782.5" cy="459.6" r="3.4"/><circle cx="803.9" cy="460.0" r="3.4"/><circle cx="825.2" cy="460.2" r="3.4"/><circle cx="846.6" cy="459.6" r="3.4"/><circle cx="868.0" cy="460.1" r="3.4"/><circle cx="889.3" cy="459.9" r="3.4"/><circle cx="910.6" cy="460.0" r="3.4"/><circle cx="932.0" cy="460.0" r="3.4"/></g>
<line x1="78" y1="476" x2="932" y2="476" stroke="#172a2a"/>
<line x1="78" y1="62" x2="78" y2="476" stroke="#172a2a"/>
<text x="505.0" y="532" text-anchor="middle" font-family="Georgia,serif" font-size="14" fill="#172a2a">Training step</text>
<text x="18" y="269.0" text-anchor="middle" transform="rotate(-90 18 269.0)" font-family="Georgia,serif" font-size="14" fill="#172a2a">Cross-entropy loss</text>
<g font-family="monospace" font-size="12"><line x1="690" y1="27" x2="718" y2="27" stroke="#157f78" stroke-width="2"/><text x="726" y="31" fill="#172a2a">train</text><line x1="790" y1="27" x2="818" y2="27" stroke="#d4512d" stroke-width="2.6"/><text x="826" y="31" fill="#172a2a">validation</text></g>
</svg>