<svg xmlns="http://www.w3.org/2000/svg" width="1040" height="600" viewBox="0 0 1040 600">
<rect width="100%" height="100%" fill="#f7f3e8"/>
<text x="78" y="36" font-family="Georgia,serif" font-size="24" font-weight="700" fill="#172a2a">TinyStories learning-rate sweep</text>
<g stroke="#d8d2c2" stroke-width="1" fill="#53605f" font-family="monospace" font-size="11"><line x1="78.0" y1="62" x2="78.0" y2="536"/><text x="78.0" y="570" text-anchor="middle">0</text><line x1="78" y1="62.0" x2="830" y2="62.0"/><text x="66" y="66.0" text-anchor="end">5.00</text><line x1="228.4" y1="62" x2="228.4" y2="536"/><text x="228.4" y="570" text-anchor="middle">2,000</text><line x1="78" y1="156.8" x2="830" y2="156.8"/><text x="66" y="160.8" text-anchor="end">4.25</text><line x1="378.8" y1="62" x2="378.8" y2="536"/><text x="378.8" y="570" text-anchor="middle">4,000</text><line x1="78" y1="251.6" x2="830" y2="251.6"/><text x="66" y="255.6" text-anchor="end">3.50</text><line x1="529.2" y1="62" x2="529.2" y2="536"/><text x="529.2" y="570" text-anchor="middle">6,000</text><line x1="78" y1="346.4" x2="830" y2="346.4"/><text x="66" y="350.4" text-anchor="end">2.76</text><line x1="679.6" y1="62" x2="679.6" y2="536"/><text x="679.6" y="570" text-anchor="middle">8,000</text><line x1="78" y1="441.2" x2="830" y2="441.2"/><text x="66" y="445.2" text-anchor="end">2.01</text><line x1="830.0" y1="62" x2="830.0" y2="536"/><text x="830.0" y="570" text-anchor="middle">10,000</text><line x1="78" y1="536.0" x2="830" y2="536.0"/><text x="66" y="540.0" text-anchor="end">1.26</text></g>
<polyline points="96.8,278.6 115.6,373.6 134.4,415.8 153.2,439.7 172.0,451.1 190.8,459.9 209.6,466.5 228.4,472.9 247.2,476.1 266.0,478.9 284.8,482.2 303.6,485.7 322.4,488.1 341.2,489.2 360.0,492.0 378.8,493.6 397.6,494.7 416.4,497.0 435.2,498.5 454.0,498.8 472.8,500.3 491.6,502.1 510.4,501.3 529.2,504.0 548.0,504.8 566.8,505.8 585.6,507.4 604.4,508.6 623.2,507.0 642.0,508.5 660.8,508.9 679.6,509.1 698.4,511.0 717.2,512.0 736.0,512.6 754.8,511.1 773.6,512.3 792.4,511.8 811.2,511.9 830.0,512.0" fill="none" stroke="#157f78" stroke-width="2.4"/><polyline points="96.8,62.0 115.6,269.7 134.4,327.8 153.2,356.3 172.0,372.3 190.8,385.6 209.6,395.6 228.4,405.8 247.2,412.1 266.0,417.4 284.8,424.4 303.6,430.2 322.4,434.7 341.2,437.3 360.0,441.9 378.8,444.4 397.6,446.7 416.4,449.5 435.2,451.9 454.0,452.5 472.8,454.7 491.6,456.8 510.4,456.8 529.2,458.5 548.0,459.9 566.8,461.8 585.6,463.0 604.4,464.0 623.2,462.1 642.0,464.1 660.8,464.5 679.6,465.0 698.4,466.6 717.2,468.0 736.0,468.1 754.8,466.2 773.6,467.8 792.4,467.0 811.2,467.2 830.0,467.2" fill="none" stroke="#d4512d" stroke-width="2.4"/><polyline points="96.8,327.2 115.6,404.6 134.4,441.0 153.2,457.5 172.0,465.9 190.8,472.4 209.6,477.2 228.4,482.8 247.2,485.0 266.0,487.0 284.8,489.9 303.6,493.3 322.4,495.4 341.2,496.3 360.0,499.0 378.8,500.3 397.6,501.3 416.4,503.6 435.2,504.9 454.0,505.5 472.8,506.8 491.6,508.5 510.4,508.0 529.2,510.5 548.0,511.6 566.8,512.6 585.6,514.3 604.4,515.6 623.2,513.9 642.0,515.5 660.8,516.3 679.6,516.5 698.4,518.4 717.2,519.4 736.0,520.1 754.8,518.9 773.6,520.0 792.4,519.7 811.2,519.6 830.0,519.8" fill="none" stroke="#315c9b" stroke-width="2.4"/><polyline points="96.8,397.3 115.6,424.3 134.4,452.4 153.2,465.0 172.0,469.6 190.8,474.1 209.6,476.8 228.4,480.9 247.2,481.9 266.0,483.3 284.8,484.4 303.6,487.3 322.4,488.8 341.2,489.3 360.0,491.4 378.8,492.4 397.6,493.7 416.4,495.8 435.2,497.1 454.0,497.8 472.8,499.4 491.6,501.4 510.4,501.2 529.2,504.3 548.0,505.6 566.8,507.5 585.6,509.9 604.4,511.8 623.2,511.1 642.0,513.3 660.8,514.7 679.6,515.8 698.4,518.5 717.2,520.2 736.0,521.4 754.8,521.0 773.6,522.7 792.4,522.7 811.2,523.0 830.0,523.3" fill="none" stroke="#9a6b16" stroke-width="2.4"/><polyline points="96.8,180.4 115.6,135.5 134.4,109.6 153.2,136.7 172.0,80.9 190.8,104.3 209.6,111.0 228.4,92.0 247.2,77.6 266.0,102.5 284.8,90.9 303.6,92.5 322.4,130.3 341.2,114.2 360.0,105.7 378.8,127.8 397.6,128.0 416.4,125.2 435.2,157.1 454.0,165.2 472.8,167.5 491.6,195.8 510.4,194.5 529.2,212.4 548.0,213.1 566.8,249.0 585.6,258.7 604.4,281.8 623.2,282.8 642.0,297.9 660.8,313.8 679.6,328.3 698.4,339.4 717.2,354.4 736.0,368.0 754.8,382.9 773.6,400.0 792.4,413.8 811.2,426.2 830.0,437.8" fill="none" stroke="#7b4d8e" stroke-width="2.4"/>
<line x1="78" y1="536" x2="830" y2="536" stroke="#172a2a"/>
<line x1="78" y1="62" x2="78" y2="536" stroke="#172a2a"/>
<text x="454.0" y="592" text-anchor="middle" font-family="Georgia,serif" font-size="14" fill="#172a2a">Training step</text>
<text x="18" y="299.0" text-anchor="middle" transform="rotate(-90 18 299.0)" font-family="Georgia,serif" font-size="14" fill="#172a2a">Validation loss</text>
<g font-family="monospace" font-size="12"><line x1="858" y1="92" x2="888" y2="92" stroke="#157f78" stroke-width="3"/><text x="898" y="96" fill="#172a2a">baseline</text><line x1="858" y1="120" x2="888" y2="120" stroke="#d4512d" stroke-width="3"/><text x="898" y="124" fill="#172a2a">lr_1e-4</text><line x1="858" y1="148" x2="888" y2="148" stroke="#315c9b" stroke-width="3"/><text x="898" y="152" fill="#172a2a">lr_1e-3</text><line x1="858" y1="176" x2="888" y2="176" stroke="#9a6b16" stroke-width="3"/><text x="898" y="180" fill="#172a2a">lr_1e-2</text><line x1="858" y1="204" x2="888" y2="204" stroke="#7b4d8e" stroke-width="3"/><text x="898" y="208" fill="#172a2a">lr_1e-1</text></g>
</svg>