<svg xmlns="http://www.w3.org/2000/svg" width="1040" height="600" viewBox="0 0 1040 600">
<rect width="100%" height="100%" fill="#f7f3e8"/>
<text x="78" y="36" font-family="Georgia,serif" font-size="24" font-weight="700" fill="#172a2a">TinyStories batch-size comparison</text>
<g stroke="#d8d2c2" stroke-width="1" fill="#53605f" font-family="monospace" font-size="11"><line x1="78.0" y1="62" x2="78.0" y2="536"/><text x="78.0" y="570" text-anchor="middle">0</text><line x1="78" y1="62.0" x2="830" y2="62.0"/><text x="66" y="66.0" text-anchor="end">4.55</text><line x1="228.4" y1="62" x2="228.4" y2="536"/><text x="228.4" y="570" text-anchor="middle">2,000</text><line x1="78" y1="156.8" x2="830" y2="156.8"/><text x="66" y="160.8" text-anchor="end">3.90</text><line x1="378.8" y1="62" x2="378.8" y2="536"/><text x="378.8" y="570" text-anchor="middle">4,000</text><line x1="78" y1="251.6" x2="830" y2="251.6"/><text x="66" y="255.6" text-anchor="end">3.24</text><line x1="529.2" y1="62" x2="529.2" y2="536"/><text x="529.2" y="570" text-anchor="middle">6,000</text><line x1="78" y1="346.4" x2="830" y2="346.4"/><text x="66" y="350.4" text-anchor="end">2.59</text><line x1="679.6" y1="62" x2="679.6" y2="536"/><text x="679.6" y="570" text-anchor="middle">8,000</text><line x1="78" y1="441.2" x2="830" y2="441.2"/><text x="66" y="445.2" text-anchor="end">1.94</text><line x1="830.0" y1="62" x2="830.0" y2="536"/><text x="830.0" y="570" text-anchor="middle">10,000</text><line x1="78" y1="536.0" x2="830" y2="536.0"/><text x="66" y="540.0" text-anchor="end">1.29</text></g>
<polyline points="96.8,76.5 115.6,142.0 134.4,192.1 153.2,205.3 172.0,215.1 190.8,238.8 209.6,215.3 228.4,222.4 247.2,236.8 266.0,241.0 284.8,243.6 303.6,269.6 322.4,268.7 341.2,266.5 360.0,286.4 378.8,304.3 397.6,281.7 416.4,274.6 435.2,266.3 454.0,278.2 472.8,290.3 491.6,315.0 510.4,329.7 529.2,283.7 548.0,291.5 566.8,301.9 585.6,328.3 604.4,318.8 623.2,342.0 642.0,314.6 660.8,304.1 679.6,298.8 698.4,342.2 717.2,325.8 736.0,315.3 754.8,293.8 773.6,302.1 792.4,316.7 811.2,332.7 830.0,331.0" fill="none" stroke="#157f78" stroke-width="2.4"/><polyline points="96.8,227.0 115.6,334.3 134.4,377.0 153.2,405.9 172.0,422.4 190.8,433.2 209.6,442.9 228.4,449.8 247.2,454.4 266.0,457.4 284.8,464.2 303.6,467.0 322.4,471.8 341.2,470.7 360.0,473.7 378.8,478.4 397.6,481.8 416.4,480.7 435.2,481.2 454.0,481.6 472.8,485.8 491.6,487.9 510.4,488.2 529.2,489.3 548.0,491.2 566.8,492.8 585.6,496.1 604.4,495.1 623.2,496.0 642.0,500.3 660.8,498.3 679.6,498.5 698.4,499.4 717.2,498.3 736.0,502.5 754.8,502.2 773.6,503.1 792.4,502.3 811.2,500.1 830.0,502.3" fill="none" stroke="#d4512d" stroke-width="2.4"/><polyline points="96.8,244.6 115.6,353.6 134.4,401.9 153.2,429.4 172.0,442.5 190.8,452.6 209.6,460.1 228.4,467.5 247.2,471.2 266.0,474.3 284.8,478.1 303.6,482.2 322.4,484.9 341.2,486.2 360.0,489.4 378.8,491.2 397.6,492.5 416.4,495.1 435.2,496.8 454.0,497.2 472.8,499.0 491.6,501.0 510.4,500.1 529.2,503.1 548.0,504.1 566.8,505.2 585.6,507.0 604.4,508.4 623.2,506.6 642.0,508.3 660.8,508.8 679.6,509.1 698.4,511.1 717.2,512.4 736.0,513.0 754.8,511.3 773.6,512.7 792.4,512.1 811.2,512.2 830.0,512.4" fill="none" stroke="#315c9b" stroke-width="2.4"/><polyline points="96.8,258.8 115.6,368.5 134.4,419.0 153.2,444.3 172.0,457.0 190.8,467.4 209.6,472.9 228.4,479.9 247.2,483.4 266.0,487.7 284.8,491.9 303.6,493.1 322.4,496.1 341.2,499.5 360.0,500.4 378.8,500.5 397.6,504.4 416.4,504.7 435.2,506.3 454.0,506.5 472.8,507.9 491.6,510.3 510.4,512.1 529.2,512.4 548.0,512.3 566.8,514.9 585.6,513.5 604.4,515.5 623.2,515.2 642.0,517.3 660.8,517.9 679.6,517.9 698.4,517.6 717.2,519.5 736.0,519.9 754.8,518.8 773.6,521.2 792.4,519.4 811.2,521.0 830.0,521.5" fill="none" stroke="#9a6b16" stroke-width="2.4"/>
<line x1="78" y1="536" x2="830" y2="536" stroke="#172a2a"/>
<line x1="78" y1="62" x2="78" y2="536" stroke="#172a2a"/>
<text x="454.0" y="592" text-anchor="middle" font-family="Georgia,serif" font-size="14" fill="#172a2a">Training step</text>
<text x="18" y="299.0" text-anchor="middle" transform="rotate(-90 18 299.0)" font-family="Georgia,serif" font-size="14" fill="#172a2a">Validation loss</text>
<g font-family="monospace" font-size="12"><line x1="858" y1="92" x2="888" y2="92" stroke="#157f78" stroke-width="3"/><text x="898" y="96" fill="#172a2a">batch_1</text><line x1="858" y1="120" x2="888" y2="120" stroke="#d4512d" stroke-width="3"/><text x="898" y="124" fill="#172a2a">batch_64</text><line x1="858" y1="148" x2="888" y2="148" stroke="#315c9b" stroke-width="3"/><text x="898" y="152" fill="#172a2a">baseline_128</text><line x1="858" y1="176" x2="888" y2="176" stroke="#9a6b16" stroke-width="3"/><text x="898" y="180" fill="#172a2a">batch_256</text></g>
</svg>