<svg xmlns="http://www.w3.org/2000/svg" width="880" height="500" viewBox="0 0 880 500">
<rect width="100%" height="100%" fill="#fff"/>
<text x="82" y="30" font-family="Arial" font-size="20" font-weight="700">Architecture ablations at step 2k</text>
<line x1="82" y1="50.0" x2="810" y2="50.0" stroke="#e5e7eb"/>
<text x="72" y="54.0" text-anchor="end" font-family="Arial" font-size="12" fill="#4b5563">2.40</text>
<line x1="82" y1="119.0" x2="810" y2="119.0" stroke="#e5e7eb"/>
<text x="72" y="123.0" text-anchor="end" font-family="Arial" font-size="12" fill="#4b5563">2.27</text>
<line x1="82" y1="188.0" x2="810" y2="188.0" stroke="#e5e7eb"/>
<text x="72" y="192.0" text-anchor="end" font-family="Arial" font-size="12" fill="#4b5563">2.14</text>
<line x1="82" y1="257.0" x2="810" y2="257.0" stroke="#e5e7eb"/>
<text x="72" y="261.0" text-anchor="end" font-family="Arial" font-size="12" fill="#4b5563">2.01</text>
<line x1="82" y1="326.0" x2="810" y2="326.0" stroke="#e5e7eb"/>
<text x="72" y="330.0" text-anchor="end" font-family="Arial" font-size="12" fill="#4b5563">1.88</text>
<line x1="82" y1="395.0" x2="810" y2="395.0" stroke="#e5e7eb"/>
<text x="72" y="399.0" text-anchor="end" font-family="Arial" font-size="12" fill="#4b5563">1.75</text>
<rect x="100.0" y="308.5" width="124.0" height="86.5" fill="#2563eb" rx="3"/>
<text x="162.0" y="300.5" text-anchor="middle" font-family="Arial" font-size="12" fill="#111827">1.9130</text>
<text x="162.0" y="419" text-anchor="middle" font-family="Arial" font-size="12" fill="#111827">baseline</text>
<rect x="242.0" y="232.5" width="124.0" height="162.5" fill="#9333ea" rx="3"/>
<text x="304.0" y="224.5" text-anchor="middle" font-family="Arial" font-size="12" fill="#111827">2.0560</text>
<text x="304.0" y="419" text-anchor="middle" font-family="Arial" font-size="12" fill="#111827">no RMSNorm</text>
<rect x="384.0" y="259.0" width="124.0" height="136.0" fill="#f59e0b" rx="3"/>
<text x="446.0" y="251.0" text-anchor="middle" font-family="Arial" font-size="12" fill="#111827">2.0062</text>
<text x="446.0" y="419" text-anchor="middle" font-family="Arial" font-size="12" fill="#111827">post-norm</text>
<rect x="526.0" y="186.5" width="124.0" height="208.5" fill="#dc2626" rx="3"/>
<text x="588.0" y="178.5" text-anchor="middle" font-family="Arial" font-size="12" fill="#111827">2.1427</text>
<text x="588.0" y="419" text-anchor="middle" font-family="Arial" font-size="12" fill="#111827">NoPE</text>
<rect x="668.0" y="222.9" width="124.0" height="172.1" fill="#059669" rx="3"/>
<text x="730.0" y="214.9" text-anchor="middle" font-family="Arial" font-size="12" fill="#111827">2.0742</text>
<text x="730.0" y="419" text-anchor="middle" font-family="Arial" font-size="12" fill="#111827">SiLU FFN</text>
<line x1="82" y1="395" x2="810" y2="395" stroke="#111827"/>
<line x1="82" y1="50" x2="82" y2="395" stroke="#111827"/>
<text transform="translate(24 222.5) rotate(-90)" text-anchor="middle" font-family="Arial" font-size="14">validation loss</text>
</svg>
