<svg xmlns="http://www.w3.org/2000/svg" width="820" height="500" viewBox="0 0 820 500">
<rect width="100%" height="100%" fill="white"/>
<text x="80" y="28" font-family="Arial" font-size="20" font-weight="700">TinyStories best runs over time</text>
<line x1="80" y1="430.0" x2="600" y2="430.0" stroke="#e5e7eb"/>
<text x="70" y="434.0" text-anchor="end" font-family="Arial" font-size="12" fill="#374151">1.24</text>
<line x1="80" y1="355.0" x2="600" y2="355.0" stroke="#e5e7eb"/>
<text x="70" y="359.0" text-anchor="end" font-family="Arial" font-size="12" fill="#374151">1.64</text>
<line x1="80" y1="280.0" x2="600" y2="280.0" stroke="#e5e7eb"/>
<text x="70" y="284.0" text-anchor="end" font-family="Arial" font-size="12" fill="#374151">2.04</text>
<line x1="80" y1="205.0" x2="600" y2="205.0" stroke="#e5e7eb"/>
<text x="70" y="209.0" text-anchor="end" font-family="Arial" font-size="12" fill="#374151">2.43</text>
<line x1="80" y1="130.0" x2="600" y2="130.0" stroke="#e5e7eb"/>
<text x="70" y="134.0" text-anchor="end" font-family="Arial" font-size="12" fill="#374151">2.83</text>
<line x1="80" y1="55.0" x2="600" y2="55.0" stroke="#e5e7eb"/>
<text x="70" y="59.0" text-anchor="end" font-family="Arial" font-size="12" fill="#374151">3.23</text>
<line x1="80.0" y1="55" x2="80.0" y2="430" stroke="#f3f4f6"/>
<text x="80.0" y="452" text-anchor="middle" font-family="Arial" font-size="12" fill="#374151">181.1</text>
<line x1="184.0" y1="55" x2="184.0" y2="430" stroke="#f3f4f6"/>
<text x="184.0" y="452" text-anchor="middle" font-family="Arial" font-size="12" fill="#374151">873.3</text>
<line x1="288.0" y1="55" x2="288.0" y2="430" stroke="#f3f4f6"/>
<text x="288.0" y="452" text-anchor="middle" font-family="Arial" font-size="12" fill="#374151">1566</text>
<line x1="392.0" y1="55" x2="392.0" y2="430" stroke="#f3f4f6"/>
<text x="392.0" y="452" text-anchor="middle" font-family="Arial" font-size="12" fill="#374151">2258</text>
<line x1="496.0" y1="55" x2="496.0" y2="430" stroke="#f3f4f6"/>
<text x="496.0" y="452" text-anchor="middle" font-family="Arial" font-size="12" fill="#374151">2950</text>
<line x1="600.0" y1="55" x2="600.0" y2="430" stroke="#f3f4f6"/>
<text x="600.0" y="452" text-anchor="middle" font-family="Arial" font-size="12" fill="#374151">3642</text>
<line x1="80" y1="55" x2="80" y2="430" stroke="#111827"/>
<line x1="80" y1="430" x2="600" y2="430" stroke="#111827"/>
<text x="340.0" y="482" text-anchor="middle" font-family="Arial" font-size="14">wall-clock seconds</text>
<text transform="translate(22 242.5) rotate(-90)" text-anchor="middle" font-family="Arial" font-size="14">loss</text>
<polyline fill="none" stroke="#2563eb" stroke-width="2.4" points="80.0,80.9 107.1,217.6 134.3,274.9 161.4,303.1 188.6,320.0 215.7,331.3 242.9,340.9 270.0,346.8 297.1,352.7 324.2,359.7 351.4,362.8 378.5,365.2 405.6,368.7 432.7,371.3 459.9,374.2 486.9,375.6 514.1,376.6 541.2,376.4 568.4,378.1 595.4,379.3"/>
<circle cx="80.0" cy="80.9" r="3" fill="#2563eb"/>
<circle cx="107.1" cy="217.6" r="3" fill="#2563eb"/>
<circle cx="134.3" cy="274.9" r="3" fill="#2563eb"/>
<circle cx="161.4" cy="303.1" r="3" fill="#2563eb"/>
<circle cx="188.6" cy="320.0" r="3" fill="#2563eb"/>
<circle cx="215.7" cy="331.3" r="3" fill="#2563eb"/>
<circle cx="242.9" cy="340.9" r="3" fill="#2563eb"/>
<circle cx="270.0" cy="346.8" r="3" fill="#2563eb"/>
<circle cx="297.1" cy="352.7" r="3" fill="#2563eb"/>
<circle cx="324.2" cy="359.7" r="3" fill="#2563eb"/>
<circle cx="351.4" cy="362.8" r="3" fill="#2563eb"/>
<circle cx="378.5" cy="365.2" r="3" fill="#2563eb"/>
<circle cx="405.6" cy="368.7" r="3" fill="#2563eb"/>
<circle cx="432.7" cy="371.3" r="3" fill="#2563eb"/>
<circle cx="459.9" cy="374.2" r="3" fill="#2563eb"/>
<circle cx="486.9" cy="375.6" r="3" fill="#2563eb"/>
<circle cx="514.1" cy="376.6" r="3" fill="#2563eb"/>
<circle cx="541.2" cy="376.4" r="3" fill="#2563eb"/>
<circle cx="568.4" cy="378.1" r="3" fill="#2563eb"/>
<circle cx="595.4" cy="379.3" r="3" fill="#2563eb"/>
<line x1="624" y1="68" x2="652" y2="68" stroke="#2563eb" stroke-width="3"/>
<text x="660" y="73" font-family="Arial" font-size="13" fill="#111827">3e-4, 10k</text>
<polyline fill="none" stroke="#dc2626" stroke-width="2.4" points="80.0,191.6 107.1,288.3 134.3,321.7 161.5,339.7 189.0,351.3 218.0,359.6 245.6,366.8 273.1,371.9 300.7,376.9 327.9,383.0 355.2,385.8 382.4,388.3 409.7,391.8 436.9,394.6 464.1,397.5 491.3,399.6 518.5,401.0 545.6,401.0 572.8,403.1 600.0,404.1"/>
<circle cx="80.0" cy="191.6" r="3" fill="#dc2626"/>
<circle cx="107.1" cy="288.3" r="3" fill="#dc2626"/>
<circle cx="134.3" cy="321.7" r="3" fill="#dc2626"/>
<circle cx="161.5" cy="339.7" r="3" fill="#dc2626"/>
<circle cx="189.0" cy="351.3" r="3" fill="#dc2626"/>
<circle cx="218.0" cy="359.6" r="3" fill="#dc2626"/>
<circle cx="245.6" cy="366.8" r="3" fill="#dc2626"/>
<circle cx="273.1" cy="371.9" r="3" fill="#dc2626"/>
<circle cx="300.7" cy="376.9" r="3" fill="#dc2626"/>
<circle cx="327.9" cy="383.0" r="3" fill="#dc2626"/>
<circle cx="355.2" cy="385.8" r="3" fill="#dc2626"/>
<circle cx="382.4" cy="388.3" r="3" fill="#dc2626"/>
<circle cx="409.7" cy="391.8" r="3" fill="#dc2626"/>
<circle cx="436.9" cy="394.6" r="3" fill="#dc2626"/>
<circle cx="464.1" cy="397.5" r="3" fill="#dc2626"/>
<circle cx="491.3" cy="399.6" r="3" fill="#dc2626"/>
<circle cx="518.5" cy="401.0" r="3" fill="#dc2626"/>
<circle cx="545.6" cy="401.0" r="3" fill="#dc2626"/>
<circle cx="572.8" cy="403.1" r="3" fill="#dc2626"/>
<circle cx="600.0" cy="404.1" r="3" fill="#dc2626"/>
<line x1="624" y1="92" x2="652" y2="92" stroke="#dc2626" stroke-width="3"/>
<text x="660" y="97" font-family="Arial" font-size="13" fill="#111827">1e-3, 10k</text>
</svg>