<svg xmlns="http://www.w3.org/2000/svg" width="820" height="500" viewBox="0 0 820 500">
<rect width="100%" height="100%" fill="white"/>
<text x="80" y="28" font-family="Arial" font-size="20" font-weight="700">TinyStories best run</text>
<line x1="80" y1="430.0" x2="600" y2="430.0" stroke="#e5e7eb"/>
<text x="70" y="434.0" text-anchor="end" font-family="Arial" font-size="12" fill="#374151">1.29</text>
<line x1="80" y1="355.0" x2="600" y2="355.0" stroke="#e5e7eb"/>
<text x="70" y="359.0" text-anchor="end" font-family="Arial" font-size="12" fill="#374151">1.55</text>
<line x1="80" y1="280.0" x2="600" y2="280.0" stroke="#e5e7eb"/>
<text x="70" y="284.0" text-anchor="end" font-family="Arial" font-size="12" fill="#374151">1.81</text>
<line x1="80" y1="205.0" x2="600" y2="205.0" stroke="#e5e7eb"/>
<text x="70" y="209.0" text-anchor="end" font-family="Arial" font-size="12" fill="#374151">2.07</text>
<line x1="80" y1="130.0" x2="600" y2="130.0" stroke="#e5e7eb"/>
<text x="70" y="134.0" text-anchor="end" font-family="Arial" font-size="12" fill="#374151">2.33</text>
<line x1="80" y1="55.0" x2="600" y2="55.0" stroke="#e5e7eb"/>
<text x="70" y="59.0" text-anchor="end" font-family="Arial" font-size="12" fill="#374151">2.59</text>
<line x1="80.0" y1="55" x2="80.0" y2="430" stroke="#f3f4f6"/>
<text x="80.0" y="452" text-anchor="middle" font-family="Arial" font-size="12" fill="#374151">500.0</text>
<line x1="184.0" y1="55" x2="184.0" y2="430" stroke="#f3f4f6"/>
<text x="184.0" y="452" text-anchor="middle" font-family="Arial" font-size="12" fill="#374151">2400</text>
<line x1="288.0" y1="55" x2="288.0" y2="430" stroke="#f3f4f6"/>
<text x="288.0" y="452" text-anchor="middle" font-family="Arial" font-size="12" fill="#374151">4300</text>
<line x1="392.0" y1="55" x2="392.0" y2="430" stroke="#f3f4f6"/>
<text x="392.0" y="452" text-anchor="middle" font-family="Arial" font-size="12" fill="#374151">6200</text>
<line x1="496.0" y1="55" x2="496.0" y2="430" stroke="#f3f4f6"/>
<text x="496.0" y="452" text-anchor="middle" font-family="Arial" font-size="12" fill="#374151">8100</text>
<line x1="600.0" y1="55" x2="600.0" y2="430" stroke="#f3f4f6"/>
<text x="600.0" y="452" text-anchor="middle" font-family="Arial" font-size="12" fill="#374151">10000</text>
<line x1="80" y1="55" x2="80" y2="430" stroke="#111827"/>
<line x1="80" y1="430" x2="600" y2="430" stroke="#111827"/>
<text x="340.0" y="482" text-anchor="middle" font-family="Arial" font-size="14">gradient step</text>
<text transform="translate(22 242.5) rotate(-90)" text-anchor="middle" font-family="Arial" font-size="14">loss</text>
<polyline fill="none" stroke="#2563eb" stroke-width="2.4" points="80.0,80.9 107.4,228.0 134.7,278.7 162.1,306.1 189.5,323.7 216.8,336.5 244.2,347.4 271.6,355.1 298.9,362.7 326.3,372.0 353.7,376.2 381.1,380.1 408.4,385.4 435.8,389.7 463.2,394.0 490.5,397.2 517.9,399.4 545.3,399.4 572.6,402.6 600.0,404.1"/>
<circle cx="80.0" cy="80.9" r="3" fill="#2563eb"/>
<circle cx="107.4" cy="228.0" r="3" fill="#2563eb"/>
<circle cx="134.7" cy="278.7" r="3" fill="#2563eb"/>
<circle cx="162.1" cy="306.1" r="3" fill="#2563eb"/>
<circle cx="189.5" cy="323.7" r="3" fill="#2563eb"/>
<circle cx="216.8" cy="336.5" r="3" fill="#2563eb"/>
<circle cx="244.2" cy="347.4" r="3" fill="#2563eb"/>
<circle cx="271.6" cy="355.1" r="3" fill="#2563eb"/>
<circle cx="298.9" cy="362.7" r="3" fill="#2563eb"/>
<circle cx="326.3" cy="372.0" r="3" fill="#2563eb"/>
<circle cx="353.7" cy="376.2" r="3" fill="#2563eb"/>
<circle cx="381.1" cy="380.1" r="3" fill="#2563eb"/>
<circle cx="408.4" cy="385.4" r="3" fill="#2563eb"/>
<circle cx="435.8" cy="389.7" r="3" fill="#2563eb"/>
<circle cx="463.2" cy="394.0" r="3" fill="#2563eb"/>
<circle cx="490.5" cy="397.2" r="3" fill="#2563eb"/>
<circle cx="517.9" cy="399.4" r="3" fill="#2563eb"/>
<circle cx="545.3" cy="399.4" r="3" fill="#2563eb"/>
<circle cx="572.6" cy="402.6" r="3" fill="#2563eb"/>
<circle cx="600.0" cy="404.1" r="3" fill="#2563eb"/>
<line x1="624" y1="68" x2="652" y2="68" stroke="#2563eb" stroke-width="3"/>
<text x="660" y="73" font-family="Arial" font-size="13" fill="#111827">lr=1e-3, batch=128</text>
</svg>