<svg xmlns="http://www.w3.org/2000/svg" width="820" height="500" viewBox="0 0 820 500">
<rect width="100%" height="100%" fill="#ffffff"/>
<text x="80" y="28" font-family="Arial" font-size="20" font-weight="700">Training loss overview</text>
<line x1="80" y1="48.0" x2="660" y2="48.0" stroke="#e5e7eb"/>
<text x="70" y="52.0" text-anchor="end" font-family="Arial" font-size="12" fill="#4b5563">11.11</text>
<line x1="80" y1="124.4" x2="660" y2="124.4" stroke="#e5e7eb"/>
<text x="70" y="128.4" text-anchor="end" font-family="Arial" font-size="12" fill="#4b5563">9.01</text>
<line x1="80" y1="200.8" x2="660" y2="200.8" stroke="#e5e7eb"/>
<text x="70" y="204.8" text-anchor="end" font-family="Arial" font-size="12" fill="#4b5563">6.91</text>
<line x1="80" y1="277.2" x2="660" y2="277.2" stroke="#e5e7eb"/>
<text x="70" y="281.2" text-anchor="end" font-family="Arial" font-size="12" fill="#4b5563">4.81</text>
<line x1="80" y1="353.6" x2="660" y2="353.6" stroke="#e5e7eb"/>
<text x="70" y="357.6" text-anchor="end" font-family="Arial" font-size="12" fill="#4b5563">2.71</text>
<line x1="80" y1="430.0" x2="660" y2="430.0" stroke="#e5e7eb"/>
<text x="70" y="434.0" text-anchor="end" font-family="Arial" font-size="12" fill="#4b5563">0.61</text>
<text x="80.0" y="454" text-anchor="middle" font-family="Arial" font-size="12" fill="#4b5563">1</text>
<text x="196.0" y="454" text-anchor="middle" font-family="Arial" font-size="12" fill="#4b5563">2000</text>
<text x="312.0" y="454" text-anchor="middle" font-family="Arial" font-size="12" fill="#4b5563">4000</text>
<text x="428.0" y="454" text-anchor="middle" font-family="Arial" font-size="12" fill="#4b5563">6000</text>
<text x="544.0" y="454" text-anchor="middle" font-family="Arial" font-size="12" fill="#4b5563">8000</text>
<text x="660.0" y="454" text-anchor="middle" font-family="Arial" font-size="12" fill="#4b5563">10000</text>
<line x1="80" y1="430" x2="660" y2="430" stroke="#111827"/>
<line x1="80" y1="48" x2="80" y2="430" stroke="#111827"/>
<text x="370.0" y="482" text-anchor="middle" font-family="Arial" font-size="14">gradient step</text>
<text transform="translate(22 239.0) rotate(-90)" text-anchor="middle" font-family="Arial" font-size="14">loss</text>
<polyline points="80.0,115.5 85.7,243.7 91.5,319.4 97.3,340.2 103.1,352.5 108.9,360.4 114.7,366.5 120.5,372.0 126.3,374.6 132.1,376.2 137.9,378.8 143.7,382.4 149.5,384.0 155.3,383.4 161.2,384.4 167.0,386.1 172.8,387.9 178.6,386.3 184.4,389.7 190.2,391.6 196.0,389.2 201.8,391.3 207.6,390.5 213.4,389.9 219.2,392.3 225.0,392.7 230.8,393.2 236.6,392.3 242.4,393.5 248.2,393.6 254.0,391.7 259.8,394.5 265.6,394.7 271.4,394.1 277.2,393.1 283.0,394.8 288.8,395.6 294.6,394.0 300.4,396.4 306.2,397.8 312.0,396.5 317.8,394.9 323.6,397.9 329.4,395.5 335.2,395.9 341.0,396.3 346.8,395.1 352.6,397.5 358.4,396.9 364.2,398.0 370.0,398.5 375.8,397.0 381.6,397.3 387.4,400.2 393.2,399.4 399.0,399.8 404.8,398.1 410.6,398.5 416.4,397.5 422.2,397.7 428.0,401.0 433.8,399.6 439.6,400.4 445.4,398.4 451.2,400.9 457.0,400.9 462.8,399.9 468.6,400.1 474.4,398.1 480.2,401.5 486.0,399.9 491.8,399.9 497.6,398.9 503.4,400.8 509.2,400.1 515.0,400.5 520.8,400.4 526.6,400.8 532.4,399.1 538.2,401.4 544.0,401.6 549.8,402.2 555.6,401.6 561.4,400.8 567.2,402.1 573.0,402.6 578.8,402.4 584.6,401.2 590.4,402.4 596.2,401.7 602.0,400.2 607.8,402.1 613.6,401.5 619.4,401.2 625.2,401.5 631.0,403.7 636.8,402.1 642.6,402.7 648.4,402.5 654.2,402.1 660.0,401.5" fill="none" stroke="#16a34a" stroke-width="2.5" stroke-linejoin="round" stroke-linecap="round"/>
<circle cx="660.0" cy="401.5" r="3.5" fill="#16a34a"/>
<line x1="660" y1="68" x2="690" y2="68" stroke="#16a34a" stroke-width="3"/>
<text x="696" y="72" font-family="Arial" font-size="13" fill="#111827">TinyStories best</text>
<polyline points="80.0,74.3 85.7,107.4 91.5,170.1 97.3,192.2 103.1,211.8 108.9,221.4 114.7,231.3 120.5,236.5 126.3,242.4 132.1,249.5 137.9,250.2 143.7,254.3 149.5,255.8 155.3,258.6 161.2,262.0 167.0,264.3 172.8,266.3 178.6,269.6 184.4,270.7 190.2,271.6 196.0,273.6 201.8,274.3 207.6,275.0 213.4,276.9 219.2,277.8 225.0,277.5 230.8,279.5 236.6,278.7 242.4,278.9 248.2,281.9 254.0,281.0 259.8,279.6 265.6,285.0 271.4,283.4 277.2,283.7 283.0,282.0 288.8,284.9 294.6,287.2 300.4,285.2 306.2,285.4 312.0,285.4 317.8,288.7 323.6,287.8 329.4,289.3 335.2,287.1 341.0,290.7 346.8,289.8 352.6,288.1 358.4,293.6 364.2,289.0 370.0,288.2 375.8,289.8 381.6,293.3 387.4,292.8 393.2,293.4 399.0,290.4 404.8,292.5 410.6,290.9 416.4,293.1 422.2,295.0 428.0,292.3 433.8,294.0 439.6,296.2 445.4,294.2 451.2,293.5 457.0,295.8 462.8,296.9 468.6,291.0 474.4,296.2 480.2,297.9 486.0,294.5 491.8,293.8 497.6,294.4 503.4,296.1 509.2,296.8 515.0,293.1 520.8,296.0 526.6,299.1 532.4,295.4 538.2,297.0 544.0,296.2 549.8,296.8 555.6,295.5 561.4,294.5 567.2,298.7 573.0,296.2 578.8,297.6 584.6,296.1 590.4,296.6 596.2,295.2 602.0,297.7 607.8,295.4 613.6,298.7 619.4,296.7 625.2,296.2 631.0,296.6 636.8,296.7 642.6,296.1 648.4,299.1 654.2,296.6 660.0,299.3" fill="none" stroke="#2563eb" stroke-width="2.5" stroke-linejoin="round" stroke-linecap="round"/>
<circle cx="660.0" cy="299.3" r="3.5" fill="#2563eb"/>
<line x1="660" y1="92" x2="690" y2="92" stroke="#2563eb" stroke-width="3"/>
<text x="696" y="96" font-family="Arial" font-size="13" fill="#111827">OWT full</text>
</svg>
