<?xml version="1.0" encoding="UTF-8"?>
<svg xmlns="http://www.w3.org/2000/svg" width="1000" height="720" viewBox="0 0 1000 720">
<style>
text { font-family: ui-sans-serif, system-ui, sans-serif; fill: #172033; }
.grid { stroke: #d8dee9; stroke-width: 1; }
.axis { stroke: #475569; stroke-width: 1.4; }
.series { fill: none; stroke-width: 2; stroke-linejoin: round; stroke-linecap: round; }
</style>
<defs><clipPath id="plot-area"><rect x="90.0" y="65.0" width="880.0" height="425.0"/></clipPath></defs>
<rect width="100%" height="100%" fill="#ffffff"/>
<text x="500.00" y="32.00" text-anchor="middle" font-size="20" font-weight="600">TinyStories architecture ablations</text>
<line class="grid" x1="90.00" y1="65.0" x2="90.00" y2="490.0"/>
<text x="90.00" y="514.00" text-anchor="middle" font-size="12">3.3e+02K</text>
<line class="grid" x1="90.0" y1="490.00" x2="970.0" y2="490.00"/>
<text x="78.00" y="494.00" text-anchor="end" font-size="12">1.5</text>
<line class="grid" x1="266.00" y1="65.0" x2="266.00" y2="490.0"/>
<text x="266.00" y="514.00" text-anchor="middle" font-size="12">6.8M</text>
<line class="grid" x1="90.0" y1="405.00" x2="970.0" y2="405.00"/>
<text x="78.00" y="409.00" text-anchor="end" font-size="12">4.2</text>
<line class="grid" x1="442.00" y1="65.0" x2="442.00" y2="490.0"/>
<text x="442.00" y="514.00" text-anchor="middle" font-size="12">13M</text>
<line class="grid" x1="90.0" y1="320.00" x2="970.0" y2="320.00"/>
<text x="78.00" y="324.00" text-anchor="end" font-size="12">6.9</text>
<line class="grid" x1="618.00" y1="65.0" x2="618.00" y2="490.0"/>
<text x="618.00" y="514.00" text-anchor="middle" font-size="12">20M</text>
<line class="grid" x1="90.0" y1="235.00" x2="970.0" y2="235.00"/>
<text x="78.00" y="239.00" text-anchor="end" font-size="12">9.6</text>
<line class="grid" x1="794.00" y1="65.0" x2="794.00" y2="490.0"/>
<text x="794.00" y="514.00" text-anchor="middle" font-size="12">26M</text>
<line class="grid" x1="90.0" y1="150.00" x2="970.0" y2="150.00"/>
<text x="78.00" y="154.00" text-anchor="end" font-size="12">12</text>
<line class="grid" x1="970.00" y1="65.0" x2="970.00" y2="490.0"/>
<text x="970.00" y="514.00" text-anchor="middle" font-size="12">33M</text>
<line class="grid" x1="90.0" y1="65.00" x2="970.0" y2="65.00"/>
<text x="78.00" y="69.00" text-anchor="end" font-size="12">15</text>
<line class="axis" x1="90.0" y1="65.0" x2="90.0" y2="490.0"/>
<line class="axis" x1="90.0" y1="490.0" x2="970.0" y2="490.0"/>
<text x="530.00" y="541.00" text-anchor="middle" font-size="14">processed tokens</text>
<text x="20" y="277.50" text-anchor="middle" font-size="14" transform="rotate(-90 20 277.50)">loss</text>
<polyline class="series" stroke="#2563eb" points="90.00,300.35 98.89,378.05 107.78,402.99 116.67,418.33 125.56,422.89 134.44,431.96 143.33,435.92 152.22,439.07 161.11,442.95 170.00,447.97 178.89,450.80 187.78,452.78 196.67,455.47 205.56,455.70 214.44,456.41 223.33,456.73 232.22,459.18 241.11,461.83 250.00,462.24 258.89,462.12 267.78,465.43 276.67,463.48 285.56,465.30 294.44,466.82 303.33,468.17 312.22,466.30 321.11,466.91 330.00,466.77 338.89,467.14 347.78,469.02 356.67,469.86 365.56,470.57 374.44,472.45 383.33,473.49 392.22,471.33 401.11,471.88 410.00,471.98 418.89,475.10 427.78,472.47 436.67,474.93 445.56,473.23 454.44,475.15 463.33,473.03 472.22,477.23 481.11,474.81 490.00,475.06 498.89,475.64 507.78,476.01 516.67,476.10 525.56,476.62 534.44,475.64 543.33,475.36 552.22,477.53 561.11,478.11 570.00,477.57 578.89,477.02 587.78,478.97 596.67,478.15 605.56,479.37 614.44,477.85 623.33,480.95 632.22,479.14 641.11,479.15 650.00,478.74 658.89,480.38 667.78,480.83 676.67,480.78 685.56,481.04 694.44,481.03 703.33,481.28 712.22,482.27 721.11,482.27 730.00,479.79 738.89,481.62 747.78,482.86 756.67,482.21 765.56,482.95 774.44,480.75 783.33,480.95 792.22,482.23 801.11,483.73 810.00,484.86 818.89,482.85 827.78,482.03 836.67,483.47 845.56,482.09 854.44,481.57 863.33,483.35 872.22,483.09 881.11,482.82 890.00,483.74 898.89,483.46 907.78,484.97 916.67,485.62 925.56,482.92 934.44,484.55 943.33,482.76 952.22,482.94 961.11,486.18 970.00,485.05" clip-path="url(#plot-area)"/>
<polyline class="series" stroke="#2563eb" stroke-dasharray="7 5" points="170.00,447.89 258.89,461.66 347.78,469.37 436.67,473.44 525.56,476.97 614.44,479.68 703.33,481.15 792.22,482.59 881.11,483.80 970.00,484.15" clip-path="url(#plot-area)"/>
<circle cx="170.00" cy="447.89" r="2.8" fill="#2563eb" clip-path="url(#plot-area)"><title>baseline, lr=3e-3 validation: 2.8377</title></circle>
<circle cx="258.89" cy="461.66" r="2.8" fill="#2563eb" clip-path="url(#plot-area)"><title>baseline, lr=3e-3 validation: 2.40019</title></circle>
<circle cx="347.78" cy="469.37" r="2.8" fill="#2563eb" clip-path="url(#plot-area)"><title>baseline, lr=3e-3 validation: 2.15528</title></circle>
<circle cx="436.67" cy="473.44" r="2.8" fill="#2563eb" clip-path="url(#plot-area)"><title>baseline, lr=3e-3 validation: 2.02616</title></circle>
<circle cx="525.56" cy="476.97" r="2.8" fill="#2563eb" clip-path="url(#plot-area)"><title>baseline, lr=3e-3 validation: 1.91378</title></circle>
<circle cx="614.44" cy="479.68" r="2.8" fill="#2563eb" clip-path="url(#plot-area)"><title>baseline, lr=3e-3 validation: 1.82794</title></circle>
<circle cx="703.33" cy="481.15" r="2.8" fill="#2563eb" clip-path="url(#plot-area)"><title>baseline, lr=3e-3 validation: 1.78121</title></circle>
<circle cx="792.22" cy="482.59" r="2.8" fill="#2563eb" clip-path="url(#plot-area)"><title>baseline, lr=3e-3 validation: 1.73541</title></circle>
<circle cx="881.11" cy="483.80" r="2.8" fill="#2563eb" clip-path="url(#plot-area)"><title>baseline, lr=3e-3 validation: 1.69699</title></circle>
<circle cx="970.00" cy="484.15" r="2.8" fill="#2563eb" clip-path="url(#plot-area)"><title>baseline, lr=3e-3 validation: 1.68572</title></circle>
<line x1="90.0" y1="565.0" x2="117.0" y2="565.0" stroke="#2563eb" stroke-width="2"/>
<line x1="127.0" y1="565.0" x2="154.0" y2="565.0" stroke="#2563eb" stroke-width="2" stroke-dasharray="7 5"/>
<text x="165.00" y="569.00" font-size="12">baseline, lr=3e-3 (solid: train, dashed: validation)</text>
<polyline class="series" stroke="#dc2626" points="90.00,82.92 98.89,158.27 107.78,218.70 116.67,272.52 125.56,324.57 134.44,361.17 143.33,373.46 152.22,383.78 161.11,391.39 170.00,399.74 178.89,403.90 187.78,407.32 196.67,412.30 205.56,413.07 214.44,415.74 223.33,416.08 232.22,420.38 241.11,423.87 250.00,424.26 258.89,425.03 267.78,428.68 276.67,427.77 285.56,430.40 294.44,431.43 303.33,433.24 312.22,431.45 321.11,432.37 330.00,432.29 338.89,433.57 347.78,435.96 356.67,436.12 365.56,437.42 374.44,440.55 383.33,441.83 392.22,438.83 401.11,438.52 410.00,439.38 418.89,442.74 427.78,440.08 436.67,442.82 445.56,441.42 454.44,444.39 463.33,441.19 472.22,445.23 481.11,443.15 490.00,443.07 498.89,444.29 507.78,444.67 516.67,444.74 525.56,445.27 534.44,444.17 543.33,443.36 552.22,446.36 561.11,446.44 570.00,447.10 578.89,445.59 587.78,447.61 596.67,446.48 605.56,448.67 614.44,445.50 623.33,450.01 632.22,446.85 641.11,447.12 650.00,446.74 658.89,450.11 667.78,449.50 676.67,449.92 685.56,449.05 694.44,449.42 703.33,449.78 712.22,451.39 721.11,450.05 730.00,447.12 738.89,449.40 747.78,451.26 756.67,450.62 765.56,451.05 774.44,447.99 783.33,448.48 792.22,450.30 801.11,451.42 810.00,452.64 818.89,450.57 827.78,449.39 836.67,450.87 845.56,449.62 854.44,449.13 863.33,450.99 872.22,450.22 881.11,450.23 890.00,451.74 898.89,451.24 907.78,452.37 916.67,453.21 925.56,450.16 934.44,451.55 943.33,449.59 952.22,449.95 961.11,453.99 970.00,452.53" clip-path="url(#plot-area)"/>
<polyline class="series" stroke="#dc2626" stroke-dasharray="7 5" points="170.00,398.89 258.89,424.38 347.78,436.27 436.67,441.49 525.56,445.57 614.44,448.05 703.33,448.63 792.22,450.77 881.11,452.03 970.00,451.66" clip-path="url(#plot-area)"/>
<circle cx="170.00" cy="398.89" r="2.8" fill="#dc2626" clip-path="url(#plot-area)"><title>remove RMSNorm, lr=1e-4 validation: 4.39408</title></circle>
<circle cx="258.89" cy="424.38" r="2.8" fill="#dc2626" clip-path="url(#plot-area)"><title>remove RMSNorm, lr=1e-4 validation: 3.58426</title></circle>
<circle cx="347.78" cy="436.27" r="2.8" fill="#dc2626" clip-path="url(#plot-area)"><title>remove RMSNorm, lr=1e-4 validation: 3.20669</title></circle>
<circle cx="436.67" cy="441.49" r="2.8" fill="#dc2626" clip-path="url(#plot-area)"><title>remove RMSNorm, lr=1e-4 validation: 3.04101</title></circle>
<circle cx="525.56" cy="445.57" r="2.8" fill="#dc2626" clip-path="url(#plot-area)"><title>remove RMSNorm, lr=1e-4 validation: 2.91131</title></circle>
<circle cx="614.44" cy="448.05" r="2.8" fill="#dc2626" clip-path="url(#plot-area)"><title>remove RMSNorm, lr=1e-4 validation: 2.83242</title></circle>
<circle cx="703.33" cy="448.63" r="2.8" fill="#dc2626" clip-path="url(#plot-area)"><title>remove RMSNorm, lr=1e-4 validation: 2.81399</title></circle>
<circle cx="792.22" cy="450.77" r="2.8" fill="#dc2626" clip-path="url(#plot-area)"><title>remove RMSNorm, lr=1e-4 validation: 2.74619</title></circle>
<circle cx="881.11" cy="452.03" r="2.8" fill="#dc2626" clip-path="url(#plot-area)"><title>remove RMSNorm, lr=1e-4 validation: 2.70611</title></circle>
<circle cx="970.00" cy="451.66" r="2.8" fill="#dc2626" clip-path="url(#plot-area)"><title>remove RMSNorm, lr=1e-4 validation: 2.71784</title></circle>
<line x1="90.0" y1="593.0" x2="117.0" y2="593.0" stroke="#dc2626" stroke-width="2"/>
<line x1="127.0" y1="593.0" x2="154.0" y2="593.0" stroke="#dc2626" stroke-width="2" stroke-dasharray="7 5"/>
<text x="165.00" y="597.00" font-size="12">remove RMSNorm, lr=1e-4 (solid: train, dashed: validation)</text>
<polyline class="series" stroke="#059669" points="90.00,299.26 98.89,367.67 107.78,398.59 116.67,415.83 125.56,422.75 134.44,433.35 143.33,437.87 152.22,441.20 161.11,445.42 170.00,450.24 178.89,452.33 187.78,453.63 196.67,455.85 205.56,456.05 214.44,456.62 223.33,456.75 232.22,459.34 241.11,461.69 250.00,461.69 258.89,461.58 267.78,464.51 276.67,462.86 285.56,464.55 294.44,465.42 303.33,466.83 312.22,464.72 321.11,465.57 330.00,465.20 338.89,465.62 347.78,467.35 356.67,468.00 365.56,469.41 374.44,471.42 383.33,472.25 392.22,469.75 401.11,470.28 410.00,470.37 418.89,473.76 427.78,470.80 436.67,473.34 445.56,471.35 454.44,473.65 463.33,471.40 472.22,475.32 481.11,473.08 490.00,473.69 498.89,474.05 507.78,474.57 516.67,474.37 525.56,474.83 534.44,473.87 543.33,473.63 552.22,475.79 561.11,476.54 570.00,475.72 578.89,475.35 587.78,477.61 596.67,477.17 605.56,477.76 614.44,476.60 623.33,479.47 632.22,477.74 641.11,477.65 650.00,477.25 658.89,478.89 667.78,479.49 676.67,479.45 685.56,479.90 694.44,479.75 703.33,480.02 712.22,481.01 721.11,480.92 730.00,478.67 738.89,480.28 747.78,481.71 756.67,480.91 765.56,481.64 774.44,479.62 783.33,479.88 792.22,481.33 801.11,482.62 810.00,483.86 818.89,481.72 827.78,480.81 836.67,482.41 845.56,481.10 854.44,480.43 863.33,482.22 872.22,482.14 881.11,481.91 890.00,482.74 898.89,482.49 907.78,484.18 916.67,484.46 925.56,481.82 934.44,483.77 943.33,481.86 952.22,481.92 961.11,485.19 970.00,484.01" clip-path="url(#plot-area)"/>
<polyline class="series" stroke="#059669" stroke-dasharray="7 5" points="170.00,449.96 258.89,460.98 347.78,467.85 436.67,471.84 525.56,475.29 614.44,478.07 703.33,479.96 792.22,481.50 881.11,482.90 970.00,483.12" clip-path="url(#plot-area)"/>
<circle cx="170.00" cy="449.96" r="2.8" fill="#059669" clip-path="url(#plot-area)"><title>post-norm, lr=3e-3 validation: 2.7718</title></circle>
<circle cx="258.89" cy="460.98" r="2.8" fill="#059669" clip-path="url(#plot-area)"><title>post-norm, lr=3e-3 validation: 2.42194</title></circle>
<circle cx="347.78" cy="467.85" r="2.8" fill="#059669" clip-path="url(#plot-area)"><title>post-norm, lr=3e-3 validation: 2.20351</title></circle>
<circle cx="436.67" cy="471.84" r="2.8" fill="#059669" clip-path="url(#plot-area)"><title>post-norm, lr=3e-3 validation: 2.07696</title></circle>
<circle cx="525.56" cy="475.29" r="2.8" fill="#059669" clip-path="url(#plot-area)"><title>post-norm, lr=3e-3 validation: 1.96715</title></circle>
<circle cx="614.44" cy="478.07" r="2.8" fill="#059669" clip-path="url(#plot-area)"><title>post-norm, lr=3e-3 validation: 1.87911</title></circle>
<circle cx="703.33" cy="479.96" r="2.8" fill="#059669" clip-path="url(#plot-area)"><title>post-norm, lr=3e-3 validation: 1.81881</title></circle>
<circle cx="792.22" cy="481.50" r="2.8" fill="#059669" clip-path="url(#plot-area)"><title>post-norm, lr=3e-3 validation: 1.77014</title></circle>
<circle cx="881.11" cy="482.90" r="2.8" fill="#059669" clip-path="url(#plot-area)"><title>post-norm, lr=3e-3 validation: 1.7255</title></circle>
<circle cx="970.00" cy="483.12" r="2.8" fill="#059669" clip-path="url(#plot-area)"><title>post-norm, lr=3e-3 validation: 1.71842</title></circle>
<line x1="90.0" y1="621.0" x2="117.0" y2="621.0" stroke="#059669" stroke-width="2"/>
<line x1="127.0" y1="621.0" x2="154.0" y2="621.0" stroke="#059669" stroke-width="2" stroke-dasharray="7 5"/>
<text x="165.00" y="625.00" font-size="12">post-norm, lr=3e-3 (solid: train, dashed: validation)</text>
<polyline class="series" stroke="#9333ea" points="90.00,300.76 98.89,377.95 107.78,401.37 116.67,414.77 125.56,417.09 134.44,423.06 143.33,423.86 152.22,425.59 161.11,427.65 170.00,432.22 178.89,434.58 187.78,436.20 196.67,439.03 205.56,440.96 214.44,441.01 223.33,442.72 232.22,446.28 241.11,449.17 250.00,450.04 258.89,451.39 267.78,454.72 276.67,453.37 285.56,455.43 294.44,457.39 303.33,459.17 312.22,457.09 321.11,458.40 330.00,458.39 338.89,459.11 347.78,461.20 356.67,462.54 365.56,463.54 374.44,465.83 383.33,467.35 392.22,464.59 401.11,464.99 410.00,465.50 418.89,469.09 427.78,466.36 436.67,468.75 445.56,467.32 454.44,469.80 463.33,467.56 472.22,471.32 481.11,469.28 490.00,469.72 498.89,470.28 507.78,470.83 516.67,470.70 525.56,471.10 534.44,470.00 543.33,469.94 552.22,472.22 561.11,472.99 570.00,472.59 578.89,471.72 587.78,474.00 596.67,473.32 605.56,474.10 614.44,472.90 623.33,475.74 632.22,474.20 641.11,474.28 650.00,473.87 658.89,475.42 667.78,476.04 676.67,476.11 685.56,476.32 694.44,476.46 703.33,476.48 712.22,477.50 721.11,477.62 730.00,475.35 738.89,476.81 747.78,478.40 756.67,477.69 765.56,478.64 774.44,476.04 783.33,476.42 792.22,477.86 801.11,479.35 810.00,480.51 818.89,478.43 827.78,477.38 836.67,478.95 845.56,477.59 854.44,476.95 863.33,478.68 872.22,478.81 881.11,478.39 890.00,479.20 898.89,479.16 907.78,480.56 916.67,481.10 925.56,478.66 934.44,480.40 943.33,478.57 952.22,478.80 961.11,482.00 970.00,480.64" clip-path="url(#plot-area)"/>
<polyline class="series" stroke="#9333ea" stroke-dasharray="7 5" points="170.00,431.77 258.89,450.56 347.78,461.69 436.67,467.50 525.56,471.58 614.44,474.45 703.33,476.37 792.22,478.20 881.11,479.71 970.00,479.81" clip-path="url(#plot-area)"/>
<circle cx="170.00" cy="431.77" r="2.8" fill="#9333ea" clip-path="url(#plot-area)"><title>no positional encoding, lr=3e-3 validation: 3.3498</title></circle>
<circle cx="258.89" cy="450.56" r="2.8" fill="#9333ea" clip-path="url(#plot-area)"><title>no positional encoding, lr=3e-3 validation: 2.75282</title></circle>
<circle cx="347.78" cy="461.69" r="2.8" fill="#9333ea" clip-path="url(#plot-area)"><title>no positional encoding, lr=3e-3 validation: 2.39936</title></circle>
<circle cx="436.67" cy="467.50" r="2.8" fill="#9333ea" clip-path="url(#plot-area)"><title>no positional encoding, lr=3e-3 validation: 2.21455</title></circle>
<circle cx="525.56" cy="471.58" r="2.8" fill="#9333ea" clip-path="url(#plot-area)"><title>no positional encoding, lr=3e-3 validation: 2.08508</title></circle>
<circle cx="614.44" cy="474.45" r="2.8" fill="#9333ea" clip-path="url(#plot-area)"><title>no positional encoding, lr=3e-3 validation: 1.99402</title></circle>
<circle cx="703.33" cy="476.37" r="2.8" fill="#9333ea" clip-path="url(#plot-area)"><title>no positional encoding, lr=3e-3 validation: 1.93284</title></circle>
<circle cx="792.22" cy="478.20" r="2.8" fill="#9333ea" clip-path="url(#plot-area)"><title>no positional encoding, lr=3e-3 validation: 1.87467</title></circle>
<circle cx="881.11" cy="479.71" r="2.8" fill="#9333ea" clip-path="url(#plot-area)"><title>no positional encoding, lr=3e-3 validation: 1.82671</title></circle>
<circle cx="970.00" cy="479.81" r="2.8" fill="#9333ea" clip-path="url(#plot-area)"><title>no positional encoding, lr=3e-3 validation: 1.82375</title></circle>
<line x1="90.0" y1="649.0" x2="117.0" y2="649.0" stroke="#9333ea" stroke-width="2"/>
<line x1="127.0" y1="649.0" x2="154.0" y2="649.0" stroke="#9333ea" stroke-width="2" stroke-dasharray="7 5"/>
<text x="165.00" y="653.00" font-size="12">no positional encoding, lr=3e-3 (solid: train, dashed: validation)</text>
<polyline class="series" stroke="#ea580c" points="90.00,303.66 98.89,366.30 107.78,392.14 116.67,410.77 125.56,418.00 134.44,428.20 143.33,432.59 152.22,435.44 161.11,439.56 170.00,444.50 178.89,445.06 187.78,448.10 196.67,451.11 205.56,450.69 214.44,452.13 223.33,452.45 232.22,455.10 241.11,456.96 250.00,457.77 258.89,457.75 267.78,461.28 276.67,459.50 285.56,461.56 294.44,463.04 303.33,464.59 312.22,462.34 321.11,463.52 330.00,463.23 338.89,464.08 347.78,465.89 356.67,467.18 365.56,468.25 374.44,470.09 383.33,471.59 392.22,469.05 401.11,469.43 410.00,469.78 418.89,473.17 427.78,470.43 436.67,473.09 445.56,471.67 454.44,473.70 463.33,471.31 472.22,475.29 481.11,473.32 490.00,473.84 498.89,474.26 507.78,474.71 516.67,474.63 525.56,475.28 534.44,474.15 543.33,474.13 552.22,476.21 561.11,476.89 570.00,476.17 578.89,475.70 587.78,477.99 596.67,477.20 605.56,478.17 614.44,476.92 623.33,479.79 632.22,477.85 641.11,478.15 650.00,477.69 658.89,479.42 667.78,479.78 676.67,479.66 685.56,480.03 694.44,479.80 703.33,480.44 712.22,481.31 721.11,481.39 730.00,478.80 738.89,480.60 747.78,481.92 756.67,481.31 765.56,482.00 774.44,479.86 783.33,479.98 792.22,481.26 801.11,482.70 810.00,483.88 818.89,481.90 827.78,480.97 836.67,482.44 845.56,481.27 854.44,480.69 863.33,482.44 872.22,482.26 881.11,481.93 890.00,482.84 898.89,482.61 907.78,484.19 916.67,484.72 925.56,482.07 934.44,483.89 943.33,481.90 952.22,482.05 961.11,485.28 970.00,484.12" clip-path="url(#plot-area)"/>
<polyline class="series" stroke="#ea580c" stroke-dasharray="7 5" points="170.00,444.03 258.89,457.31 347.78,466.41 436.67,471.67 525.56,475.52 614.44,478.32 703.33,480.02 792.22,481.60 881.11,482.93 970.00,483.20" clip-path="url(#plot-area)"/>
<circle cx="170.00" cy="444.03" r="2.8" fill="#ea580c" clip-path="url(#plot-area)"><title>SiLU matched-parameters, lr=3e-3 validation: 2.96028</title></circle>
<circle cx="258.89" cy="457.31" r="2.8" fill="#ea580c" clip-path="url(#plot-area)"><title>SiLU matched-parameters, lr=3e-3 validation: 2.53839</title></circle>
<circle cx="347.78" cy="466.41" r="2.8" fill="#ea580c" clip-path="url(#plot-area)"><title>SiLU matched-parameters, lr=3e-3 validation: 2.24946</title></circle>
<circle cx="436.67" cy="471.67" r="2.8" fill="#ea580c" clip-path="url(#plot-area)"><title>SiLU matched-parameters, lr=3e-3 validation: 2.08223</title></circle>
<circle cx="525.56" cy="475.52" r="2.8" fill="#ea580c" clip-path="url(#plot-area)"><title>SiLU matched-parameters, lr=3e-3 validation: 1.95989</title></circle>
<circle cx="614.44" cy="478.32" r="2.8" fill="#ea580c" clip-path="url(#plot-area)"><title>SiLU matched-parameters, lr=3e-3 validation: 1.87094</title></circle>
<circle cx="703.33" cy="480.02" r="2.8" fill="#ea580c" clip-path="url(#plot-area)"><title>SiLU matched-parameters, lr=3e-3 validation: 1.81703</title></circle>
<circle cx="792.22" cy="481.60" r="2.8" fill="#ea580c" clip-path="url(#plot-area)"><title>SiLU matched-parameters, lr=3e-3 validation: 1.76672</title></circle>
<circle cx="881.11" cy="482.93" r="2.8" fill="#ea580c" clip-path="url(#plot-area)"><title>SiLU matched-parameters, lr=3e-3 validation: 1.72452</title></circle>
<circle cx="970.00" cy="483.20" r="2.8" fill="#ea580c" clip-path="url(#plot-area)"><title>SiLU matched-parameters, lr=3e-3 validation: 1.71615</title></circle>
<line x1="90.0" y1="677.0" x2="117.0" y2="677.0" stroke="#ea580c" stroke-width="2"/>
<line x1="127.0" y1="677.0" x2="154.0" y2="677.0" stroke="#ea580c" stroke-width="2" stroke-dasharray="7 5"/>
<text x="165.00" y="681.00" font-size="12">SiLU matched-parameters, lr=3e-3 (solid: train, dashed: validation)</text>
</svg>
