<?xml version="1.0" encoding="UTF-8"?>
<svg xmlns="http://www.w3.org/2000/svg" width="1000" height="820" viewBox="0 0 1000 820">
<style>
text { font-family: ui-sans-serif, system-ui, sans-serif; fill: #172033; }
.grid { stroke: #d8dee9; stroke-width: 1; }
.axis { stroke: #475569; stroke-width: 1.4; }
.series { fill: none; stroke-width: 2; stroke-linejoin: round; stroke-linecap: round; }
</style>
<defs><clipPath id="plot-area"><rect x="90.0" y="65.0" width="880.0" height="441.0"/></clipPath></defs>
<rect width="100%" height="100%" fill="#ffffff"/>
<text x="500.00" y="32.00" text-anchor="middle" font-size="20" font-weight="600">TinyStories learning-rate sweep</text>
<line class="grid" x1="90.00" y1="65.0" x2="90.00" y2="506.0"/>
<text x="90.00" y="530.00" text-anchor="middle" font-size="12">66K</text>
<line class="grid" x1="90.0" y1="506.00" x2="970.0" y2="506.00"/>
<text x="78.00" y="510.00" text-anchor="end" font-size="12">1.5</text>
<line class="grid" x1="266.00" y1="65.0" x2="266.00" y2="506.0"/>
<text x="266.00" y="530.00" text-anchor="middle" font-size="12">6.6M</text>
<line class="grid" x1="90.0" y1="417.80" x2="970.0" y2="417.80"/>
<text x="78.00" y="421.80" text-anchor="end" font-size="12">4.2</text>
<line class="grid" x1="442.00" y1="65.0" x2="442.00" y2="506.0"/>
<text x="442.00" y="530.00" text-anchor="middle" font-size="12">13M</text>
<line class="grid" x1="90.0" y1="329.60" x2="970.0" y2="329.60"/>
<text x="78.00" y="333.60" text-anchor="end" font-size="12">6.9</text>
<line class="grid" x1="618.00" y1="65.0" x2="618.00" y2="506.0"/>
<text x="618.00" y="530.00" text-anchor="middle" font-size="12">20M</text>
<line class="grid" x1="90.0" y1="241.40" x2="970.0" y2="241.40"/>
<text x="78.00" y="245.40" text-anchor="end" font-size="12">9.6</text>
<line class="grid" x1="794.00" y1="65.0" x2="794.00" y2="506.0"/>
<text x="794.00" y="530.00" text-anchor="middle" font-size="12">26M</text>
<line class="grid" x1="90.0" y1="153.20" x2="970.0" y2="153.20"/>
<text x="78.00" y="157.20" text-anchor="end" font-size="12">12</text>
<line class="grid" x1="970.00" y1="65.0" x2="970.00" y2="506.0"/>
<text x="970.00" y="530.00" text-anchor="middle" font-size="12">33M</text>
<line class="grid" x1="90.0" y1="65.00" x2="970.0" y2="65.00"/>
<text x="78.00" y="69.00" text-anchor="end" font-size="12">15</text>
<line class="axis" x1="90.0" y1="65.0" x2="90.0" y2="506.0"/>
<line class="axis" x1="90.0" y1="506.0" x2="970.0" y2="506.0"/>
<text x="530.00" y="557.00" text-anchor="middle" font-size="14">processed tokens</text>
<text x="20" y="285.50" text-anchor="middle" font-size="14" transform="rotate(-90 20 285.50)">loss</text>
<polyline class="series" stroke="#2563eb" points="97.05,255.05 105.87,265.76 114.69,283.10 123.51,302.00 132.32,321.31 141.14,341.93 149.96,357.97 158.78,371.47 167.60,382.32 176.41,393.11 185.23,399.59 194.05,404.75 202.87,411.02 211.68,414.04 220.50,417.66 229.32,418.84 238.14,424.14 246.95,428.22 255.77,429.29 264.59,431.12 273.41,434.82 282.22,434.65 291.04,437.20 299.86,438.53 308.68,440.57 317.49,438.88 326.31,440.72 335.13,440.78 343.95,441.91 352.77,444.47 361.58,445.21 370.40,445.85 379.22,449.50 388.04,451.01 396.85,448.28 405.67,447.97 414.49,449.25 423.31,452.27 432.12,449.90 440.94,452.87 449.76,451.63 458.58,454.54 467.39,451.50 476.21,455.45 485.03,453.30 493.85,453.52 502.67,454.96 511.48,454.92 520.30,455.52 529.12,455.80 537.94,455.26 546.75,454.58 555.57,457.07 564.39,457.23 573.21,458.14 582.02,456.48 590.84,458.70 599.66,457.71 608.48,459.94 617.29,456.51 626.11,460.73 634.93,458.11 643.75,458.26 652.57,458.15 661.38,461.07 670.20,460.64 679.02,461.45 687.84,460.52 696.65,460.45 705.47,460.99 714.29,462.67 723.11,461.65 731.92,458.70 740.74,460.55 749.56,462.54 758.38,461.77 767.19,462.62 776.01,459.66 784.83,460.00 793.65,461.77 802.46,462.91 811.28,463.67 820.10,461.79 828.92,461.00 837.74,462.05 846.55,460.91 855.37,460.76 864.19,462.53 873.01,461.86 881.82,461.80 890.64,463.03 899.46,462.91 908.28,464.01 917.09,464.40 925.91,461.52 934.73,463.11 943.55,461.11 952.36,461.67 961.18,465.53 970.00,463.89" clip-path="url(#plot-area)"/>
<polyline class="series" stroke="#2563eb" stroke-dasharray="7 5" points="176.41,392.80 264.59,430.50 352.77,444.45 440.94,451.43 529.12,456.17 617.29,459.04 705.47,459.80 793.65,462.07 881.82,463.31 970.00,463.19" clip-path="url(#plot-area)"/>
<circle cx="176.41" cy="392.80" r="2.8" fill="#2563eb" clip-path="url(#plot-area)"><title>lr=1e-4 validation: 4.96515</title></circle>
<circle cx="264.59" cy="430.50" r="2.8" fill="#2563eb" clip-path="url(#plot-area)"><title>lr=1e-4 validation: 3.81115</title></circle>
<circle cx="352.77" cy="444.45" r="2.8" fill="#2563eb" clip-path="url(#plot-area)"><title>lr=1e-4 validation: 3.38411</title></circle>
<circle cx="440.94" cy="451.43" r="2.8" fill="#2563eb" clip-path="url(#plot-area)"><title>lr=1e-4 validation: 3.17047</title></circle>
<circle cx="529.12" cy="456.17" r="2.8" fill="#2563eb" clip-path="url(#plot-area)"><title>lr=1e-4 validation: 3.02553</title></circle>
<circle cx="617.29" cy="459.04" r="2.8" fill="#2563eb" clip-path="url(#plot-area)"><title>lr=1e-4 validation: 2.9377</title></circle>
<circle cx="705.47" cy="459.80" r="2.8" fill="#2563eb" clip-path="url(#plot-area)"><title>lr=1e-4 validation: 2.91429</title></circle>
<circle cx="793.65" cy="462.07" r="2.8" fill="#2563eb" clip-path="url(#plot-area)"><title>lr=1e-4 validation: 2.84476</title></circle>
<circle cx="881.82" cy="463.31" r="2.8" fill="#2563eb" clip-path="url(#plot-area)"><title>lr=1e-4 validation: 2.80698</title></circle>
<circle cx="970.00" cy="463.19" r="2.8" fill="#2563eb" clip-path="url(#plot-area)"><title>lr=1e-4 validation: 2.81046</title></circle>
<line x1="90.0" y1="581.0" x2="117.0" y2="581.0" stroke="#2563eb" stroke-width="2"/>
<line x1="127.0" y1="581.0" x2="154.0" y2="581.0" stroke="#2563eb" stroke-width="2" stroke-dasharray="7 5"/>
<text x="165.00" y="585.00" font-size="12">lr=1e-4 (solid: train, dashed: validation)</text>
<polyline class="series" stroke="#dc2626" points="97.05,260.90 105.87,288.15 114.69,319.46 123.51,355.03 132.32,382.47 141.14,402.99 149.96,413.03 158.78,420.92 167.60,427.35 176.41,434.09 185.23,437.29 194.05,440.04 202.87,443.61 211.68,445.42 220.50,447.11 229.32,447.44 238.14,451.17 246.95,454.37 255.77,455.26 264.59,455.76 273.41,458.91 282.22,457.94 291.04,460.31 299.86,461.51 308.68,463.18 317.49,460.94 326.31,462.09 335.13,461.69 343.95,463.17 352.77,464.99 361.58,465.71 370.40,466.83 379.22,469.21 388.04,470.93 396.85,468.33 405.67,467.60 414.49,468.65 423.31,471.88 432.12,469.19 440.94,472.08 449.76,470.36 458.58,473.07 467.39,469.98 476.21,474.43 485.03,471.92 493.85,472.05 502.67,473.35 511.48,473.20 520.30,473.67 529.12,474.20 537.94,473.10 546.75,472.38 555.57,474.87 564.39,475.28 573.21,475.36 582.02,474.16 590.84,476.44 599.66,475.51 608.48,477.23 617.29,474.59 626.11,478.70 634.93,475.93 643.75,476.29 652.57,475.80 661.38,478.41 670.20,478.08 679.02,478.32 687.84,478.05 696.65,478.08 705.47,478.55 714.29,479.77 723.11,479.16 731.92,476.50 740.74,478.30 749.56,480.10 758.38,479.03 767.19,479.99 776.01,476.79 784.83,477.53 793.65,479.23 802.46,480.56 811.28,481.64 820.10,479.25 828.92,478.29 837.74,479.79 846.55,478.32 855.37,477.85 864.19,479.76 873.01,479.42 881.82,479.03 890.64,480.29 899.46,480.06 908.28,481.29 917.09,482.19 925.91,478.98 934.73,480.62 943.55,478.58 952.36,478.85 961.18,482.78 970.00,481.47" clip-path="url(#plot-area)"/>
<polyline class="series" stroke="#dc2626" stroke-dasharray="7 5" points="176.41,433.29 264.59,455.13 352.77,465.40 440.94,470.35 529.12,474.41 617.29,477.03 705.47,477.53 793.65,479.44 881.82,480.75 970.00,480.46" clip-path="url(#plot-area)"/>
<circle cx="176.41" cy="433.29" r="2.8" fill="#dc2626" clip-path="url(#plot-area)"><title>lr=3e-4 validation: 3.72589</title></circle>
<circle cx="264.59" cy="455.13" r="2.8" fill="#dc2626" clip-path="url(#plot-area)"><title>lr=3e-4 validation: 3.05717</title></circle>
<circle cx="352.77" cy="465.40" r="2.8" fill="#dc2626" clip-path="url(#plot-area)"><title>lr=3e-4 validation: 2.74287</title></circle>
<circle cx="440.94" cy="470.35" r="2.8" fill="#dc2626" clip-path="url(#plot-area)"><title>lr=3e-4 validation: 2.59144</title></circle>
<circle cx="529.12" cy="474.41" r="2.8" fill="#dc2626" clip-path="url(#plot-area)"><title>lr=3e-4 validation: 2.46689</title></circle>
<circle cx="617.29" cy="477.03" r="2.8" fill="#dc2626" clip-path="url(#plot-area)"><title>lr=3e-4 validation: 2.38678</title></circle>
<circle cx="705.47" cy="477.53" r="2.8" fill="#dc2626" clip-path="url(#plot-area)"><title>lr=3e-4 validation: 2.37154</title></circle>
<circle cx="793.65" cy="479.44" r="2.8" fill="#dc2626" clip-path="url(#plot-area)"><title>lr=3e-4 validation: 2.31317</title></circle>
<circle cx="881.82" cy="480.75" r="2.8" fill="#dc2626" clip-path="url(#plot-area)"><title>lr=3e-4 validation: 2.2731</title></circle>
<circle cx="970.00" cy="480.46" r="2.8" fill="#dc2626" clip-path="url(#plot-area)"><title>lr=3e-4 validation: 2.28197</title></circle>
<line x1="90.0" y1="609.0" x2="117.0" y2="609.0" stroke="#dc2626" stroke-width="2"/>
<line x1="127.0" y1="609.0" x2="154.0" y2="609.0" stroke="#dc2626" stroke-width="2" stroke-dasharray="7 5"/>
<text x="165.00" y="613.00" font-size="12">lr=3e-4 (solid: train, dashed: validation)</text>
<polyline class="series" stroke="#059669" points="97.05,278.47 105.87,333.30 114.69,384.26 123.51,412.19 132.32,424.57 141.14,435.99 149.96,440.34 158.78,444.21 167.60,449.15 176.41,454.50 185.23,457.53 194.05,459.97 202.87,463.09 211.68,464.18 220.50,465.13 229.32,465.77 238.14,468.83 246.95,471.50 255.77,472.35 264.59,472.39 273.41,475.32 282.22,474.10 291.04,475.90 299.86,477.32 308.68,478.76 317.49,476.64 326.31,477.46 335.13,477.25 343.95,478.17 352.77,479.63 361.58,480.80 370.40,481.91 379.22,484.04 388.04,485.30 396.85,482.92 405.67,483.24 414.49,483.51 423.31,486.74 432.12,484.07 440.94,486.85 449.76,484.95 458.58,487.36 467.39,485.21 476.21,489.14 485.03,486.71 493.85,487.43 502.67,487.80 511.48,488.24 520.30,488.49 529.12,488.71 537.94,487.75 546.75,487.43 555.57,489.70 564.39,490.04 573.21,489.66 582.02,489.04 590.84,491.34 599.66,490.53 608.48,491.52 617.29,489.73 626.11,493.13 634.93,490.74 643.75,491.28 652.57,490.78 661.38,492.35 670.20,492.65 679.02,492.69 687.84,492.95 696.65,492.90 705.47,493.14 714.29,494.14 723.11,493.89 731.92,491.57 740.74,493.29 749.56,494.72 758.38,493.99 767.19,494.60 776.01,492.23 784.83,492.35 793.65,493.90 802.46,495.22 811.28,496.50 820.10,493.99 828.92,493.33 837.74,495.02 846.55,493.37 855.37,492.90 864.19,494.84 873.01,494.38 881.82,494.03 890.64,495.03 899.46,494.97 908.28,496.59 917.09,496.82 925.91,494.02 934.73,495.75 943.55,493.92 952.36,494.14 961.18,497.58 970.00,496.25" clip-path="url(#plot-area)"/>
<polyline class="series" stroke="#059669" stroke-dasharray="7 5" points="176.41,454.27 264.59,471.46 352.77,480.54 440.94,485.29 529.12,489.07 617.29,491.60 705.47,492.63 793.65,494.17 881.82,495.29 970.00,495.42" clip-path="url(#plot-area)"/>
<circle cx="176.41" cy="454.27" r="2.8" fill="#059669" clip-path="url(#plot-area)"><title>lr=1e-3 validation: 3.0835</title></circle>
<circle cx="264.59" cy="471.46" r="2.8" fill="#059669" clip-path="url(#plot-area)"><title>lr=1e-3 validation: 2.55743</title></circle>
<circle cx="352.77" cy="480.54" r="2.8" fill="#059669" clip-path="url(#plot-area)"><title>lr=1e-3 validation: 2.27953</title></circle>
<circle cx="440.94" cy="485.29" r="2.8" fill="#059669" clip-path="url(#plot-area)"><title>lr=1e-3 validation: 2.13396</title></circle>
<circle cx="529.12" cy="489.07" r="2.8" fill="#059669" clip-path="url(#plot-area)"><title>lr=1e-3 validation: 2.01815</title></circle>
<circle cx="617.29" cy="491.60" r="2.8" fill="#059669" clip-path="url(#plot-area)"><title>lr=1e-3 validation: 1.94082</title></circle>
<circle cx="705.47" cy="492.63" r="2.8" fill="#059669" clip-path="url(#plot-area)"><title>lr=1e-3 validation: 1.90939</title></circle>
<circle cx="793.65" cy="494.17" r="2.8" fill="#059669" clip-path="url(#plot-area)"><title>lr=1e-3 validation: 1.86214</title></circle>
<circle cx="881.82" cy="495.29" r="2.8" fill="#059669" clip-path="url(#plot-area)"><title>lr=1e-3 validation: 1.82794</title></circle>
<circle cx="970.00" cy="495.42" r="2.8" fill="#059669" clip-path="url(#plot-area)"><title>lr=1e-3 validation: 1.82391</title></circle>
<line x1="90.0" y1="637.0" x2="117.0" y2="637.0" stroke="#059669" stroke-width="2"/>
<line x1="127.0" y1="637.0" x2="154.0" y2="637.0" stroke="#059669" stroke-width="2" stroke-dasharray="7 5"/>
<text x="165.00" y="641.00" font-size="12">lr=1e-3 (solid: train, dashed: validation)</text>
<polyline class="series" stroke="#9333ea" points="97.05,309.22 105.87,389.84 114.69,415.72 123.51,431.63 132.32,436.36 141.14,445.78 149.96,449.88 158.78,453.15 167.60,457.18 176.41,462.39 185.23,465.32 194.05,467.37 202.87,470.17 211.68,470.41 220.50,471.15 229.32,471.48 238.14,474.02 246.95,476.77 255.77,477.20 264.59,477.07 273.41,480.50 282.22,478.48 291.04,480.37 299.86,481.94 308.68,483.35 317.49,481.40 326.31,482.04 335.13,481.90 343.95,482.28 352.77,484.23 361.58,485.10 370.40,485.84 379.22,487.79 388.04,488.87 396.85,486.63 405.67,487.20 414.49,487.30 423.31,490.54 432.12,487.81 440.94,490.37 449.76,488.60 458.58,490.59 467.39,488.39 476.21,492.75 485.03,490.24 493.85,490.50 502.67,491.10 511.48,491.49 520.30,491.58 529.12,492.12 537.94,491.10 546.75,490.81 555.57,493.06 564.39,493.67 573.21,493.10 582.02,492.53 590.84,494.55 599.66,493.70 608.48,494.97 617.29,493.40 626.11,496.61 634.93,494.73 643.75,494.74 652.57,494.32 661.38,496.02 670.20,496.49 679.02,496.43 687.84,496.71 696.65,496.69 705.47,496.95 714.29,497.98 723.11,497.98 731.92,495.41 740.74,497.30 749.56,498.59 758.38,497.91 767.19,498.68 776.01,496.40 784.83,496.60 793.65,497.94 802.46,499.49 811.28,500.66 820.10,498.58 828.92,497.73 837.74,499.23 846.55,497.80 855.37,497.25 864.19,499.10 873.01,498.83 881.82,498.54 890.64,499.50 899.46,499.22 908.28,500.78 917.09,501.46 925.91,498.65 934.73,500.35 943.55,498.48 952.36,498.68 961.18,502.03 970.00,500.86" clip-path="url(#plot-area)"/>
<polyline class="series" stroke="#9333ea" stroke-dasharray="7 5" points="176.41,462.30 264.59,476.59 352.77,484.59 440.94,488.81 529.12,492.48 617.29,495.29 705.47,496.81 793.65,498.31 881.82,499.56 970.00,499.93" clip-path="url(#plot-area)"/>
<circle cx="176.41" cy="462.30" r="2.8" fill="#9333ea" clip-path="url(#plot-area)"><title>lr=3e-3 validation: 2.8377</title></circle>
<circle cx="264.59" cy="476.59" r="2.8" fill="#9333ea" clip-path="url(#plot-area)"><title>lr=3e-3 validation: 2.40019</title></circle>
<circle cx="352.77" cy="484.59" r="2.8" fill="#9333ea" clip-path="url(#plot-area)"><title>lr=3e-3 validation: 2.15528</title></circle>
<circle cx="440.94" cy="488.81" r="2.8" fill="#9333ea" clip-path="url(#plot-area)"><title>lr=3e-3 validation: 2.02616</title></circle>
<circle cx="529.12" cy="492.48" r="2.8" fill="#9333ea" clip-path="url(#plot-area)"><title>lr=3e-3 validation: 1.91378</title></circle>
<circle cx="617.29" cy="495.29" r="2.8" fill="#9333ea" clip-path="url(#plot-area)"><title>lr=3e-3 validation: 1.82794</title></circle>
<circle cx="705.47" cy="496.81" r="2.8" fill="#9333ea" clip-path="url(#plot-area)"><title>lr=3e-3 validation: 1.78121</title></circle>
<circle cx="793.65" cy="498.31" r="2.8" fill="#9333ea" clip-path="url(#plot-area)"><title>lr=3e-3 validation: 1.73541</title></circle>
<circle cx="881.82" cy="499.56" r="2.8" fill="#9333ea" clip-path="url(#plot-area)"><title>lr=3e-3 validation: 1.69699</title></circle>
<circle cx="970.00" cy="499.93" r="2.8" fill="#9333ea" clip-path="url(#plot-area)"><title>lr=3e-3 validation: 1.68572</title></circle>
<line x1="90.0" y1="665.0" x2="117.0" y2="665.0" stroke="#9333ea" stroke-width="2"/>
<line x1="127.0" y1="665.0" x2="154.0" y2="665.0" stroke="#9333ea" stroke-width="2" stroke-dasharray="7 5"/>
<text x="165.00" y="669.00" font-size="12">lr=3e-3 (solid: train, dashed: validation)</text>
<polyline class="series" stroke="#ea580c" points="97.05,368.66 105.87,393.38 114.69,409.30 123.51,423.67 132.32,427.26 141.14,437.33 149.96,440.39 158.78,441.67 167.60,445.22 176.41,449.42 185.23,450.56 194.05,452.01 202.87,454.11 211.68,453.78 220.50,454.10 229.32,452.87 238.14,455.81 246.95,457.40 255.77,457.39 264.59,457.30 273.41,459.87 282.22,457.35 291.04,458.23 299.86,458.97 308.68,459.84 317.49,455.61 326.31,457.95 335.13,457.36 343.95,457.37 352.77,459.33 361.58,459.10 370.40,459.11 379.22,461.70 388.04,462.96 396.85,459.66 405.67,459.00 414.49,459.92 423.31,461.14 432.12,458.73 440.94,461.68 449.76,459.77 458.58,462.23 467.39,459.57 476.21,462.51 485.03,458.99 493.85,460.35 502.67,462.25 511.48,461.78 520.30,462.20 529.12,462.34 537.94,460.99 546.75,460.49 555.57,464.71 564.39,465.38 573.21,465.04 582.02,463.93 590.84,466.20 599.66,465.64 608.48,467.81 617.29,465.30 626.11,468.84 634.93,466.18 643.75,466.64 652.57,466.64 661.38,469.41 670.20,469.03 679.02,469.48 687.84,468.89 696.65,469.03 705.47,469.91 714.29,471.58 723.11,470.99 731.92,468.31 740.74,470.41 749.56,472.18 758.38,471.32 767.19,472.67 776.01,469.76 784.83,470.30 793.65,472.28 802.46,473.67 811.28,474.76 820.10,472.71 828.92,471.81 837.74,473.48 846.55,472.29 855.37,471.78 864.19,473.91 873.01,473.06 881.82,473.42 890.64,474.44 899.46,474.55 908.28,476.00 917.09,476.73 925.91,473.39 934.73,474.84 943.55,473.59 952.36,474.02 961.18,477.47 970.00,476.04" clip-path="url(#plot-area)"/>
<polyline class="series" stroke="#ea580c" stroke-dasharray="7 5" points="176.41,448.74 264.59,456.89 352.77,459.46 440.94,460.78 529.12,462.68 617.29,467.43 705.47,469.40 793.65,472.71 881.82,474.83 970.00,475.47" clip-path="url(#plot-area)"/>
<circle cx="176.41" cy="448.74" r="2.8" fill="#ea580c" clip-path="url(#plot-area)"><title>lr=1e-2 validation: 3.25274</title></circle>
<circle cx="264.59" cy="456.89" r="2.8" fill="#ea580c" clip-path="url(#plot-area)"><title>lr=1e-2 validation: 3.00327</title></circle>
<circle cx="352.77" cy="459.46" r="2.8" fill="#ea580c" clip-path="url(#plot-area)"><title>lr=1e-2 validation: 2.92469</title></circle>
<circle cx="440.94" cy="460.78" r="2.8" fill="#ea580c" clip-path="url(#plot-area)"><title>lr=1e-2 validation: 2.88439</title></circle>
<circle cx="529.12" cy="462.68" r="2.8" fill="#ea580c" clip-path="url(#plot-area)"><title>lr=1e-2 validation: 2.82613</title></circle>
<circle cx="617.29" cy="467.43" r="2.8" fill="#ea580c" clip-path="url(#plot-area)"><title>lr=1e-2 validation: 2.68066</title></circle>
<circle cx="705.47" cy="469.40" r="2.8" fill="#ea580c" clip-path="url(#plot-area)"><title>lr=1e-2 validation: 2.62034</title></circle>
<circle cx="793.65" cy="472.71" r="2.8" fill="#ea580c" clip-path="url(#plot-area)"><title>lr=1e-2 validation: 2.5192</title></circle>
<circle cx="881.82" cy="474.83" r="2.8" fill="#ea580c" clip-path="url(#plot-area)"><title>lr=1e-2 validation: 2.45418</title></circle>
<circle cx="970.00" cy="475.47" r="2.8" fill="#ea580c" clip-path="url(#plot-area)"><title>lr=1e-2 validation: 2.4345</title></circle>
<line x1="90.0" y1="693.0" x2="117.0" y2="693.0" stroke="#ea580c" stroke-width="2"/>
<line x1="127.0" y1="693.0" x2="154.0" y2="693.0" stroke="#ea580c" stroke-width="2" stroke-dasharray="7 5"/>
<text x="165.00" y="697.00" font-size="12">lr=1e-2 (solid: train, dashed: validation)</text>
<polyline class="series" stroke="#0891b2" points="97.05,386.80 105.87,360.93 114.69,383.52 123.51,407.36 132.32,414.16 141.14,423.94 149.96,425.02 158.78,426.12 167.60,429.24 176.41,433.03 185.23,432.23 194.05,432.43 202.87,431.60 211.68,425.89 220.50,419.48 229.32,418.78 238.14,415.39 246.95,417.66 255.77,413.41 264.59,414.21 273.41,411.43 282.22,413.24 291.04,411.35 299.86,413.91 308.68,413.73 317.49,413.29 326.31,412.90 335.13,412.33 343.95,413.17 352.77,417.09 361.58,414.83 370.40,416.15 379.22,418.58 388.04,420.47 396.85,419.17 405.67,417.91 414.49,419.66 423.31,424.44 432.12,422.04 440.94,424.92 449.76,424.94 458.58,427.74 467.39,425.38 476.21,427.74 485.03,425.53 493.85,426.35 502.67,429.01 511.48,430.72 520.30,430.26 529.12,429.31 537.94,431.18 546.75,429.19 555.57,431.78 564.39,432.81 573.21,435.76 582.02,434.46 590.84,436.14 599.66,437.87 608.48,440.83 617.29,438.03 626.11,443.07 634.93,440.59 643.75,441.81 652.57,442.15 661.38,446.11 670.20,445.93 679.02,447.08 687.84,446.09 696.65,446.34 705.47,447.29 714.29,449.57 723.11,448.97 731.92,445.60 740.74,448.39 749.56,451.19 758.38,450.48 767.19,451.56 776.01,448.85 784.83,449.44 793.65,451.76 802.46,453.48 811.28,454.86 820.10,452.48 828.92,451.76 837.74,453.59 846.55,452.50 855.37,452.60 864.19,453.96 873.01,454.01 881.82,454.18 890.64,455.54 899.46,455.73 908.28,457.11 917.09,457.62 925.91,454.38 934.73,456.49 943.55,455.10 952.36,455.49 961.18,459.18 970.00,457.88" clip-path="url(#plot-area)"/>
<polyline class="series" stroke="#0891b2" stroke-dasharray="7 5" points="176.41,431.97 264.59,414.19 352.77,415.10 440.94,422.10 529.12,430.42 617.29,440.92 705.47,446.35 793.65,451.98 881.82,455.70 970.00,457.31" clip-path="url(#plot-area)"/>
<circle cx="176.41" cy="431.97" r="2.8" fill="#0891b2" clip-path="url(#plot-area)"><title>lr=3e-2 validation: 3.76629</title></circle>
<circle cx="264.59" cy="414.19" r="2.8" fill="#0891b2" clip-path="url(#plot-area)"><title>lr=3e-2 validation: 4.31048</title></circle>
<circle cx="352.77" cy="415.10" r="2.8" fill="#0891b2" clip-path="url(#plot-area)"><title>lr=3e-2 validation: 4.28257</title></circle>
<circle cx="440.94" cy="422.10" r="2.8" fill="#0891b2" clip-path="url(#plot-area)"><title>lr=3e-2 validation: 4.06832</title></circle>
<circle cx="529.12" cy="430.42" r="2.8" fill="#0891b2" clip-path="url(#plot-area)"><title>lr=3e-2 validation: 3.81379</title></circle>
<circle cx="617.29" cy="440.92" r="2.8" fill="#0891b2" clip-path="url(#plot-area)"><title>lr=3e-2 validation: 3.49234</title></circle>
<circle cx="705.47" cy="446.35" r="2.8" fill="#0891b2" clip-path="url(#plot-area)"><title>lr=3e-2 validation: 3.32588</title></circle>
<circle cx="793.65" cy="451.98" r="2.8" fill="#0891b2" clip-path="url(#plot-area)"><title>lr=3e-2 validation: 3.1536</title></circle>
<circle cx="881.82" cy="455.70" r="2.8" fill="#0891b2" clip-path="url(#plot-area)"><title>lr=3e-2 validation: 3.03986</title></circle>
<circle cx="970.00" cy="457.31" r="2.8" fill="#0891b2" clip-path="url(#plot-area)"><title>lr=3e-2 validation: 2.99047</title></circle>
<line x1="90.0" y1="721.0" x2="117.0" y2="721.0" stroke="#0891b2" stroke-width="2"/>
<line x1="127.0" y1="721.0" x2="154.0" y2="721.0" stroke="#0891b2" stroke-width="2" stroke-dasharray="7 5"/>
<text x="165.00" y="725.00" font-size="12">lr=3e-2 (solid: train, dashed: validation)</text>
<polyline class="series" stroke="#4f46e5" points="92.65,269.29 97.05,132.91 101.46,87.02 105.87,181.53 110.28,350.85 114.69,372.72 119.10,377.82 123.51,384.95 127.92,384.70 132.32,380.23 136.73,389.73 141.14,396.55 145.55,397.44 149.96,399.72 154.37,400.88 158.78,402.67 163.19,405.79 167.60,405.81 172.00,408.88 176.41,411.98 180.82,410.64 185.23,413.14 189.64,412.74 194.05,414.25 198.46,413.40 202.87,416.70 207.27,417.42 211.68,415.71 216.09,413.12 220.50,412.64 224.91,409.22 229.32,404.03 233.73,405.71 238.14,403.82 242.55,400.57 246.95,400.41 251.36,400.37 255.77,400.36 260.18,398.15 264.59,394.65 269.00,392.58 273.41,390.25 277.82,387.97 282.22,393.18 286.63,394.21 291.04,383.25 295.45,393.72 299.86,396.71 304.27,397.13 308.68,396.63 313.09,393.30 317.49,386.76 321.90,385.87 326.31,387.40 330.72,387.07 335.13,386.66 339.54,387.90 343.95,383.71 348.36,385.87 352.77,389.28 357.17,389.87 361.58,389.64 365.99,388.53 370.40,388.07 374.81,389.02 379.22,394.53 383.63,395.42 388.04,398.18 392.44,400.67 396.85,397.53 401.26,399.36 405.67,397.39 410.08,399.51 414.49,398.37 418.90,400.70 423.31,401.69 427.72,401.36 432.12,400.03 436.53,401.66 440.94,402.36" clip-path="url(#plot-area)"/>
<polyline class="series" stroke="#4f46e5" stroke-dasharray="7 5" points="123.51,385.23 158.78,403.78 194.05,413.51 229.32,405.42 264.59,392.62 299.86,395.29 335.13,386.82 370.40,389.66 405.67,399.21 440.94,401.75" clip-path="url(#plot-area)"/>
<circle cx="123.51" cy="385.23" r="2.8" fill="#4f46e5" clip-path="url(#plot-area)"><title>lr=1e-1 validation: 5.19697</title></circle>
<circle cx="158.78" cy="403.78" r="2.8" fill="#4f46e5" clip-path="url(#plot-area)"><title>lr=1e-1 validation: 4.6293</title></circle>
<circle cx="194.05" cy="413.51" r="2.8" fill="#4f46e5" clip-path="url(#plot-area)"><title>lr=1e-1 validation: 4.3314</title></circle>
<circle cx="229.32" cy="405.42" r="2.8" fill="#4f46e5" clip-path="url(#plot-area)"><title>lr=1e-1 validation: 4.57888</title></circle>
<circle cx="264.59" cy="392.62" r="2.8" fill="#4f46e5" clip-path="url(#plot-area)"><title>lr=1e-1 validation: 4.97094</title></circle>
<circle cx="299.86" cy="395.29" r="2.8" fill="#4f46e5" clip-path="url(#plot-area)"><title>lr=1e-1 validation: 4.88905</title></circle>
<circle cx="335.13" cy="386.82" r="2.8" fill="#4f46e5" clip-path="url(#plot-area)"><title>lr=1e-1 validation: 5.14841</title></circle>
<circle cx="370.40" cy="389.66" r="2.8" fill="#4f46e5" clip-path="url(#plot-area)"><title>lr=1e-1 validation: 5.06151</title></circle>
<circle cx="405.67" cy="399.21" r="2.8" fill="#4f46e5" clip-path="url(#plot-area)"><title>lr=1e-1 validation: 4.7691</title></circle>
<circle cx="440.94" cy="401.75" r="2.8" fill="#4f46e5" clip-path="url(#plot-area)"><title>lr=1e-1 validation: 4.69136</title></circle>
<line x1="90.0" y1="749.0" x2="117.0" y2="749.0" stroke="#4f46e5" stroke-width="2"/>
<line x1="127.0" y1="749.0" x2="154.0" y2="749.0" stroke="#4f46e5" stroke-width="2" stroke-dasharray="7 5"/>
<text x="165.00" y="753.00" font-size="12">lr=1e-1 (solid: train, dashed: validation)</text>
<polyline class="series" stroke="#65a30d" points="90.00,251.97 91.76,99.68 93.53,-156.52 95.29,-2804.45 97.05,-1168.93 98.82,-183.92 100.58,-11.88 102.34,-128.69 104.11,-202.19 105.87,-176.13 107.64,-308.78 109.40,-246.90 111.16,-134.46 112.93,-313.80 114.69,-92.27 116.45,-9.82 118.22,-32.07 119.98,62.52 121.74,200.37 123.51,183.28 125.27,150.92 127.03,169.61 128.80,240.49 130.56,293.04 132.32,271.85 134.09,300.88 135.85,328.73 137.62,315.51 139.38,345.29 141.14,335.66 142.91,323.24 144.67,325.57 146.43,343.80 148.20,350.77 149.96,345.83 151.72,352.92 153.49,356.89 155.25,353.98 157.01,356.68 158.78,360.09 160.54,360.93 162.30,361.80 164.07,362.24 165.83,358.83 167.60,358.73 169.36,360.46 171.12,363.99 172.89,360.91 174.65,364.44 176.41,366.22 178.18,366.63 179.94,369.21 181.70,369.35 183.47,371.65 185.23,370.26 186.99,373.98 188.76,373.63 190.52,372.79 192.28,377.75 194.05,378.04 195.81,378.95 197.58,380.10 199.34,375.21 201.10,377.31 202.87,382.75 204.63,380.55 206.39,381.21 208.16,382.12 209.92,385.74 211.68,386.64 213.45,387.90 215.21,390.08 216.97,389.04 218.74,391.87 220.50,390.94 222.26,392.61 224.03,394.44 225.79,393.98 227.56,395.93 229.32,393.92 231.08,397.29 232.85,396.48 234.61,397.81 236.37,397.69 238.14,399.13 239.90,400.93 241.66,400.49 243.43,401.22 245.19,403.67 246.95,403.63 248.72,403.10 250.48,403.69 252.24,405.40 254.01,404.80 255.77,405.76 257.54,405.85 259.30,405.49 261.06,407.15 262.83,406.27 264.59,407.48" clip-path="url(#plot-area)"/>
<polyline class="series" stroke="#65a30d" stroke-dasharray="7 5" points="105.87,-200.33 123.51,127.52 141.14,314.33 158.78,360.19 176.41,370.32 194.05,378.61 211.68,388.44 229.32,397.01 246.95,403.70 264.59,407.25" clip-path="url(#plot-area)"/>
<circle cx="105.87" cy="-200.33" r="2.8" fill="#65a30d" clip-path="url(#plot-area)"><title>lr=3e-1 validation: 23.1223</title></circle>
<circle cx="123.51" cy="127.52" r="2.8" fill="#65a30d" clip-path="url(#plot-area)"><title>lr=3e-1 validation: 13.086</title></circle>
<circle cx="141.14" cy="314.33" r="2.8" fill="#65a30d" clip-path="url(#plot-area)"><title>lr=3e-1 validation: 7.36749</title></circle>
<circle cx="158.78" cy="360.19" r="2.8" fill="#65a30d" clip-path="url(#plot-area)"><title>lr=3e-1 validation: 5.96367</title></circle>
<circle cx="176.41" cy="370.32" r="2.8" fill="#65a30d" clip-path="url(#plot-area)"><title>lr=3e-1 validation: 5.65339</title></circle>
<circle cx="194.05" cy="378.61" r="2.8" fill="#65a30d" clip-path="url(#plot-area)"><title>lr=3e-1 validation: 5.39973</title></circle>
<circle cx="211.68" cy="388.44" r="2.8" fill="#65a30d" clip-path="url(#plot-area)"><title>lr=3e-1 validation: 5.09876</title></circle>
<circle cx="229.32" cy="397.01" r="2.8" fill="#65a30d" clip-path="url(#plot-area)"><title>lr=3e-1 validation: 4.83657</title></circle>
<circle cx="246.95" cy="403.70" r="2.8" fill="#65a30d" clip-path="url(#plot-area)"><title>lr=3e-1 validation: 4.63172</title></circle>
<circle cx="264.59" cy="407.25" r="2.8" fill="#65a30d" clip-path="url(#plot-area)"><title>lr=3e-1 validation: 4.52302</title></circle>
<line x1="90.0" y1="777.0" x2="117.0" y2="777.0" stroke="#65a30d" stroke-width="2"/>
<line x1="127.0" y1="777.0" x2="154.0" y2="777.0" stroke="#65a30d" stroke-width="2" stroke-dasharray="7 5"/>
<text x="165.00" y="781.00" font-size="12">lr=3e-1 (solid: train, dashed: validation)</text>
</svg>
