<?xml version="1.0" encoding="UTF-8"?>
<svg xmlns="http://www.w3.org/2000/svg" width="1000" height="640" viewBox="0 0 1000 640">
<style>
text { font-family: ui-sans-serif, system-ui, sans-serif; fill: #172033; }
.grid { stroke: #d8dee9; stroke-width: 1; }
.axis { stroke: #475569; stroke-width: 1.4; }
.series { fill: none; stroke-width: 2; stroke-linejoin: round; stroke-linecap: round; }
</style>
<defs><clipPath id="plot-area"><rect x="90.0" y="65.0" width="880.0" height="457.0"/></clipPath></defs>
<rect width="100%" height="100%" fill="#ffffff"/>
<text x="500.00" y="32.00" text-anchor="middle" font-size="20" font-weight="600">OpenWebText full training (327.68M tokens)</text>
<line class="grid" x1="90.00" y1="65.0" x2="90.00" y2="522.0"/>
<text x="90.00" y="546.00" text-anchor="middle" font-size="12">0</text>
<line class="grid" x1="90.0" y1="522.00" x2="970.0" y2="522.00"/>
<text x="78.00" y="526.00" text-anchor="end" font-size="12">3.48</text>
<line class="grid" x1="266.00" y1="65.0" x2="266.00" y2="522.0"/>
<text x="266.00" y="546.00" text-anchor="middle" font-size="12">66M</text>
<line class="grid" x1="90.0" y1="430.60" x2="970.0" y2="430.60"/>
<text x="78.00" y="434.60" text-anchor="end" font-size="12">4.93</text>
<line class="grid" x1="442.00" y1="65.0" x2="442.00" y2="522.0"/>
<text x="442.00" y="546.00" text-anchor="middle" font-size="12">1.3e+02M</text>
<line class="grid" x1="90.0" y1="339.20" x2="970.0" y2="339.20"/>
<text x="78.00" y="343.20" text-anchor="end" font-size="12">6.38</text>
<line class="grid" x1="618.00" y1="65.0" x2="618.00" y2="522.0"/>
<text x="618.00" y="546.00" text-anchor="middle" font-size="12">2e+02M</text>
<line class="grid" x1="90.0" y1="247.80" x2="970.0" y2="247.80"/>
<text x="78.00" y="251.80" text-anchor="end" font-size="12">7.83</text>
<line class="grid" x1="794.00" y1="65.0" x2="794.00" y2="522.0"/>
<text x="794.00" y="546.00" text-anchor="middle" font-size="12">2.6e+02M</text>
<line class="grid" x1="90.0" y1="156.40" x2="970.0" y2="156.40"/>
<text x="78.00" y="160.40" text-anchor="end" font-size="12">9.27</text>
<line class="grid" x1="970.00" y1="65.0" x2="970.00" y2="522.0"/>
<text x="970.00" y="546.00" text-anchor="middle" font-size="12">3.3e+02M</text>
<line class="grid" x1="90.0" y1="65.00" x2="970.0" y2="65.00"/>
<text x="78.00" y="69.00" text-anchor="end" font-size="12">11</text>
<line class="axis" x1="90.0" y1="65.0" x2="90.0" y2="522.0"/>
<line class="axis" x1="90.0" y1="522.0" x2="970.0" y2="522.0"/>
<text x="530.00" y="573.00" text-anchor="middle" font-size="14">processed tokens</text>
<text x="20" y="293.50" text-anchor="middle" font-size="14" transform="rotate(-90 20 293.50)">loss</text>
<polyline class="series" stroke="#2563eb" points="90.88,118.47 91.76,217.21 92.64,267.86 93.52,285.10 94.40,300.04 95.28,305.91 96.16,319.70 97.04,331.07 97.92,337.57 98.80,340.84 99.68,343.77 100.56,358.82 101.44,362.01 102.32,359.01 103.20,364.94 104.08,363.11 104.96,371.47 105.84,376.05 106.72,377.28 107.60,383.01 108.48,381.89 109.36,386.81 110.24,391.08 111.12,390.66 112.00,395.77 112.88,393.48 113.76,399.45 114.64,395.96 115.52,395.98 116.40,400.82 117.28,405.28 118.16,402.55 119.04,405.21 119.92,405.09 120.80,411.41 121.68,403.74 122.56,406.85 123.44,410.34 124.32,409.91 125.20,412.95 126.08,413.56 126.96,409.42 127.84,416.57 128.72,419.75 129.60,417.35 130.48,417.09 131.36,416.72 132.24,416.55 133.12,416.37 134.00,417.17 134.88,418.08 135.76,422.18 136.64,421.22 137.52,422.58 138.40,424.99 139.28,421.21 140.16,423.30 141.04,428.72 141.92,421.03 142.80,429.09 143.68,430.42 144.56,427.43 145.44,429.20 146.32,426.90 147.20,430.44 148.08,427.70 148.96,427.57 149.84,430.34 150.72,424.16 151.60,435.75 152.48,430.95 153.36,430.55 154.24,425.98 155.12,433.48 156.00,432.04 156.88,430.92 157.76,430.44 158.64,431.82 159.52,435.77 160.40,433.02 161.28,434.21 162.16,436.07 163.04,431.85 163.92,433.61 164.80,437.23 165.68,439.67 166.56,441.95 167.44,440.91 168.32,439.24 169.20,444.02 170.08,439.57 170.96,439.98 171.84,441.81 172.72,442.06 173.60,439.88 174.48,437.77 175.36,439.84 176.24,442.21 177.12,440.24 178.00,444.11 178.88,440.52 179.76,445.63 180.64,445.67 181.52,443.99 182.40,443.41 183.28,444.14 184.16,445.06 185.04,444.33 185.92,447.46 186.80,442.81 187.68,447.25 188.56,449.80 189.44,445.43 190.32,449.59 191.20,443.92 192.08,449.85 192.96,447.83 193.84,450.05 194.72,445.70 195.60,447.75 196.48,446.66 197.36,446.25 198.24,449.26 199.12,449.51 200.00,446.85 200.88,447.18 201.76,448.44 202.64,448.10 203.52,447.46 204.40,450.99 205.28,447.97 206.16,446.79 207.04,449.40 207.92,454.29 208.80,450.80 209.68,449.63 210.56,453.09 211.44,446.33 212.32,445.29 213.20,450.92 214.08,449.37 214.96,450.50 215.84,447.04 216.72,449.89 217.60,452.79 218.48,454.97 219.36,455.73 220.24,457.08 221.12,455.86 222.00,451.44 222.88,455.45 223.76,450.31 224.64,454.34 225.52,455.06 226.40,454.80 227.28,458.07 228.16,453.16 229.04,453.71 229.92,451.21 230.80,457.92 231.68,451.79 232.56,450.38 233.44,456.28 234.32,456.40 235.20,454.06 236.08,451.59 236.96,457.39 237.84,454.33 238.72,458.35 239.60,456.84 240.48,458.57 241.36,454.45 242.24,456.20 243.12,459.24 244.00,457.73 244.88,454.91 245.76,457.17 246.64,456.85 247.52,455.94 248.40,457.82 249.28,454.06 250.16,459.73 251.04,458.62 251.92,460.06 252.80,457.32 253.68,458.76 254.56,461.17 255.44,458.69 256.32,458.34 257.20,452.77 258.08,459.02 258.96,463.95 259.84,455.08 260.72,458.31 261.60,461.53 262.48,466.69 263.36,463.67 264.24,455.40 265.12,460.34 266.00,460.56 266.88,459.29 267.76,463.04 268.64,457.75 269.52,462.60 270.40,456.02 271.28,464.44 272.16,457.04 273.04,465.94 273.92,459.86 274.80,461.98 275.68,460.59 276.56,463.82 277.44,463.97 278.32,463.05 279.20,466.35 280.08,459.40 280.96,464.22 281.84,459.01 282.72,464.77 283.60,460.51 284.48,463.67 285.36,464.92 286.24,460.18 287.12,461.31 288.00,460.33 288.88,462.34 289.76,459.22 290.64,464.26 291.52,460.76 292.40,466.67 293.28,460.20 294.16,461.98 295.04,462.89 295.92,462.44 296.80,460.31 297.68,467.56 298.56,464.55 299.44,464.51 300.32,465.91 301.20,462.29 302.08,464.08 302.96,462.92 303.84,461.88 304.72,464.38 305.60,465.54 306.48,459.83 307.36,464.81 308.24,467.43 309.12,461.34 310.00,464.29 310.88,465.84 311.76,461.21 312.64,465.85 313.52,464.01 314.40,466.18 315.28,467.23 316.16,462.30 317.04,461.85 317.92,467.11 318.80,461.10 319.68,467.09 320.56,465.00 321.44,462.86 322.32,464.59 323.20,464.92 324.08,465.82 324.96,465.45 325.84,466.65 326.72,464.85 327.60,466.10 328.48,465.76 329.36,470.48 330.24,468.23 331.12,465.80 332.00,464.16 332.88,467.18 333.76,464.31 334.64,465.64 335.52,469.54 336.40,470.40 337.28,466.98 338.16,465.84 339.04,471.59 339.92,471.03 340.80,462.82 341.68,465.06 342.56,464.89 343.44,466.67 344.32,469.14 345.20,469.15 346.08,470.32 346.96,467.01 347.84,469.45 348.72,467.99 349.60,465.06 350.48,469.97 351.36,471.18 352.24,463.90 353.12,464.40 354.00,469.71 354.88,468.59 355.76,468.89 356.64,466.84 357.52,467.97 358.40,469.98 359.28,463.17 360.16,466.17 361.04,472.24 361.92,469.58 362.80,465.16 363.68,469.56 364.56,465.70 365.44,470.31 366.32,466.60 367.20,470.09 368.08,468.39 368.96,473.55 369.84,468.94 370.72,471.07 371.60,468.12 372.48,466.73 373.36,470.25 374.24,469.75 375.12,468.55 376.00,471.18 376.88,468.37 377.76,471.32 378.64,472.42 379.52,467.02 380.40,469.73 381.28,474.76 382.16,473.00 383.04,469.10 383.92,467.05 384.80,469.49 385.68,469.14 386.56,465.96 387.44,473.79 388.32,472.39 389.20,471.35 390.08,467.00 390.96,472.86 391.84,472.37 392.72,470.90 393.60,466.97 394.48,470.04 395.36,467.88 396.24,469.91 397.12,472.57 398.00,473.58 398.88,472.78 399.76,469.67 400.64,473.18 401.52,468.84 402.40,473.79 403.28,469.61 404.16,468.15 405.04,476.90 405.92,469.68 406.80,473.37 407.68,468.25 408.56,474.39 409.44,470.90 410.32,471.14 411.20,470.22 412.08,473.57 412.96,472.12 413.84,475.67 414.72,474.48 415.60,470.99 416.48,470.67 417.36,474.07 418.24,471.73 419.12,471.97 420.00,469.61 420.88,472.45 421.76,473.25 422.64,473.93 423.52,472.12 424.40,472.83 425.28,474.41 426.16,474.48 427.04,469.27 427.92,468.26 428.80,476.24 429.68,473.07 430.56,477.43 431.44,471.09 432.32,469.69 433.20,473.26 434.08,474.27 434.96,477.33 435.84,474.39 436.72,471.47 437.60,475.83 438.48,474.87 439.36,475.05 440.24,473.75 441.12,471.57 442.00,478.55 442.88,473.49 443.76,472.98 444.64,472.72 445.52,472.40 446.40,471.88 447.28,473.17 448.16,473.62 449.04,470.25 449.92,472.95 450.80,477.16 451.68,468.75 452.56,474.61 453.44,477.80 454.32,474.50 455.20,475.77 456.08,475.16 456.96,474.98 457.84,471.27 458.72,475.38 459.60,481.02 460.48,475.29 461.36,467.94 462.24,472.98 463.12,472.71 464.00,475.18 464.88,471.98 465.76,472.38 466.64,473.05 467.52,474.13 468.40,473.74 469.28,471.85 470.16,477.86 471.04,474.85 471.92,474.71 472.80,476.72 473.68,475.49 474.56,477.51 475.44,475.12 476.32,473.33 477.20,483.49 478.08,472.30 478.96,478.77 479.84,473.33 480.72,475.93 481.60,473.96 482.48,473.86 483.36,471.24 484.24,480.21 485.12,474.51 486.00,480.32 486.88,471.81 487.76,476.48 488.64,472.48 489.52,476.76 490.40,473.75 491.28,476.11 492.16,474.29 493.04,468.65 493.92,474.90 494.80,472.56 495.68,476.35 496.56,475.17 497.44,476.98 498.32,477.77 499.20,473.94 500.08,479.85 500.96,476.93 501.84,473.16 502.72,472.25 503.60,474.55 504.48,478.55 505.36,479.77 506.24,474.04 507.12,477.02 508.00,477.30 508.88,477.76 509.76,476.78 510.64,471.21 511.52,480.54 512.40,475.69 513.28,478.22 514.16,473.61 515.04,480.74 515.92,474.36 516.80,477.32 517.68,476.30 518.56,475.44 519.44,479.39 520.32,474.72 521.20,476.54 522.08,476.82 522.96,480.02 523.84,483.56 524.72,475.82 525.60,481.84 526.48,479.12 527.36,471.02 528.24,477.72 529.12,479.68 530.00,481.77 530.88,475.46 531.76,476.99 532.64,481.77 533.52,479.64 534.40,477.04 535.28,477.51 536.16,477.23 537.04,477.66 537.92,475.31 538.80,482.65 539.68,477.91 540.56,479.74 541.44,479.53 542.32,478.97 543.20,481.16 544.08,480.72 544.96,476.70 545.84,480.59 546.72,478.50 547.60,482.92 548.48,474.60 549.36,476.94 550.24,481.66 551.12,485.48 552.00,482.14 552.88,479.05 553.76,482.86 554.64,477.15 555.52,477.27 556.40,480.44 557.28,477.89 558.16,476.03 559.04,484.02 559.92,480.21 560.80,475.57 561.68,477.99 562.56,483.15 563.44,477.55 564.32,480.54 565.20,478.75 566.08,477.56 566.96,477.73 567.84,476.87 568.72,480.82 569.60,482.91 570.48,478.88 571.36,475.12 572.24,480.64 573.12,478.57 574.00,481.88 574.88,480.20 575.76,480.72 576.64,483.13 577.52,477.39 578.40,479.21 579.28,482.26 580.16,481.12 581.04,479.20 581.92,480.88 582.80,477.00 583.68,482.81 584.56,475.22 585.44,480.45 586.32,480.86 587.20,479.78 588.08,483.33 588.96,479.75 589.84,480.22 590.72,480.82 591.60,484.05 592.48,484.87 593.36,481.73 594.24,484.03 595.12,482.39 596.00,480.87 596.88,480.51 597.76,477.57 598.64,479.80 599.52,484.60 600.40,480.10 601.28,479.26 602.16,478.56 603.04,481.73 603.92,484.23 604.80,483.03 605.68,483.22 606.56,478.00 607.44,486.42 608.32,476.98 609.20,480.25 610.08,483.85 610.96,484.51 611.84,486.68 612.72,481.24 613.60,481.30 614.48,482.92 615.36,483.36 616.24,481.74 617.12,484.96 618.00,481.07 618.88,487.40 619.76,482.23 620.64,483.41 621.52,485.96 622.40,484.64 623.28,488.89 624.16,484.60 625.04,486.86 625.92,484.70 626.80,479.80 627.68,482.83 628.56,478.32 629.44,482.72 630.32,485.06 631.20,481.99 632.08,482.06 632.96,480.58 633.84,484.56 634.72,484.18 635.60,482.26 636.48,488.53 637.36,484.66 638.24,483.24 639.12,485.32 640.00,483.42 640.88,482.69 641.76,484.95 642.64,478.39 643.52,482.58 644.40,480.72 645.28,481.36 646.16,482.24 647.04,482.93 647.92,479.13 648.80,485.35 649.68,483.37 650.56,485.82 651.44,486.68 652.32,482.58 653.20,482.03 654.08,484.10 654.96,485.98 655.84,478.12 656.72,490.25 657.60,486.05 658.48,485.63 659.36,480.86 660.24,484.71 661.12,482.17 662.00,488.69 662.88,489.07 663.76,481.19 664.64,483.44 665.52,483.10 666.40,483.73 667.28,486.58 668.16,489.44 669.04,485.28 669.92,482.40 670.80,481.07 671.68,485.40 672.56,482.00 673.44,486.10 674.32,481.50 675.20,488.97 676.08,485.62 676.96,484.42 677.84,486.13 678.72,482.96 679.60,489.39 680.48,484.82 681.36,488.14 682.24,485.87 683.12,491.86 684.00,481.64 684.88,484.20 685.76,488.49 686.64,478.59 687.52,485.58 688.40,485.05 689.28,488.34 690.16,488.27 691.04,484.99 691.92,484.71 692.80,486.58 693.68,485.78 694.56,482.72 695.44,490.11 696.32,485.69 697.20,483.17 698.08,484.76 698.96,487.67 699.84,488.44 700.72,480.27 701.60,489.30 702.48,484.32 703.36,488.19 704.24,486.68 705.12,485.61 706.00,485.13 706.88,485.87 707.76,487.57 708.64,481.53 709.52,486.67 710.40,488.30 711.28,489.31 712.16,489.19 713.04,486.86 713.92,487.83 714.80,483.70 715.68,488.19 716.56,487.01 717.44,486.40 718.32,482.86 719.20,486.26 720.08,486.19 720.96,483.30 721.84,491.61 722.72,491.16 723.60,484.32 724.48,489.23 725.36,487.79 726.24,494.59 727.12,486.61 728.00,486.24 728.88,486.19 729.76,488.69 730.64,485.41 731.52,488.01 732.40,485.90 733.28,490.97 734.16,488.25 735.04,487.45 735.92,489.72 736.80,484.83 737.68,486.84 738.56,486.80 739.44,492.47 740.32,489.01 741.20,487.25 742.08,486.61 742.96,490.85 743.84,486.79 744.72,485.55 745.60,482.71 746.48,487.99 747.36,484.40 748.24,484.17 749.12,492.25 750.00,492.72 750.88,489.65 751.76,484.97 752.64,486.71 753.52,487.44 754.40,486.84 755.28,486.96 756.16,491.87 757.04,492.14 757.92,491.45 758.80,485.69 759.68,489.17 760.56,487.38 761.44,484.68 762.32,486.48 763.20,490.06 764.08,489.30 764.96,482.05 765.84,489.31 766.72,489.05 767.60,490.82 768.48,488.52 769.36,485.33 770.24,489.75 771.12,488.73 772.00,491.57 772.88,491.96 773.76,492.05 774.64,489.87 775.52,490.37 776.40,488.07 777.28,486.95 778.16,488.78 779.04,485.88 779.92,484.67 780.80,491.47 781.68,488.12 782.56,492.71 783.44,489.20 784.32,489.27 785.20,494.89 786.08,487.95 786.96,491.40 787.84,489.25 788.72,488.29 789.60,491.63 790.48,490.98 791.36,487.00 792.24,482.58 793.12,488.32 794.00,488.15 794.88,486.86 795.76,491.09 796.64,489.34 797.52,489.04 798.40,487.90 799.28,492.36 800.16,487.37 801.04,492.01 801.92,487.52 802.80,493.10 803.68,493.17 804.56,489.50 805.44,487.19 806.32,490.15 807.20,492.62 808.08,488.94 808.96,490.15 809.84,489.60 810.72,493.45 811.60,489.08 812.48,491.50 813.36,487.56 814.24,491.87 815.12,490.52 816.00,491.71 816.88,489.11 817.76,488.76 818.64,493.85 819.52,484.37 820.40,493.30 821.28,491.87 822.16,490.79 823.04,490.62 823.92,485.87 824.80,490.29 825.68,488.33 826.56,492.26 827.44,488.22 828.32,488.59 829.20,495.61 830.08,492.01 830.96,485.11 831.84,490.90 832.72,490.02 833.60,491.09 834.48,487.63 835.36,494.35 836.24,492.07 837.12,489.42 838.00,491.46 838.88,493.32 839.76,490.22 840.64,494.08 841.52,488.57 842.40,487.76 843.28,492.26 844.16,495.50 845.04,490.79 845.92,488.51 846.80,488.28 847.68,493.83 848.56,494.07 849.44,492.60 850.32,491.45 851.20,492.89 852.08,492.35 852.96,488.39 853.84,488.43 854.72,487.42 855.60,494.49 856.48,490.57 857.36,493.55 858.24,490.46 859.12,497.44 860.00,493.34 860.88,498.23 861.76,492.85 862.64,491.27 863.52,490.83 864.40,493.13 865.28,492.78 866.16,490.89 867.04,494.31 867.92,490.50 868.80,495.95 869.68,488.51 870.56,488.44 871.44,487.41 872.32,492.16 873.20,486.52 874.08,494.11 874.96,486.57 875.84,496.65 876.72,494.14 877.60,489.74 878.48,492.41 879.36,489.97 880.24,492.93 881.12,489.35 882.00,490.39 882.88,488.61 883.76,490.93 884.64,490.57 885.52,494.02 886.40,494.62 887.28,493.58 888.16,492.24 889.04,491.86 889.92,495.83 890.80,487.92 891.68,494.22 892.56,494.64 893.44,494.16 894.32,493.29 895.20,492.83 896.08,494.89 896.96,496.04 897.84,487.69 898.72,493.98 899.60,491.91 900.48,493.91 901.36,494.64 902.24,491.72 903.12,491.23 904.00,494.61 904.88,492.60 905.76,491.29 906.64,497.72 907.52,490.43 908.40,494.76 909.28,497.20 910.16,490.62 911.04,493.00 911.92,493.34 912.80,492.24 913.68,496.16 914.56,488.69 915.44,488.84 916.32,493.83 917.20,491.00 918.08,492.55 918.96,492.98 919.84,494.73 920.72,491.78 921.60,492.28 922.48,495.02 923.36,492.48 924.24,490.19 925.12,491.14 926.00,491.67 926.88,490.75 927.76,492.34 928.64,490.24 929.52,495.51 930.40,491.38 931.28,493.91 932.16,492.30 933.04,491.28 933.92,490.31 934.80,492.85 935.68,495.35 936.56,494.22 937.44,490.88 938.32,490.42 939.20,489.90 940.08,490.14 940.96,493.14 941.84,493.70 942.72,493.12 943.60,496.57 944.48,490.79 945.36,494.79 946.24,495.38 947.12,493.90 948.00,495.45 948.88,493.43 949.76,495.61 950.64,496.31 951.52,493.70 952.40,490.81 953.28,491.33 954.16,493.27 955.04,501.23 955.92,495.06 956.80,490.89 957.68,492.32 958.56,491.18 959.44,494.31 960.32,496.70 961.20,489.05 962.08,497.77 962.96,499.70 963.84,495.18 964.72,493.03 965.60,491.06 966.48,491.55 967.36,495.57 968.24,493.69 969.12,498.13 970.00,495.84" clip-path="url(#plot-area)"/>
<polyline class="series" stroke="#2563eb" stroke-dasharray="7 5" points="90.00,85.77 98.80,346.48 107.60,383.25 116.40,402.16 125.20,411.92 134.00,420.88 142.80,427.42 151.60,430.53 160.40,436.02 169.20,440.15 178.00,442.23 186.80,446.69 195.60,448.44 204.40,450.69 213.20,452.09 222.00,453.19 230.80,453.85 239.60,455.93 248.40,458.55 257.20,461.50 266.00,461.64 274.80,460.15 283.60,463.42 292.40,461.33 301.20,463.64 310.00,464.45 318.80,464.49 327.60,467.23 336.40,466.24 345.20,468.32 354.00,466.96 362.80,467.93 371.60,469.70 380.40,469.80 389.20,469.36 398.00,470.02 406.80,470.07 415.60,469.87 424.40,471.43 433.20,473.83 442.00,472.00 450.80,474.32 459.60,473.62 468.40,474.65 477.20,475.22 486.00,475.80 494.80,475.34 503.60,476.80 512.40,475.71 521.20,475.53 530.00,476.33 538.80,478.63 547.60,480.99 556.40,478.46 565.20,478.81 574.00,480.54 582.80,480.89 591.60,480.75 600.40,481.41 609.20,479.85 618.00,483.78 626.80,482.95 635.60,483.38 644.40,484.08 653.20,483.36 662.00,483.79 670.80,484.63 679.60,486.38 688.40,484.55 697.20,485.50 706.00,486.54 714.80,486.10 723.60,487.55 732.40,489.47 741.20,486.74 750.00,489.29 758.80,487.62 767.60,488.63 776.40,488.78 785.20,490.15 794.00,489.14 802.80,490.95 811.60,489.01 820.40,490.40 829.20,488.58 838.00,491.62 846.80,490.47 855.60,490.51 864.40,491.05 873.20,493.20 882.00,494.27 890.80,491.39 899.60,492.85 908.40,494.85 917.20,492.67 926.00,490.97 934.80,491.16 943.60,492.22 952.40,493.79 961.20,492.50 970.00,492.46" clip-path="url(#plot-area)"/>
<circle cx="90.00" cy="85.77" r="2.8" fill="#2563eb" clip-path="url(#plot-area)"><title>OpenWebText, lr=3e-3 validation: 10.3921</title></circle>
<circle cx="98.80" cy="346.48" r="2.8" fill="#2563eb" clip-path="url(#plot-area)"><title>OpenWebText, lr=3e-3 validation: 6.26332</title></circle>
<circle cx="107.60" cy="383.25" r="2.8" fill="#2563eb" clip-path="url(#plot-area)"><title>OpenWebText, lr=3e-3 validation: 5.68098</title></circle>
<circle cx="116.40" cy="402.16" r="2.8" fill="#2563eb" clip-path="url(#plot-area)"><title>OpenWebText, lr=3e-3 validation: 5.38151</title></circle>
<circle cx="125.20" cy="411.92" r="2.8" fill="#2563eb" clip-path="url(#plot-area)"><title>OpenWebText, lr=3e-3 validation: 5.22689</title></circle>
<circle cx="134.00" cy="420.88" r="2.8" fill="#2563eb" clip-path="url(#plot-area)"><title>OpenWebText, lr=3e-3 validation: 5.08508</title></circle>
<circle cx="142.80" cy="427.42" r="2.8" fill="#2563eb" clip-path="url(#plot-area)"><title>OpenWebText, lr=3e-3 validation: 4.98153</title></circle>
<circle cx="151.60" cy="430.53" r="2.8" fill="#2563eb" clip-path="url(#plot-area)"><title>OpenWebText, lr=3e-3 validation: 4.93225</title></circle>
<circle cx="160.40" cy="436.02" r="2.8" fill="#2563eb" clip-path="url(#plot-area)"><title>OpenWebText, lr=3e-3 validation: 4.84527</title></circle>
<circle cx="169.20" cy="440.15" r="2.8" fill="#2563eb" clip-path="url(#plot-area)"><title>OpenWebText, lr=3e-3 validation: 4.7798</title></circle>
<circle cx="178.00" cy="442.23" r="2.8" fill="#2563eb" clip-path="url(#plot-area)"><title>OpenWebText, lr=3e-3 validation: 4.74684</title></circle>
<circle cx="186.80" cy="446.69" r="2.8" fill="#2563eb" clip-path="url(#plot-area)"><title>OpenWebText, lr=3e-3 validation: 4.67631</title></circle>
<circle cx="195.60" cy="448.44" r="2.8" fill="#2563eb" clip-path="url(#plot-area)"><title>OpenWebText, lr=3e-3 validation: 4.64861</title></circle>
<circle cx="204.40" cy="450.69" r="2.8" fill="#2563eb" clip-path="url(#plot-area)"><title>OpenWebText, lr=3e-3 validation: 4.61287</title></circle>
<circle cx="213.20" cy="452.09" r="2.8" fill="#2563eb" clip-path="url(#plot-area)"><title>OpenWebText, lr=3e-3 validation: 4.59077</title></circle>
<circle cx="222.00" cy="453.19" r="2.8" fill="#2563eb" clip-path="url(#plot-area)"><title>OpenWebText, lr=3e-3 validation: 4.57334</title></circle>
<circle cx="230.80" cy="453.85" r="2.8" fill="#2563eb" clip-path="url(#plot-area)"><title>OpenWebText, lr=3e-3 validation: 4.56294</title></circle>
<circle cx="239.60" cy="455.93" r="2.8" fill="#2563eb" clip-path="url(#plot-area)"><title>OpenWebText, lr=3e-3 validation: 4.52987</title></circle>
<circle cx="248.40" cy="458.55" r="2.8" fill="#2563eb" clip-path="url(#plot-area)"><title>OpenWebText, lr=3e-3 validation: 4.48853</title></circle>
<circle cx="257.20" cy="461.50" r="2.8" fill="#2563eb" clip-path="url(#plot-area)"><title>OpenWebText, lr=3e-3 validation: 4.44178</title></circle>
<circle cx="266.00" cy="461.64" r="2.8" fill="#2563eb" clip-path="url(#plot-area)"><title>OpenWebText, lr=3e-3 validation: 4.43959</title></circle>
<circle cx="274.80" cy="460.15" r="2.8" fill="#2563eb" clip-path="url(#plot-area)"><title>OpenWebText, lr=3e-3 validation: 4.46317</title></circle>
<circle cx="283.60" cy="463.42" r="2.8" fill="#2563eb" clip-path="url(#plot-area)"><title>OpenWebText, lr=3e-3 validation: 4.41127</title></circle>
<circle cx="292.40" cy="461.33" r="2.8" fill="#2563eb" clip-path="url(#plot-area)"><title>OpenWebText, lr=3e-3 validation: 4.4444</title></circle>
<circle cx="301.20" cy="463.64" r="2.8" fill="#2563eb" clip-path="url(#plot-area)"><title>OpenWebText, lr=3e-3 validation: 4.4078</title></circle>
<circle cx="310.00" cy="464.45" r="2.8" fill="#2563eb" clip-path="url(#plot-area)"><title>OpenWebText, lr=3e-3 validation: 4.39498</title></circle>
<circle cx="318.80" cy="464.49" r="2.8" fill="#2563eb" clip-path="url(#plot-area)"><title>OpenWebText, lr=3e-3 validation: 4.39439</title></circle>
<circle cx="327.60" cy="467.23" r="2.8" fill="#2563eb" clip-path="url(#plot-area)"><title>OpenWebText, lr=3e-3 validation: 4.35096</title></circle>
<circle cx="336.40" cy="466.24" r="2.8" fill="#2563eb" clip-path="url(#plot-area)"><title>OpenWebText, lr=3e-3 validation: 4.36666</title></circle>
<circle cx="345.20" cy="468.32" r="2.8" fill="#2563eb" clip-path="url(#plot-area)"><title>OpenWebText, lr=3e-3 validation: 4.33381</title></circle>
<circle cx="354.00" cy="466.96" r="2.8" fill="#2563eb" clip-path="url(#plot-area)"><title>OpenWebText, lr=3e-3 validation: 4.35532</title></circle>
<circle cx="362.80" cy="467.93" r="2.8" fill="#2563eb" clip-path="url(#plot-area)"><title>OpenWebText, lr=3e-3 validation: 4.33994</title></circle>
<circle cx="371.60" cy="469.70" r="2.8" fill="#2563eb" clip-path="url(#plot-area)"><title>OpenWebText, lr=3e-3 validation: 4.31192</title></circle>
<circle cx="380.40" cy="469.80" r="2.8" fill="#2563eb" clip-path="url(#plot-area)"><title>OpenWebText, lr=3e-3 validation: 4.31025</title></circle>
<circle cx="389.20" cy="469.36" r="2.8" fill="#2563eb" clip-path="url(#plot-area)"><title>OpenWebText, lr=3e-3 validation: 4.31726</title></circle>
<circle cx="398.00" cy="470.02" r="2.8" fill="#2563eb" clip-path="url(#plot-area)"><title>OpenWebText, lr=3e-3 validation: 4.30681</title></circle>
<circle cx="406.80" cy="470.07" r="2.8" fill="#2563eb" clip-path="url(#plot-area)"><title>OpenWebText, lr=3e-3 validation: 4.30602</title></circle>
<circle cx="415.60" cy="469.87" r="2.8" fill="#2563eb" clip-path="url(#plot-area)"><title>OpenWebText, lr=3e-3 validation: 4.30914</title></circle>
<circle cx="424.40" cy="471.43" r="2.8" fill="#2563eb" clip-path="url(#plot-area)"><title>OpenWebText, lr=3e-3 validation: 4.28441</title></circle>
<circle cx="433.20" cy="473.83" r="2.8" fill="#2563eb" clip-path="url(#plot-area)"><title>OpenWebText, lr=3e-3 validation: 4.24643</title></circle>
<circle cx="442.00" cy="472.00" r="2.8" fill="#2563eb" clip-path="url(#plot-area)"><title>OpenWebText, lr=3e-3 validation: 4.27538</title></circle>
<circle cx="450.80" cy="474.32" r="2.8" fill="#2563eb" clip-path="url(#plot-area)"><title>OpenWebText, lr=3e-3 validation: 4.23872</title></circle>
<circle cx="459.60" cy="473.62" r="2.8" fill="#2563eb" clip-path="url(#plot-area)"><title>OpenWebText, lr=3e-3 validation: 4.24983</title></circle>
<circle cx="468.40" cy="474.65" r="2.8" fill="#2563eb" clip-path="url(#plot-area)"><title>OpenWebText, lr=3e-3 validation: 4.23342</title></circle>
<circle cx="477.20" cy="475.22" r="2.8" fill="#2563eb" clip-path="url(#plot-area)"><title>OpenWebText, lr=3e-3 validation: 4.2244</title></circle>
<circle cx="486.00" cy="475.80" r="2.8" fill="#2563eb" clip-path="url(#plot-area)"><title>OpenWebText, lr=3e-3 validation: 4.21521</title></circle>
<circle cx="494.80" cy="475.34" r="2.8" fill="#2563eb" clip-path="url(#plot-area)"><title>OpenWebText, lr=3e-3 validation: 4.22253</title></circle>
<circle cx="503.60" cy="476.80" r="2.8" fill="#2563eb" clip-path="url(#plot-area)"><title>OpenWebText, lr=3e-3 validation: 4.1995</title></circle>
<circle cx="512.40" cy="475.71" r="2.8" fill="#2563eb" clip-path="url(#plot-area)"><title>OpenWebText, lr=3e-3 validation: 4.21663</title></circle>
<circle cx="521.20" cy="475.53" r="2.8" fill="#2563eb" clip-path="url(#plot-area)"><title>OpenWebText, lr=3e-3 validation: 4.21957</title></circle>
<circle cx="530.00" cy="476.33" r="2.8" fill="#2563eb" clip-path="url(#plot-area)"><title>OpenWebText, lr=3e-3 validation: 4.20684</title></circle>
<circle cx="538.80" cy="478.63" r="2.8" fill="#2563eb" clip-path="url(#plot-area)"><title>OpenWebText, lr=3e-3 validation: 4.17046</title></circle>
<circle cx="547.60" cy="480.99" r="2.8" fill="#2563eb" clip-path="url(#plot-area)"><title>OpenWebText, lr=3e-3 validation: 4.13311</title></circle>
<circle cx="556.40" cy="478.46" r="2.8" fill="#2563eb" clip-path="url(#plot-area)"><title>OpenWebText, lr=3e-3 validation: 4.1731</title></circle>
<circle cx="565.20" cy="478.81" r="2.8" fill="#2563eb" clip-path="url(#plot-area)"><title>OpenWebText, lr=3e-3 validation: 4.16753</title></circle>
<circle cx="574.00" cy="480.54" r="2.8" fill="#2563eb" clip-path="url(#plot-area)"><title>OpenWebText, lr=3e-3 validation: 4.14022</title></circle>
<circle cx="582.80" cy="480.89" r="2.8" fill="#2563eb" clip-path="url(#plot-area)"><title>OpenWebText, lr=3e-3 validation: 4.13462</title></circle>
<circle cx="591.60" cy="480.75" r="2.8" fill="#2563eb" clip-path="url(#plot-area)"><title>OpenWebText, lr=3e-3 validation: 4.13682</title></circle>
<circle cx="600.40" cy="481.41" r="2.8" fill="#2563eb" clip-path="url(#plot-area)"><title>OpenWebText, lr=3e-3 validation: 4.12638</title></circle>
<circle cx="609.20" cy="479.85" r="2.8" fill="#2563eb" clip-path="url(#plot-area)"><title>OpenWebText, lr=3e-3 validation: 4.15117</title></circle>
<circle cx="618.00" cy="483.78" r="2.8" fill="#2563eb" clip-path="url(#plot-area)"><title>OpenWebText, lr=3e-3 validation: 4.08892</title></circle>
<circle cx="626.80" cy="482.95" r="2.8" fill="#2563eb" clip-path="url(#plot-area)"><title>OpenWebText, lr=3e-3 validation: 4.10209</title></circle>
<circle cx="635.60" cy="483.38" r="2.8" fill="#2563eb" clip-path="url(#plot-area)"><title>OpenWebText, lr=3e-3 validation: 4.09526</title></circle>
<circle cx="644.40" cy="484.08" r="2.8" fill="#2563eb" clip-path="url(#plot-area)"><title>OpenWebText, lr=3e-3 validation: 4.08407</title></circle>
<circle cx="653.20" cy="483.36" r="2.8" fill="#2563eb" clip-path="url(#plot-area)"><title>OpenWebText, lr=3e-3 validation: 4.09556</title></circle>
<circle cx="662.00" cy="483.79" r="2.8" fill="#2563eb" clip-path="url(#plot-area)"><title>OpenWebText, lr=3e-3 validation: 4.08872</title></circle>
<circle cx="670.80" cy="484.63" r="2.8" fill="#2563eb" clip-path="url(#plot-area)"><title>OpenWebText, lr=3e-3 validation: 4.0754</title></circle>
<circle cx="679.60" cy="486.38" r="2.8" fill="#2563eb" clip-path="url(#plot-area)"><title>OpenWebText, lr=3e-3 validation: 4.04769</title></circle>
<circle cx="688.40" cy="484.55" r="2.8" fill="#2563eb" clip-path="url(#plot-area)"><title>OpenWebText, lr=3e-3 validation: 4.07677</title></circle>
<circle cx="697.20" cy="485.50" r="2.8" fill="#2563eb" clip-path="url(#plot-area)"><title>OpenWebText, lr=3e-3 validation: 4.06172</title></circle>
<circle cx="706.00" cy="486.54" r="2.8" fill="#2563eb" clip-path="url(#plot-area)"><title>OpenWebText, lr=3e-3 validation: 4.04511</title></circle>
<circle cx="714.80" cy="486.10" r="2.8" fill="#2563eb" clip-path="url(#plot-area)"><title>OpenWebText, lr=3e-3 validation: 4.05219</title></circle>
<circle cx="723.60" cy="487.55" r="2.8" fill="#2563eb" clip-path="url(#plot-area)"><title>OpenWebText, lr=3e-3 validation: 4.02923</title></circle>
<circle cx="732.40" cy="489.47" r="2.8" fill="#2563eb" clip-path="url(#plot-area)"><title>OpenWebText, lr=3e-3 validation: 3.99886</title></circle>
<circle cx="741.20" cy="486.74" r="2.8" fill="#2563eb" clip-path="url(#plot-area)"><title>OpenWebText, lr=3e-3 validation: 4.04197</title></circle>
<circle cx="750.00" cy="489.29" r="2.8" fill="#2563eb" clip-path="url(#plot-area)"><title>OpenWebText, lr=3e-3 validation: 4.00163</title></circle>
<circle cx="758.80" cy="487.62" r="2.8" fill="#2563eb" clip-path="url(#plot-area)"><title>OpenWebText, lr=3e-3 validation: 4.028</title></circle>
<circle cx="767.60" cy="488.63" r="2.8" fill="#2563eb" clip-path="url(#plot-area)"><title>OpenWebText, lr=3e-3 validation: 4.01201</title></circle>
<circle cx="776.40" cy="488.78" r="2.8" fill="#2563eb" clip-path="url(#plot-area)"><title>OpenWebText, lr=3e-3 validation: 4.00971</title></circle>
<circle cx="785.20" cy="490.15" r="2.8" fill="#2563eb" clip-path="url(#plot-area)"><title>OpenWebText, lr=3e-3 validation: 3.98803</title></circle>
<circle cx="794.00" cy="489.14" r="2.8" fill="#2563eb" clip-path="url(#plot-area)"><title>OpenWebText, lr=3e-3 validation: 4.00398</title></circle>
<circle cx="802.80" cy="490.95" r="2.8" fill="#2563eb" clip-path="url(#plot-area)"><title>OpenWebText, lr=3e-3 validation: 3.97542</title></circle>
<circle cx="811.60" cy="489.01" r="2.8" fill="#2563eb" clip-path="url(#plot-area)"><title>OpenWebText, lr=3e-3 validation: 4.00604</title></circle>
<circle cx="820.40" cy="490.40" r="2.8" fill="#2563eb" clip-path="url(#plot-area)"><title>OpenWebText, lr=3e-3 validation: 3.98407</title></circle>
<circle cx="829.20" cy="488.58" r="2.8" fill="#2563eb" clip-path="url(#plot-area)"><title>OpenWebText, lr=3e-3 validation: 4.01293</title></circle>
<circle cx="838.00" cy="491.62" r="2.8" fill="#2563eb" clip-path="url(#plot-area)"><title>OpenWebText, lr=3e-3 validation: 3.96476</title></circle>
<circle cx="846.80" cy="490.47" r="2.8" fill="#2563eb" clip-path="url(#plot-area)"><title>OpenWebText, lr=3e-3 validation: 3.98289</title></circle>
<circle cx="855.60" cy="490.51" r="2.8" fill="#2563eb" clip-path="url(#plot-area)"><title>OpenWebText, lr=3e-3 validation: 3.98237</title></circle>
<circle cx="864.40" cy="491.05" r="2.8" fill="#2563eb" clip-path="url(#plot-area)"><title>OpenWebText, lr=3e-3 validation: 3.97381</title></circle>
<circle cx="873.20" cy="493.20" r="2.8" fill="#2563eb" clip-path="url(#plot-area)"><title>OpenWebText, lr=3e-3 validation: 3.93967</title></circle>
<circle cx="882.00" cy="494.27" r="2.8" fill="#2563eb" clip-path="url(#plot-area)"><title>OpenWebText, lr=3e-3 validation: 3.92276</title></circle>
<circle cx="890.80" cy="491.39" r="2.8" fill="#2563eb" clip-path="url(#plot-area)"><title>OpenWebText, lr=3e-3 validation: 3.9684</title></circle>
<circle cx="899.60" cy="492.85" r="2.8" fill="#2563eb" clip-path="url(#plot-area)"><title>OpenWebText, lr=3e-3 validation: 3.94524</title></circle>
<circle cx="908.40" cy="494.85" r="2.8" fill="#2563eb" clip-path="url(#plot-area)"><title>OpenWebText, lr=3e-3 validation: 3.91366</title></circle>
<circle cx="917.20" cy="492.67" r="2.8" fill="#2563eb" clip-path="url(#plot-area)"><title>OpenWebText, lr=3e-3 validation: 3.94812</title></circle>
<circle cx="926.00" cy="490.97" r="2.8" fill="#2563eb" clip-path="url(#plot-area)"><title>OpenWebText, lr=3e-3 validation: 3.97502</title></circle>
<circle cx="934.80" cy="491.16" r="2.8" fill="#2563eb" clip-path="url(#plot-area)"><title>OpenWebText, lr=3e-3 validation: 3.97209</title></circle>
<circle cx="943.60" cy="492.22" r="2.8" fill="#2563eb" clip-path="url(#plot-area)"><title>OpenWebText, lr=3e-3 validation: 3.95517</title></circle>
<circle cx="952.40" cy="493.79" r="2.8" fill="#2563eb" clip-path="url(#plot-area)"><title>OpenWebText, lr=3e-3 validation: 3.93037</title></circle>
<circle cx="961.20" cy="492.50" r="2.8" fill="#2563eb" clip-path="url(#plot-area)"><title>OpenWebText, lr=3e-3 validation: 3.95084</title></circle>
<circle cx="970.00" cy="492.46" r="2.8" fill="#2563eb" clip-path="url(#plot-area)"><title>OpenWebText, lr=3e-3 validation: 3.95144</title></circle>
<line x1="90.0" y1="597.0" x2="117.0" y2="597.0" stroke="#2563eb" stroke-width="2"/>
<line x1="127.0" y1="597.0" x2="154.0" y2="597.0" stroke="#2563eb" stroke-width="2" stroke-dasharray="7 5"/>
<text x="165.00" y="601.00" font-size="12">OpenWebText, lr=3e-3 (solid: train, dashed: validation)</text>
</svg>
