<?xml version="1.0" encoding="UTF-8"?>
<svg xmlns="http://www.w3.org/2000/svg" width="1000" height="680" viewBox="0 0 1000 680">
<style>
text { font-family: ui-sans-serif, system-ui, sans-serif; fill: #172033; }
.grid { stroke: #d8dee9; stroke-width: 1; }
.axis { stroke: #475569; stroke-width: 1.4; }
.series { fill: none; stroke-width: 2; stroke-linejoin: round; stroke-linecap: round; }
</style>
<defs><clipPath id="plot-area"><rect x="90.0" y="65.0" width="880.0" height="469.0"/></clipPath></defs>
<rect width="100%" height="100%" fill="#ffffff"/>
<text x="500.00" y="32.00" text-anchor="middle" font-size="20" font-weight="600">TinyStories full training: original vs tuned LR</text>
<line class="grid" x1="90.00" y1="65.0" x2="90.00" y2="534.0"/>
<text x="90.00" y="558.00" text-anchor="middle" font-size="12">0</text>
<line class="grid" x1="90.0" y1="534.00" x2="970.0" y2="534.00"/>
<text x="78.00" y="538.00" text-anchor="end" font-size="12">1.2</text>
<line class="grid" x1="266.00" y1="65.0" x2="266.00" y2="534.0"/>
<text x="266.00" y="558.00" text-anchor="middle" font-size="12">2K</text>
<line class="grid" x1="90.0" y1="440.20" x2="970.0" y2="440.20"/>
<text x="78.00" y="444.20" text-anchor="end" font-size="12">2.86</text>
<line class="grid" x1="442.00" y1="65.0" x2="442.00" y2="534.0"/>
<text x="442.00" y="558.00" text-anchor="middle" font-size="12">4K</text>
<line class="grid" x1="90.0" y1="346.40" x2="970.0" y2="346.40"/>
<text x="78.00" y="350.40" text-anchor="end" font-size="12">4.52</text>
<line class="grid" x1="618.00" y1="65.0" x2="618.00" y2="534.0"/>
<text x="618.00" y="558.00" text-anchor="middle" font-size="12">6K</text>
<line class="grid" x1="90.0" y1="252.60" x2="970.0" y2="252.60"/>
<text x="78.00" y="256.60" text-anchor="end" font-size="12">6.18</text>
<line class="grid" x1="794.00" y1="65.0" x2="794.00" y2="534.0"/>
<text x="794.00" y="558.00" text-anchor="middle" font-size="12">8K</text>
<line class="grid" x1="90.0" y1="158.80" x2="970.0" y2="158.80"/>
<text x="78.00" y="162.80" text-anchor="end" font-size="12">7.84</text>
<line class="grid" x1="970.00" y1="65.0" x2="970.00" y2="534.0"/>
<text x="970.00" y="558.00" text-anchor="middle" font-size="12">10K</text>
<line class="grid" x1="90.0" y1="65.00" x2="970.0" y2="65.00"/>
<text x="78.00" y="69.00" text-anchor="end" font-size="12">9.5</text>
<line class="axis" x1="90.0" y1="65.0" x2="90.0" y2="534.0"/>
<line class="axis" x1="90.0" y1="534.0" x2="970.0" y2="534.0"/>
<text x="530.00" y="585.00" text-anchor="middle" font-size="14">step</text>
<text x="20" y="299.50" text-anchor="middle" font-size="14" transform="rotate(-90 20 299.50)">loss</text>
<polyline class="series" stroke="#2563eb" points="90.88,85.54 91.76,112.49 92.64,150.81 93.52,191.51 94.40,234.24 95.28,278.68 96.16,309.55 97.04,333.23 97.92,352.69 98.80,372.50 99.68,382.52 100.56,389.79 101.44,398.26 102.32,402.74 103.20,406.77 104.08,408.42 104.96,415.67 105.84,421.92 106.72,423.78 107.60,425.44 108.48,431.42 109.36,429.91 110.24,434.48 111.12,436.74 112.00,439.82 112.88,436.54 113.76,438.42 114.64,438.36 115.52,440.95 116.40,444.20 117.28,445.66 118.16,447.82 119.04,452.10 119.92,455.38 120.80,450.83 121.68,449.86 122.56,451.99 123.44,457.57 124.32,453.28 125.20,458.12 126.08,455.55 126.96,460.22 127.84,454.74 128.72,462.81 129.60,458.75 130.48,459.23 131.36,461.71 132.24,461.37 133.12,462.37 134.00,463.08 134.88,461.67 135.76,460.70 136.64,464.87 137.52,465.78 138.40,465.59 139.28,463.98 140.16,468.11 141.04,467.00 141.92,469.82 142.80,465.80 143.68,473.02 144.56,468.33 145.44,469.01 146.32,468.35 147.20,472.43 148.08,472.58 148.96,473.23 149.84,472.92 150.72,473.06 151.60,474.06 152.48,476.18 153.36,475.76 154.24,470.75 155.12,474.76 156.00,477.85 156.88,476.04 157.76,477.81 158.64,472.82 159.52,474.06 160.40,477.19 161.28,479.98 162.16,481.79 163.04,477.83 163.92,476.66 164.80,479.58 165.68,477.22 166.56,476.45 167.44,480.01 168.32,479.43 169.20,479.11 170.08,481.36 170.96,481.06 171.84,483.76 172.72,485.46 173.60,480.19 174.48,483.18 175.36,480.29 176.24,480.24 177.12,487.09 178.00,485.16 178.88,486.67 179.76,481.58 180.64,483.75 181.52,486.28 182.40,483.18 183.28,485.32 184.16,484.26 185.04,485.23 185.92,485.32 186.80,485.30 187.68,485.34 188.56,485.17 189.44,483.57 190.32,491.12 191.20,486.35 192.08,482.85 192.96,484.79 193.84,486.53 194.72,488.41 195.60,486.80 196.48,487.39 197.36,481.48 198.24,487.10 199.12,487.47 200.00,487.78 200.88,491.83 201.76,490.21 202.64,488.81 203.52,491.49 204.40,491.84 205.28,488.36 206.16,489.90 207.04,491.47 207.92,491.21 208.80,491.33 209.68,489.88 210.56,489.62 211.44,491.38 212.32,491.00 213.20,489.28 214.08,490.35 214.96,491.14 215.84,489.77 216.72,495.50 217.60,492.55 218.48,494.82 219.36,491.40 220.24,491.50 221.12,492.87 222.00,493.38 222.88,493.63 223.76,493.70 224.64,491.35 225.52,489.79 226.40,493.51 227.28,493.37 228.16,491.50 229.04,493.15 229.92,491.31 230.80,494.80 231.68,491.03 232.56,493.25 233.44,492.34 234.32,495.81 235.20,496.64 236.08,496.25 236.96,499.99 237.84,495.82 238.72,497.45 239.60,497.89 240.48,494.37 241.36,495.51 242.24,494.96 243.12,497.64 244.00,493.87 244.88,495.44 245.76,498.11 246.64,497.00 247.52,496.38 248.40,495.95 249.28,496.15 250.16,496.39 251.04,496.34 251.92,497.40 252.80,497.35 253.68,495.74 254.56,498.09 255.44,494.68 256.32,495.10 257.20,499.02 258.08,502.51 258.96,495.04 259.84,495.90 260.72,498.04 261.60,496.22 262.48,499.07 263.36,498.08 264.24,497.55 265.12,498.91 266.00,497.60 266.88,499.24 267.76,499.37 268.64,498.53 269.52,500.05 270.40,498.88 271.28,498.05 272.16,497.91 273.04,497.16 273.92,499.98 274.80,500.27 275.68,499.46 276.56,498.33 277.44,499.68 278.32,501.98 279.20,498.00 280.08,496.23 280.96,502.17 281.84,500.60 282.72,501.50 283.60,497.72 284.48,499.47 285.36,500.22 286.24,498.50 287.12,499.24 288.00,502.66 288.88,501.02 289.76,501.80 290.64,499.79 291.52,501.43 292.40,500.49 293.28,502.81 294.16,500.57 295.04,502.32 295.92,503.83 296.80,504.75 297.68,498.92 298.56,497.47 299.44,501.58 300.32,501.32 301.20,499.42 302.08,495.55 302.96,501.51 303.84,503.36 304.72,499.71 305.60,502.47 306.48,498.45 307.36,500.34 308.24,503.89 309.12,502.78 310.00,501.95 310.88,502.84 311.76,503.96 312.64,504.61 313.52,501.01 314.40,499.80 315.28,502.75 316.16,504.61 317.04,496.85 317.92,503.77 318.80,501.70 319.68,502.83 320.56,502.37 321.44,501.52 322.32,502.45 323.20,503.76 324.08,505.02 324.96,502.12 325.84,502.34 326.72,498.71 327.60,501.79 328.48,503.37 329.36,503.23 330.24,501.18 331.12,505.65 332.00,503.50 332.88,502.82 333.76,501.37 334.64,503.47 335.52,506.46 336.40,503.78 337.28,506.00 338.16,503.84 339.04,503.36 339.92,504.08 340.80,502.12 341.68,502.45 342.56,500.38 343.44,504.78 344.32,506.29 345.20,504.37 346.08,502.28 346.96,504.44 347.84,505.33 348.72,508.70 349.60,503.07 350.48,502.71 351.36,504.01 352.24,506.62 353.12,505.94 354.00,504.12 354.88,503.30 355.76,505.76 356.64,502.75 357.52,501.23 358.40,503.37 359.28,504.29 360.16,505.00 361.04,502.00 361.92,504.31 362.80,501.47 363.68,503.23 364.56,505.08 365.44,505.79 366.32,505.27 367.20,504.43 368.08,504.41 368.96,505.97 369.84,503.50 370.72,503.41 371.60,507.78 372.48,506.95 373.36,501.44 374.24,508.02 375.12,504.82 376.00,505.29 376.88,503.26 377.76,504.31 378.64,507.75 379.52,503.29 380.40,501.89 381.28,505.61 382.16,507.07 383.04,504.46 383.92,506.59 384.80,504.00 385.68,505.97 386.56,507.66 387.44,508.01 388.32,506.00 389.20,507.23 390.08,507.53 390.96,505.87 391.84,509.83 392.72,509.38 393.60,508.32 394.48,505.88 395.36,508.64 396.24,505.90 397.12,507.20 398.00,506.66 398.88,505.62 399.76,507.99 400.64,506.42 401.52,505.12 402.40,507.21 403.28,506.65 404.16,506.99 405.04,506.86 405.92,506.99 406.80,504.97 407.68,506.79 408.56,503.28 409.44,507.47 410.32,505.31 411.20,507.70 412.08,509.63 412.96,507.97 413.84,510.61 414.72,508.55 415.60,507.53 416.48,506.63 417.36,507.53 418.24,506.79 419.12,508.57 420.00,505.43 420.88,508.18 421.76,510.78 422.64,508.25 423.52,509.72 424.40,510.32 425.28,508.37 426.16,510.50 427.04,506.97 427.92,508.01 428.80,505.20 429.68,507.77 430.56,508.22 431.44,509.56 432.32,507.95 433.20,508.32 434.08,506.71 434.96,509.34 435.84,511.06 436.72,505.62 437.60,506.63 438.48,508.65 439.36,504.54 440.24,508.98 441.12,508.69 442.00,506.26 442.88,506.74 443.76,506.91 444.64,508.94 445.52,507.53 446.40,506.76 447.28,506.42 448.16,501.78 449.04,507.76 449.92,510.75 450.80,505.18 451.68,512.27 452.56,506.97 453.44,510.67 454.32,509.42 455.20,511.25 456.08,508.25 456.96,507.14 457.84,507.59 458.72,507.28 459.60,507.45 460.48,511.30 461.36,507.15 462.24,508.40 463.12,507.22 464.00,510.43 464.88,510.98 465.76,510.64 466.64,507.99 467.52,507.33 468.40,509.17 469.28,512.06 470.16,504.27 471.04,509.89 471.92,509.27 472.80,509.37 473.68,509.84 474.56,511.15 475.44,510.21 476.32,510.48 477.20,506.16 478.08,507.96 478.96,506.29 479.84,510.50 480.72,509.67 481.60,508.99 482.48,508.61 483.36,512.16 484.24,506.98 485.12,509.56 486.00,509.27 486.88,506.33 487.76,508.26 488.64,510.84 489.52,511.31 490.40,513.45 491.28,511.10 492.16,508.29 493.04,508.48 493.92,506.62 494.80,510.61 495.68,509.94 496.56,509.54 497.44,509.56 498.32,511.77 499.20,511.28 500.08,508.32 500.96,513.62 501.84,510.29 502.72,508.89 503.60,508.53 504.48,510.42 505.36,513.14 506.24,513.07 507.12,512.82 508.00,510.10 508.88,509.87 509.76,509.59 510.64,508.34 511.52,510.09 512.40,510.35 513.28,512.38 514.16,509.40 515.04,512.31 515.92,512.30 516.80,513.14 517.68,508.52 518.56,512.41 519.44,512.00 520.32,511.36 521.20,511.17 522.08,509.85 522.96,511.32 523.84,511.09 524.72,512.11 525.60,510.96 526.48,514.60 527.36,508.93 528.24,511.97 529.12,510.98 530.00,511.80 530.88,511.47 531.76,511.54 532.64,510.70 533.52,512.74 534.40,507.95 535.28,512.98 536.16,508.80 537.04,512.78 537.92,510.42 538.80,507.69 539.68,511.51 540.56,511.52 541.44,514.16 542.32,510.66 543.20,512.82 544.08,513.99 544.96,511.56 545.84,514.17 546.72,510.30 547.60,514.44 548.48,509.30 549.36,509.97 550.24,514.00 551.12,512.75 552.00,510.68 552.88,510.74 553.76,510.66 554.64,510.25 555.52,511.56 556.40,512.82 557.28,513.30 558.16,510.62 559.04,511.30 559.92,509.56 560.80,513.35 561.68,511.08 562.56,514.65 563.44,510.06 564.32,510.93 565.20,513.22 566.08,512.61 566.96,511.94 567.84,513.84 568.72,508.64 569.60,509.85 570.48,510.05 571.36,514.06 572.24,508.19 573.12,512.34 574.00,513.43 574.88,513.42 575.76,510.58 576.64,511.52 577.52,513.89 578.40,514.85 579.28,510.60 580.16,513.97 581.04,511.62 581.92,509.57 582.80,508.32 583.68,510.65 584.56,511.33 585.44,509.94 586.32,514.39 587.20,511.48 588.08,512.05 588.96,511.14 589.84,511.51 590.72,512.72 591.60,512.98 592.48,513.87 593.36,513.08 594.24,515.42 595.12,514.97 596.00,511.39 596.88,513.86 597.76,514.64 598.64,512.23 599.52,510.76 600.40,508.99 601.28,511.52 602.16,511.59 603.04,511.07 603.92,515.87 604.80,515.48 605.68,514.55 606.56,513.49 607.44,515.31 608.32,513.33 609.20,515.15 610.08,507.86 610.96,514.12 611.84,515.36 612.72,514.24 613.60,510.65 614.48,511.51 615.36,512.51 616.24,510.61 617.12,514.51 618.00,509.04 618.88,512.63 619.76,513.32 620.64,510.71 621.52,516.07 622.40,514.13 623.28,513.05 624.16,513.15 625.04,512.28 625.92,513.35 626.80,513.64 627.68,512.51 628.56,510.84 629.44,512.69 630.32,511.15 631.20,513.44 632.08,509.55 632.96,509.68 633.84,510.98 634.72,512.83 635.60,511.95 636.48,512.99 637.36,514.94 638.24,514.54 639.12,510.56 640.00,518.88 640.88,512.70 641.76,513.07 642.64,512.92 643.52,513.39 644.40,515.37 645.28,512.56 646.16,511.65 647.04,514.62 647.92,513.85 648.80,510.22 649.68,514.62 650.56,514.16 651.44,513.87 652.32,513.64 653.20,514.41 654.08,510.03 654.96,513.17 655.84,515.95 656.72,514.03 657.60,514.53 658.48,514.52 659.36,514.26 660.24,508.57 661.12,511.49 662.00,514.88 662.88,514.14 663.76,514.84 664.64,513.32 665.52,512.48 666.40,512.85 667.28,511.17 668.16,515.02 669.04,513.58 669.92,513.08 670.80,512.83 671.68,513.54 672.56,512.52 673.44,512.78 674.32,512.78 675.20,512.90 676.08,512.44 676.96,512.78 677.84,509.78 678.72,513.90 679.60,511.06 680.48,513.32 681.36,512.49 682.24,511.46 683.12,515.03 684.00,514.68 684.88,513.39 685.76,513.22 686.64,514.92 687.52,514.57 688.40,516.37 689.28,512.57 690.16,513.60 691.04,513.44 691.92,516.01 692.80,516.02 693.68,513.93 694.56,515.43 695.44,513.07 696.32,514.59 697.20,514.59 698.08,515.01 698.96,512.21 699.84,516.95 700.72,512.88 701.60,514.51 702.48,513.33 703.36,511.45 704.24,513.19 705.12,515.14 706.00,515.76 706.88,514.09 707.76,515.56 708.64,513.87 709.52,515.88 710.40,514.90 711.28,512.10 712.16,514.36 713.04,515.36 713.92,515.14 714.80,513.16 715.68,514.35 716.56,516.63 717.44,514.27 718.32,514.77 719.20,514.94 720.08,517.75 720.96,514.29 721.84,513.05 722.72,514.16 723.60,514.18 724.48,517.33 725.36,515.06 726.24,514.72 727.12,516.05 728.00,514.96 728.88,515.26 729.76,513.78 730.64,517.26 731.52,516.14 732.40,513.14 733.28,514.17 734.16,516.83 735.04,512.27 735.92,514.07 736.80,514.05 737.68,513.05 738.56,515.30 739.44,513.88 740.32,515.13 741.20,514.42 742.08,518.00 742.96,515.94 743.84,516.34 744.72,515.27 745.60,511.20 746.48,513.35 747.36,514.81 748.24,514.15 749.12,514.78 750.00,514.86 750.88,514.38 751.76,517.08 752.64,512.77 753.52,514.21 754.40,515.22 755.28,517.16 756.16,513.85 757.04,514.48 757.92,516.69 758.80,516.61 759.68,514.23 760.56,513.45 761.44,517.37 762.32,516.13 763.20,514.01 764.08,513.06 764.96,514.74 765.84,518.14 766.72,517.37 767.60,516.48 768.48,516.96 769.36,514.97 770.24,514.10 771.12,517.18 772.00,516.34 772.88,515.84 773.76,514.44 774.64,515.39 775.52,513.79 776.40,515.22 777.28,513.91 778.16,513.60 779.04,513.90 779.92,514.20 780.80,513.99 781.68,516.39 782.56,513.93 783.44,515.27 784.32,517.26 785.20,514.25 786.08,516.55 786.96,514.21 787.84,516.72 788.72,513.22 789.60,512.82 790.48,514.49 791.36,517.53 792.24,512.25 793.12,518.01 794.00,514.80 794.88,515.64 795.76,513.12 796.64,517.29 797.52,512.60 798.40,515.01 799.28,516.52 800.16,515.62 801.04,515.51 801.92,514.78 802.80,515.55 803.68,513.51 804.56,517.03 805.44,514.80 806.32,515.57 807.20,518.56 808.08,515.17 808.96,516.52 809.84,516.48 810.72,516.54 811.60,514.12 812.48,515.65 813.36,515.87 814.24,517.27 815.12,517.55 816.00,513.45 816.88,515.29 817.76,513.78 818.64,515.36 819.52,513.78 820.40,516.88 821.28,516.82 822.16,515.47 823.04,516.18 823.92,514.96 824.80,515.96 825.68,517.30 826.56,514.47 827.44,519.08 828.32,513.36 829.20,515.97 830.08,513.90 830.96,517.00 831.84,516.39 832.72,514.91 833.60,517.42 834.48,512.01 835.36,517.19 836.24,517.71 837.12,513.87 838.00,516.86 838.88,515.88 839.76,514.94 840.64,515.38 841.52,512.72 842.40,515.54 843.28,514.71 844.16,514.86 845.04,514.85 845.92,513.87 846.80,517.43 847.68,516.30 848.56,510.87 849.44,514.88 850.32,515.27 851.20,513.37 852.08,514.80 852.96,514.58 853.84,517.20 854.72,515.05 855.60,516.46 856.48,516.94 857.36,516.83 858.24,515.47 859.12,517.31 860.00,515.24 860.88,513.09 861.76,515.53 862.64,516.73 863.52,517.19 864.40,517.69 865.28,515.20 866.16,513.87 867.04,517.34 867.92,513.25 868.80,518.49 869.68,515.78 870.56,511.69 871.44,514.69 872.32,513.29 873.20,516.38 874.08,514.95 874.96,516.04 875.84,516.29 876.72,514.25 877.60,516.04 878.48,516.17 879.36,514.99 880.24,515.24 881.12,516.70 882.00,515.47 882.88,513.36 883.76,514.72 884.64,514.64 885.52,515.29 886.40,515.40 887.28,517.84 888.16,514.08 889.04,516.30 889.92,518.91 890.80,517.68 891.68,515.73 892.56,513.14 893.44,516.55 894.32,512.69 895.20,514.59 896.08,515.67 896.96,516.85 897.84,515.55 898.72,516.22 899.60,516.78 900.48,515.39 901.36,515.80 902.24,515.86 903.12,518.47 904.00,514.85 904.88,517.53 905.76,520.51 906.64,514.16 907.52,516.07 908.40,515.68 909.28,517.45 910.16,520.01 911.04,514.71 911.92,516.88 912.80,515.17 913.68,513.97 914.56,517.12 915.44,516.72 916.32,518.38 917.20,518.57 918.08,514.52 918.96,513.01 919.84,517.02 920.72,515.82 921.60,515.57 922.48,516.65 923.36,517.02 924.24,514.71 925.12,514.15 926.00,513.22 926.88,514.29 927.76,517.20 928.64,515.59 929.52,516.19 930.40,516.37 931.28,514.91 932.16,515.93 933.04,516.26 933.92,515.15 934.80,517.33 935.68,514.73 936.56,516.29 937.44,514.50 938.32,513.99 939.20,516.31 940.08,518.43 940.96,514.04 941.84,514.13 942.72,515.67 943.60,515.51 944.48,513.70 945.36,517.36 946.24,518.40 947.12,516.48 948.00,511.63 948.88,516.16 949.76,515.46 950.64,517.32 951.52,517.97 952.40,516.84 953.28,517.01 954.16,516.63 955.04,517.88 955.92,514.94 956.80,516.21 957.68,518.71 958.56,516.14 959.44,518.55 960.32,515.77 961.20,517.10 962.08,517.45 962.96,515.35 963.84,517.55 964.72,518.10 965.60,517.65 966.48,516.96 967.36,516.10 968.24,517.72 969.12,516.14 970.00,518.69" clip-path="url(#plot-area)"/>
<polyline class="series" stroke="#2563eb" stroke-dasharray="7 5" points="90.00,77.78 98.80,371.97 107.60,425.56 116.40,444.06 125.20,454.69 134.00,463.69 142.80,468.86 151.60,471.95 160.40,477.91 169.20,480.77 178.00,482.92 186.80,485.37 195.60,487.81 204.40,490.06 213.20,491.63 222.00,492.53 230.80,493.50 239.60,496.59 248.40,494.85 257.20,497.58 266.00,497.92 274.80,499.29 283.60,500.21 292.40,501.11 301.20,500.44 310.00,501.46 318.80,503.43 327.60,502.65 336.40,503.08 345.20,503.70 354.00,504.46 362.80,504.73 371.60,504.42 380.40,505.70 389.20,505.87 398.00,506.17 406.80,506.93 415.60,507.13 424.40,505.96 433.20,508.67 442.00,508.59 450.80,509.49 459.60,509.80 468.40,508.93 477.20,510.06 486.00,509.86 494.80,511.17 503.60,510.52 512.40,509.84 521.20,509.85 530.00,510.87 538.80,509.24 547.60,509.79 556.40,511.42 565.20,512.70 574.00,512.00 582.80,512.71 591.60,511.95 600.40,513.79 609.20,511.81 618.00,512.40 626.80,512.47 635.60,512.68 644.40,514.24 653.20,513.54 662.00,513.81 670.80,513.94 679.60,513.82 688.40,514.86 697.20,513.69 706.00,514.01 714.80,514.49 723.60,513.90 732.40,514.45 741.20,513.76 750.00,513.67 758.80,513.75 767.60,514.65 776.40,515.26 785.20,513.76 794.00,514.85 802.80,515.36 811.60,514.81 820.40,514.98 829.20,515.41 838.00,516.11 846.80,515.94 855.60,515.55 864.40,515.88 873.20,516.81 882.00,515.51 890.80,515.96 899.60,515.69 908.40,515.62 917.20,515.78 926.00,515.02 934.80,516.73 943.60,515.43 952.40,515.94 961.20,517.58 970.00,515.75" clip-path="url(#plot-area)"/>
<circle cx="90.00" cy="77.78" r="2.8" fill="#2563eb" clip-path="url(#plot-area)"><title>original lr=3e-4 validation: 9.27374</title></circle>
<circle cx="98.80" cy="371.97" r="2.8" fill="#2563eb" clip-path="url(#plot-area)"><title>original lr=3e-4 validation: 4.06755</title></circle>
<circle cx="107.60" cy="425.56" r="2.8" fill="#2563eb" clip-path="url(#plot-area)"><title>original lr=3e-4 validation: 3.11916</title></circle>
<circle cx="116.40" cy="444.06" r="2.8" fill="#2563eb" clip-path="url(#plot-area)"><title>original lr=3e-4 validation: 2.79164</title></circle>
<circle cx="125.20" cy="454.69" r="2.8" fill="#2563eb" clip-path="url(#plot-area)"><title>original lr=3e-4 validation: 2.60354</title></circle>
<circle cx="134.00" cy="463.69" r="2.8" fill="#2563eb" clip-path="url(#plot-area)"><title>original lr=3e-4 validation: 2.44422</title></circle>
<circle cx="142.80" cy="468.86" r="2.8" fill="#2563eb" clip-path="url(#plot-area)"><title>original lr=3e-4 validation: 2.35282</title></circle>
<circle cx="151.60" cy="471.95" r="2.8" fill="#2563eb" clip-path="url(#plot-area)"><title>original lr=3e-4 validation: 2.29811</title></circle>
<circle cx="160.40" cy="477.91" r="2.8" fill="#2563eb" clip-path="url(#plot-area)"><title>original lr=3e-4 validation: 2.19269</title></circle>
<circle cx="169.20" cy="480.77" r="2.8" fill="#2563eb" clip-path="url(#plot-area)"><title>original lr=3e-4 validation: 2.14206</title></circle>
<circle cx="178.00" cy="482.92" r="2.8" fill="#2563eb" clip-path="url(#plot-area)"><title>original lr=3e-4 validation: 2.10403</title></circle>
<circle cx="186.80" cy="485.37" r="2.8" fill="#2563eb" clip-path="url(#plot-area)"><title>original lr=3e-4 validation: 2.06069</title></circle>
<circle cx="195.60" cy="487.81" r="2.8" fill="#2563eb" clip-path="url(#plot-area)"><title>original lr=3e-4 validation: 2.01742</title></circle>
<circle cx="204.40" cy="490.06" r="2.8" fill="#2563eb" clip-path="url(#plot-area)"><title>original lr=3e-4 validation: 1.97765</title></circle>
<circle cx="213.20" cy="491.63" r="2.8" fill="#2563eb" clip-path="url(#plot-area)"><title>original lr=3e-4 validation: 1.94986</title></circle>
<circle cx="222.00" cy="492.53" r="2.8" fill="#2563eb" clip-path="url(#plot-area)"><title>original lr=3e-4 validation: 1.93388</title></circle>
<circle cx="230.80" cy="493.50" r="2.8" fill="#2563eb" clip-path="url(#plot-area)"><title>original lr=3e-4 validation: 1.91681</title></circle>
<circle cx="239.60" cy="496.59" r="2.8" fill="#2563eb" clip-path="url(#plot-area)"><title>original lr=3e-4 validation: 1.86198</title></circle>
<circle cx="248.40" cy="494.85" r="2.8" fill="#2563eb" clip-path="url(#plot-area)"><title>original lr=3e-4 validation: 1.89289</title></circle>
<circle cx="257.20" cy="497.58" r="2.8" fill="#2563eb" clip-path="url(#plot-area)"><title>original lr=3e-4 validation: 1.84455</title></circle>
<circle cx="266.00" cy="497.92" r="2.8" fill="#2563eb" clip-path="url(#plot-area)"><title>original lr=3e-4 validation: 1.83854</title></circle>
<circle cx="274.80" cy="499.29" r="2.8" fill="#2563eb" clip-path="url(#plot-area)"><title>original lr=3e-4 validation: 1.81424</title></circle>
<circle cx="283.60" cy="500.21" r="2.8" fill="#2563eb" clip-path="url(#plot-area)"><title>original lr=3e-4 validation: 1.79792</title></circle>
<circle cx="292.40" cy="501.11" r="2.8" fill="#2563eb" clip-path="url(#plot-area)"><title>original lr=3e-4 validation: 1.78206</title></circle>
<circle cx="301.20" cy="500.44" r="2.8" fill="#2563eb" clip-path="url(#plot-area)"><title>original lr=3e-4 validation: 1.79396</title></circle>
<circle cx="310.00" cy="501.46" r="2.8" fill="#2563eb" clip-path="url(#plot-area)"><title>original lr=3e-4 validation: 1.77581</title></circle>
<circle cx="318.80" cy="503.43" r="2.8" fill="#2563eb" clip-path="url(#plot-area)"><title>original lr=3e-4 validation: 1.74105</title></circle>
<circle cx="327.60" cy="502.65" r="2.8" fill="#2563eb" clip-path="url(#plot-area)"><title>original lr=3e-4 validation: 1.75472</title></circle>
<circle cx="336.40" cy="503.08" r="2.8" fill="#2563eb" clip-path="url(#plot-area)"><title>original lr=3e-4 validation: 1.74716</title></circle>
<circle cx="345.20" cy="503.70" r="2.8" fill="#2563eb" clip-path="url(#plot-area)"><title>original lr=3e-4 validation: 1.73626</title></circle>
<circle cx="354.00" cy="504.46" r="2.8" fill="#2563eb" clip-path="url(#plot-area)"><title>original lr=3e-4 validation: 1.72273</title></circle>
<circle cx="362.80" cy="504.73" r="2.8" fill="#2563eb" clip-path="url(#plot-area)"><title>original lr=3e-4 validation: 1.71792</title></circle>
<circle cx="371.60" cy="504.42" r="2.8" fill="#2563eb" clip-path="url(#plot-area)"><title>original lr=3e-4 validation: 1.72355</title></circle>
<circle cx="380.40" cy="505.70" r="2.8" fill="#2563eb" clip-path="url(#plot-area)"><title>original lr=3e-4 validation: 1.70077</title></circle>
<circle cx="389.20" cy="505.87" r="2.8" fill="#2563eb" clip-path="url(#plot-area)"><title>original lr=3e-4 validation: 1.69779</title></circle>
<circle cx="398.00" cy="506.17" r="2.8" fill="#2563eb" clip-path="url(#plot-area)"><title>original lr=3e-4 validation: 1.69244</title></circle>
<circle cx="406.80" cy="506.93" r="2.8" fill="#2563eb" clip-path="url(#plot-area)"><title>original lr=3e-4 validation: 1.67906</title></circle>
<circle cx="415.60" cy="507.13" r="2.8" fill="#2563eb" clip-path="url(#plot-area)"><title>original lr=3e-4 validation: 1.67548</title></circle>
<circle cx="424.40" cy="505.96" r="2.8" fill="#2563eb" clip-path="url(#plot-area)"><title>original lr=3e-4 validation: 1.69616</title></circle>
<circle cx="433.20" cy="508.67" r="2.8" fill="#2563eb" clip-path="url(#plot-area)"><title>original lr=3e-4 validation: 1.64828</title></circle>
<circle cx="442.00" cy="508.59" r="2.8" fill="#2563eb" clip-path="url(#plot-area)"><title>original lr=3e-4 validation: 1.6496</title></circle>
<circle cx="450.80" cy="509.49" r="2.8" fill="#2563eb" clip-path="url(#plot-area)"><title>original lr=3e-4 validation: 1.63372</title></circle>
<circle cx="459.60" cy="509.80" r="2.8" fill="#2563eb" clip-path="url(#plot-area)"><title>original lr=3e-4 validation: 1.62829</title></circle>
<circle cx="468.40" cy="508.93" r="2.8" fill="#2563eb" clip-path="url(#plot-area)"><title>original lr=3e-4 validation: 1.64373</title></circle>
<circle cx="477.20" cy="510.06" r="2.8" fill="#2563eb" clip-path="url(#plot-area)"><title>original lr=3e-4 validation: 1.6237</title></circle>
<circle cx="486.00" cy="509.86" r="2.8" fill="#2563eb" clip-path="url(#plot-area)"><title>original lr=3e-4 validation: 1.62721</title></circle>
<circle cx="494.80" cy="511.17" r="2.8" fill="#2563eb" clip-path="url(#plot-area)"><title>original lr=3e-4 validation: 1.60402</title></circle>
<circle cx="503.60" cy="510.52" r="2.8" fill="#2563eb" clip-path="url(#plot-area)"><title>original lr=3e-4 validation: 1.61548</title></circle>
<circle cx="512.40" cy="509.84" r="2.8" fill="#2563eb" clip-path="url(#plot-area)"><title>original lr=3e-4 validation: 1.62762</title></circle>
<circle cx="521.20" cy="509.85" r="2.8" fill="#2563eb" clip-path="url(#plot-area)"><title>original lr=3e-4 validation: 1.62731</title></circle>
<circle cx="530.00" cy="510.87" r="2.8" fill="#2563eb" clip-path="url(#plot-area)"><title>original lr=3e-4 validation: 1.60925</title></circle>
<circle cx="538.80" cy="509.24" r="2.8" fill="#2563eb" clip-path="url(#plot-area)"><title>original lr=3e-4 validation: 1.63817</title></circle>
<circle cx="547.60" cy="509.79" r="2.8" fill="#2563eb" clip-path="url(#plot-area)"><title>original lr=3e-4 validation: 1.62847</title></circle>
<circle cx="556.40" cy="511.42" r="2.8" fill="#2563eb" clip-path="url(#plot-area)"><title>original lr=3e-4 validation: 1.59955</title></circle>
<circle cx="565.20" cy="512.70" r="2.8" fill="#2563eb" clip-path="url(#plot-area)"><title>original lr=3e-4 validation: 1.57703</title></circle>
<circle cx="574.00" cy="512.00" r="2.8" fill="#2563eb" clip-path="url(#plot-area)"><title>original lr=3e-4 validation: 1.58929</title></circle>
<circle cx="582.80" cy="512.71" r="2.8" fill="#2563eb" clip-path="url(#plot-area)"><title>original lr=3e-4 validation: 1.57671</title></circle>
<circle cx="591.60" cy="511.95" r="2.8" fill="#2563eb" clip-path="url(#plot-area)"><title>original lr=3e-4 validation: 1.59031</title></circle>
<circle cx="600.40" cy="513.79" r="2.8" fill="#2563eb" clip-path="url(#plot-area)"><title>original lr=3e-4 validation: 1.55772</title></circle>
<circle cx="609.20" cy="511.81" r="2.8" fill="#2563eb" clip-path="url(#plot-area)"><title>original lr=3e-4 validation: 1.59267</title></circle>
<circle cx="618.00" cy="512.40" r="2.8" fill="#2563eb" clip-path="url(#plot-area)"><title>original lr=3e-4 validation: 1.58229</title></circle>
<circle cx="626.80" cy="512.47" r="2.8" fill="#2563eb" clip-path="url(#plot-area)"><title>original lr=3e-4 validation: 1.58107</title></circle>
<circle cx="635.60" cy="512.68" r="2.8" fill="#2563eb" clip-path="url(#plot-area)"><title>original lr=3e-4 validation: 1.57739</title></circle>
<circle cx="644.40" cy="514.24" r="2.8" fill="#2563eb" clip-path="url(#plot-area)"><title>original lr=3e-4 validation: 1.54967</title></circle>
<circle cx="653.20" cy="513.54" r="2.8" fill="#2563eb" clip-path="url(#plot-area)"><title>original lr=3e-4 validation: 1.56216</title></circle>
<circle cx="662.00" cy="513.81" r="2.8" fill="#2563eb" clip-path="url(#plot-area)"><title>original lr=3e-4 validation: 1.55731</title></circle>
<circle cx="670.80" cy="513.94" r="2.8" fill="#2563eb" clip-path="url(#plot-area)"><title>original lr=3e-4 validation: 1.55509</title></circle>
<circle cx="679.60" cy="513.82" r="2.8" fill="#2563eb" clip-path="url(#plot-area)"><title>original lr=3e-4 validation: 1.55709</title></circle>
<circle cx="688.40" cy="514.86" r="2.8" fill="#2563eb" clip-path="url(#plot-area)"><title>original lr=3e-4 validation: 1.53874</title></circle>
<circle cx="697.20" cy="513.69" r="2.8" fill="#2563eb" clip-path="url(#plot-area)"><title>original lr=3e-4 validation: 1.55936</title></circle>
<circle cx="706.00" cy="514.01" r="2.8" fill="#2563eb" clip-path="url(#plot-area)"><title>original lr=3e-4 validation: 1.55382</title></circle>
<circle cx="714.80" cy="514.49" r="2.8" fill="#2563eb" clip-path="url(#plot-area)"><title>original lr=3e-4 validation: 1.54524</title></circle>
<circle cx="723.60" cy="513.90" r="2.8" fill="#2563eb" clip-path="url(#plot-area)"><title>original lr=3e-4 validation: 1.5557</title></circle>
<circle cx="732.40" cy="514.45" r="2.8" fill="#2563eb" clip-path="url(#plot-area)"><title>original lr=3e-4 validation: 1.54591</title></circle>
<circle cx="741.20" cy="513.76" r="2.8" fill="#2563eb" clip-path="url(#plot-area)"><title>original lr=3e-4 validation: 1.55812</title></circle>
<circle cx="750.00" cy="513.67" r="2.8" fill="#2563eb" clip-path="url(#plot-area)"><title>original lr=3e-4 validation: 1.55982</title></circle>
<circle cx="758.80" cy="513.75" r="2.8" fill="#2563eb" clip-path="url(#plot-area)"><title>original lr=3e-4 validation: 1.5583</title></circle>
<circle cx="767.60" cy="514.65" r="2.8" fill="#2563eb" clip-path="url(#plot-area)"><title>original lr=3e-4 validation: 1.54251</title></circle>
<circle cx="776.40" cy="515.26" r="2.8" fill="#2563eb" clip-path="url(#plot-area)"><title>original lr=3e-4 validation: 1.5316</title></circle>
<circle cx="785.20" cy="513.76" r="2.8" fill="#2563eb" clip-path="url(#plot-area)"><title>original lr=3e-4 validation: 1.55817</title></circle>
<circle cx="794.00" cy="514.85" r="2.8" fill="#2563eb" clip-path="url(#plot-area)"><title>original lr=3e-4 validation: 1.53884</title></circle>
<circle cx="802.80" cy="515.36" r="2.8" fill="#2563eb" clip-path="url(#plot-area)"><title>original lr=3e-4 validation: 1.52995</title></circle>
<circle cx="811.60" cy="514.81" r="2.8" fill="#2563eb" clip-path="url(#plot-area)"><title>original lr=3e-4 validation: 1.5396</title></circle>
<circle cx="820.40" cy="514.98" r="2.8" fill="#2563eb" clip-path="url(#plot-area)"><title>original lr=3e-4 validation: 1.53665</title></circle>
<circle cx="829.20" cy="515.41" r="2.8" fill="#2563eb" clip-path="url(#plot-area)"><title>original lr=3e-4 validation: 1.52906</title></circle>
<circle cx="838.00" cy="516.11" r="2.8" fill="#2563eb" clip-path="url(#plot-area)"><title>original lr=3e-4 validation: 1.51661</title></circle>
<circle cx="846.80" cy="515.94" r="2.8" fill="#2563eb" clip-path="url(#plot-area)"><title>original lr=3e-4 validation: 1.51955</title></circle>
<circle cx="855.60" cy="515.55" r="2.8" fill="#2563eb" clip-path="url(#plot-area)"><title>original lr=3e-4 validation: 1.52652</title></circle>
<circle cx="864.40" cy="515.88" r="2.8" fill="#2563eb" clip-path="url(#plot-area)"><title>original lr=3e-4 validation: 1.52073</title></circle>
<circle cx="873.20" cy="516.81" r="2.8" fill="#2563eb" clip-path="url(#plot-area)"><title>original lr=3e-4 validation: 1.50422</title></circle>
<circle cx="882.00" cy="515.51" r="2.8" fill="#2563eb" clip-path="url(#plot-area)"><title>original lr=3e-4 validation: 1.52725</title></circle>
<circle cx="890.80" cy="515.96" r="2.8" fill="#2563eb" clip-path="url(#plot-area)"><title>original lr=3e-4 validation: 1.51925</title></circle>
<circle cx="899.60" cy="515.69" r="2.8" fill="#2563eb" clip-path="url(#plot-area)"><title>original lr=3e-4 validation: 1.52397</title></circle>
<circle cx="908.40" cy="515.62" r="2.8" fill="#2563eb" clip-path="url(#plot-area)"><title>original lr=3e-4 validation: 1.52523</title></circle>
<circle cx="917.20" cy="515.78" r="2.8" fill="#2563eb" clip-path="url(#plot-area)"><title>original lr=3e-4 validation: 1.52251</title></circle>
<circle cx="926.00" cy="515.02" r="2.8" fill="#2563eb" clip-path="url(#plot-area)"><title>original lr=3e-4 validation: 1.53596</title></circle>
<circle cx="934.80" cy="516.73" r="2.8" fill="#2563eb" clip-path="url(#plot-area)"><title>original lr=3e-4 validation: 1.50562</title></circle>
<circle cx="943.60" cy="515.43" r="2.8" fill="#2563eb" clip-path="url(#plot-area)"><title>original lr=3e-4 validation: 1.52862</title></circle>
<circle cx="952.40" cy="515.94" r="2.8" fill="#2563eb" clip-path="url(#plot-area)"><title>original lr=3e-4 validation: 1.51955</title></circle>
<circle cx="961.20" cy="517.58" r="2.8" fill="#2563eb" clip-path="url(#plot-area)"><title>original lr=3e-4 validation: 1.49064</title></circle>
<circle cx="970.00" cy="515.75" r="2.8" fill="#2563eb" clip-path="url(#plot-area)"><title>original lr=3e-4 validation: 1.52294</title></circle>
<line x1="90.0" y1="609.0" x2="117.0" y2="609.0" stroke="#2563eb" stroke-width="2"/>
<line x1="127.0" y1="609.0" x2="154.0" y2="609.0" stroke="#2563eb" stroke-width="2" stroke-dasharray="7 5"/>
<text x="165.00" y="613.00" font-size="12">original lr=3e-4 (solid: train, dashed: validation)</text>
<polyline class="series" stroke="#dc2626" points="90.88,140.32 91.76,257.31 92.64,333.16 93.52,373.36 94.40,387.12 95.28,404.83 96.16,411.41 97.04,419.58 97.92,426.07 98.80,438.03 99.68,443.23 100.56,447.60 101.44,453.28 102.32,453.58 103.20,454.70 104.08,455.49 104.96,461.28 105.84,466.15 106.72,466.30 107.60,466.68 108.48,472.08 109.36,469.14 110.24,472.25 111.12,474.59 112.00,476.77 112.88,473.62 113.76,475.09 114.64,474.46 115.52,475.73 116.40,478.48 117.28,479.72 118.16,481.58 119.04,484.88 119.92,486.35 120.80,482.09 121.68,482.98 122.56,483.04 123.44,489.04 124.32,483.84 125.20,488.10 126.08,485.19 126.96,488.68 127.84,484.72 128.72,491.84 129.60,487.31 130.48,488.42 131.36,488.99 132.24,489.76 133.12,489.55 134.00,490.40 134.88,488.24 135.76,487.96 136.64,491.53 137.52,492.38 138.40,491.39 139.28,490.66 140.16,493.98 141.04,492.98 141.92,494.43 142.80,491.22 143.68,497.14 144.56,493.22 145.44,493.87 146.32,492.72 147.20,495.56 148.08,496.34 148.96,496.12 149.84,496.53 150.72,496.69 151.60,497.11 152.48,498.58 153.36,498.63 154.24,494.10 155.12,497.14 156.00,499.32 156.88,497.98 157.76,498.98 158.64,495.52 159.52,495.63 160.40,497.88 161.28,500.66 162.16,502.96 163.04,498.74 163.92,497.51 164.80,500.37 165.68,497.31 166.56,496.54 167.44,499.64 168.32,499.50 169.20,499.40 170.08,500.95 170.96,500.51 171.84,502.96 172.72,504.19 173.60,499.43 174.48,502.05 175.36,499.67 176.24,499.31 177.12,505.13 178.00,502.75 178.88,504.54 179.76,499.48 180.64,501.67 181.52,503.60 182.40,501.22 183.28,502.99 184.16,501.07 185.04,502.98 185.92,502.87 186.80,502.64 187.68,503.04 188.56,503.43 189.44,500.03 190.32,507.32 191.20,502.78 192.08,499.82 192.96,501.63 193.84,503.82 194.72,504.88 195.60,502.51 196.48,503.54 197.36,498.51 198.24,503.04 199.12,502.99 200.00,503.60 200.88,507.07 201.76,505.61 202.64,505.24 203.52,506.69 204.40,506.90 205.28,503.62 206.16,505.14 207.04,506.34 207.92,506.81 208.80,505.81 209.68,504.71 210.56,504.60 211.44,505.41 212.32,505.70 213.20,503.59 214.08,505.03 214.96,505.67 215.84,504.74 216.72,510.16 217.60,506.70 218.48,507.94 219.36,505.36 220.24,505.64 221.12,506.88 222.00,507.46 222.88,507.35 223.76,507.34 224.64,505.19 225.52,503.95 226.40,507.44 227.28,506.83 228.16,505.12 229.04,506.64 229.92,505.08 230.80,508.05 231.68,504.15 232.56,506.52 233.44,505.75 234.32,509.39 235.20,509.87 236.08,509.32 236.96,512.19 237.84,508.68 238.72,510.04 239.60,510.18 240.48,507.10 241.36,508.36 242.24,507.48 243.12,509.78 244.00,506.44 244.88,507.85 245.76,510.18 246.64,508.66 247.52,509.24 248.40,507.81 249.28,508.61 250.16,508.55 251.04,508.68 251.92,509.17 252.80,510.22 253.68,507.94 254.56,509.86 255.44,506.70 256.32,507.54 257.20,510.96 258.08,514.21 258.96,507.43 259.84,507.85 260.72,509.18 261.60,508.06 262.48,510.73 263.36,509.52 264.24,508.49 265.12,510.40 266.00,509.29 266.88,511.18 267.76,511.91 268.64,510.01 269.52,511.21 270.40,510.96 271.28,509.03 272.16,509.61 273.04,508.54 273.92,510.67 274.80,511.01 275.68,510.18 276.56,508.76 277.44,510.39 278.32,512.59 279.20,508.87 280.08,507.52 280.96,512.71 281.84,511.57 282.72,511.87 283.60,508.88 284.48,510.65 285.36,510.75 286.24,509.59 287.12,509.99 288.00,512.99 288.88,511.63 289.76,512.26 290.64,511.05 291.52,511.89 292.40,511.54 293.28,513.26 294.16,511.11 295.04,512.81 295.92,513.88 296.80,514.70 297.68,509.14 298.56,507.86 299.44,512.16 300.32,511.72 301.20,509.22 302.08,506.54 302.96,511.78 303.84,513.61 304.72,510.44 305.60,512.79 306.48,508.71 307.36,510.41 308.24,513.81 309.12,513.52 310.00,511.75 310.88,512.61 311.76,513.87 312.64,514.66 313.52,511.57 314.40,509.21 315.28,512.21 316.16,514.03 317.04,507.89 317.92,513.66 318.80,511.78 319.68,511.89 320.56,512.68 321.44,510.68 322.32,512.77 323.20,513.24 324.08,514.75 324.96,512.00 325.84,512.24 326.72,509.27 327.60,511.50 328.48,513.10 329.36,512.51 330.24,511.10 331.12,514.80 332.00,513.08 332.88,512.53 333.76,510.81 334.64,513.18 335.52,515.76 336.40,513.42 337.28,515.49 338.16,512.65 339.04,512.32 339.92,513.51 340.80,511.23 341.68,511.79 342.56,509.69 343.44,514.33 344.32,514.88 345.20,513.81 346.08,511.33 346.96,513.58 347.84,514.50 348.72,517.71 349.60,512.45 350.48,512.21 351.36,514.18 352.24,515.63 353.12,515.49 354.00,513.20 354.88,512.21 355.76,514.74 356.64,512.93 357.52,510.31 358.40,512.77 359.28,513.90 360.16,514.20 361.04,511.49 361.92,513.66 362.80,510.68 363.68,512.82 364.56,513.51 365.44,514.87 366.32,514.06 367.20,513.74 368.08,513.75 368.96,515.44 369.84,512.25 370.72,512.97 371.60,516.09 372.48,515.87 373.36,510.73 374.24,516.57 375.12,513.75 376.00,514.46 376.88,512.39 377.76,513.79 378.64,516.05 379.52,512.92 380.40,510.65 381.28,514.39 382.16,515.92 383.04,513.71 383.92,515.14 384.80,512.80 385.68,515.11 386.56,516.65 387.44,516.72 388.32,514.93 389.20,515.57 390.08,516.18 390.96,514.21 391.84,518.50 392.72,517.72 393.60,517.06 394.48,514.69 395.36,517.26 396.24,514.65 397.12,515.40 398.00,515.58 398.88,514.86 399.76,516.41 400.64,515.65 401.52,514.02 402.40,515.81 403.28,515.63 404.16,515.54 405.04,515.25 405.92,515.58 406.80,514.47 407.68,515.26 408.56,512.40 409.44,515.70 410.32,513.47 411.20,516.10 412.08,517.67 412.96,516.17 413.84,518.55 414.72,517.14 415.60,515.69 416.48,514.81 417.36,516.53 418.24,515.36 419.12,516.05 420.00,514.44 420.88,516.47 421.76,518.93 422.64,516.69 423.52,517.88 424.40,518.27 425.28,516.45 426.16,518.53 427.04,515.46 427.92,515.93 428.80,513.68 429.68,516.27 430.56,516.66 431.44,517.39 432.32,515.67 433.20,516.44 434.08,515.18 434.96,517.27 435.84,518.95 436.72,514.22 437.60,515.39 438.48,516.96 439.36,513.14 440.24,517.43 441.12,516.46 442.00,514.82 442.88,514.60 443.76,515.34 444.64,517.72 445.52,515.97 446.40,515.70 447.28,514.74 448.16,511.01 449.04,516.41 449.92,519.03 450.80,513.84 451.68,520.37 452.56,515.33 453.44,518.25 454.32,517.26 455.20,519.49 456.08,516.00 456.96,515.35 457.84,515.87 458.72,516.20 459.60,515.27 460.48,519.31 461.36,515.22 462.24,516.43 463.12,515.52 464.00,518.85 464.88,519.15 465.76,518.76 466.64,515.81 467.52,515.89 468.40,517.09 469.28,520.05 470.16,512.61 471.04,517.72 471.92,517.25 472.80,517.65 473.68,518.10 474.56,518.92 475.44,518.25 476.32,518.59 477.20,514.60 478.08,516.49 478.96,514.29 479.84,518.58 480.72,517.95 481.60,517.51 482.48,516.70 483.36,520.24 484.24,515.61 485.12,518.17 486.00,517.44 486.88,514.53 487.76,516.90 488.64,519.13 489.52,519.27 490.40,520.94 491.28,519.18 492.16,516.79 493.04,516.28 493.92,515.14 494.80,518.52 495.68,518.05 496.56,517.30 497.44,517.95 498.32,519.86 499.20,519.26 500.08,516.67 500.96,520.75 501.84,518.44 502.72,517.02 503.60,516.49 504.48,517.83 505.36,520.75 506.24,521.47 507.12,520.53 508.00,517.78 508.88,517.76 509.76,518.05 510.64,516.85 511.52,518.33 512.40,518.89 513.28,520.01 514.16,516.99 515.04,520.38 515.92,520.44 516.80,521.20 517.68,516.50 518.56,520.31 519.44,520.48 520.32,519.36 521.20,519.05 522.08,517.95 522.96,519.33 523.84,519.57 524.72,519.56 525.60,518.85 526.48,521.96 527.36,516.99 528.24,520.26 529.12,518.41 530.00,519.52 530.88,519.73 531.76,519.44 532.64,518.30 533.52,520.91 534.40,516.16 535.28,520.95 536.16,518.03 537.04,520.05 537.92,519.08 538.80,515.80 539.68,519.17 540.56,519.24 541.44,522.05 542.32,518.38 543.20,520.69 544.08,522.18 544.96,519.67 545.84,522.29 546.72,518.48 547.60,521.93 548.48,517.35 549.36,518.41 550.24,522.12 551.12,520.28 552.00,518.61 552.88,518.83 553.76,518.66 554.64,518.49 555.52,520.15 556.40,521.08 557.28,521.61 558.16,519.34 559.04,519.13 559.92,518.46 560.80,521.24 561.68,519.11 562.56,522.46 563.44,518.15 564.32,518.69 565.20,521.72 566.08,520.95 566.96,519.83 567.84,522.03 568.72,517.25 569.60,518.26 570.48,518.42 571.36,521.98 572.24,516.46 573.12,520.89 574.00,521.86 574.88,521.30 575.76,519.17 576.64,519.71 577.52,521.98 578.40,523.34 579.28,518.67 580.16,521.79 581.04,519.75 581.92,518.26 582.80,516.68 583.68,519.20 584.56,519.34 585.44,518.00 586.32,522.88 587.20,520.03 588.08,520.43 588.96,519.46 589.84,519.46 590.72,520.08 591.60,521.72 592.48,521.97 593.36,521.36 594.24,523.57 595.12,522.69 596.00,519.90 596.88,521.40 597.76,522.65 598.64,520.55 599.52,518.74 600.40,517.19 601.28,520.21 602.16,520.00 603.04,519.76 603.92,523.99 604.80,523.96 605.68,523.07 606.56,521.75 607.44,523.19 608.32,521.67 609.20,523.24 610.08,517.02 610.96,522.24 611.84,523.29 612.72,521.58 613.60,518.95 614.48,519.79 615.36,520.55 616.24,519.16 617.12,522.29 618.00,517.41 618.88,521.00 619.76,521.88 620.64,518.87 621.52,523.82 622.40,522.53 623.28,521.51 624.16,521.70 625.04,520.57 625.92,521.52 626.80,521.46 627.68,520.19 628.56,519.95 629.44,521.43 630.32,519.72 631.20,521.74 632.08,518.25 632.96,518.09 633.84,519.63 634.72,521.54 635.60,520.47 636.48,521.37 637.36,523.54 638.24,522.47 639.12,519.47 640.00,526.46 640.88,521.43 641.76,521.12 642.64,521.10 643.52,522.18 644.40,523.57 645.28,521.15 646.16,520.39 647.04,523.07 647.92,522.52 648.80,518.84 649.68,523.61 650.56,522.50 651.44,522.17 652.32,521.86 653.20,522.93 654.08,518.69 654.96,521.84 655.84,524.08 656.72,522.79 657.60,523.26 658.48,523.61 659.36,522.32 660.24,517.79 661.12,520.27 662.00,523.71 662.88,522.14 663.76,523.24 664.64,521.98 665.52,521.27 666.40,521.33 667.28,519.67 668.16,523.15 669.04,522.41 669.92,521.44 670.80,521.77 671.68,522.20 672.56,521.53 673.44,521.42 674.32,521.66 675.20,521.94 676.08,521.29 676.96,521.94 677.84,519.20 678.72,522.62 679.60,519.97 680.48,521.86 681.36,521.54 682.24,520.65 683.12,523.70 684.00,523.26 684.88,522.32 685.76,521.63 686.64,523.97 687.52,523.30 688.40,524.98 689.28,521.37 690.16,522.15 691.04,522.28 691.92,524.34 692.80,524.39 693.68,522.64 694.56,524.36 695.44,521.88 696.32,523.60 697.20,523.17 698.08,524.11 698.96,521.20 699.84,525.11 700.72,522.30 701.60,523.62 702.48,522.31 703.36,520.63 704.24,522.04 705.12,523.96 706.00,524.51 706.88,523.35 707.76,524.74 708.64,522.64 709.52,524.26 710.40,524.20 711.28,521.02 712.16,523.40 713.04,524.27 713.92,523.67 714.80,521.95 715.68,523.36 716.56,525.70 717.44,523.13 718.32,523.81 719.20,523.74 720.08,525.86 720.96,523.37 721.84,522.22 722.72,522.57 723.60,523.02 724.48,526.02 725.36,523.93 726.24,523.66 727.12,524.89 728.00,523.87 728.88,524.43 729.76,522.56 730.64,525.98 731.52,524.92 732.40,521.92 733.28,523.02 734.16,525.84 735.04,521.91 735.92,523.80 736.80,523.75 737.68,522.14 738.56,523.85 739.44,523.39 740.32,524.09 741.20,523.37 742.08,526.60 742.96,524.68 743.84,525.57 744.72,524.54 745.60,520.66 746.48,522.21 747.36,523.93 748.24,523.75 749.12,523.76 750.00,523.68 750.88,523.80 751.76,525.95 752.64,522.10 753.52,523.09 754.40,524.24 755.28,526.50 756.16,523.12 757.04,523.61 757.92,525.82 758.80,526.04 759.68,523.82 760.56,523.00 761.44,526.36 762.32,525.70 763.20,523.64 764.08,522.24 764.96,524.16 765.84,527.01 766.72,526.41 767.60,525.80 768.48,526.05 769.36,524.56 770.24,523.56 771.12,526.56 772.00,526.08 772.88,525.18 773.76,524.07 774.64,524.59 775.52,523.59 776.40,525.02 777.28,523.64 778.16,523.08 779.04,523.72 779.92,524.23 780.80,524.11 781.68,525.70 782.56,523.68 783.44,524.70 784.32,526.41 785.20,523.95 786.08,526.07 786.96,523.51 787.84,525.93 788.72,523.19 789.60,522.90 790.48,524.13 791.36,526.70 792.24,522.46 793.12,527.45 794.00,524.82 794.88,524.56 795.76,523.37 796.64,526.84 797.52,522.33 798.40,524.86 799.28,526.46 800.16,525.24 801.04,524.62 801.92,525.17 802.80,525.25 803.68,523.25 804.56,526.36 805.44,524.48 806.32,525.67 807.20,527.72 808.08,525.25 808.96,526.87 809.84,526.04 810.72,526.37 811.60,524.00 812.48,525.42 813.36,525.96 814.24,526.61 815.12,527.30 816.00,523.89 816.88,525.33 817.76,523.71 818.64,525.14 819.52,524.23 820.40,526.88 821.28,526.50 822.16,524.99 823.04,525.62 823.92,524.40 824.80,526.01 825.68,526.60 826.56,524.90 827.44,528.51 828.32,523.95 829.20,526.21 830.08,523.97 830.96,526.89 831.84,526.05 832.72,525.00 833.60,526.90 834.48,522.32 835.36,527.41 836.24,527.24 837.12,523.73 838.00,526.89 838.88,525.98 839.76,525.20 840.64,525.36 841.52,522.64 842.40,525.11 843.28,524.98 844.16,525.12 845.04,524.97 845.92,524.10 846.80,526.64 847.68,526.22 848.56,520.83 849.44,525.38 850.32,525.46 851.20,523.68 852.08,525.57 852.96,524.56 853.84,527.30 854.72,525.59 855.60,526.89 856.48,527.10 857.36,526.86 858.24,525.44 859.12,527.27 860.00,525.53 860.88,523.21 861.76,525.54 862.64,526.87 863.52,527.36 864.40,527.59 865.28,525.33 866.16,524.25 867.04,527.09 867.92,523.60 868.80,527.82 869.68,525.70 870.56,522.78 871.44,524.53 872.32,523.79 873.20,526.77 874.08,524.58 874.96,526.68 875.84,526.40 876.72,524.82 877.60,526.27 878.48,526.39 879.36,524.75 880.24,525.72 881.12,526.51 882.00,525.71 882.88,523.80 883.76,525.36 884.64,525.03 885.52,525.92 886.40,526.08 887.28,527.73 888.16,524.17 889.04,526.70 889.92,529.04 890.80,527.52 891.68,526.35 892.56,523.68 893.44,527.18 894.32,523.57 895.20,524.67 896.08,526.36 896.96,527.14 897.84,526.04 898.72,526.33 899.60,527.31 900.48,525.86 901.36,526.03 902.24,526.02 903.12,528.48 904.00,525.61 904.88,527.36 905.76,530.48 906.64,524.51 907.52,526.56 908.40,525.93 909.28,527.13 910.16,529.38 911.04,525.13 911.92,527.02 912.80,526.00 913.68,524.55 914.56,526.83 915.44,526.45 916.32,528.40 917.20,528.83 918.08,525.21 918.96,523.96 919.84,527.67 920.72,526.12 921.60,525.66 922.48,526.57 923.36,527.23 924.24,525.19 925.12,524.44 926.00,524.30 926.88,524.97 927.76,527.44 928.64,525.99 929.52,526.92 930.40,527.05 931.28,525.26 932.16,525.90 933.04,526.80 933.92,525.27 934.80,527.92 935.68,525.15 936.56,526.36 937.44,525.29 938.32,524.45 939.20,526.84 940.08,528.94 940.96,524.83 941.84,525.20 942.72,526.04 943.60,525.80 944.48,524.39 945.36,527.57 946.24,529.07 947.12,526.75 948.00,523.25 948.88,526.53 949.76,526.69 950.64,527.75 951.52,528.55 952.40,527.45 953.28,527.46 954.16,527.18 955.04,528.42 955.92,526.02 956.80,527.03 957.68,528.71 958.56,526.69 959.44,528.62 960.32,526.21 961.20,527.08 962.08,527.52 962.96,525.64 963.84,528.39 964.72,528.23 965.60,528.12 966.48,526.89 967.36,526.92 968.24,528.18 969.12,527.08 970.00,528.62" clip-path="url(#plot-area)"/>
<polyline class="series" stroke="#dc2626" stroke-dasharray="7 5" points="90.00,77.78 98.80,437.70 107.60,466.69 116.40,478.34 125.20,484.94 134.00,491.09 142.80,493.55 151.60,495.73 160.40,499.13 169.20,500.03 178.00,501.42 186.80,502.53 195.60,503.73 204.40,505.08 213.20,506.23 222.00,506.19 230.80,506.85 239.60,509.02 248.40,507.28 257.20,509.33 266.00,509.38 274.80,510.21 283.60,511.21 292.40,511.63 301.20,510.79 310.00,511.49 318.80,513.02 327.60,512.35 336.40,512.32 345.20,513.24 354.00,513.76 362.80,513.98 371.60,513.70 380.40,514.43 389.20,514.61 398.00,514.87 406.80,515.44 415.60,515.59 424.40,514.31 433.20,516.74 442.00,516.71 450.80,517.50 459.60,517.48 468.40,517.06 477.20,518.04 486.00,517.61 494.80,519.01 503.60,518.45 512.40,517.96 521.20,517.97 530.00,518.78 538.80,517.28 547.60,517.79 556.40,519.42 565.20,520.55 574.00,520.04 582.80,520.51 591.60,520.16 600.40,521.69 609.20,519.98 618.00,520.50 626.80,520.75 635.60,520.92 644.40,522.40 653.20,521.79 662.00,522.20 670.80,522.27 679.60,522.48 688.40,523.42 697.20,522.21 706.00,522.69 714.80,523.36 723.60,522.90 732.40,523.42 741.20,522.88 750.00,522.77 758.80,522.93 767.60,524.00 776.40,524.40 785.20,523.18 794.00,524.30 802.80,525.00 811.60,524.16 820.40,524.96 829.20,525.27 838.00,525.85 846.80,525.67 855.60,525.26 864.40,525.87 873.20,526.76 882.00,525.63 890.80,525.97 899.60,525.72 908.40,525.41 917.20,526.02 926.00,525.29 934.80,526.95 943.60,525.86 952.40,526.26 961.20,527.51 970.00,526.11" clip-path="url(#plot-area)"/>
<circle cx="90.00" cy="77.78" r="2.8" fill="#dc2626" clip-path="url(#plot-area)"><title>tuned lr=3e-3 validation: 9.27374</title></circle>
<circle cx="98.80" cy="437.70" r="2.8" fill="#dc2626" clip-path="url(#plot-area)"><title>tuned lr=3e-3 validation: 2.90431</title></circle>
<circle cx="107.60" cy="466.69" r="2.8" fill="#dc2626" clip-path="url(#plot-area)"><title>tuned lr=3e-3 validation: 2.39121</title></circle>
<circle cx="116.40" cy="478.34" r="2.8" fill="#dc2626" clip-path="url(#plot-area)"><title>tuned lr=3e-3 validation: 2.18509</title></circle>
<circle cx="125.20" cy="484.94" r="2.8" fill="#dc2626" clip-path="url(#plot-area)"><title>tuned lr=3e-3 validation: 2.06831</title></circle>
<circle cx="134.00" cy="491.09" r="2.8" fill="#dc2626" clip-path="url(#plot-area)"><title>tuned lr=3e-3 validation: 1.9594</title></circle>
<circle cx="142.80" cy="493.55" r="2.8" fill="#dc2626" clip-path="url(#plot-area)"><title>tuned lr=3e-3 validation: 1.91578</title></circle>
<circle cx="151.60" cy="495.73" r="2.8" fill="#dc2626" clip-path="url(#plot-area)"><title>tuned lr=3e-3 validation: 1.87734</title></circle>
<circle cx="160.40" cy="499.13" r="2.8" fill="#dc2626" clip-path="url(#plot-area)"><title>tuned lr=3e-3 validation: 1.81713</title></circle>
<circle cx="169.20" cy="500.03" r="2.8" fill="#dc2626" clip-path="url(#plot-area)"><title>tuned lr=3e-3 validation: 1.80122</title></circle>
<circle cx="178.00" cy="501.42" r="2.8" fill="#dc2626" clip-path="url(#plot-area)"><title>tuned lr=3e-3 validation: 1.7766</title></circle>
<circle cx="186.80" cy="502.53" r="2.8" fill="#dc2626" clip-path="url(#plot-area)"><title>tuned lr=3e-3 validation: 1.75688</title></circle>
<circle cx="195.60" cy="503.73" r="2.8" fill="#dc2626" clip-path="url(#plot-area)"><title>tuned lr=3e-3 validation: 1.73576</title></circle>
<circle cx="204.40" cy="505.08" r="2.8" fill="#dc2626" clip-path="url(#plot-area)"><title>tuned lr=3e-3 validation: 1.71184</title></circle>
<circle cx="213.20" cy="506.23" r="2.8" fill="#dc2626" clip-path="url(#plot-area)"><title>tuned lr=3e-3 validation: 1.69142</title></circle>
<circle cx="222.00" cy="506.19" r="2.8" fill="#dc2626" clip-path="url(#plot-area)"><title>tuned lr=3e-3 validation: 1.69208</title></circle>
<circle cx="230.80" cy="506.85" r="2.8" fill="#dc2626" clip-path="url(#plot-area)"><title>tuned lr=3e-3 validation: 1.68048</title></circle>
<circle cx="239.60" cy="509.02" r="2.8" fill="#dc2626" clip-path="url(#plot-area)"><title>tuned lr=3e-3 validation: 1.64207</title></circle>
<circle cx="248.40" cy="507.28" r="2.8" fill="#dc2626" clip-path="url(#plot-area)"><title>tuned lr=3e-3 validation: 1.67294</title></circle>
<circle cx="257.20" cy="509.33" r="2.8" fill="#dc2626" clip-path="url(#plot-area)"><title>tuned lr=3e-3 validation: 1.63651</title></circle>
<circle cx="266.00" cy="509.38" r="2.8" fill="#dc2626" clip-path="url(#plot-area)"><title>tuned lr=3e-3 validation: 1.63574</title></circle>
<circle cx="274.80" cy="510.21" r="2.8" fill="#dc2626" clip-path="url(#plot-area)"><title>tuned lr=3e-3 validation: 1.62108</title></circle>
<circle cx="283.60" cy="511.21" r="2.8" fill="#dc2626" clip-path="url(#plot-area)"><title>tuned lr=3e-3 validation: 1.60335</title></circle>
<circle cx="292.40" cy="511.63" r="2.8" fill="#dc2626" clip-path="url(#plot-area)"><title>tuned lr=3e-3 validation: 1.59588</title></circle>
<circle cx="301.20" cy="510.79" r="2.8" fill="#dc2626" clip-path="url(#plot-area)"><title>tuned lr=3e-3 validation: 1.61077</title></circle>
<circle cx="310.00" cy="511.49" r="2.8" fill="#dc2626" clip-path="url(#plot-area)"><title>tuned lr=3e-3 validation: 1.59835</title></circle>
<circle cx="318.80" cy="513.02" r="2.8" fill="#dc2626" clip-path="url(#plot-area)"><title>tuned lr=3e-3 validation: 1.57125</title></circle>
<circle cx="327.60" cy="512.35" r="2.8" fill="#dc2626" clip-path="url(#plot-area)"><title>tuned lr=3e-3 validation: 1.58316</title></circle>
<circle cx="336.40" cy="512.32" r="2.8" fill="#dc2626" clip-path="url(#plot-area)"><title>tuned lr=3e-3 validation: 1.5837</title></circle>
<circle cx="345.20" cy="513.24" r="2.8" fill="#dc2626" clip-path="url(#plot-area)"><title>tuned lr=3e-3 validation: 1.56745</title></circle>
<circle cx="354.00" cy="513.76" r="2.8" fill="#dc2626" clip-path="url(#plot-area)"><title>tuned lr=3e-3 validation: 1.55812</title></circle>
<circle cx="362.80" cy="513.98" r="2.8" fill="#dc2626" clip-path="url(#plot-area)"><title>tuned lr=3e-3 validation: 1.55439</title></circle>
<circle cx="371.60" cy="513.70" r="2.8" fill="#dc2626" clip-path="url(#plot-area)"><title>tuned lr=3e-3 validation: 1.55926</title></circle>
<circle cx="380.40" cy="514.43" r="2.8" fill="#dc2626" clip-path="url(#plot-area)"><title>tuned lr=3e-3 validation: 1.5463</title></circle>
<circle cx="389.20" cy="514.61" r="2.8" fill="#dc2626" clip-path="url(#plot-area)"><title>tuned lr=3e-3 validation: 1.54321</title></circle>
<circle cx="398.00" cy="514.87" r="2.8" fill="#dc2626" clip-path="url(#plot-area)"><title>tuned lr=3e-3 validation: 1.53863</title></circle>
<circle cx="406.80" cy="515.44" r="2.8" fill="#dc2626" clip-path="url(#plot-area)"><title>tuned lr=3e-3 validation: 1.52845</title></circle>
<circle cx="415.60" cy="515.59" r="2.8" fill="#dc2626" clip-path="url(#plot-area)"><title>tuned lr=3e-3 validation: 1.52585</title></circle>
<circle cx="424.40" cy="514.31" r="2.8" fill="#dc2626" clip-path="url(#plot-area)"><title>tuned lr=3e-3 validation: 1.54846</title></circle>
<circle cx="433.20" cy="516.74" r="2.8" fill="#dc2626" clip-path="url(#plot-area)"><title>tuned lr=3e-3 validation: 1.50554</title></circle>
<circle cx="442.00" cy="516.71" r="2.8" fill="#dc2626" clip-path="url(#plot-area)"><title>tuned lr=3e-3 validation: 1.50598</title></circle>
<circle cx="450.80" cy="517.50" r="2.8" fill="#dc2626" clip-path="url(#plot-area)"><title>tuned lr=3e-3 validation: 1.492</title></circle>
<circle cx="459.60" cy="517.48" r="2.8" fill="#dc2626" clip-path="url(#plot-area)"><title>tuned lr=3e-3 validation: 1.49228</title></circle>
<circle cx="468.40" cy="517.06" r="2.8" fill="#dc2626" clip-path="url(#plot-area)"><title>tuned lr=3e-3 validation: 1.49983</title></circle>
<circle cx="477.20" cy="518.04" r="2.8" fill="#dc2626" clip-path="url(#plot-area)"><title>tuned lr=3e-3 validation: 1.48238</title></circle>
<circle cx="486.00" cy="517.61" r="2.8" fill="#dc2626" clip-path="url(#plot-area)"><title>tuned lr=3e-3 validation: 1.49011</title></circle>
<circle cx="494.80" cy="519.01" r="2.8" fill="#dc2626" clip-path="url(#plot-area)"><title>tuned lr=3e-3 validation: 1.46535</title></circle>
<circle cx="503.60" cy="518.45" r="2.8" fill="#dc2626" clip-path="url(#plot-area)"><title>tuned lr=3e-3 validation: 1.47518</title></circle>
<circle cx="512.40" cy="517.96" r="2.8" fill="#dc2626" clip-path="url(#plot-area)"><title>tuned lr=3e-3 validation: 1.48382</title></circle>
<circle cx="521.20" cy="517.97" r="2.8" fill="#dc2626" clip-path="url(#plot-area)"><title>tuned lr=3e-3 validation: 1.4836</title></circle>
<circle cx="530.00" cy="518.78" r="2.8" fill="#dc2626" clip-path="url(#plot-area)"><title>tuned lr=3e-3 validation: 1.46931</title></circle>
<circle cx="538.80" cy="517.28" r="2.8" fill="#dc2626" clip-path="url(#plot-area)"><title>tuned lr=3e-3 validation: 1.49582</title></circle>
<circle cx="547.60" cy="517.79" r="2.8" fill="#dc2626" clip-path="url(#plot-area)"><title>tuned lr=3e-3 validation: 1.48679</title></circle>
<circle cx="556.40" cy="519.42" r="2.8" fill="#dc2626" clip-path="url(#plot-area)"><title>tuned lr=3e-3 validation: 1.45797</title></circle>
<circle cx="565.20" cy="520.55" r="2.8" fill="#dc2626" clip-path="url(#plot-area)"><title>tuned lr=3e-3 validation: 1.43798</title></circle>
<circle cx="574.00" cy="520.04" r="2.8" fill="#dc2626" clip-path="url(#plot-area)"><title>tuned lr=3e-3 validation: 1.44704</title></circle>
<circle cx="582.80" cy="520.51" r="2.8" fill="#dc2626" clip-path="url(#plot-area)"><title>tuned lr=3e-3 validation: 1.43866</title></circle>
<circle cx="591.60" cy="520.16" r="2.8" fill="#dc2626" clip-path="url(#plot-area)"><title>tuned lr=3e-3 validation: 1.44495</title></circle>
<circle cx="600.40" cy="521.69" r="2.8" fill="#dc2626" clip-path="url(#plot-area)"><title>tuned lr=3e-3 validation: 1.41786</title></circle>
<circle cx="609.20" cy="519.98" r="2.8" fill="#dc2626" clip-path="url(#plot-area)"><title>tuned lr=3e-3 validation: 1.44815</title></circle>
<circle cx="618.00" cy="520.50" r="2.8" fill="#dc2626" clip-path="url(#plot-area)"><title>tuned lr=3e-3 validation: 1.43893</title></circle>
<circle cx="626.80" cy="520.75" r="2.8" fill="#dc2626" clip-path="url(#plot-area)"><title>tuned lr=3e-3 validation: 1.43453</title></circle>
<circle cx="635.60" cy="520.92" r="2.8" fill="#dc2626" clip-path="url(#plot-area)"><title>tuned lr=3e-3 validation: 1.4315</title></circle>
<circle cx="644.40" cy="522.40" r="2.8" fill="#dc2626" clip-path="url(#plot-area)"><title>tuned lr=3e-3 validation: 1.40531</title></circle>
<circle cx="653.20" cy="521.79" r="2.8" fill="#dc2626" clip-path="url(#plot-area)"><title>tuned lr=3e-3 validation: 1.41611</title></circle>
<circle cx="662.00" cy="522.20" r="2.8" fill="#dc2626" clip-path="url(#plot-area)"><title>tuned lr=3e-3 validation: 1.40889</title></circle>
<circle cx="670.80" cy="522.27" r="2.8" fill="#dc2626" clip-path="url(#plot-area)"><title>tuned lr=3e-3 validation: 1.40757</title></circle>
<circle cx="679.60" cy="522.48" r="2.8" fill="#dc2626" clip-path="url(#plot-area)"><title>tuned lr=3e-3 validation: 1.40391</title></circle>
<circle cx="688.40" cy="523.42" r="2.8" fill="#dc2626" clip-path="url(#plot-area)"><title>tuned lr=3e-3 validation: 1.38727</title></circle>
<circle cx="697.20" cy="522.21" r="2.8" fill="#dc2626" clip-path="url(#plot-area)"><title>tuned lr=3e-3 validation: 1.40866</title></circle>
<circle cx="706.00" cy="522.69" r="2.8" fill="#dc2626" clip-path="url(#plot-area)"><title>tuned lr=3e-3 validation: 1.40015</title></circle>
<circle cx="714.80" cy="523.36" r="2.8" fill="#dc2626" clip-path="url(#plot-area)"><title>tuned lr=3e-3 validation: 1.38834</title></circle>
<circle cx="723.60" cy="522.90" r="2.8" fill="#dc2626" clip-path="url(#plot-area)"><title>tuned lr=3e-3 validation: 1.39644</title></circle>
<circle cx="732.40" cy="523.42" r="2.8" fill="#dc2626" clip-path="url(#plot-area)"><title>tuned lr=3e-3 validation: 1.38719</title></circle>
<circle cx="741.20" cy="522.88" r="2.8" fill="#dc2626" clip-path="url(#plot-area)"><title>tuned lr=3e-3 validation: 1.39684</title></circle>
<circle cx="750.00" cy="522.77" r="2.8" fill="#dc2626" clip-path="url(#plot-area)"><title>tuned lr=3e-3 validation: 1.39882</title></circle>
<circle cx="758.80" cy="522.93" r="2.8" fill="#dc2626" clip-path="url(#plot-area)"><title>tuned lr=3e-3 validation: 1.39585</title></circle>
<circle cx="767.60" cy="524.00" r="2.8" fill="#dc2626" clip-path="url(#plot-area)"><title>tuned lr=3e-3 validation: 1.37706</title></circle>
<circle cx="776.40" cy="524.40" r="2.8" fill="#dc2626" clip-path="url(#plot-area)"><title>tuned lr=3e-3 validation: 1.36988</title></circle>
<circle cx="785.20" cy="523.18" r="2.8" fill="#dc2626" clip-path="url(#plot-area)"><title>tuned lr=3e-3 validation: 1.39145</title></circle>
<circle cx="794.00" cy="524.30" r="2.8" fill="#dc2626" clip-path="url(#plot-area)"><title>tuned lr=3e-3 validation: 1.37167</title></circle>
<circle cx="802.80" cy="525.00" r="2.8" fill="#dc2626" clip-path="url(#plot-area)"><title>tuned lr=3e-3 validation: 1.35935</title></circle>
<circle cx="811.60" cy="524.16" r="2.8" fill="#dc2626" clip-path="url(#plot-area)"><title>tuned lr=3e-3 validation: 1.37406</title></circle>
<circle cx="820.40" cy="524.96" r="2.8" fill="#dc2626" clip-path="url(#plot-area)"><title>tuned lr=3e-3 validation: 1.35996</title></circle>
<circle cx="829.20" cy="525.27" r="2.8" fill="#dc2626" clip-path="url(#plot-area)"><title>tuned lr=3e-3 validation: 1.35449</title></circle>
<circle cx="838.00" cy="525.85" r="2.8" fill="#dc2626" clip-path="url(#plot-area)"><title>tuned lr=3e-3 validation: 1.34428</title></circle>
<circle cx="846.80" cy="525.67" r="2.8" fill="#dc2626" clip-path="url(#plot-area)"><title>tuned lr=3e-3 validation: 1.34741</title></circle>
<circle cx="855.60" cy="525.26" r="2.8" fill="#dc2626" clip-path="url(#plot-area)"><title>tuned lr=3e-3 validation: 1.3547</title></circle>
<circle cx="864.40" cy="525.87" r="2.8" fill="#dc2626" clip-path="url(#plot-area)"><title>tuned lr=3e-3 validation: 1.34385</title></circle>
<circle cx="873.20" cy="526.76" r="2.8" fill="#dc2626" clip-path="url(#plot-area)"><title>tuned lr=3e-3 validation: 1.32818</title></circle>
<circle cx="882.00" cy="525.63" r="2.8" fill="#dc2626" clip-path="url(#plot-area)"><title>tuned lr=3e-3 validation: 1.34815</title></circle>
<circle cx="890.80" cy="525.97" r="2.8" fill="#dc2626" clip-path="url(#plot-area)"><title>tuned lr=3e-3 validation: 1.34214</title></circle>
<circle cx="899.60" cy="525.72" r="2.8" fill="#dc2626" clip-path="url(#plot-area)"><title>tuned lr=3e-3 validation: 1.34647</title></circle>
<circle cx="908.40" cy="525.41" r="2.8" fill="#dc2626" clip-path="url(#plot-area)"><title>tuned lr=3e-3 validation: 1.35196</title></circle>
<circle cx="917.20" cy="526.02" r="2.8" fill="#dc2626" clip-path="url(#plot-area)"><title>tuned lr=3e-3 validation: 1.34125</title></circle>
<circle cx="926.00" cy="525.29" r="2.8" fill="#dc2626" clip-path="url(#plot-area)"><title>tuned lr=3e-3 validation: 1.35421</title></circle>
<circle cx="934.80" cy="526.95" r="2.8" fill="#dc2626" clip-path="url(#plot-area)"><title>tuned lr=3e-3 validation: 1.32483</title></circle>
<circle cx="943.60" cy="525.86" r="2.8" fill="#dc2626" clip-path="url(#plot-area)"><title>tuned lr=3e-3 validation: 1.34414</title></circle>
<circle cx="952.40" cy="526.26" r="2.8" fill="#dc2626" clip-path="url(#plot-area)"><title>tuned lr=3e-3 validation: 1.33694</title></circle>
<circle cx="961.20" cy="527.51" r="2.8" fill="#dc2626" clip-path="url(#plot-area)"><title>tuned lr=3e-3 validation: 1.31487</title></circle>
<circle cx="970.00" cy="526.11" r="2.8" fill="#dc2626" clip-path="url(#plot-area)"><title>tuned lr=3e-3 validation: 1.33957</title></circle>
<line x1="90.0" y1="637.0" x2="117.0" y2="637.0" stroke="#dc2626" stroke-width="2"/>
<line x1="127.0" y1="637.0" x2="154.0" y2="637.0" stroke="#dc2626" stroke-width="2" stroke-dasharray="7 5"/>
<text x="165.00" y="641.00" font-size="12">tuned lr=3e-3 (solid: train, dashed: validation)</text>
</svg>
