<?xml version="1.0" encoding="UTF-8"?>
<svg xmlns="http://www.w3.org/2000/svg" width="1000" height="640" viewBox="0 0 1000 640">
<style>
text { font-family: ui-sans-serif, system-ui, sans-serif; fill: #172033; }
.grid { stroke: #d8dee9; stroke-width: 1; }
.axis { stroke: #475569; stroke-width: 1.4; }
.series { fill: none; stroke-width: 2; stroke-linejoin: round; stroke-linecap: round; }
</style>
<defs><clipPath id="plot-area"><rect x="90.0" y="65.0" width="880.0" height="429.0"/></clipPath></defs>
<rect width="100%" height="100%" fill="#ffffff"/>
<text x="500.00" y="32.00" text-anchor="middle" font-size="20" font-weight="600">TinyStories vs OpenWebText (same token budget)</text>
<line class="grid" x1="90.00" y1="65.0" x2="90.00" y2="494.0"/>
<text x="90.00" y="518.00" text-anchor="middle" font-size="12">0</text>
<line class="grid" x1="90.0" y1="494.00" x2="970.0" y2="494.00"/>
<text x="78.00" y="498.00" text-anchor="end" font-size="12">0.806</text>
<line class="grid" x1="266.00" y1="65.0" x2="266.00" y2="494.0"/>
<text x="266.00" y="518.00" text-anchor="middle" font-size="12">66M</text>
<line class="grid" x1="90.0" y1="408.20" x2="970.0" y2="408.20"/>
<text x="78.00" y="412.20" text-anchor="end" font-size="12">2.81</text>
<line class="grid" x1="442.00" y1="65.0" x2="442.00" y2="494.0"/>
<text x="442.00" y="518.00" text-anchor="middle" font-size="12">1.3e+02M</text>
<line class="grid" x1="90.0" y1="322.40" x2="970.0" y2="322.40"/>
<text x="78.00" y="326.40" text-anchor="end" font-size="12">4.82</text>
<line class="grid" x1="618.00" y1="65.0" x2="618.00" y2="494.0"/>
<text x="618.00" y="518.00" text-anchor="middle" font-size="12">2e+02M</text>
<line class="grid" x1="90.0" y1="236.60" x2="970.0" y2="236.60"/>
<text x="78.00" y="240.60" text-anchor="end" font-size="12">6.83</text>
<line class="grid" x1="794.00" y1="65.0" x2="794.00" y2="494.0"/>
<text x="794.00" y="518.00" text-anchor="middle" font-size="12">2.6e+02M</text>
<line class="grid" x1="90.0" y1="150.80" x2="970.0" y2="150.80"/>
<text x="78.00" y="154.80" text-anchor="end" font-size="12">8.84</text>
<line class="grid" x1="970.00" y1="65.0" x2="970.00" y2="494.0"/>
<text x="970.00" y="518.00" text-anchor="middle" font-size="12">3.3e+02M</text>
<line class="grid" x1="90.0" y1="65.00" x2="970.0" y2="65.00"/>
<text x="78.00" y="69.00" text-anchor="end" font-size="12">11</text>
<line class="axis" x1="90.0" y1="65.0" x2="90.0" y2="494.0"/>
<line class="axis" x1="90.0" y1="494.0" x2="970.0" y2="494.0"/>
<text x="530.00" y="545.00" text-anchor="middle" font-size="14">processed tokens</text>
<text x="20" y="279.50" text-anchor="middle" font-size="14" transform="rotate(-90 20 279.50)">loss</text>
<polyline class="series" stroke="#2563eb" points="90.88,179.55 91.76,267.99 92.64,325.33 93.52,355.72 94.40,366.12 95.28,379.51 96.16,384.48 97.04,390.66 97.92,395.57 98.80,404.61 99.68,408.54 100.56,411.85 101.44,416.14 102.32,416.37 103.20,417.21 104.08,417.81 104.96,422.19 105.84,425.87 106.72,425.98 107.60,426.27 108.48,430.35 109.36,428.13 110.24,430.48 111.12,432.25 112.00,433.90 112.88,431.52 113.76,432.63 114.64,432.15 115.52,433.11 116.40,435.19 117.28,436.12 118.16,437.53 119.04,440.03 119.92,441.14 120.80,437.92 121.68,438.59 122.56,438.64 123.44,443.17 124.32,439.24 125.20,442.46 126.08,440.26 126.96,442.90 127.84,439.91 128.72,445.29 129.60,441.86 130.48,442.71 131.36,443.13 132.24,443.72 133.12,443.56 134.00,444.20 134.88,442.57 135.76,442.35 136.64,445.05 137.52,445.69 138.40,444.94 139.28,444.40 140.16,446.91 141.04,446.15 141.92,447.25 142.80,444.82 143.68,449.30 144.56,446.33 145.44,446.82 146.32,445.95 147.20,448.10 148.08,448.69 148.96,448.53 149.84,448.83 150.72,448.95 151.60,449.27 152.48,450.38 153.36,450.42 154.24,446.99 155.12,449.30 156.00,450.94 156.88,449.93 157.76,450.69 158.64,448.07 159.52,448.15 160.40,449.85 161.28,451.95 162.16,453.69 163.04,450.51 163.92,449.58 164.80,451.74 165.68,449.43 166.56,448.84 167.44,451.18 168.32,451.08 169.20,451.00 170.08,452.18 170.96,451.84 171.84,453.69 172.72,454.62 173.60,451.03 174.48,453.01 175.36,451.21 176.24,450.93 177.12,455.33 178.00,453.53 178.88,454.89 179.76,451.06 180.64,452.72 181.52,454.18 182.40,452.38 183.28,453.72 184.16,452.27 185.04,453.71 185.92,453.62 186.80,453.45 187.68,453.76 188.56,454.05 189.44,451.48 190.32,456.99 191.20,453.56 192.08,451.32 192.96,452.69 193.84,454.35 194.72,455.15 195.60,453.35 196.48,454.13 197.36,450.33 198.24,453.76 199.12,453.72 200.00,454.18 200.88,456.80 201.76,455.70 202.64,455.42 203.52,456.51 204.40,456.67 205.28,454.20 206.16,455.34 207.04,456.25 207.92,456.61 208.80,455.85 209.68,455.02 210.56,454.94 211.44,455.55 212.32,455.76 213.20,454.17 214.08,455.26 214.96,455.75 215.84,455.04 216.72,459.14 217.60,456.53 218.48,457.46 219.36,455.51 220.24,455.72 221.12,456.66 222.00,457.10 222.88,457.01 223.76,457.01 224.64,455.38 225.52,454.44 226.40,457.08 227.28,456.62 228.16,455.33 229.04,456.48 229.92,455.30 230.80,457.54 231.68,454.59 232.56,456.39 233.44,455.80 234.32,458.56 235.20,458.92 236.08,458.50 236.96,460.67 237.84,458.02 238.72,459.04 239.60,459.15 240.48,456.82 241.36,457.78 242.24,457.11 243.12,458.85 244.00,456.32 244.88,457.39 245.76,459.16 246.64,458.00 247.52,458.44 248.40,457.36 249.28,457.96 250.16,457.92 251.04,458.02 251.92,458.39 252.80,459.18 253.68,457.46 254.56,458.91 255.44,456.52 256.32,457.16 257.20,459.74 258.08,462.20 258.96,457.07 259.84,457.39 260.72,458.39 261.60,457.55 262.48,459.57 263.36,458.65 264.24,457.88 265.12,459.32 266.00,458.48 266.88,459.91 267.76,460.46 268.64,459.03 269.52,459.93 270.40,459.74 271.28,458.28 272.16,458.72 273.04,457.92 273.92,459.53 274.80,459.78 275.68,459.15 276.56,458.08 277.44,459.32 278.32,460.97 279.20,458.16 280.08,457.14 280.96,461.07 281.84,460.20 282.72,460.43 283.60,458.17 284.48,459.51 285.36,459.58 286.24,458.71 287.12,459.01 288.00,461.28 288.88,460.25 289.76,460.72 290.64,459.81 291.52,460.45 292.40,460.18 293.28,461.48 294.16,459.85 295.04,461.14 295.92,461.95 296.80,462.57 297.68,458.37 298.56,457.40 299.44,460.65 300.32,460.32 301.20,458.43 302.08,456.40 302.96,460.37 303.84,461.75 304.72,459.35 305.60,461.13 306.48,458.04 307.36,459.33 308.24,461.90 309.12,461.68 310.00,460.34 310.88,460.99 311.76,461.94 312.64,462.54 313.52,460.20 314.40,458.42 315.28,460.69 316.16,462.06 317.04,457.42 317.92,461.79 318.80,460.37 319.68,460.44 320.56,461.05 321.44,459.53 322.32,461.11 323.20,461.47 324.08,462.61 324.96,460.53 325.84,460.71 326.72,458.47 327.60,460.15 328.48,461.36 329.36,460.91 330.24,459.85 331.12,462.65 332.00,461.34 332.88,460.93 333.76,459.63 334.64,461.42 335.52,463.37 336.40,461.60 337.28,463.17 338.16,461.02 339.04,460.77 339.92,461.67 340.80,459.95 341.68,460.37 342.56,458.79 343.44,462.29 344.32,462.70 345.20,461.90 346.08,460.02 346.96,461.72 347.84,462.42 348.72,464.84 349.60,460.87 350.48,460.69 351.36,462.18 352.24,463.28 353.12,463.17 354.00,461.44 354.88,460.69 355.76,462.60 356.64,461.23 357.52,459.25 358.40,461.11 359.28,461.97 360.16,462.19 361.04,460.14 361.92,461.79 362.80,459.53 363.68,461.15 364.56,461.67 365.44,462.70 366.32,462.09 367.20,461.85 368.08,461.85 368.96,463.13 369.84,460.72 370.72,461.26 371.60,463.62 372.48,463.45 373.36,459.57 374.24,463.98 375.12,461.85 376.00,462.39 376.88,460.82 377.76,461.88 378.64,463.59 379.52,461.22 380.40,459.51 381.28,462.34 382.16,463.49 383.04,461.82 383.92,462.90 384.80,461.13 385.68,462.88 386.56,464.04 387.44,464.10 388.32,462.75 389.20,463.23 390.08,463.69 390.96,462.20 391.84,465.44 392.72,464.85 393.60,464.35 394.48,462.56 395.36,464.51 396.24,462.53 397.12,463.10 398.00,463.24 398.88,462.69 399.76,463.86 400.64,463.29 401.52,462.05 402.40,463.41 403.28,463.27 404.16,463.20 405.04,462.99 405.92,463.23 406.80,462.39 407.68,463.00 408.56,460.83 409.44,463.33 410.32,461.64 411.20,463.63 412.08,464.81 412.96,463.68 413.84,465.48 414.72,464.41 415.60,463.32 416.48,462.65 417.36,463.95 418.24,463.07 419.12,463.59 420.00,462.37 420.88,463.91 421.76,465.77 422.64,464.08 423.52,464.98 424.40,465.27 425.28,463.89 426.16,465.47 427.04,463.15 427.92,463.50 428.80,461.80 429.68,463.76 430.56,464.05 431.44,464.61 432.32,463.30 433.20,463.88 434.08,462.93 434.96,464.51 435.84,465.78 436.72,462.21 437.60,463.09 438.48,464.28 439.36,461.39 440.24,464.63 441.12,463.90 442.00,462.66 442.88,462.50 443.76,463.05 444.64,464.86 445.52,463.53 446.40,463.33 447.28,462.60 448.16,459.78 449.04,463.86 449.92,465.84 450.80,461.92 451.68,466.85 452.56,463.05 453.44,465.25 454.32,464.50 455.20,466.19 456.08,463.55 456.96,463.06 457.84,463.46 458.72,463.71 459.60,463.00 460.48,466.06 461.36,462.96 462.24,463.87 463.12,463.19 464.00,465.71 464.88,465.94 465.76,465.64 466.64,463.41 467.52,463.47 468.40,464.38 469.28,466.62 470.16,460.99 471.04,464.85 471.92,464.49 472.80,464.80 473.68,465.14 474.56,465.76 475.44,465.25 476.32,465.51 477.20,462.49 478.08,463.92 478.96,462.26 479.84,465.50 480.72,465.02 481.60,464.70 482.48,464.08 483.36,466.76 484.24,463.26 485.12,465.20 486.00,464.64 486.88,462.44 487.76,464.23 488.64,465.92 489.52,466.03 490.40,467.29 491.28,465.96 492.16,464.15 493.04,463.76 493.92,462.90 494.80,465.45 495.68,465.10 496.56,464.54 497.44,465.03 498.32,466.47 499.20,466.02 500.08,464.06 500.96,467.14 501.84,465.40 502.72,464.32 503.60,463.92 504.48,464.94 505.36,467.14 506.24,467.69 507.12,466.98 508.00,464.90 508.88,464.88 509.76,465.10 510.64,464.20 511.52,465.32 512.40,465.74 513.28,466.59 514.16,464.30 515.04,466.86 515.92,466.91 516.80,467.48 517.68,463.93 518.56,466.81 519.44,466.94 520.32,466.09 521.20,465.86 522.08,465.03 522.96,466.07 523.84,466.25 524.72,466.24 525.60,465.71 526.48,468.06 527.36,464.30 528.24,466.77 529.12,465.37 530.00,466.21 530.88,466.37 531.76,466.16 532.64,465.29 533.52,467.27 534.40,463.67 535.28,467.29 536.16,465.09 537.04,466.62 537.92,465.88 538.80,463.40 539.68,465.95 540.56,466.00 541.44,468.13 542.32,465.35 543.20,467.10 544.08,468.23 544.96,466.33 545.84,468.30 546.72,465.42 547.60,468.04 548.48,464.57 549.36,465.37 550.24,468.18 551.12,466.79 552.00,465.53 552.88,465.69 553.76,465.56 554.64,465.43 555.52,466.69 556.40,467.39 557.28,467.79 558.16,466.08 559.04,465.92 559.92,465.41 560.80,467.52 561.68,465.91 562.56,468.44 563.44,465.18 564.32,465.58 565.20,467.88 566.08,467.29 566.96,466.45 567.84,468.11 568.72,464.49 569.60,465.26 570.48,465.38 571.36,468.07 572.24,463.90 573.12,467.25 574.00,467.98 574.88,467.56 575.76,465.95 576.64,466.36 577.52,468.07 578.40,469.10 579.28,465.57 580.16,467.93 581.04,466.39 581.92,465.26 582.80,464.07 583.68,465.97 584.56,466.07 585.44,465.07 586.32,468.76 587.20,466.60 588.08,466.90 588.96,466.17 589.84,466.17 590.72,466.64 591.60,467.88 592.48,468.07 593.36,467.60 594.24,469.27 595.12,468.61 596.00,466.50 596.88,467.63 597.76,468.58 598.64,466.99 599.52,465.62 600.40,464.45 601.28,466.73 602.16,466.57 603.04,466.40 603.92,469.59 604.80,469.57 605.68,468.89 606.56,467.90 607.44,468.99 608.32,467.84 609.20,469.03 610.08,464.32 610.96,468.27 611.84,469.07 612.72,467.77 613.60,465.79 614.48,466.42 615.36,466.99 616.24,465.94 617.12,468.31 618.00,464.62 618.88,467.33 619.76,468.00 620.64,465.73 621.52,469.46 622.40,468.49 623.28,467.72 624.16,467.86 625.04,467.01 625.92,467.73 626.80,467.68 627.68,466.72 628.56,466.54 629.44,467.66 630.32,466.37 631.20,467.89 632.08,465.26 632.96,465.13 633.84,466.30 634.72,467.74 635.60,466.93 636.48,467.61 637.36,469.25 638.24,468.44 639.12,466.18 640.00,471.46 640.88,467.66 641.76,467.42 642.64,467.41 643.52,468.22 644.40,469.28 645.28,467.44 646.16,466.87 647.04,468.90 647.92,468.48 648.80,465.70 649.68,469.31 650.56,468.47 651.44,468.22 652.32,467.99 653.20,468.79 654.08,465.59 654.96,467.97 655.84,469.66 656.72,468.68 657.60,469.04 658.48,469.30 659.36,468.33 660.24,464.90 661.12,466.78 662.00,469.38 662.88,468.20 663.76,469.03 664.64,468.08 665.52,467.54 666.40,467.59 667.28,466.32 668.16,468.96 669.04,468.40 669.92,467.67 670.80,467.92 671.68,468.24 672.56,467.73 673.44,467.65 674.32,467.83 675.20,468.04 676.08,467.55 676.96,468.05 677.84,465.98 678.72,468.55 679.60,466.56 680.48,467.98 681.36,467.74 682.24,467.07 683.12,469.37 684.00,469.04 684.88,468.33 685.76,467.81 686.64,469.58 687.52,469.07 688.40,470.34 689.28,467.61 690.16,468.20 691.04,468.30 691.92,469.86 692.80,469.89 693.68,468.58 694.56,469.88 695.44,468.00 696.32,469.30 697.20,468.98 698.08,469.69 698.96,467.48 699.84,470.44 700.72,468.31 701.60,469.31 702.48,468.33 703.36,467.06 704.24,468.12 705.12,469.57 706.00,469.98 706.88,469.11 707.76,470.16 708.64,468.57 709.52,469.80 710.40,469.75 711.28,467.35 712.16,469.15 713.04,469.81 713.92,469.35 714.80,468.05 715.68,469.12 716.56,470.88 717.44,468.94 718.32,469.46 719.20,469.40 720.08,471.01 720.96,469.12 721.84,468.26 722.72,468.52 723.60,468.86 724.48,471.13 725.36,469.55 726.24,469.34 727.12,470.27 728.00,469.50 728.88,469.92 729.76,468.51 730.64,471.10 731.52,470.30 732.40,468.03 733.28,468.86 734.16,470.99 735.04,468.02 735.92,469.45 736.80,469.42 737.68,468.19 738.56,469.48 739.44,469.14 740.32,469.67 741.20,469.13 742.08,471.57 742.96,470.12 743.84,470.79 744.72,470.01 745.60,467.07 746.48,468.25 747.36,469.55 748.24,469.41 749.12,469.42 750.00,469.36 750.88,469.45 751.76,471.08 752.64,468.16 753.52,468.91 754.40,469.78 755.28,471.49 756.16,468.93 757.04,469.31 757.92,470.97 758.80,471.14 759.68,469.47 760.56,468.84 761.44,471.39 762.32,470.88 763.20,469.33 764.08,468.27 764.96,469.72 765.84,471.87 766.72,471.42 767.60,470.96 768.48,471.15 769.36,470.02 770.24,469.27 771.12,471.54 772.00,471.18 772.88,470.50 773.76,469.65 774.64,470.05 775.52,469.29 776.40,470.37 777.28,469.33 778.16,468.91 779.04,469.39 779.92,469.78 780.80,469.69 781.68,470.89 782.56,469.36 783.44,470.13 784.32,471.42 785.20,469.56 786.08,471.16 786.96,469.23 787.84,471.06 788.72,468.99 789.60,468.77 790.48,469.70 791.36,471.64 792.24,468.43 793.12,472.21 794.00,470.22 794.88,470.02 795.76,469.13 796.64,471.75 797.52,468.34 798.40,470.25 799.28,471.46 800.16,470.54 801.04,470.07 801.92,470.49 802.80,470.55 803.68,469.03 804.56,471.38 805.44,469.96 806.32,470.86 807.20,472.42 808.08,470.55 808.96,471.77 809.84,471.14 810.72,471.39 811.60,469.60 812.48,470.67 813.36,471.08 814.24,471.57 815.12,472.10 816.00,469.52 816.88,470.60 817.76,469.38 818.64,470.46 819.52,469.77 820.40,471.78 821.28,471.49 822.16,470.35 823.04,470.82 823.92,469.90 824.80,471.12 825.68,471.57 826.56,470.28 827.44,473.01 828.32,469.56 829.20,471.27 830.08,469.57 830.96,471.79 831.84,471.15 832.72,470.36 833.60,471.79 834.48,468.33 835.36,472.17 836.24,472.05 837.12,469.40 838.00,471.79 838.88,471.10 839.76,470.51 840.64,470.63 841.52,468.57 842.40,470.44 843.28,470.34 844.16,470.45 845.04,470.33 845.92,469.68 846.80,471.59 847.68,471.28 848.56,467.20 849.44,470.64 850.32,470.71 851.20,469.36 852.08,470.78 852.96,470.03 853.84,472.09 854.72,470.80 855.60,471.78 856.48,471.94 857.36,471.77 858.24,470.69 859.12,472.07 860.00,470.76 860.88,469.00 861.76,470.76 862.64,471.77 863.52,472.14 864.40,472.32 865.28,470.61 866.16,469.79 867.04,471.94 867.92,469.30 868.80,472.49 869.68,470.88 870.56,468.68 871.44,470.00 872.32,469.44 873.20,471.69 874.08,470.04 874.96,471.63 875.84,471.41 876.72,470.22 877.60,471.32 878.48,471.41 879.36,470.17 880.24,470.90 881.12,471.50 882.00,470.89 882.88,469.45 883.76,470.63 884.64,470.38 885.52,471.06 886.40,471.17 887.28,472.42 888.16,469.73 889.04,471.64 889.92,473.41 890.80,472.26 891.68,471.38 892.56,469.36 893.44,472.01 894.32,469.28 895.20,470.11 896.08,471.38 896.96,471.97 897.84,471.15 898.72,471.36 899.60,472.11 900.48,471.01 901.36,471.14 902.24,471.13 903.12,472.98 904.00,470.82 904.88,472.14 905.76,474.50 906.64,469.98 907.52,471.54 908.40,471.06 909.28,471.97 910.16,473.67 911.04,470.46 911.92,471.89 912.80,471.11 913.68,470.01 914.56,471.74 915.44,471.45 916.32,472.93 917.20,473.25 918.08,470.52 918.96,469.57 919.84,472.38 920.72,471.21 921.60,470.86 922.48,471.54 923.36,472.05 924.24,470.50 925.12,469.93 926.00,469.83 926.88,470.34 927.76,472.20 928.64,471.10 929.52,471.81 930.40,471.90 931.28,470.55 932.16,471.03 933.04,471.72 933.92,470.56 934.80,472.56 935.68,470.47 936.56,471.39 937.44,470.57 938.32,469.94 939.20,471.75 940.08,473.33 940.96,470.23 941.84,470.51 942.72,471.14 943.60,470.96 944.48,469.89 945.36,472.30 946.24,473.43 947.12,471.68 948.00,469.03 948.88,471.52 949.76,471.63 950.64,472.44 951.52,473.04 952.40,472.21 953.28,472.21 954.16,472.00 955.04,472.94 955.92,471.13 956.80,471.89 957.68,473.16 958.56,471.63 959.44,473.09 960.32,471.27 961.20,471.93 962.08,472.26 962.96,470.84 963.84,472.92 964.72,472.80 965.60,472.72 966.48,471.79 967.36,471.81 968.24,472.76 969.12,471.93 970.00,473.10" clip-path="url(#plot-area)"/>
<polyline class="series" stroke="#2563eb" stroke-dasharray="7 5" points="90.00,132.27 98.80,404.36 107.60,426.28 116.40,435.08 125.20,440.07 134.00,444.72 142.80,446.58 151.60,448.23 160.40,450.80 169.20,451.48 178.00,452.53 186.80,453.37 195.60,454.27 204.40,455.30 213.20,456.17 222.00,456.14 230.80,456.64 239.60,458.28 248.40,456.96 257.20,458.51 266.00,458.55 274.80,459.17 283.60,459.93 292.40,460.25 301.20,459.61 310.00,460.14 318.80,461.30 327.60,460.79 336.40,460.77 345.20,461.46 354.00,461.86 362.80,462.02 371.60,461.81 380.40,462.37 389.20,462.50 398.00,462.70 406.80,463.13 415.60,463.24 424.40,462.28 433.20,464.11 442.00,464.09 450.80,464.69 459.60,464.68 468.40,464.35 477.20,465.10 486.00,464.77 494.80,465.83 503.60,465.41 512.40,465.04 521.20,465.05 530.00,465.66 538.80,464.52 547.60,464.91 556.40,466.14 565.20,466.99 574.00,466.61 582.80,466.97 591.60,466.70 600.40,467.85 609.20,466.56 618.00,466.95 626.80,467.14 635.60,467.27 644.40,468.39 653.20,467.93 662.00,468.24 670.80,468.29 679.60,468.45 688.40,469.16 697.20,468.25 706.00,468.61 714.80,469.12 723.60,468.77 732.40,469.16 741.20,468.75 750.00,468.67 758.80,468.79 767.60,469.60 776.40,469.90 785.20,468.98 794.00,469.83 802.80,470.35 811.60,469.72 820.40,470.33 829.20,470.56 838.00,471.00 846.80,470.86 855.60,470.55 864.40,471.02 873.20,471.69 882.00,470.83 890.80,471.09 899.60,470.90 908.40,470.67 917.20,471.13 926.00,470.57 934.80,471.83 943.60,471.00 952.40,471.31 961.20,472.25 970.00,471.20" clip-path="url(#plot-area)"/>
<circle cx="90.00" cy="132.27" r="2.8" fill="#2563eb" clip-path="url(#plot-area)"><title>TinyStories, lr=3e-3 validation: 9.27374</title></circle>
<circle cx="98.80" cy="404.36" r="2.8" fill="#2563eb" clip-path="url(#plot-area)"><title>TinyStories, lr=3e-3 validation: 2.90431</title></circle>
<circle cx="107.60" cy="426.28" r="2.8" fill="#2563eb" clip-path="url(#plot-area)"><title>TinyStories, lr=3e-3 validation: 2.39121</title></circle>
<circle cx="116.40" cy="435.08" r="2.8" fill="#2563eb" clip-path="url(#plot-area)"><title>TinyStories, lr=3e-3 validation: 2.18509</title></circle>
<circle cx="125.20" cy="440.07" r="2.8" fill="#2563eb" clip-path="url(#plot-area)"><title>TinyStories, lr=3e-3 validation: 2.06831</title></circle>
<circle cx="134.00" cy="444.72" r="2.8" fill="#2563eb" clip-path="url(#plot-area)"><title>TinyStories, lr=3e-3 validation: 1.9594</title></circle>
<circle cx="142.80" cy="446.58" r="2.8" fill="#2563eb" clip-path="url(#plot-area)"><title>TinyStories, lr=3e-3 validation: 1.91578</title></circle>
<circle cx="151.60" cy="448.23" r="2.8" fill="#2563eb" clip-path="url(#plot-area)"><title>TinyStories, lr=3e-3 validation: 1.87734</title></circle>
<circle cx="160.40" cy="450.80" r="2.8" fill="#2563eb" clip-path="url(#plot-area)"><title>TinyStories, lr=3e-3 validation: 1.81713</title></circle>
<circle cx="169.20" cy="451.48" r="2.8" fill="#2563eb" clip-path="url(#plot-area)"><title>TinyStories, lr=3e-3 validation: 1.80122</title></circle>
<circle cx="178.00" cy="452.53" r="2.8" fill="#2563eb" clip-path="url(#plot-area)"><title>TinyStories, lr=3e-3 validation: 1.7766</title></circle>
<circle cx="186.80" cy="453.37" r="2.8" fill="#2563eb" clip-path="url(#plot-area)"><title>TinyStories, lr=3e-3 validation: 1.75688</title></circle>
<circle cx="195.60" cy="454.27" r="2.8" fill="#2563eb" clip-path="url(#plot-area)"><title>TinyStories, lr=3e-3 validation: 1.73576</title></circle>
<circle cx="204.40" cy="455.30" r="2.8" fill="#2563eb" clip-path="url(#plot-area)"><title>TinyStories, lr=3e-3 validation: 1.71184</title></circle>
<circle cx="213.20" cy="456.17" r="2.8" fill="#2563eb" clip-path="url(#plot-area)"><title>TinyStories, lr=3e-3 validation: 1.69142</title></circle>
<circle cx="222.00" cy="456.14" r="2.8" fill="#2563eb" clip-path="url(#plot-area)"><title>TinyStories, lr=3e-3 validation: 1.69208</title></circle>
<circle cx="230.80" cy="456.64" r="2.8" fill="#2563eb" clip-path="url(#plot-area)"><title>TinyStories, lr=3e-3 validation: 1.68048</title></circle>
<circle cx="239.60" cy="458.28" r="2.8" fill="#2563eb" clip-path="url(#plot-area)"><title>TinyStories, lr=3e-3 validation: 1.64207</title></circle>
<circle cx="248.40" cy="456.96" r="2.8" fill="#2563eb" clip-path="url(#plot-area)"><title>TinyStories, lr=3e-3 validation: 1.67294</title></circle>
<circle cx="257.20" cy="458.51" r="2.8" fill="#2563eb" clip-path="url(#plot-area)"><title>TinyStories, lr=3e-3 validation: 1.63651</title></circle>
<circle cx="266.00" cy="458.55" r="2.8" fill="#2563eb" clip-path="url(#plot-area)"><title>TinyStories, lr=3e-3 validation: 1.63574</title></circle>
<circle cx="274.80" cy="459.17" r="2.8" fill="#2563eb" clip-path="url(#plot-area)"><title>TinyStories, lr=3e-3 validation: 1.62108</title></circle>
<circle cx="283.60" cy="459.93" r="2.8" fill="#2563eb" clip-path="url(#plot-area)"><title>TinyStories, lr=3e-3 validation: 1.60335</title></circle>
<circle cx="292.40" cy="460.25" r="2.8" fill="#2563eb" clip-path="url(#plot-area)"><title>TinyStories, lr=3e-3 validation: 1.59588</title></circle>
<circle cx="301.20" cy="459.61" r="2.8" fill="#2563eb" clip-path="url(#plot-area)"><title>TinyStories, lr=3e-3 validation: 1.61077</title></circle>
<circle cx="310.00" cy="460.14" r="2.8" fill="#2563eb" clip-path="url(#plot-area)"><title>TinyStories, lr=3e-3 validation: 1.59835</title></circle>
<circle cx="318.80" cy="461.30" r="2.8" fill="#2563eb" clip-path="url(#plot-area)"><title>TinyStories, lr=3e-3 validation: 1.57125</title></circle>
<circle cx="327.60" cy="460.79" r="2.8" fill="#2563eb" clip-path="url(#plot-area)"><title>TinyStories, lr=3e-3 validation: 1.58316</title></circle>
<circle cx="336.40" cy="460.77" r="2.8" fill="#2563eb" clip-path="url(#plot-area)"><title>TinyStories, lr=3e-3 validation: 1.5837</title></circle>
<circle cx="345.20" cy="461.46" r="2.8" fill="#2563eb" clip-path="url(#plot-area)"><title>TinyStories, lr=3e-3 validation: 1.56745</title></circle>
<circle cx="354.00" cy="461.86" r="2.8" fill="#2563eb" clip-path="url(#plot-area)"><title>TinyStories, lr=3e-3 validation: 1.55812</title></circle>
<circle cx="362.80" cy="462.02" r="2.8" fill="#2563eb" clip-path="url(#plot-area)"><title>TinyStories, lr=3e-3 validation: 1.55439</title></circle>
<circle cx="371.60" cy="461.81" r="2.8" fill="#2563eb" clip-path="url(#plot-area)"><title>TinyStories, lr=3e-3 validation: 1.55926</title></circle>
<circle cx="380.40" cy="462.37" r="2.8" fill="#2563eb" clip-path="url(#plot-area)"><title>TinyStories, lr=3e-3 validation: 1.5463</title></circle>
<circle cx="389.20" cy="462.50" r="2.8" fill="#2563eb" clip-path="url(#plot-area)"><title>TinyStories, lr=3e-3 validation: 1.54321</title></circle>
<circle cx="398.00" cy="462.70" r="2.8" fill="#2563eb" clip-path="url(#plot-area)"><title>TinyStories, lr=3e-3 validation: 1.53863</title></circle>
<circle cx="406.80" cy="463.13" r="2.8" fill="#2563eb" clip-path="url(#plot-area)"><title>TinyStories, lr=3e-3 validation: 1.52845</title></circle>
<circle cx="415.60" cy="463.24" r="2.8" fill="#2563eb" clip-path="url(#plot-area)"><title>TinyStories, lr=3e-3 validation: 1.52585</title></circle>
<circle cx="424.40" cy="462.28" r="2.8" fill="#2563eb" clip-path="url(#plot-area)"><title>TinyStories, lr=3e-3 validation: 1.54846</title></circle>
<circle cx="433.20" cy="464.11" r="2.8" fill="#2563eb" clip-path="url(#plot-area)"><title>TinyStories, lr=3e-3 validation: 1.50554</title></circle>
<circle cx="442.00" cy="464.09" r="2.8" fill="#2563eb" clip-path="url(#plot-area)"><title>TinyStories, lr=3e-3 validation: 1.50598</title></circle>
<circle cx="450.80" cy="464.69" r="2.8" fill="#2563eb" clip-path="url(#plot-area)"><title>TinyStories, lr=3e-3 validation: 1.492</title></circle>
<circle cx="459.60" cy="464.68" r="2.8" fill="#2563eb" clip-path="url(#plot-area)"><title>TinyStories, lr=3e-3 validation: 1.49228</title></circle>
<circle cx="468.40" cy="464.35" r="2.8" fill="#2563eb" clip-path="url(#plot-area)"><title>TinyStories, lr=3e-3 validation: 1.49983</title></circle>
<circle cx="477.20" cy="465.10" r="2.8" fill="#2563eb" clip-path="url(#plot-area)"><title>TinyStories, lr=3e-3 validation: 1.48238</title></circle>
<circle cx="486.00" cy="464.77" r="2.8" fill="#2563eb" clip-path="url(#plot-area)"><title>TinyStories, lr=3e-3 validation: 1.49011</title></circle>
<circle cx="494.80" cy="465.83" r="2.8" fill="#2563eb" clip-path="url(#plot-area)"><title>TinyStories, lr=3e-3 validation: 1.46535</title></circle>
<circle cx="503.60" cy="465.41" r="2.8" fill="#2563eb" clip-path="url(#plot-area)"><title>TinyStories, lr=3e-3 validation: 1.47518</title></circle>
<circle cx="512.40" cy="465.04" r="2.8" fill="#2563eb" clip-path="url(#plot-area)"><title>TinyStories, lr=3e-3 validation: 1.48382</title></circle>
<circle cx="521.20" cy="465.05" r="2.8" fill="#2563eb" clip-path="url(#plot-area)"><title>TinyStories, lr=3e-3 validation: 1.4836</title></circle>
<circle cx="530.00" cy="465.66" r="2.8" fill="#2563eb" clip-path="url(#plot-area)"><title>TinyStories, lr=3e-3 validation: 1.46931</title></circle>
<circle cx="538.80" cy="464.52" r="2.8" fill="#2563eb" clip-path="url(#plot-area)"><title>TinyStories, lr=3e-3 validation: 1.49582</title></circle>
<circle cx="547.60" cy="464.91" r="2.8" fill="#2563eb" clip-path="url(#plot-area)"><title>TinyStories, lr=3e-3 validation: 1.48679</title></circle>
<circle cx="556.40" cy="466.14" r="2.8" fill="#2563eb" clip-path="url(#plot-area)"><title>TinyStories, lr=3e-3 validation: 1.45797</title></circle>
<circle cx="565.20" cy="466.99" r="2.8" fill="#2563eb" clip-path="url(#plot-area)"><title>TinyStories, lr=3e-3 validation: 1.43798</title></circle>
<circle cx="574.00" cy="466.61" r="2.8" fill="#2563eb" clip-path="url(#plot-area)"><title>TinyStories, lr=3e-3 validation: 1.44704</title></circle>
<circle cx="582.80" cy="466.97" r="2.8" fill="#2563eb" clip-path="url(#plot-area)"><title>TinyStories, lr=3e-3 validation: 1.43866</title></circle>
<circle cx="591.60" cy="466.70" r="2.8" fill="#2563eb" clip-path="url(#plot-area)"><title>TinyStories, lr=3e-3 validation: 1.44495</title></circle>
<circle cx="600.40" cy="467.85" r="2.8" fill="#2563eb" clip-path="url(#plot-area)"><title>TinyStories, lr=3e-3 validation: 1.41786</title></circle>
<circle cx="609.20" cy="466.56" r="2.8" fill="#2563eb" clip-path="url(#plot-area)"><title>TinyStories, lr=3e-3 validation: 1.44815</title></circle>
<circle cx="618.00" cy="466.95" r="2.8" fill="#2563eb" clip-path="url(#plot-area)"><title>TinyStories, lr=3e-3 validation: 1.43893</title></circle>
<circle cx="626.80" cy="467.14" r="2.8" fill="#2563eb" clip-path="url(#plot-area)"><title>TinyStories, lr=3e-3 validation: 1.43453</title></circle>
<circle cx="635.60" cy="467.27" r="2.8" fill="#2563eb" clip-path="url(#plot-area)"><title>TinyStories, lr=3e-3 validation: 1.4315</title></circle>
<circle cx="644.40" cy="468.39" r="2.8" fill="#2563eb" clip-path="url(#plot-area)"><title>TinyStories, lr=3e-3 validation: 1.40531</title></circle>
<circle cx="653.20" cy="467.93" r="2.8" fill="#2563eb" clip-path="url(#plot-area)"><title>TinyStories, lr=3e-3 validation: 1.41611</title></circle>
<circle cx="662.00" cy="468.24" r="2.8" fill="#2563eb" clip-path="url(#plot-area)"><title>TinyStories, lr=3e-3 validation: 1.40889</title></circle>
<circle cx="670.80" cy="468.29" r="2.8" fill="#2563eb" clip-path="url(#plot-area)"><title>TinyStories, lr=3e-3 validation: 1.40757</title></circle>
<circle cx="679.60" cy="468.45" r="2.8" fill="#2563eb" clip-path="url(#plot-area)"><title>TinyStories, lr=3e-3 validation: 1.40391</title></circle>
<circle cx="688.40" cy="469.16" r="2.8" fill="#2563eb" clip-path="url(#plot-area)"><title>TinyStories, lr=3e-3 validation: 1.38727</title></circle>
<circle cx="697.20" cy="468.25" r="2.8" fill="#2563eb" clip-path="url(#plot-area)"><title>TinyStories, lr=3e-3 validation: 1.40866</title></circle>
<circle cx="706.00" cy="468.61" r="2.8" fill="#2563eb" clip-path="url(#plot-area)"><title>TinyStories, lr=3e-3 validation: 1.40015</title></circle>
<circle cx="714.80" cy="469.12" r="2.8" fill="#2563eb" clip-path="url(#plot-area)"><title>TinyStories, lr=3e-3 validation: 1.38834</title></circle>
<circle cx="723.60" cy="468.77" r="2.8" fill="#2563eb" clip-path="url(#plot-area)"><title>TinyStories, lr=3e-3 validation: 1.39644</title></circle>
<circle cx="732.40" cy="469.16" r="2.8" fill="#2563eb" clip-path="url(#plot-area)"><title>TinyStories, lr=3e-3 validation: 1.38719</title></circle>
<circle cx="741.20" cy="468.75" r="2.8" fill="#2563eb" clip-path="url(#plot-area)"><title>TinyStories, lr=3e-3 validation: 1.39684</title></circle>
<circle cx="750.00" cy="468.67" r="2.8" fill="#2563eb" clip-path="url(#plot-area)"><title>TinyStories, lr=3e-3 validation: 1.39882</title></circle>
<circle cx="758.80" cy="468.79" r="2.8" fill="#2563eb" clip-path="url(#plot-area)"><title>TinyStories, lr=3e-3 validation: 1.39585</title></circle>
<circle cx="767.60" cy="469.60" r="2.8" fill="#2563eb" clip-path="url(#plot-area)"><title>TinyStories, lr=3e-3 validation: 1.37706</title></circle>
<circle cx="776.40" cy="469.90" r="2.8" fill="#2563eb" clip-path="url(#plot-area)"><title>TinyStories, lr=3e-3 validation: 1.36988</title></circle>
<circle cx="785.20" cy="468.98" r="2.8" fill="#2563eb" clip-path="url(#plot-area)"><title>TinyStories, lr=3e-3 validation: 1.39145</title></circle>
<circle cx="794.00" cy="469.83" r="2.8" fill="#2563eb" clip-path="url(#plot-area)"><title>TinyStories, lr=3e-3 validation: 1.37167</title></circle>
<circle cx="802.80" cy="470.35" r="2.8" fill="#2563eb" clip-path="url(#plot-area)"><title>TinyStories, lr=3e-3 validation: 1.35935</title></circle>
<circle cx="811.60" cy="469.72" r="2.8" fill="#2563eb" clip-path="url(#plot-area)"><title>TinyStories, lr=3e-3 validation: 1.37406</title></circle>
<circle cx="820.40" cy="470.33" r="2.8" fill="#2563eb" clip-path="url(#plot-area)"><title>TinyStories, lr=3e-3 validation: 1.35996</title></circle>
<circle cx="829.20" cy="470.56" r="2.8" fill="#2563eb" clip-path="url(#plot-area)"><title>TinyStories, lr=3e-3 validation: 1.35449</title></circle>
<circle cx="838.00" cy="471.00" r="2.8" fill="#2563eb" clip-path="url(#plot-area)"><title>TinyStories, lr=3e-3 validation: 1.34428</title></circle>
<circle cx="846.80" cy="470.86" r="2.8" fill="#2563eb" clip-path="url(#plot-area)"><title>TinyStories, lr=3e-3 validation: 1.34741</title></circle>
<circle cx="855.60" cy="470.55" r="2.8" fill="#2563eb" clip-path="url(#plot-area)"><title>TinyStories, lr=3e-3 validation: 1.3547</title></circle>
<circle cx="864.40" cy="471.02" r="2.8" fill="#2563eb" clip-path="url(#plot-area)"><title>TinyStories, lr=3e-3 validation: 1.34385</title></circle>
<circle cx="873.20" cy="471.69" r="2.8" fill="#2563eb" clip-path="url(#plot-area)"><title>TinyStories, lr=3e-3 validation: 1.32818</title></circle>
<circle cx="882.00" cy="470.83" r="2.8" fill="#2563eb" clip-path="url(#plot-area)"><title>TinyStories, lr=3e-3 validation: 1.34815</title></circle>
<circle cx="890.80" cy="471.09" r="2.8" fill="#2563eb" clip-path="url(#plot-area)"><title>TinyStories, lr=3e-3 validation: 1.34214</title></circle>
<circle cx="899.60" cy="470.90" r="2.8" fill="#2563eb" clip-path="url(#plot-area)"><title>TinyStories, lr=3e-3 validation: 1.34647</title></circle>
<circle cx="908.40" cy="470.67" r="2.8" fill="#2563eb" clip-path="url(#plot-area)"><title>TinyStories, lr=3e-3 validation: 1.35196</title></circle>
<circle cx="917.20" cy="471.13" r="2.8" fill="#2563eb" clip-path="url(#plot-area)"><title>TinyStories, lr=3e-3 validation: 1.34125</title></circle>
<circle cx="926.00" cy="470.57" r="2.8" fill="#2563eb" clip-path="url(#plot-area)"><title>TinyStories, lr=3e-3 validation: 1.35421</title></circle>
<circle cx="934.80" cy="471.83" r="2.8" fill="#2563eb" clip-path="url(#plot-area)"><title>TinyStories, lr=3e-3 validation: 1.32483</title></circle>
<circle cx="943.60" cy="471.00" r="2.8" fill="#2563eb" clip-path="url(#plot-area)"><title>TinyStories, lr=3e-3 validation: 1.34414</title></circle>
<circle cx="952.40" cy="471.31" r="2.8" fill="#2563eb" clip-path="url(#plot-area)"><title>TinyStories, lr=3e-3 validation: 1.33694</title></circle>
<circle cx="961.20" cy="472.25" r="2.8" fill="#2563eb" clip-path="url(#plot-area)"><title>TinyStories, lr=3e-3 validation: 1.31487</title></circle>
<circle cx="970.00" cy="471.20" r="2.8" fill="#2563eb" clip-path="url(#plot-area)"><title>TinyStories, lr=3e-3 validation: 1.33957</title></circle>
<line x1="90.0" y1="569.0" x2="117.0" y2="569.0" stroke="#2563eb" stroke-width="2"/>
<line x1="127.0" y1="569.0" x2="154.0" y2="569.0" stroke="#2563eb" stroke-width="2" stroke-dasharray="7 5"/>
<text x="165.00" y="573.00" font-size="12">TinyStories, lr=3e-3 (solid: train, dashed: validation)</text>
<polyline class="series" stroke="#dc2626" points="90.88,106.62 91.76,173.42 92.64,207.68 93.52,219.35 94.40,229.45 95.28,233.42 96.16,242.75 97.04,250.44 97.92,254.84 98.80,257.05 99.68,259.04 100.56,269.22 101.44,271.38 102.32,269.35 103.20,273.36 104.08,272.12 104.96,277.77 105.84,280.88 106.72,281.70 107.60,285.58 108.48,284.83 109.36,288.15 110.24,291.04 111.12,290.76 112.00,294.22 112.88,292.66 113.76,296.70 114.64,294.35 115.52,294.36 116.40,297.63 117.28,300.65 118.16,298.80 119.04,300.60 119.92,300.52 120.80,304.79 121.68,299.61 122.56,301.71 123.44,304.07 124.32,303.78 125.20,305.84 126.08,306.25 126.96,303.45 127.84,308.29 128.72,310.44 129.60,308.81 130.48,308.64 131.36,308.39 132.24,308.27 133.12,308.15 134.00,308.69 134.88,309.31 135.76,312.08 136.64,311.43 137.52,312.35 138.40,313.99 139.28,311.42 140.16,312.84 141.04,316.51 141.92,311.31 142.80,316.76 143.68,317.66 144.56,315.64 145.44,316.83 146.32,315.27 147.20,317.67 148.08,315.82 148.96,315.73 149.84,317.60 150.72,313.42 151.60,321.26 152.48,318.01 153.36,317.74 154.24,314.65 155.12,319.73 156.00,318.75 156.88,317.99 157.76,317.67 158.64,318.60 159.52,321.27 160.40,319.42 161.28,320.22 162.16,321.48 163.04,318.63 163.92,319.81 164.80,322.26 165.68,323.92 166.56,325.46 167.44,324.75 168.32,323.62 169.20,326.86 170.08,323.84 170.96,324.12 171.84,325.36 172.72,325.53 173.60,324.06 174.48,322.63 175.36,324.03 176.24,325.63 177.12,324.30 178.00,326.92 178.88,324.49 179.76,327.94 180.64,327.97 181.52,326.84 182.40,326.45 183.28,326.93 184.16,327.56 185.04,327.07 185.92,329.18 186.80,326.04 187.68,329.04 188.56,330.77 189.44,327.81 190.32,330.63 191.20,326.79 192.08,330.80 192.96,329.43 193.84,330.94 194.72,327.99 195.60,329.38 196.48,328.64 197.36,328.37 198.24,330.40 199.12,330.57 200.00,328.77 200.88,328.99 201.76,329.85 202.64,329.62 203.52,329.19 204.40,331.57 205.28,329.53 206.16,328.73 207.04,330.50 207.92,333.80 208.80,331.44 209.68,330.65 210.56,333.00 211.44,328.42 212.32,327.71 213.20,331.52 214.08,330.48 214.96,331.24 215.84,328.90 216.72,330.83 217.60,332.79 218.48,334.26 219.36,334.78 220.24,335.69 221.12,334.87 222.00,331.88 222.88,334.59 223.76,331.11 224.64,333.84 225.52,334.33 226.40,334.15 227.28,336.36 228.16,333.04 229.04,333.41 229.92,331.72 230.80,336.26 231.68,332.11 232.56,331.16 233.44,335.15 234.32,335.23 235.20,333.65 236.08,331.98 236.96,335.90 237.84,333.83 238.72,336.55 239.60,335.53 240.48,336.70 241.36,333.91 242.24,335.10 243.12,337.15 244.00,336.13 244.88,334.22 245.76,335.75 246.64,335.54 247.52,334.92 248.40,336.19 249.28,333.65 250.16,337.48 251.04,336.73 251.92,337.71 252.80,335.86 253.68,336.83 254.56,338.46 255.44,336.78 256.32,336.54 257.20,332.77 258.08,337.00 258.96,340.34 259.84,334.34 260.72,336.53 261.60,338.70 262.48,342.19 263.36,340.15 264.24,334.55 265.12,337.90 266.00,338.05 266.88,337.19 267.76,339.72 268.64,336.14 269.52,339.43 270.40,334.97 271.28,340.67 272.16,335.67 273.04,341.68 273.92,337.58 274.80,339.01 275.68,338.06 276.56,340.25 277.44,340.35 278.32,339.73 279.20,341.97 280.08,337.26 280.96,340.52 281.84,337.00 282.72,340.90 283.60,338.01 284.48,340.15 285.36,341.00 286.24,337.79 287.12,338.55 288.00,337.89 288.88,339.25 289.76,337.14 290.64,340.55 291.52,338.18 292.40,342.18 293.28,337.81 294.16,339.01 295.04,339.62 295.92,339.32 296.80,337.88 297.68,342.78 298.56,340.74 299.44,340.72 300.32,341.67 301.20,339.22 302.08,340.43 302.96,339.64 303.84,338.94 304.72,340.63 305.60,341.41 306.48,337.55 307.36,340.92 308.24,342.69 309.12,338.58 310.00,340.57 310.88,341.62 311.76,338.49 312.64,341.62 313.52,340.38 314.40,341.85 315.28,342.56 316.16,339.23 317.04,338.92 317.92,342.48 318.80,338.41 319.68,342.46 320.56,341.05 321.44,339.60 322.32,340.77 323.20,341.00 324.08,341.61 324.96,341.35 325.84,342.17 326.72,340.95 327.60,341.79 328.48,341.57 329.36,344.76 330.24,343.24 331.12,341.59 332.00,340.48 332.88,342.52 333.76,340.58 334.64,341.48 335.52,344.12 336.40,344.70 337.28,342.39 338.16,341.62 339.04,345.51 339.92,345.13 340.80,339.57 341.68,341.09 342.56,340.98 343.44,342.18 344.32,343.85 345.20,343.86 346.08,344.65 346.96,342.41 347.84,344.06 348.72,343.07 349.60,341.09 350.48,344.41 351.36,345.23 352.24,340.31 353.12,340.65 354.00,344.24 354.88,343.48 355.76,343.68 356.64,342.29 357.52,343.06 358.40,344.42 359.28,339.81 360.16,341.84 361.04,345.95 361.92,344.15 362.80,341.16 363.68,344.13 364.56,341.52 365.44,344.64 366.32,342.13 367.20,344.49 368.08,343.35 368.96,346.84 369.84,343.71 370.72,345.16 371.60,343.16 372.48,342.22 373.36,344.60 374.24,344.26 375.12,343.45 376.00,345.23 376.88,343.33 377.76,345.33 378.64,346.07 379.52,342.41 380.40,344.25 381.28,347.65 382.16,346.46 383.04,343.83 383.92,342.44 384.80,344.09 385.68,343.85 386.56,341.70 387.44,347.00 388.32,346.05 389.20,345.35 390.08,342.40 390.96,346.37 391.84,346.04 392.72,345.04 393.60,342.38 394.48,344.46 395.36,343.00 396.24,344.37 397.12,346.17 398.00,346.85 398.88,346.31 399.76,344.21 400.64,346.58 401.52,343.65 402.40,347.00 403.28,344.17 404.16,343.18 405.04,349.10 405.92,344.21 406.80,346.71 407.68,343.25 408.56,347.40 409.44,345.04 410.32,345.20 411.20,344.58 412.08,346.85 412.96,345.87 413.84,348.26 414.72,347.46 415.60,345.10 416.48,344.89 417.36,347.18 418.24,345.60 419.12,345.77 420.00,344.17 420.88,346.09 421.76,346.63 422.64,347.09 423.52,345.87 424.40,346.35 425.28,347.41 426.16,347.46 427.04,343.94 427.92,343.25 428.80,348.66 429.68,346.51 430.56,349.46 431.44,345.17 432.32,344.23 433.20,346.64 434.08,347.32 434.96,349.39 435.84,347.40 436.72,345.42 437.60,348.37 438.48,347.73 439.36,347.85 440.24,346.97 441.12,345.49 442.00,350.22 442.88,346.79 443.76,346.45 444.64,346.27 445.52,346.05 446.40,345.70 447.28,346.57 448.16,346.88 449.04,344.60 449.92,346.43 450.80,349.28 451.68,343.58 452.56,347.55 453.44,349.71 454.32,347.48 455.20,348.33 456.08,347.92 456.96,347.80 457.84,345.29 458.72,348.07 459.60,351.89 460.48,348.01 461.36,343.04 462.24,346.45 463.12,346.27 464.00,347.94 464.88,345.77 465.76,346.04 466.64,346.49 467.52,347.23 468.40,346.96 469.28,345.68 470.16,349.75 471.04,347.71 471.92,347.62 472.80,348.98 473.68,348.15 474.56,349.52 475.44,347.89 476.32,346.68 477.20,353.56 478.08,345.99 478.96,350.37 479.84,346.69 480.72,348.45 481.60,347.11 482.48,347.04 483.36,345.27 484.24,351.34 485.12,347.48 486.00,351.41 486.88,345.66 487.76,348.82 488.64,346.11 489.52,349.00 490.40,346.97 491.28,348.56 492.16,347.34 493.04,343.52 493.92,347.75 494.80,346.16 495.68,348.73 496.56,347.93 497.44,349.15 498.32,349.69 499.20,347.10 500.08,351.10 500.96,349.12 501.84,346.57 502.72,345.95 503.60,347.51 504.48,350.22 505.36,351.04 506.24,347.16 507.12,349.18 508.00,349.37 508.88,349.68 509.76,349.02 510.64,345.25 511.52,351.56 512.40,348.28 513.28,349.99 514.16,346.88 515.04,351.69 515.92,347.38 516.80,349.38 517.68,348.69 518.56,348.11 519.44,350.79 520.32,347.63 521.20,348.85 522.08,349.05 522.96,351.21 523.84,353.61 524.72,348.37 525.60,352.44 526.48,350.60 527.36,345.12 528.24,349.66 529.12,350.98 530.00,352.40 530.88,348.13 531.76,349.16 532.64,352.40 533.52,350.96 534.40,349.19 535.28,349.51 536.16,349.32 537.04,349.61 537.92,348.03 538.80,352.99 539.68,349.78 540.56,351.02 541.44,350.88 542.32,350.50 543.20,351.98 544.08,351.69 544.96,348.96 545.84,351.60 546.72,350.18 547.60,353.17 548.48,347.55 549.36,349.13 550.24,352.32 551.12,354.91 552.00,352.65 552.88,350.56 553.76,353.13 554.64,349.27 555.52,349.35 556.40,351.49 557.28,349.77 558.16,348.51 559.04,353.91 559.92,351.34 560.80,348.20 561.68,349.84 562.56,353.33 563.44,349.54 564.32,351.56 565.20,350.35 566.08,349.55 566.96,349.66 567.84,349.08 568.72,351.75 569.60,353.17 570.48,350.44 571.36,347.90 572.24,351.63 573.12,350.23 574.00,352.47 574.88,351.33 575.76,351.69 576.64,353.32 577.52,349.43 578.40,350.66 579.28,352.73 580.16,351.96 581.04,350.65 581.92,351.80 582.80,349.17 583.68,353.10 584.56,347.96 585.44,351.50 586.32,351.78 587.20,351.05 588.08,353.45 588.96,351.03 589.84,351.34 590.72,351.75 591.60,353.93 592.48,354.49 593.36,352.37 594.24,353.93 595.12,352.81 596.00,351.78 596.88,351.54 597.76,349.55 598.64,351.06 599.52,354.31 600.40,351.26 601.28,350.69 602.16,350.22 603.04,352.36 603.92,354.06 604.80,353.25 605.68,353.37 606.56,349.84 607.44,355.54 608.32,349.16 609.20,351.37 610.08,353.80 610.96,354.25 611.84,355.72 612.72,352.04 613.60,352.07 614.48,353.17 615.36,353.47 616.24,352.38 617.12,354.56 618.00,351.92 618.88,356.20 619.76,352.71 620.64,353.50 621.52,355.23 622.40,354.33 623.28,357.21 624.16,354.31 625.04,355.84 625.92,354.38 626.80,351.06 627.68,353.11 628.56,350.06 629.44,353.04 630.32,354.62 631.20,352.54 632.08,352.59 632.96,351.59 633.84,354.28 634.72,354.02 635.60,352.73 636.48,356.97 637.36,354.35 638.24,353.39 639.12,354.80 640.00,353.51 640.88,353.02 641.76,354.55 642.64,350.11 643.52,352.94 644.40,351.68 645.28,352.12 646.16,352.71 647.04,353.18 647.92,350.61 648.80,354.82 649.68,353.47 650.56,355.14 651.44,355.72 652.32,352.94 653.20,352.57 654.08,353.97 654.96,355.24 655.84,349.93 656.72,358.13 657.60,355.29 658.48,355.00 659.36,351.78 660.24,354.38 661.12,352.67 662.00,357.07 662.88,357.33 663.76,352.00 664.64,353.53 665.52,353.29 666.40,353.72 667.28,355.65 668.16,357.58 669.04,354.77 669.92,352.82 670.80,351.92 671.68,354.85 672.56,352.55 673.44,355.32 674.32,352.21 675.20,357.27 676.08,355.00 676.96,354.19 677.84,355.34 678.72,353.20 679.60,357.55 680.48,354.46 681.36,356.70 682.24,355.17 683.12,359.22 684.00,352.31 684.88,354.04 685.76,356.94 686.64,350.24 687.52,354.97 688.40,354.61 689.28,356.84 690.16,356.79 691.04,354.57 691.92,354.38 692.80,355.65 693.68,355.11 694.56,353.04 695.44,358.03 696.32,355.05 697.20,353.35 698.08,354.42 698.96,356.38 699.84,356.91 700.72,351.38 701.60,357.49 702.48,354.12 703.36,356.74 704.24,355.72 705.12,355.00 706.00,354.67 706.88,355.17 707.76,356.32 708.64,352.23 709.52,355.71 710.40,356.81 711.28,357.50 712.16,357.41 713.04,355.84 713.92,356.49 714.80,353.70 715.68,356.74 716.56,355.94 717.44,355.53 718.32,353.13 719.20,355.43 720.08,355.38 720.96,353.43 721.84,359.05 722.72,358.75 723.60,354.12 724.48,357.44 725.36,356.47 726.24,361.07 727.12,355.67 728.00,355.42 728.88,355.39 729.76,357.07 730.64,354.86 731.52,356.62 732.40,355.19 733.28,358.62 734.16,356.78 735.04,356.23 735.92,357.77 736.80,354.46 737.68,355.82 738.56,355.80 739.44,359.63 740.32,357.29 741.20,356.10 742.08,355.67 742.96,358.53 743.84,355.79 744.72,354.95 745.60,353.03 746.48,356.60 747.36,354.17 748.24,354.02 749.12,359.49 750.00,359.80 750.88,357.73 751.76,354.56 752.64,355.74 753.52,356.23 754.40,355.83 755.28,355.90 756.16,359.23 757.04,359.41 757.92,358.94 758.80,355.05 759.68,357.40 760.56,356.19 761.44,354.36 762.32,355.58 763.20,358.00 764.08,357.49 764.96,352.58 765.84,357.50 766.72,357.32 767.60,358.51 768.48,356.96 769.36,354.81 770.24,357.80 771.12,357.10 772.00,359.03 772.88,359.29 773.76,359.35 774.64,357.87 775.52,358.21 776.40,356.66 777.28,355.90 778.16,357.14 779.04,355.18 779.92,354.36 780.80,358.96 781.68,356.69 782.56,359.80 783.44,357.42 784.32,357.47 785.20,361.27 786.08,356.58 786.96,358.91 787.84,357.45 788.72,356.80 789.60,359.06 790.48,358.62 791.36,355.93 792.24,352.94 793.12,356.83 794.00,356.71 794.88,355.84 795.76,358.70 796.64,357.51 797.52,357.31 798.40,356.54 799.28,359.56 800.16,356.18 801.04,359.32 801.92,356.28 802.80,360.06 803.68,360.10 804.56,357.62 805.44,356.06 806.32,358.07 807.20,359.73 808.08,357.25 808.96,358.07 809.84,357.69 810.72,360.29 811.60,357.34 812.48,358.98 813.36,356.31 814.24,359.23 815.12,358.32 816.00,359.12 816.88,357.36 817.76,357.12 818.64,360.57 819.52,354.15 820.40,360.19 821.28,359.23 822.16,358.50 823.04,358.38 823.92,355.17 824.80,358.16 825.68,356.83 826.56,359.49 827.44,356.76 828.32,357.01 829.20,361.76 830.08,359.32 830.96,354.65 831.84,358.57 832.72,357.98 833.60,358.70 834.48,356.36 835.36,360.90 836.24,359.36 837.12,357.57 838.00,358.95 838.88,360.21 839.76,358.11 840.64,360.72 841.52,357.00 842.40,356.45 843.28,359.49 844.16,361.68 845.04,358.50 845.92,356.96 846.80,356.80 847.68,360.55 848.56,360.72 849.44,359.72 850.32,358.94 851.20,359.92 852.08,359.55 852.96,356.87 853.84,356.90 854.72,356.22 855.60,361.00 856.48,358.35 857.36,360.36 858.24,358.27 859.12,363.00 860.00,360.22 860.88,363.53 861.76,359.89 862.64,358.82 863.52,358.53 864.40,360.08 865.28,359.84 866.16,358.56 867.04,360.88 867.92,358.30 868.80,361.99 869.68,356.95 870.56,356.91 871.44,356.21 872.32,359.42 873.20,355.61 874.08,360.74 874.96,355.64 875.84,362.46 876.72,360.76 877.60,357.79 878.48,359.59 879.36,357.94 880.24,359.95 881.12,357.52 882.00,358.23 882.88,357.02 883.76,358.59 884.64,358.35 885.52,360.68 886.40,361.09 887.28,360.39 888.16,359.48 889.04,359.22 889.92,361.90 890.80,356.55 891.68,360.82 892.56,361.10 893.44,360.78 894.32,360.19 895.20,359.88 896.08,361.27 896.96,362.05 897.84,356.40 898.72,360.65 899.60,359.25 900.48,360.61 901.36,361.10 902.24,359.13 903.12,358.80 904.00,361.08 904.88,359.72 905.76,358.83 906.64,363.19 907.52,358.25 908.40,361.18 909.28,362.83 910.16,358.38 911.04,359.99 911.92,360.22 912.80,359.48 913.68,362.13 914.56,357.07 915.44,357.18 916.32,360.55 917.20,358.64 918.08,359.69 918.96,359.98 919.84,361.16 920.72,359.17 921.60,359.51 922.48,361.36 923.36,359.64 924.24,358.09 925.12,358.73 926.00,359.09 926.88,358.47 927.76,359.55 928.64,358.12 929.52,361.69 930.40,358.89 931.28,360.61 932.16,359.52 933.04,358.83 933.92,358.17 934.80,359.89 935.68,361.58 936.56,360.82 937.44,358.56 938.32,358.25 939.20,357.89 940.08,358.05 940.96,360.08 941.84,360.46 942.72,360.07 943.60,362.41 944.48,358.49 945.36,361.20 946.24,361.60 947.12,360.60 948.00,361.65 948.88,360.28 949.76,361.76 950.64,362.23 951.52,360.46 952.40,358.51 953.28,358.86 954.16,360.17 955.04,365.56 955.92,361.38 956.80,358.57 957.68,359.54 958.56,358.76 959.44,360.88 960.32,362.50 961.20,357.32 962.08,363.22 962.96,364.52 963.84,361.47 964.72,360.01 965.60,358.68 966.48,359.01 967.36,361.73 968.24,360.46 969.12,363.46 970.00,361.91" clip-path="url(#plot-area)"/>
<polyline class="series" stroke="#dc2626" stroke-dasharray="7 5" points="90.00,84.50 98.80,260.87 107.60,285.75 116.40,298.54 125.20,305.14 134.00,311.20 142.80,315.62 151.60,317.73 160.40,321.44 169.20,324.24 178.00,325.65 186.80,328.66 195.60,329.85 204.40,331.37 213.20,332.32 222.00,333.06 230.80,333.50 239.60,334.92 248.40,336.68 257.20,338.68 266.00,338.77 274.80,337.77 283.60,339.98 292.40,338.57 301.20,340.13 310.00,340.68 318.80,340.70 327.60,342.56 336.40,341.89 345.20,343.29 354.00,342.37 362.80,343.03 371.60,344.23 380.40,344.30 389.20,344.00 398.00,344.45 406.80,344.48 415.60,344.35 424.40,345.40 433.20,347.03 442.00,345.79 450.80,347.35 459.60,346.88 468.40,347.58 477.20,347.97 486.00,348.36 494.80,348.05 503.60,349.03 512.40,348.30 521.20,348.17 530.00,348.72 538.80,350.27 547.60,351.87 556.40,350.16 565.20,350.40 574.00,351.56 582.80,351.80 591.60,351.71 600.40,352.15 609.20,351.09 618.00,353.75 626.80,353.19 635.60,353.48 644.40,353.96 653.20,353.47 662.00,353.76 670.80,354.33 679.60,355.51 688.40,354.27 697.20,354.92 706.00,355.62 714.80,355.32 723.60,356.30 732.40,357.60 741.20,355.76 750.00,357.48 758.80,356.36 767.60,357.04 776.40,357.14 785.20,358.06 794.00,357.38 802.80,358.60 811.60,357.29 820.40,358.23 829.20,357.00 838.00,359.06 846.80,358.28 855.60,358.31 864.40,358.67 873.20,360.13 882.00,360.85 890.80,358.90 899.60,359.89 908.40,361.24 917.20,359.77 926.00,358.62 934.80,358.74 943.60,359.47 952.40,360.53 961.20,359.65 970.00,359.63" clip-path="url(#plot-area)"/>
<circle cx="90.00" cy="84.50" r="2.8" fill="#dc2626" clip-path="url(#plot-area)"><title>OpenWebText, lr=3e-3 validation: 10.3921</title></circle>
<circle cx="98.80" cy="260.87" r="2.8" fill="#dc2626" clip-path="url(#plot-area)"><title>OpenWebText, lr=3e-3 validation: 6.26332</title></circle>
<circle cx="107.60" cy="285.75" r="2.8" fill="#dc2626" clip-path="url(#plot-area)"><title>OpenWebText, lr=3e-3 validation: 5.68098</title></circle>
<circle cx="116.40" cy="298.54" r="2.8" fill="#dc2626" clip-path="url(#plot-area)"><title>OpenWebText, lr=3e-3 validation: 5.38151</title></circle>
<circle cx="125.20" cy="305.14" r="2.8" fill="#dc2626" clip-path="url(#plot-area)"><title>OpenWebText, lr=3e-3 validation: 5.22689</title></circle>
<circle cx="134.00" cy="311.20" r="2.8" fill="#dc2626" clip-path="url(#plot-area)"><title>OpenWebText, lr=3e-3 validation: 5.08508</title></circle>
<circle cx="142.80" cy="315.62" r="2.8" fill="#dc2626" clip-path="url(#plot-area)"><title>OpenWebText, lr=3e-3 validation: 4.98153</title></circle>
<circle cx="151.60" cy="317.73" r="2.8" fill="#dc2626" clip-path="url(#plot-area)"><title>OpenWebText, lr=3e-3 validation: 4.93225</title></circle>
<circle cx="160.40" cy="321.44" r="2.8" fill="#dc2626" clip-path="url(#plot-area)"><title>OpenWebText, lr=3e-3 validation: 4.84527</title></circle>
<circle cx="169.20" cy="324.24" r="2.8" fill="#dc2626" clip-path="url(#plot-area)"><title>OpenWebText, lr=3e-3 validation: 4.7798</title></circle>
<circle cx="178.00" cy="325.65" r="2.8" fill="#dc2626" clip-path="url(#plot-area)"><title>OpenWebText, lr=3e-3 validation: 4.74684</title></circle>
<circle cx="186.80" cy="328.66" r="2.8" fill="#dc2626" clip-path="url(#plot-area)"><title>OpenWebText, lr=3e-3 validation: 4.67631</title></circle>
<circle cx="195.60" cy="329.85" r="2.8" fill="#dc2626" clip-path="url(#plot-area)"><title>OpenWebText, lr=3e-3 validation: 4.64861</title></circle>
<circle cx="204.40" cy="331.37" r="2.8" fill="#dc2626" clip-path="url(#plot-area)"><title>OpenWebText, lr=3e-3 validation: 4.61287</title></circle>
<circle cx="213.20" cy="332.32" r="2.8" fill="#dc2626" clip-path="url(#plot-area)"><title>OpenWebText, lr=3e-3 validation: 4.59077</title></circle>
<circle cx="222.00" cy="333.06" r="2.8" fill="#dc2626" clip-path="url(#plot-area)"><title>OpenWebText, lr=3e-3 validation: 4.57334</title></circle>
<circle cx="230.80" cy="333.50" r="2.8" fill="#dc2626" clip-path="url(#plot-area)"><title>OpenWebText, lr=3e-3 validation: 4.56294</title></circle>
<circle cx="239.60" cy="334.92" r="2.8" fill="#dc2626" clip-path="url(#plot-area)"><title>OpenWebText, lr=3e-3 validation: 4.52987</title></circle>
<circle cx="248.40" cy="336.68" r="2.8" fill="#dc2626" clip-path="url(#plot-area)"><title>OpenWebText, lr=3e-3 validation: 4.48853</title></circle>
<circle cx="257.20" cy="338.68" r="2.8" fill="#dc2626" clip-path="url(#plot-area)"><title>OpenWebText, lr=3e-3 validation: 4.44178</title></circle>
<circle cx="266.00" cy="338.77" r="2.8" fill="#dc2626" clip-path="url(#plot-area)"><title>OpenWebText, lr=3e-3 validation: 4.43959</title></circle>
<circle cx="274.80" cy="337.77" r="2.8" fill="#dc2626" clip-path="url(#plot-area)"><title>OpenWebText, lr=3e-3 validation: 4.46317</title></circle>
<circle cx="283.60" cy="339.98" r="2.8" fill="#dc2626" clip-path="url(#plot-area)"><title>OpenWebText, lr=3e-3 validation: 4.41127</title></circle>
<circle cx="292.40" cy="338.57" r="2.8" fill="#dc2626" clip-path="url(#plot-area)"><title>OpenWebText, lr=3e-3 validation: 4.4444</title></circle>
<circle cx="301.20" cy="340.13" r="2.8" fill="#dc2626" clip-path="url(#plot-area)"><title>OpenWebText, lr=3e-3 validation: 4.4078</title></circle>
<circle cx="310.00" cy="340.68" r="2.8" fill="#dc2626" clip-path="url(#plot-area)"><title>OpenWebText, lr=3e-3 validation: 4.39498</title></circle>
<circle cx="318.80" cy="340.70" r="2.8" fill="#dc2626" clip-path="url(#plot-area)"><title>OpenWebText, lr=3e-3 validation: 4.39439</title></circle>
<circle cx="327.60" cy="342.56" r="2.8" fill="#dc2626" clip-path="url(#plot-area)"><title>OpenWebText, lr=3e-3 validation: 4.35096</title></circle>
<circle cx="336.40" cy="341.89" r="2.8" fill="#dc2626" clip-path="url(#plot-area)"><title>OpenWebText, lr=3e-3 validation: 4.36666</title></circle>
<circle cx="345.20" cy="343.29" r="2.8" fill="#dc2626" clip-path="url(#plot-area)"><title>OpenWebText, lr=3e-3 validation: 4.33381</title></circle>
<circle cx="354.00" cy="342.37" r="2.8" fill="#dc2626" clip-path="url(#plot-area)"><title>OpenWebText, lr=3e-3 validation: 4.35532</title></circle>
<circle cx="362.80" cy="343.03" r="2.8" fill="#dc2626" clip-path="url(#plot-area)"><title>OpenWebText, lr=3e-3 validation: 4.33994</title></circle>
<circle cx="371.60" cy="344.23" r="2.8" fill="#dc2626" clip-path="url(#plot-area)"><title>OpenWebText, lr=3e-3 validation: 4.31192</title></circle>
<circle cx="380.40" cy="344.30" r="2.8" fill="#dc2626" clip-path="url(#plot-area)"><title>OpenWebText, lr=3e-3 validation: 4.31025</title></circle>
<circle cx="389.20" cy="344.00" r="2.8" fill="#dc2626" clip-path="url(#plot-area)"><title>OpenWebText, lr=3e-3 validation: 4.31726</title></circle>
<circle cx="398.00" cy="344.45" r="2.8" fill="#dc2626" clip-path="url(#plot-area)"><title>OpenWebText, lr=3e-3 validation: 4.30681</title></circle>
<circle cx="406.80" cy="344.48" r="2.8" fill="#dc2626" clip-path="url(#plot-area)"><title>OpenWebText, lr=3e-3 validation: 4.30602</title></circle>
<circle cx="415.60" cy="344.35" r="2.8" fill="#dc2626" clip-path="url(#plot-area)"><title>OpenWebText, lr=3e-3 validation: 4.30914</title></circle>
<circle cx="424.40" cy="345.40" r="2.8" fill="#dc2626" clip-path="url(#plot-area)"><title>OpenWebText, lr=3e-3 validation: 4.28441</title></circle>
<circle cx="433.20" cy="347.03" r="2.8" fill="#dc2626" clip-path="url(#plot-area)"><title>OpenWebText, lr=3e-3 validation: 4.24643</title></circle>
<circle cx="442.00" cy="345.79" r="2.8" fill="#dc2626" clip-path="url(#plot-area)"><title>OpenWebText, lr=3e-3 validation: 4.27538</title></circle>
<circle cx="450.80" cy="347.35" r="2.8" fill="#dc2626" clip-path="url(#plot-area)"><title>OpenWebText, lr=3e-3 validation: 4.23872</title></circle>
<circle cx="459.60" cy="346.88" r="2.8" fill="#dc2626" clip-path="url(#plot-area)"><title>OpenWebText, lr=3e-3 validation: 4.24983</title></circle>
<circle cx="468.40" cy="347.58" r="2.8" fill="#dc2626" clip-path="url(#plot-area)"><title>OpenWebText, lr=3e-3 validation: 4.23342</title></circle>
<circle cx="477.20" cy="347.97" r="2.8" fill="#dc2626" clip-path="url(#plot-area)"><title>OpenWebText, lr=3e-3 validation: 4.2244</title></circle>
<circle cx="486.00" cy="348.36" r="2.8" fill="#dc2626" clip-path="url(#plot-area)"><title>OpenWebText, lr=3e-3 validation: 4.21521</title></circle>
<circle cx="494.80" cy="348.05" r="2.8" fill="#dc2626" clip-path="url(#plot-area)"><title>OpenWebText, lr=3e-3 validation: 4.22253</title></circle>
<circle cx="503.60" cy="349.03" r="2.8" fill="#dc2626" clip-path="url(#plot-area)"><title>OpenWebText, lr=3e-3 validation: 4.1995</title></circle>
<circle cx="512.40" cy="348.30" r="2.8" fill="#dc2626" clip-path="url(#plot-area)"><title>OpenWebText, lr=3e-3 validation: 4.21663</title></circle>
<circle cx="521.20" cy="348.17" r="2.8" fill="#dc2626" clip-path="url(#plot-area)"><title>OpenWebText, lr=3e-3 validation: 4.21957</title></circle>
<circle cx="530.00" cy="348.72" r="2.8" fill="#dc2626" clip-path="url(#plot-area)"><title>OpenWebText, lr=3e-3 validation: 4.20684</title></circle>
<circle cx="538.80" cy="350.27" r="2.8" fill="#dc2626" clip-path="url(#plot-area)"><title>OpenWebText, lr=3e-3 validation: 4.17046</title></circle>
<circle cx="547.60" cy="351.87" r="2.8" fill="#dc2626" clip-path="url(#plot-area)"><title>OpenWebText, lr=3e-3 validation: 4.13311</title></circle>
<circle cx="556.40" cy="350.16" r="2.8" fill="#dc2626" clip-path="url(#plot-area)"><title>OpenWebText, lr=3e-3 validation: 4.1731</title></circle>
<circle cx="565.20" cy="350.40" r="2.8" fill="#dc2626" clip-path="url(#plot-area)"><title>OpenWebText, lr=3e-3 validation: 4.16753</title></circle>
<circle cx="574.00" cy="351.56" r="2.8" fill="#dc2626" clip-path="url(#plot-area)"><title>OpenWebText, lr=3e-3 validation: 4.14022</title></circle>
<circle cx="582.80" cy="351.80" r="2.8" fill="#dc2626" clip-path="url(#plot-area)"><title>OpenWebText, lr=3e-3 validation: 4.13462</title></circle>
<circle cx="591.60" cy="351.71" r="2.8" fill="#dc2626" clip-path="url(#plot-area)"><title>OpenWebText, lr=3e-3 validation: 4.13682</title></circle>
<circle cx="600.40" cy="352.15" r="2.8" fill="#dc2626" clip-path="url(#plot-area)"><title>OpenWebText, lr=3e-3 validation: 4.12638</title></circle>
<circle cx="609.20" cy="351.09" r="2.8" fill="#dc2626" clip-path="url(#plot-area)"><title>OpenWebText, lr=3e-3 validation: 4.15117</title></circle>
<circle cx="618.00" cy="353.75" r="2.8" fill="#dc2626" clip-path="url(#plot-area)"><title>OpenWebText, lr=3e-3 validation: 4.08892</title></circle>
<circle cx="626.80" cy="353.19" r="2.8" fill="#dc2626" clip-path="url(#plot-area)"><title>OpenWebText, lr=3e-3 validation: 4.10209</title></circle>
<circle cx="635.60" cy="353.48" r="2.8" fill="#dc2626" clip-path="url(#plot-area)"><title>OpenWebText, lr=3e-3 validation: 4.09526</title></circle>
<circle cx="644.40" cy="353.96" r="2.8" fill="#dc2626" clip-path="url(#plot-area)"><title>OpenWebText, lr=3e-3 validation: 4.08407</title></circle>
<circle cx="653.20" cy="353.47" r="2.8" fill="#dc2626" clip-path="url(#plot-area)"><title>OpenWebText, lr=3e-3 validation: 4.09556</title></circle>
<circle cx="662.00" cy="353.76" r="2.8" fill="#dc2626" clip-path="url(#plot-area)"><title>OpenWebText, lr=3e-3 validation: 4.08872</title></circle>
<circle cx="670.80" cy="354.33" r="2.8" fill="#dc2626" clip-path="url(#plot-area)"><title>OpenWebText, lr=3e-3 validation: 4.0754</title></circle>
<circle cx="679.60" cy="355.51" r="2.8" fill="#dc2626" clip-path="url(#plot-area)"><title>OpenWebText, lr=3e-3 validation: 4.04769</title></circle>
<circle cx="688.40" cy="354.27" r="2.8" fill="#dc2626" clip-path="url(#plot-area)"><title>OpenWebText, lr=3e-3 validation: 4.07677</title></circle>
<circle cx="697.20" cy="354.92" r="2.8" fill="#dc2626" clip-path="url(#plot-area)"><title>OpenWebText, lr=3e-3 validation: 4.06172</title></circle>
<circle cx="706.00" cy="355.62" r="2.8" fill="#dc2626" clip-path="url(#plot-area)"><title>OpenWebText, lr=3e-3 validation: 4.04511</title></circle>
<circle cx="714.80" cy="355.32" r="2.8" fill="#dc2626" clip-path="url(#plot-area)"><title>OpenWebText, lr=3e-3 validation: 4.05219</title></circle>
<circle cx="723.60" cy="356.30" r="2.8" fill="#dc2626" clip-path="url(#plot-area)"><title>OpenWebText, lr=3e-3 validation: 4.02923</title></circle>
<circle cx="732.40" cy="357.60" r="2.8" fill="#dc2626" clip-path="url(#plot-area)"><title>OpenWebText, lr=3e-3 validation: 3.99886</title></circle>
<circle cx="741.20" cy="355.76" r="2.8" fill="#dc2626" clip-path="url(#plot-area)"><title>OpenWebText, lr=3e-3 validation: 4.04197</title></circle>
<circle cx="750.00" cy="357.48" r="2.8" fill="#dc2626" clip-path="url(#plot-area)"><title>OpenWebText, lr=3e-3 validation: 4.00163</title></circle>
<circle cx="758.80" cy="356.36" r="2.8" fill="#dc2626" clip-path="url(#plot-area)"><title>OpenWebText, lr=3e-3 validation: 4.028</title></circle>
<circle cx="767.60" cy="357.04" r="2.8" fill="#dc2626" clip-path="url(#plot-area)"><title>OpenWebText, lr=3e-3 validation: 4.01201</title></circle>
<circle cx="776.40" cy="357.14" r="2.8" fill="#dc2626" clip-path="url(#plot-area)"><title>OpenWebText, lr=3e-3 validation: 4.00971</title></circle>
<circle cx="785.20" cy="358.06" r="2.8" fill="#dc2626" clip-path="url(#plot-area)"><title>OpenWebText, lr=3e-3 validation: 3.98803</title></circle>
<circle cx="794.00" cy="357.38" r="2.8" fill="#dc2626" clip-path="url(#plot-area)"><title>OpenWebText, lr=3e-3 validation: 4.00398</title></circle>
<circle cx="802.80" cy="358.60" r="2.8" fill="#dc2626" clip-path="url(#plot-area)"><title>OpenWebText, lr=3e-3 validation: 3.97542</title></circle>
<circle cx="811.60" cy="357.29" r="2.8" fill="#dc2626" clip-path="url(#plot-area)"><title>OpenWebText, lr=3e-3 validation: 4.00604</title></circle>
<circle cx="820.40" cy="358.23" r="2.8" fill="#dc2626" clip-path="url(#plot-area)"><title>OpenWebText, lr=3e-3 validation: 3.98407</title></circle>
<circle cx="829.20" cy="357.00" r="2.8" fill="#dc2626" clip-path="url(#plot-area)"><title>OpenWebText, lr=3e-3 validation: 4.01293</title></circle>
<circle cx="838.00" cy="359.06" r="2.8" fill="#dc2626" clip-path="url(#plot-area)"><title>OpenWebText, lr=3e-3 validation: 3.96476</title></circle>
<circle cx="846.80" cy="358.28" r="2.8" fill="#dc2626" clip-path="url(#plot-area)"><title>OpenWebText, lr=3e-3 validation: 3.98289</title></circle>
<circle cx="855.60" cy="358.31" r="2.8" fill="#dc2626" clip-path="url(#plot-area)"><title>OpenWebText, lr=3e-3 validation: 3.98237</title></circle>
<circle cx="864.40" cy="358.67" r="2.8" fill="#dc2626" clip-path="url(#plot-area)"><title>OpenWebText, lr=3e-3 validation: 3.97381</title></circle>
<circle cx="873.20" cy="360.13" r="2.8" fill="#dc2626" clip-path="url(#plot-area)"><title>OpenWebText, lr=3e-3 validation: 3.93967</title></circle>
<circle cx="882.00" cy="360.85" r="2.8" fill="#dc2626" clip-path="url(#plot-area)"><title>OpenWebText, lr=3e-3 validation: 3.92276</title></circle>
<circle cx="890.80" cy="358.90" r="2.8" fill="#dc2626" clip-path="url(#plot-area)"><title>OpenWebText, lr=3e-3 validation: 3.9684</title></circle>
<circle cx="899.60" cy="359.89" r="2.8" fill="#dc2626" clip-path="url(#plot-area)"><title>OpenWebText, lr=3e-3 validation: 3.94524</title></circle>
<circle cx="908.40" cy="361.24" r="2.8" fill="#dc2626" clip-path="url(#plot-area)"><title>OpenWebText, lr=3e-3 validation: 3.91366</title></circle>
<circle cx="917.20" cy="359.77" r="2.8" fill="#dc2626" clip-path="url(#plot-area)"><title>OpenWebText, lr=3e-3 validation: 3.94812</title></circle>
<circle cx="926.00" cy="358.62" r="2.8" fill="#dc2626" clip-path="url(#plot-area)"><title>OpenWebText, lr=3e-3 validation: 3.97502</title></circle>
<circle cx="934.80" cy="358.74" r="2.8" fill="#dc2626" clip-path="url(#plot-area)"><title>OpenWebText, lr=3e-3 validation: 3.97209</title></circle>
<circle cx="943.60" cy="359.47" r="2.8" fill="#dc2626" clip-path="url(#plot-area)"><title>OpenWebText, lr=3e-3 validation: 3.95517</title></circle>
<circle cx="952.40" cy="360.53" r="2.8" fill="#dc2626" clip-path="url(#plot-area)"><title>OpenWebText, lr=3e-3 validation: 3.93037</title></circle>
<circle cx="961.20" cy="359.65" r="2.8" fill="#dc2626" clip-path="url(#plot-area)"><title>OpenWebText, lr=3e-3 validation: 3.95084</title></circle>
<circle cx="970.00" cy="359.63" r="2.8" fill="#dc2626" clip-path="url(#plot-area)"><title>OpenWebText, lr=3e-3 validation: 3.95144</title></circle>
<line x1="90.0" y1="597.0" x2="117.0" y2="597.0" stroke="#dc2626" stroke-width="2"/>
<line x1="127.0" y1="597.0" x2="154.0" y2="597.0" stroke="#dc2626" stroke-width="2" stroke-dasharray="7 5"/>
<text x="165.00" y="601.00" font-size="12">OpenWebText, lr=3e-3 (solid: train, dashed: validation)</text>
</svg>
