<svg xmlns="http://www.w3.org/2000/svg" width="960" height="560" viewBox="0 0 960 560">
<rect width="100%" height="100%" fill="#ffffff"/>
<text x="80" y="34" font-family="sans-serif" font-size="22" font-weight="600">Checkpointing: context 1024 peak allocated memory (MiB)</text>
<text x="18" y="265.0" transform="rotate(-90 18 265.0)" font-family="sans-serif" font-size="14">peak allocated MiB</text>
<line x1="80" y1="460" x2="930" y2="460" stroke="#333"/>
<line x1="80" y1="70" x2="80" y2="460" stroke="#333"/>
<rect x="107.20" y="120.87" width="115.60" height="339.13" fill="#3973ac"/>
<text x="165.00" y="115.87" text-anchor="middle" font-family="sans-serif" font-size="11">10069.2</text>
<text x="165.00" y="484" text-anchor="end" transform="rotate(-35 165.00 484)" font-family="sans-serif" font-size="11">block none</text>
<rect x="277.20" y="186.37" width="115.60" height="273.63" fill="#3973ac"/>
<text x="335.00" y="181.37" text-anchor="middle" font-family="sans-serif" font-size="11">8124.5</text>
<text x="335.00" y="484" text-anchor="end" transform="rotate(-35 335.00 484)" font-family="sans-serif" font-size="11">block 1</text>
<rect x="447.20" y="186.37" width="115.60" height="273.63" fill="#3973ac"/>
<text x="505.00" y="181.37" text-anchor="middle" font-family="sans-serif" font-size="11">8124.5</text>
<text x="505.00" y="484" text-anchor="end" transform="rotate(-35 505.00 484)" font-family="sans-serif" font-size="11">block 2</text>
<rect x="617.20" y="186.37" width="115.60" height="273.63" fill="#3973ac"/>
<text x="675.00" y="181.37" text-anchor="middle" font-family="sans-serif" font-size="11">8124.5</text>
<text x="675.00" y="484" text-anchor="end" transform="rotate(-35 675.00 484)" font-family="sans-serif" font-size="11">block 4</text>
<rect x="787.20" y="186.37" width="115.60" height="273.63" fill="#3973ac"/>
<text x="845.00" y="181.37" text-anchor="middle" font-family="sans-serif" font-size="11">8124.5</text>
<text x="845.00" y="484" text-anchor="end" transform="rotate(-35 845.00 484)" font-family="sans-serif" font-size="11">block 8</text>
<text x="80" y="542" font-family="sans-serif" font-size="12">OOM/failed rows are omitted from bars and retained in CSV.</text>
</svg>
