<?xml version="1.0" encoding="utf-8" standalone="no"?>
<!DOCTYPE svg PUBLIC "-//W3C//DTD SVG 1.1//EN"
  "http://www.w3.org/Graphics/SVG/1.1/DTD/svg11.dtd">
<svg xmlns:xlink="http://www.w3.org/1999/xlink" width="648pt" height="360pt" viewBox="0 0 648 360" xmlns="http://www.w3.org/2000/svg" version="1.1">
 <metadata>
  <rdf:RDF xmlns:dc="http://purl.org/dc/elements/1.1/" xmlns:cc="http://creativecommons.org/ns#" xmlns:rdf="http://www.w3.org/1999/02/22-rdf-syntax-ns#">
   <cc:Work>
    <dc:type rdf:resource="http://purl.org/dc/dcmitype/StillImage"/>
    <dc:date>2026-07-22T13:12:16.992820</dc:date>
    <dc:format>image/svg+xml</dc:format>
    <dc:creator>
     <cc:Agent>
      <dc:title>Matplotlib v3.10.5, https://matplotlib.org/</dc:title>
     </cc:Agent>
    </dc:creator>
   </cc:Work>
  </rdf:RDF>
 </metadata>
 <defs>
  <style type="text/css">*{stroke-linejoin: round; stroke-linecap: butt}</style>
 </defs>
 <g id="figure_1">
  <g id="patch_1">
   <path d="M 0 360
L 648 360
L 648 0
L 0 0
z
" style="fill: #ffffff"/>
  </g>
  <g id="axes_1">
   <g id="patch_2">
    <path d="M 121.057143 237.184001
L 637.2 237.184001
L 637.2 26.057143
L 121.057143 26.057143
z
" style="fill: #ffffff"/>
   </g>
   <g id="PolyCollection_1">
    <path d="M 121.511445 59.2246
L 121.511445 35.653818
L 326.304788 35.653818
L 326.304788 59.2246
z
" clip-path="url(#pb068cf786b)" style="fill: #2563eb"/>
   </g>
   <g id="PolyCollection_2">
    <path d="M 124.328339 160.242235
L 124.328339 136.671454
L 124.486418 136.671454
L 124.486418 160.242235
z
" clip-path="url(#pb068cf786b)" style="fill: #0891b2"/>
   </g>
   <g id="PolyCollection_3">
    <path d="M 124.613236 193.91478
L 124.613236 170.343999
L 125.16289 170.343999
L 125.16289 193.91478
z
" clip-path="url(#pb068cf786b)" style="fill: #0d9488"/>
   </g>
   <g id="PolyCollection_4">
    <path d="M 125.180766 227.587325
L 125.180766 204.016544
L 125.275419 204.016544
L 125.275419 227.587325
z
" clip-path="url(#pb068cf786b)" style="fill: #65a30d"/>
   </g>
   <g id="PolyCollection_5">
    <path d="M 133.141351 160.242235
L 133.141351 136.671454
L 133.254199 136.671454
L 133.254199 160.242235
z
" clip-path="url(#pb068cf786b)" style="fill: #0891b2"/>
   </g>
   <g id="PolyCollection_6">
    <path d="M 133.327819 193.91478
L 133.327819 170.343999
L 133.799919 170.343999
L 133.799919 193.91478
z
" clip-path="url(#pb068cf786b)" style="fill: #0d9488"/>
   </g>
   <g id="PolyCollection_7">
    <path d="M 133.817992 227.587325
L 133.817992 204.016544
L 133.920866 204.016544
L 133.920866 227.587325
z
" clip-path="url(#pb068cf786b)" style="fill: #65a30d"/>
   </g>
   <g id="PolyCollection_8">
    <path d="M 141.941313 160.242235
L 141.941313 136.671454
L 142.065664 136.671454
L 142.065664 160.242235
z
" clip-path="url(#pb068cf786b)" style="fill: #0891b2"/>
   </g>
   <g id="PolyCollection_9">
    <path d="M 142.146742 193.91478
L 142.146742 170.343999
L 142.554905 170.343999
L 142.554905 193.91478
z
" clip-path="url(#pb068cf786b)" style="fill: #0d9488"/>
   </g>
   <g id="PolyCollection_10">
    <path d="M 142.570102 227.587325
L 142.570102 204.016544
L 142.655861 204.016544
L 142.655861 227.587325
z
" clip-path="url(#pb068cf786b)" style="fill: #65a30d"/>
   </g>
   <g id="PolyCollection_11">
    <path d="M 150.79242 160.242235
L 150.79242 136.671454
L 150.898301 136.671454
L 150.898301 160.242235
z
" clip-path="url(#pb068cf786b)" style="fill: #0891b2"/>
   </g>
   <g id="PolyCollection_12">
    <path d="M 150.969039 193.91478
L 150.969039 170.343999
L 151.372961 170.343999
L 151.372961 193.91478
z
" clip-path="url(#pb068cf786b)" style="fill: #0d9488"/>
   </g>
   <g id="PolyCollection_13">
    <path d="M 151.388515 227.587325
L 151.388515 204.016544
L 151.477291 204.016544
L 151.477291 227.587325
z
" clip-path="url(#pb068cf786b)" style="fill: #65a30d"/>
   </g>
   <g id="PolyCollection_14">
    <path d="M 159.509124 160.242235
L 159.509124 136.671454
L 159.610254 136.671454
L 159.610254 160.242235
z
" clip-path="url(#pb068cf786b)" style="fill: #0891b2"/>
   </g>
   <g id="PolyCollection_15">
    <path d="M 159.686153 193.91478
L 159.686153 170.343999
L 160.058051 170.343999
L 160.058051 193.91478
z
" clip-path="url(#pb068cf786b)" style="fill: #0d9488"/>
   </g>
   <g id="PolyCollection_16">
    <path d="M 160.070899 227.587325
L 160.070899 204.016544
L 160.146137 204.016544
L 160.146137 227.587325
z
" clip-path="url(#pb068cf786b)" style="fill: #65a30d"/>
   </g>
   <g id="PolyCollection_17">
    <path d="M 168.165718 160.242235
L 168.165718 136.671454
L 168.258907 136.671454
L 168.258907 160.242235
z
" clip-path="url(#pb068cf786b)" style="fill: #0891b2"/>
   </g>
   <g id="PolyCollection_18">
    <path d="M 168.322358 193.91478
L 168.322358 170.343999
L 168.710117 170.343999
L 168.710117 193.91478
z
" clip-path="url(#pb068cf786b)" style="fill: #0d9488"/>
   </g>
   <g id="PolyCollection_19">
    <path d="M 168.722243 227.587325
L 168.722243 204.016544
L 168.819658 204.016544
L 168.819658 227.587325
z
" clip-path="url(#pb068cf786b)" style="fill: #65a30d"/>
   </g>
   <g id="PolyCollection_20">
    <path d="M 176.924821 160.242235
L 176.924821 136.671454
L 177.059481 136.671454
L 177.059481 160.242235
z
" clip-path="url(#pb068cf786b)" style="fill: #0891b2"/>
   </g>
   <g id="PolyCollection_21">
    <path d="M 177.133835 193.91478
L 177.133835 170.343999
L 177.575371 170.343999
L 177.575371 193.91478
z
" clip-path="url(#pb068cf786b)" style="fill: #0d9488"/>
   </g>
   <g id="PolyCollection_22">
    <path d="M 177.593784 227.587325
L 177.593784 204.016544
L 177.690404 204.016544
L 177.690404 227.587325
z
" clip-path="url(#pb068cf786b)" style="fill: #65a30d"/>
   </g>
   <g id="PolyCollection_23">
    <path d="M 185.695182 160.242235
L 185.695182 136.671454
L 185.812986 136.671454
L 185.812986 160.242235
z
" clip-path="url(#pb068cf786b)" style="fill: #0891b2"/>
   </g>
   <g id="PolyCollection_24">
    <path d="M 185.888685 193.91478
L 185.888685 170.343999
L 186.290508 170.343999
L 186.290508 193.91478
z
" clip-path="url(#pb068cf786b)" style="fill: #0d9488"/>
   </g>
   <g id="PolyCollection_25">
    <path d="M 186.305636 227.587325
L 186.305636 204.016544
L 186.387177 204.016544
L 186.387177 227.587325
z
" clip-path="url(#pb068cf786b)" style="fill: #65a30d"/>
   </g>
   <g id="PolyCollection_26">
    <path d="M 194.552612 160.242235
L 194.552612 136.671454
L 194.660717 136.671454
L 194.660717 160.242235
z
" clip-path="url(#pb068cf786b)" style="fill: #0891b2"/>
   </g>
   <g id="PolyCollection_27">
    <path d="M 194.731452 193.91478
L 194.731452 170.343999
L 195.166842 170.343999
L 195.166842 193.91478
z
" clip-path="url(#pb068cf786b)" style="fill: #0d9488"/>
   </g>
   <g id="PolyCollection_28">
    <path d="M 195.184363 227.587325
L 195.184363 204.016544
L 195.292469 204.016544
L 195.292469 227.587325
z
" clip-path="url(#pb068cf786b)" style="fill: #65a30d"/>
   </g>
   <g id="PolyCollection_29">
    <path d="M 203.322165 160.242235
L 203.322165 136.671454
L 203.431283 136.671454
L 203.431283 160.242235
z
" clip-path="url(#pb068cf786b)" style="fill: #0891b2"/>
   </g>
   <g id="PolyCollection_30">
    <path d="M 203.499788 193.91478
L 203.499788 170.343999
L 203.904986 170.343999
L 203.904986 193.91478
z
" clip-path="url(#pb068cf786b)" style="fill: #0d9488"/>
   </g>
   <g id="PolyCollection_31">
    <path d="M 203.919511 227.587325
L 203.919511 204.016544
L 204.013214 204.016544
L 204.013214 227.587325
z
" clip-path="url(#pb068cf786b)" style="fill: #65a30d"/>
   </g>
   <g id="PolyCollection_32">
    <path d="M 212.088154 160.242235
L 212.088154 136.671454
L 212.193399 136.671454
L 212.193399 160.242235
z
" clip-path="url(#pb068cf786b)" style="fill: #0891b2"/>
   </g>
   <g id="PolyCollection_33">
    <path d="M 212.263491 193.91478
L 212.263491 170.343999
L 212.68355 170.343999
L 212.68355 193.91478
z
" clip-path="url(#pb068cf786b)" style="fill: #0d9488"/>
   </g>
   <g id="PolyCollection_34">
    <path d="M 212.698495 227.587325
L 212.698495 204.016544
L 212.781966 204.016544
L 212.781966 227.587325
z
" clip-path="url(#pb068cf786b)" style="fill: #65a30d"/>
   </g>
   <g id="PolyCollection_35">
    <path d="M 220.812382 160.242235
L 220.812382 136.671454
L 220.922838 136.671454
L 220.922838 160.242235
z
" clip-path="url(#pb068cf786b)" style="fill: #0891b2"/>
   </g>
   <g id="PolyCollection_36">
    <path d="M 220.994893 193.91478
L 220.994893 170.343999
L 221.422108 170.343999
L 221.422108 193.91478
z
" clip-path="url(#pb068cf786b)" style="fill: #0d9488"/>
   </g>
   <g id="PolyCollection_37">
    <path d="M 221.435676 227.587325
L 221.435676 204.016544
L 221.516273 204.016544
L 221.516273 227.587325
z
" clip-path="url(#pb068cf786b)" style="fill: #65a30d"/>
   </g>
   <g id="PolyCollection_38">
    <path d="M 229.50629 160.242235
L 229.50629 136.671454
L 229.616817 136.671454
L 229.616817 160.242235
z
" clip-path="url(#pb068cf786b)" style="fill: #0891b2"/>
   </g>
   <g id="PolyCollection_39">
    <path d="M 229.682686 193.91478
L 229.682686 170.343999
L 230.060486 170.343999
L 230.060486 193.91478
z
" clip-path="url(#pb068cf786b)" style="fill: #0d9488"/>
   </g>
   <g id="PolyCollection_40">
    <path d="M 230.073232 227.587325
L 230.073232 204.016544
L 230.148409 204.016544
L 230.148409 227.587325
z
" clip-path="url(#pb068cf786b)" style="fill: #65a30d"/>
   </g>
   <g id="PolyCollection_41">
    <path d="M 238.250326 160.242235
L 238.250326 136.671454
L 238.3526 136.671454
L 238.3526 160.242235
z
" clip-path="url(#pb068cf786b)" style="fill: #0891b2"/>
   </g>
   <g id="PolyCollection_42">
    <path d="M 238.417414 193.91478
L 238.417414 170.343999
L 238.789659 170.343999
L 238.789659 193.91478
z
" clip-path="url(#pb068cf786b)" style="fill: #0d9488"/>
   </g>
   <g id="PolyCollection_43">
    <path d="M 238.801382 227.587325
L 238.801382 204.016544
L 238.871042 204.016544
L 238.871042 227.587325
z
" clip-path="url(#pb068cf786b)" style="fill: #65a30d"/>
   </g>
   <g id="PolyCollection_44">
    <path d="M 246.913745 160.242235
L 246.913745 136.671454
L 247.007671 136.671454
L 247.007671 160.242235
z
" clip-path="url(#pb068cf786b)" style="fill: #0891b2"/>
   </g>
   <g id="PolyCollection_45">
    <path d="M 247.091443 193.91478
L 247.091443 170.343999
L 247.458039 170.343999
L 247.458039 193.91478
z
" clip-path="url(#pb068cf786b)" style="fill: #0d9488"/>
   </g>
   <g id="PolyCollection_46">
    <path d="M 247.469736 227.587325
L 247.469736 204.016544
L 247.547266 204.016544
L 247.547266 227.587325
z
" clip-path="url(#pb068cf786b)" style="fill: #65a30d"/>
   </g>
   <g id="PolyCollection_47">
    <path d="M 255.571092 160.242235
L 255.571092 136.671454
L 255.663204 136.671454
L 255.663204 160.242235
z
" clip-path="url(#pb068cf786b)" style="fill: #0891b2"/>
   </g>
   <g id="PolyCollection_48">
    <path d="M 255.727987 193.91478
L 255.727987 170.343999
L 256.090349 170.343999
L 256.090349 193.91478
z
" clip-path="url(#pb068cf786b)" style="fill: #0d9488"/>
   </g>
   <g id="PolyCollection_49">
    <path d="M 256.102138 227.587325
L 256.102138 204.016544
L 256.170008 204.016544
L 256.170008 227.587325
z
" clip-path="url(#pb068cf786b)" style="fill: #65a30d"/>
   </g>
   <g id="PolyCollection_50">
    <path d="M 264.295158 160.242235
L 264.295158 136.671454
L 264.387576 136.671454
L 264.387576 160.242235
z
" clip-path="url(#pb068cf786b)" style="fill: #0891b2"/>
   </g>
   <g id="PolyCollection_51">
    <path d="M 264.454636 193.91478
L 264.454636 170.343999
L 264.862167 170.343999
L 264.862167 193.91478
z
" clip-path="url(#pb068cf786b)" style="fill: #0d9488"/>
   </g>
   <g id="PolyCollection_52">
    <path d="M 264.874698 227.587325
L 264.874698 204.016544
L 264.950402 204.016544
L 264.950402 227.587325
z
" clip-path="url(#pb068cf786b)" style="fill: #65a30d"/>
   </g>
   <g id="PolyCollection_53">
    <path d="M 272.978462 160.242235
L 272.978462 136.671454
L 273.07194 136.671454
L 273.07194 160.242235
z
" clip-path="url(#pb068cf786b)" style="fill: #0891b2"/>
   </g>
   <g id="PolyCollection_54">
    <path d="M 273.144554 193.91478
L 273.144554 170.343999
L 273.64123 170.343999
L 273.64123 193.91478
z
" clip-path="url(#pb068cf786b)" style="fill: #0d9488"/>
   </g>
   <g id="PolyCollection_55">
    <path d="M 273.658184 227.587325
L 273.658184 204.016544
L 273.756768 204.016544
L 273.756768 227.587325
z
" clip-path="url(#pb068cf786b)" style="fill: #65a30d"/>
   </g>
   <g id="PolyCollection_56">
    <path d="M 281.712676 160.242235
L 281.712676 136.671454
L 281.811158 136.671454
L 281.811158 160.242235
z
" clip-path="url(#pb068cf786b)" style="fill: #0891b2"/>
   </g>
   <g id="PolyCollection_57">
    <path d="M 281.879678 193.91478
L 281.879678 170.343999
L 282.253278 170.343999
L 282.253278 193.91478
z
" clip-path="url(#pb068cf786b)" style="fill: #0d9488"/>
   </g>
   <g id="PolyCollection_58">
    <path d="M 282.265083 227.587325
L 282.265083 204.016544
L 282.335804 204.016544
L 282.335804 227.587325
z
" clip-path="url(#pb068cf786b)" style="fill: #65a30d"/>
   </g>
   <g id="PolyCollection_59">
    <path d="M 290.448381 160.242235
L 290.448381 136.671454
L 290.589878 136.671454
L 290.589878 160.242235
z
" clip-path="url(#pb068cf786b)" style="fill: #0891b2"/>
   </g>
   <g id="PolyCollection_60">
    <path d="M 290.657754 193.91478
L 290.657754 170.343999
L 291.040965 170.343999
L 291.040965 193.91478
z
" clip-path="url(#pb068cf786b)" style="fill: #0d9488"/>
   </g>
   <g id="PolyCollection_61">
    <path d="M 291.052596 227.587325
L 291.052596 204.016544
L 291.126649 204.016544
L 291.126649 227.587325
z
" clip-path="url(#pb068cf786b)" style="fill: #65a30d"/>
   </g>
   <g id="PolyCollection_62">
    <path d="M 299.163744 160.242235
L 299.163744 136.671454
L 299.26482 136.671454
L 299.26482 160.242235
z
" clip-path="url(#pb068cf786b)" style="fill: #0891b2"/>
   </g>
   <g id="PolyCollection_63">
    <path d="M 299.342343 193.91478
L 299.342343 170.343999
L 299.729443 170.343999
L 299.729443 193.91478
z
" clip-path="url(#pb068cf786b)" style="fill: #0d9488"/>
   </g>
   <g id="PolyCollection_64">
    <path d="M 299.742848 227.587325
L 299.742848 204.016544
L 299.824616 204.016544
L 299.824616 227.587325
z
" clip-path="url(#pb068cf786b)" style="fill: #65a30d"/>
   </g>
   <g id="PolyCollection_65">
    <path d="M 307.843335 160.242235
L 307.843335 136.671454
L 307.936411 136.671454
L 307.936411 160.242235
z
" clip-path="url(#pb068cf786b)" style="fill: #0891b2"/>
   </g>
   <g id="PolyCollection_66">
    <path d="M 308.044554 193.91478
L 308.044554 170.343999
L 308.414201 170.343999
L 308.414201 193.91478
z
" clip-path="url(#pb068cf786b)" style="fill: #0d9488"/>
   </g>
   <g id="PolyCollection_67">
    <path d="M 308.426403 227.587325
L 308.426403 204.016544
L 308.498064 204.016544
L 308.498064 227.587325
z
" clip-path="url(#pb068cf786b)" style="fill: #65a30d"/>
   </g>
   <g id="PolyCollection_68">
    <path d="M 316.529096 160.242235
L 316.529096 136.671454
L 316.62539 136.671454
L 316.62539 160.242235
z
" clip-path="url(#pb068cf786b)" style="fill: #0891b2"/>
   </g>
   <g id="PolyCollection_69">
    <path d="M 316.693137 193.91478
L 316.693137 170.343999
L 317.069519 170.343999
L 317.069519 193.91478
z
" clip-path="url(#pb068cf786b)" style="fill: #0d9488"/>
   </g>
   <g id="PolyCollection_70">
    <path d="M 317.082148 227.587325
L 317.082148 204.016544
L 317.15638 204.016544
L 317.15638 227.587325
z
" clip-path="url(#pb068cf786b)" style="fill: #65a30d"/>
   </g>
   <g id="PolyCollection_71">
    <path d="M 325.259878 160.242235
L 325.259878 136.671454
L 325.359774 136.671454
L 325.359774 160.242235
z
" clip-path="url(#pb068cf786b)" style="fill: #0891b2"/>
   </g>
   <g id="PolyCollection_72">
    <path d="M 325.424573 193.91478
L 325.424573 170.343999
L 325.786797 170.343999
L 325.786797 193.91478
z
" clip-path="url(#pb068cf786b)" style="fill: #0d9488"/>
   </g>
   <g id="PolyCollection_73">
    <path d="M 325.797702 227.587325
L 325.797702 204.016544
L 325.879369 204.016544
L 325.879369 227.587325
z
" clip-path="url(#pb068cf786b)" style="fill: #65a30d"/>
   </g>
   <g id="PolyCollection_74">
    <path d="M 326.541719 92.897145
L 326.541719 69.326363
L 540.085757 69.326363
L 540.085757 92.897145
z
" clip-path="url(#pb068cf786b)" style="fill: #dc2626"/>
   </g>
   <g id="PolyCollection_75">
    <path d="M 540.142367 126.56969
L 540.142367 102.998908
L 636.302836 102.998908
L 636.302836 126.56969
z
" clip-path="url(#pb068cf786b)" style="fill: #7c3aed"/>
   </g>
   <g id="matplotlib.axis_1">
    <g id="xtick_1">
     <g id="line2d_1">
      <path d="M 121.057143 237.184001
L 121.057143 26.057143
" clip-path="url(#pb068cf786b)" style="fill: none; stroke: #b0b0b0; stroke-opacity: 0.2; stroke-width: 0.8; stroke-linecap: square"/>
     </g>
     <g id="line2d_2">
      <defs>
       <path id="m838a19283a" d="M 0 0
L 0 3.5
" style="stroke: #000000; stroke-width: 0.8"/>
      </defs>
      <g>
       <use xlink:href="#m838a19283a" x="121.057143" y="237.184001" style="stroke: #000000; stroke-width: 0.8"/>
      </g>
     </g>
    </g>
    <g id="xtick_2">
     <g id="line2d_3">
      <path d="M 235.170812 237.184001
L 235.170812 26.057143
" clip-path="url(#pb068cf786b)" style="fill: none; stroke: #b0b0b0; stroke-opacity: 0.2; stroke-width: 0.8; stroke-linecap: square"/>
     </g>
     <g id="line2d_4">
      <g>
       <use xlink:href="#m838a19283a" x="235.170812" y="237.184001" style="stroke: #000000; stroke-width: 0.8"/>
      </g>
     </g>
    </g>
    <g id="xtick_3">
     <g id="line2d_5">
      <path d="M 349.284482 237.184001
L 349.284482 26.057143
" clip-path="url(#pb068cf786b)" style="fill: none; stroke: #b0b0b0; stroke-opacity: 0.2; stroke-width: 0.8; stroke-linecap: square"/>
     </g>
     <g id="line2d_6">
      <g>
       <use xlink:href="#m838a19283a" x="349.284482" y="237.184001" style="stroke: #000000; stroke-width: 0.8"/>
      </g>
     </g>
    </g>
    <g id="xtick_4">
     <g id="line2d_7">
      <path d="M 463.398151 237.184001
L 463.398151 26.057143
" clip-path="url(#pb068cf786b)" style="fill: none; stroke: #b0b0b0; stroke-opacity: 0.2; stroke-width: 0.8; stroke-linecap: square"/>
     </g>
     <g id="line2d_8">
      <g>
       <use xlink:href="#m838a19283a" x="463.398151" y="237.184001" style="stroke: #000000; stroke-width: 0.8"/>
      </g>
     </g>
    </g>
    <g id="xtick_5">
     <g id="line2d_9">
      <path d="M 577.511821 237.184001
L 577.511821 26.057143
" clip-path="url(#pb068cf786b)" style="fill: none; stroke: #b0b0b0; stroke-opacity: 0.2; stroke-width: 0.8; stroke-linecap: square"/>
     </g>
     <g id="line2d_10">
      <g>
       <use xlink:href="#m838a19283a" x="577.511821" y="237.184001" style="stroke: #000000; stroke-width: 0.8"/>
      </g>
     </g>
    </g>
   </g>
   <g id="matplotlib.axis_2">
    <g id="ytick_1">
     <g id="line2d_11">
      <defs>
       <path id="m7f730733b7" d="M 0 0
L -3.5 0
" style="stroke: #000000; stroke-width: 0.8"/>
      </defs>
      <g>
       <use xlink:href="#m7f730733b7" x="121.057143" y="47.439209" style="stroke: #000000; stroke-width: 0.8"/>
      </g>
     </g>
     <g id="text_1">
      <!-- forward -->
      <g transform="translate(75.716518 51.238428) scale(0.1 -0.1)">
       <defs>
        <path id="DejaVuSans-66" d="M 2375 4863
L 2375 4384
L 1825 4384
Q 1516 4384 1395 4259
Q 1275 4134 1275 3809
L 1275 3500
L 2222 3500
L 2222 3053
L 1275 3053
L 1275 0
L 697 0
L 697 3053
L 147 3053
L 147 3500
L 697 3500
L 697 3744
Q 697 4328 969 4595
Q 1241 4863 1831 4863
L 2375 4863
z
" transform="scale(0.015625)"/>
        <path id="DejaVuSans-6f" d="M 1959 3097
Q 1497 3097 1228 2736
Q 959 2375 959 1747
Q 959 1119 1226 758
Q 1494 397 1959 397
Q 2419 397 2687 759
Q 2956 1122 2956 1747
Q 2956 2369 2687 2733
Q 2419 3097 1959 3097
z
M 1959 3584
Q 2709 3584 3137 3096
Q 3566 2609 3566 1747
Q 3566 888 3137 398
Q 2709 -91 1959 -91
Q 1206 -91 779 398
Q 353 888 353 1747
Q 353 2609 779 3096
Q 1206 3584 1959 3584
z
" transform="scale(0.015625)"/>
        <path id="DejaVuSans-72" d="M 2631 2963
Q 2534 3019 2420 3045
Q 2306 3072 2169 3072
Q 1681 3072 1420 2755
Q 1159 2438 1159 1844
L 1159 0
L 581 0
L 581 3500
L 1159 3500
L 1159 2956
Q 1341 3275 1631 3429
Q 1922 3584 2338 3584
Q 2397 3584 2469 3576
Q 2541 3569 2628 3553
L 2631 2963
z
" transform="scale(0.015625)"/>
        <path id="DejaVuSans-77" d="M 269 3500
L 844 3500
L 1563 769
L 2278 3500
L 2956 3500
L 3675 769
L 4391 3500
L 4966 3500
L 4050 0
L 3372 0
L 2619 2869
L 1863 0
L 1184 0
L 269 3500
z
" transform="scale(0.015625)"/>
        <path id="DejaVuSans-61" d="M 2194 1759
Q 1497 1759 1228 1600
Q 959 1441 959 1056
Q 959 750 1161 570
Q 1363 391 1709 391
Q 2188 391 2477 730
Q 2766 1069 2766 1631
L 2766 1759
L 2194 1759
z
M 3341 1997
L 3341 0
L 2766 0
L 2766 531
Q 2569 213 2275 61
Q 1981 -91 1556 -91
Q 1019 -91 701 211
Q 384 513 384 1019
Q 384 1609 779 1909
Q 1175 2209 1959 2209
L 2766 2209
L 2766 2266
Q 2766 2663 2505 2880
Q 2244 3097 1772 3097
Q 1472 3097 1187 3025
Q 903 2953 641 2809
L 641 3341
Q 956 3463 1253 3523
Q 1550 3584 1831 3584
Q 2591 3584 2966 3190
Q 3341 2797 3341 1997
z
" transform="scale(0.015625)"/>
        <path id="DejaVuSans-64" d="M 2906 2969
L 2906 4863
L 3481 4863
L 3481 0
L 2906 0
L 2906 525
Q 2725 213 2448 61
Q 2172 -91 1784 -91
Q 1150 -91 751 415
Q 353 922 353 1747
Q 353 2572 751 3078
Q 1150 3584 1784 3584
Q 2172 3584 2448 3432
Q 2725 3281 2906 2969
z
M 947 1747
Q 947 1113 1208 752
Q 1469 391 1925 391
Q 2381 391 2643 752
Q 2906 1113 2906 1747
Q 2906 2381 2643 2742
Q 2381 3103 1925 3103
Q 1469 3103 1208 2742
Q 947 2381 947 1747
z
" transform="scale(0.015625)"/>
       </defs>
       <use xlink:href="#DejaVuSans-66"/>
       <use xlink:href="#DejaVuSans-6f" transform="translate(35.205078 0)"/>
       <use xlink:href="#DejaVuSans-72" transform="translate(96.386719 0)"/>
       <use xlink:href="#DejaVuSans-77" transform="translate(137.5 0)"/>
       <use xlink:href="#DejaVuSans-61" transform="translate(219.287109 0)"/>
       <use xlink:href="#DejaVuSans-72" transform="translate(280.566406 0)"/>
       <use xlink:href="#DejaVuSans-64" transform="translate(319.929688 0)"/>
      </g>
     </g>
    </g>
    <g id="ytick_2">
     <g id="line2d_12">
      <g>
       <use xlink:href="#m7f730733b7" x="121.057143" y="81.111754" style="stroke: #000000; stroke-width: 0.8"/>
      </g>
     </g>
     <g id="text_2">
      <!-- backward -->
      <g transform="translate(65.700893 84.910973) scale(0.1 -0.1)">
       <defs>
        <path id="DejaVuSans-62" d="M 3116 1747
Q 3116 2381 2855 2742
Q 2594 3103 2138 3103
Q 1681 3103 1420 2742
Q 1159 2381 1159 1747
Q 1159 1113 1420 752
Q 1681 391 2138 391
Q 2594 391 2855 752
Q 3116 1113 3116 1747
z
M 1159 2969
Q 1341 3281 1617 3432
Q 1894 3584 2278 3584
Q 2916 3584 3314 3078
Q 3713 2572 3713 1747
Q 3713 922 3314 415
Q 2916 -91 2278 -91
Q 1894 -91 1617 61
Q 1341 213 1159 525
L 1159 0
L 581 0
L 581 4863
L 1159 4863
L 1159 2969
z
" transform="scale(0.015625)"/>
        <path id="DejaVuSans-63" d="M 3122 3366
L 3122 2828
Q 2878 2963 2633 3030
Q 2388 3097 2138 3097
Q 1578 3097 1268 2742
Q 959 2388 959 1747
Q 959 1106 1268 751
Q 1578 397 2138 397
Q 2388 397 2633 464
Q 2878 531 3122 666
L 3122 134
Q 2881 22 2623 -34
Q 2366 -91 2075 -91
Q 1284 -91 818 406
Q 353 903 353 1747
Q 353 2603 823 3093
Q 1294 3584 2113 3584
Q 2378 3584 2631 3529
Q 2884 3475 3122 3366
z
" transform="scale(0.015625)"/>
        <path id="DejaVuSans-6b" d="M 581 4863
L 1159 4863
L 1159 1991
L 2875 3500
L 3609 3500
L 1753 1863
L 3688 0
L 2938 0
L 1159 1709
L 1159 0
L 581 0
L 581 4863
z
" transform="scale(0.015625)"/>
       </defs>
       <use xlink:href="#DejaVuSans-62"/>
       <use xlink:href="#DejaVuSans-61" transform="translate(63.476562 0)"/>
       <use xlink:href="#DejaVuSans-63" transform="translate(124.755859 0)"/>
       <use xlink:href="#DejaVuSans-6b" transform="translate(179.736328 0)"/>
       <use xlink:href="#DejaVuSans-77" transform="translate(237.646484 0)"/>
       <use xlink:href="#DejaVuSans-61" transform="translate(319.433594 0)"/>
       <use xlink:href="#DejaVuSans-72" transform="translate(380.712891 0)"/>
       <use xlink:href="#DejaVuSans-64" transform="translate(420.076172 0)"/>
      </g>
     </g>
    </g>
    <g id="ytick_3">
     <g id="line2d_13">
      <g>
       <use xlink:href="#m7f730733b7" x="121.057143" y="114.784299" style="stroke: #000000; stroke-width: 0.8"/>
      </g>
     </g>
     <g id="text_3">
      <!-- optimizer -->
      <g transform="translate(66.860268 118.583518) scale(0.1 -0.1)">
       <defs>
        <path id="DejaVuSans-70" d="M 1159 525
L 1159 -1331
L 581 -1331
L 581 3500
L 1159 3500
L 1159 2969
Q 1341 3281 1617 3432
Q 1894 3584 2278 3584
Q 2916 3584 3314 3078
Q 3713 2572 3713 1747
Q 3713 922 3314 415
Q 2916 -91 2278 -91
Q 1894 -91 1617 61
Q 1341 213 1159 525
z
M 3116 1747
Q 3116 2381 2855 2742
Q 2594 3103 2138 3103
Q 1681 3103 1420 2742
Q 1159 2381 1159 1747
Q 1159 1113 1420 752
Q 1681 391 2138 391
Q 2594 391 2855 752
Q 3116 1113 3116 1747
z
" transform="scale(0.015625)"/>
        <path id="DejaVuSans-74" d="M 1172 4494
L 1172 3500
L 2356 3500
L 2356 3053
L 1172 3053
L 1172 1153
Q 1172 725 1289 603
Q 1406 481 1766 481
L 2356 481
L 2356 0
L 1766 0
Q 1100 0 847 248
Q 594 497 594 1153
L 594 3053
L 172 3053
L 172 3500
L 594 3500
L 594 4494
L 1172 4494
z
" transform="scale(0.015625)"/>
        <path id="DejaVuSans-69" d="M 603 3500
L 1178 3500
L 1178 0
L 603 0
L 603 3500
z
M 603 4863
L 1178 4863
L 1178 4134
L 603 4134
L 603 4863
z
" transform="scale(0.015625)"/>
        <path id="DejaVuSans-6d" d="M 3328 2828
Q 3544 3216 3844 3400
Q 4144 3584 4550 3584
Q 5097 3584 5394 3201
Q 5691 2819 5691 2113
L 5691 0
L 5113 0
L 5113 2094
Q 5113 2597 4934 2840
Q 4756 3084 4391 3084
Q 3944 3084 3684 2787
Q 3425 2491 3425 1978
L 3425 0
L 2847 0
L 2847 2094
Q 2847 2600 2669 2842
Q 2491 3084 2119 3084
Q 1678 3084 1418 2786
Q 1159 2488 1159 1978
L 1159 0
L 581 0
L 581 3500
L 1159 3500
L 1159 2956
Q 1356 3278 1631 3431
Q 1906 3584 2284 3584
Q 2666 3584 2933 3390
Q 3200 3197 3328 2828
z
" transform="scale(0.015625)"/>
        <path id="DejaVuSans-7a" d="M 353 3500
L 3084 3500
L 3084 2975
L 922 459
L 3084 459
L 3084 0
L 275 0
L 275 525
L 2438 3041
L 353 3041
L 353 3500
z
" transform="scale(0.015625)"/>
        <path id="DejaVuSans-65" d="M 3597 1894
L 3597 1613
L 953 1613
Q 991 1019 1311 708
Q 1631 397 2203 397
Q 2534 397 2845 478
Q 3156 559 3463 722
L 3463 178
Q 3153 47 2828 -22
Q 2503 -91 2169 -91
Q 1331 -91 842 396
Q 353 884 353 1716
Q 353 2575 817 3079
Q 1281 3584 2069 3584
Q 2775 3584 3186 3129
Q 3597 2675 3597 1894
z
M 3022 2063
Q 3016 2534 2758 2815
Q 2500 3097 2075 3097
Q 1594 3097 1305 2825
Q 1016 2553 972 2059
L 3022 2063
z
" transform="scale(0.015625)"/>
       </defs>
       <use xlink:href="#DejaVuSans-6f"/>
       <use xlink:href="#DejaVuSans-70" transform="translate(61.181641 0)"/>
       <use xlink:href="#DejaVuSans-74" transform="translate(124.658203 0)"/>
       <use xlink:href="#DejaVuSans-69" transform="translate(163.867188 0)"/>
       <use xlink:href="#DejaVuSans-6d" transform="translate(191.650391 0)"/>
       <use xlink:href="#DejaVuSans-69" transform="translate(289.0625 0)"/>
       <use xlink:href="#DejaVuSans-7a" transform="translate(316.845703 0)"/>
       <use xlink:href="#DejaVuSans-65" transform="translate(369.335938 0)"/>
       <use xlink:href="#DejaVuSans-72" transform="translate(430.859375 0)"/>
      </g>
     </g>
    </g>
    <g id="ytick_4">
     <g id="line2d_14">
      <g>
       <use xlink:href="#m7f730733b7" x="121.057143" y="148.456844" style="stroke: #000000; stroke-width: 0.8"/>
      </g>
     </g>
     <g id="text_4">
      <!-- attention/scores -->
      <g transform="translate(32.99933 152.256063) scale(0.1 -0.1)">
       <defs>
        <path id="DejaVuSans-6e" d="M 3513 2113
L 3513 0
L 2938 0
L 2938 2094
Q 2938 2591 2744 2837
Q 2550 3084 2163 3084
Q 1697 3084 1428 2787
Q 1159 2491 1159 1978
L 1159 0
L 581 0
L 581 3500
L 1159 3500
L 1159 2956
Q 1366 3272 1645 3428
Q 1925 3584 2291 3584
Q 2894 3584 3203 3211
Q 3513 2838 3513 2113
z
" transform="scale(0.015625)"/>
        <path id="DejaVuSans-2f" d="M 1625 4666
L 2156 4666
L 531 -594
L 0 -594
L 1625 4666
z
" transform="scale(0.015625)"/>
        <path id="DejaVuSans-73" d="M 2834 3397
L 2834 2853
Q 2591 2978 2328 3040
Q 2066 3103 1784 3103
Q 1356 3103 1142 2972
Q 928 2841 928 2578
Q 928 2378 1081 2264
Q 1234 2150 1697 2047
L 1894 2003
Q 2506 1872 2764 1633
Q 3022 1394 3022 966
Q 3022 478 2636 193
Q 2250 -91 1575 -91
Q 1294 -91 989 -36
Q 684 19 347 128
L 347 722
Q 666 556 975 473
Q 1284 391 1588 391
Q 1994 391 2212 530
Q 2431 669 2431 922
Q 2431 1156 2273 1281
Q 2116 1406 1581 1522
L 1381 1569
Q 847 1681 609 1914
Q 372 2147 372 2553
Q 372 3047 722 3315
Q 1072 3584 1716 3584
Q 2034 3584 2315 3537
Q 2597 3491 2834 3397
z
" transform="scale(0.015625)"/>
       </defs>
       <use xlink:href="#DejaVuSans-61"/>
       <use xlink:href="#DejaVuSans-74" transform="translate(61.279297 0)"/>
       <use xlink:href="#DejaVuSans-74" transform="translate(100.488281 0)"/>
       <use xlink:href="#DejaVuSans-65" transform="translate(139.697266 0)"/>
       <use xlink:href="#DejaVuSans-6e" transform="translate(201.220703 0)"/>
       <use xlink:href="#DejaVuSans-74" transform="translate(264.599609 0)"/>
       <use xlink:href="#DejaVuSans-69" transform="translate(303.808594 0)"/>
       <use xlink:href="#DejaVuSans-6f" transform="translate(331.591797 0)"/>
       <use xlink:href="#DejaVuSans-6e" transform="translate(392.773438 0)"/>
       <use xlink:href="#DejaVuSans-2f" transform="translate(456.152344 0)"/>
       <use xlink:href="#DejaVuSans-73" transform="translate(489.84375 0)"/>
       <use xlink:href="#DejaVuSans-63" transform="translate(541.943359 0)"/>
       <use xlink:href="#DejaVuSans-6f" transform="translate(596.923828 0)"/>
       <use xlink:href="#DejaVuSans-72" transform="translate(658.105469 0)"/>
       <use xlink:href="#DejaVuSans-65" transform="translate(696.96875 0)"/>
       <use xlink:href="#DejaVuSans-73" transform="translate(758.492188 0)"/>
      </g>
     </g>
    </g>
    <g id="ytick_5">
     <g id="line2d_15">
      <g>
       <use xlink:href="#m7f730733b7" x="121.057143" y="182.12939" style="stroke: #000000; stroke-width: 0.8"/>
      </g>
     </g>
     <g id="text_5">
      <!-- attention/softmax -->
      <g transform="translate(24.69308 185.928608) scale(0.1 -0.1)">
       <defs>
        <path id="DejaVuSans-78" d="M 3513 3500
L 2247 1797
L 3578 0
L 2900 0
L 1881 1375
L 863 0
L 184 0
L 1544 1831
L 300 3500
L 978 3500
L 1906 2253
L 2834 3500
L 3513 3500
z
" transform="scale(0.015625)"/>
       </defs>
       <use xlink:href="#DejaVuSans-61"/>
       <use xlink:href="#DejaVuSans-74" transform="translate(61.279297 0)"/>
       <use xlink:href="#DejaVuSans-74" transform="translate(100.488281 0)"/>
       <use xlink:href="#DejaVuSans-65" transform="translate(139.697266 0)"/>
       <use xlink:href="#DejaVuSans-6e" transform="translate(201.220703 0)"/>
       <use xlink:href="#DejaVuSans-74" transform="translate(264.599609 0)"/>
       <use xlink:href="#DejaVuSans-69" transform="translate(303.808594 0)"/>
       <use xlink:href="#DejaVuSans-6f" transform="translate(331.591797 0)"/>
       <use xlink:href="#DejaVuSans-6e" transform="translate(392.773438 0)"/>
       <use xlink:href="#DejaVuSans-2f" transform="translate(456.152344 0)"/>
       <use xlink:href="#DejaVuSans-73" transform="translate(489.84375 0)"/>
       <use xlink:href="#DejaVuSans-6f" transform="translate(541.943359 0)"/>
       <use xlink:href="#DejaVuSans-66" transform="translate(603.125 0)"/>
       <use xlink:href="#DejaVuSans-74" transform="translate(636.580078 0)"/>
       <use xlink:href="#DejaVuSans-6d" transform="translate(675.789062 0)"/>
       <use xlink:href="#DejaVuSans-61" transform="translate(773.201172 0)"/>
       <use xlink:href="#DejaVuSans-78" transform="translate(834.480469 0)"/>
      </g>
     </g>
    </g>
    <g id="ytick_6">
     <g id="line2d_16">
      <g>
       <use xlink:href="#m7f730733b7" x="121.057143" y="215.801935" style="stroke: #000000; stroke-width: 0.8"/>
      </g>
     </g>
     <g id="text_6">
      <!-- attention/value -->
      <g transform="translate(37.758705 219.601153) scale(0.1 -0.1)">
       <defs>
        <path id="DejaVuSans-76" d="M 191 3500
L 800 3500
L 1894 563
L 2988 3500
L 3597 3500
L 2284 0
L 1503 0
L 191 3500
z
" transform="scale(0.015625)"/>
        <path id="DejaVuSans-6c" d="M 603 4863
L 1178 4863
L 1178 0
L 603 0
L 603 4863
z
" transform="scale(0.015625)"/>
        <path id="DejaVuSans-75" d="M 544 1381
L 544 3500
L 1119 3500
L 1119 1403
Q 1119 906 1312 657
Q 1506 409 1894 409
Q 2359 409 2629 706
Q 2900 1003 2900 1516
L 2900 3500
L 3475 3500
L 3475 0
L 2900 0
L 2900 538
Q 2691 219 2414 64
Q 2138 -91 1772 -91
Q 1169 -91 856 284
Q 544 659 544 1381
z
M 1991 3584
L 1991 3584
z
" transform="scale(0.015625)"/>
       </defs>
       <use xlink:href="#DejaVuSans-61"/>
       <use xlink:href="#DejaVuSans-74" transform="translate(61.279297 0)"/>
       <use xlink:href="#DejaVuSans-74" transform="translate(100.488281 0)"/>
       <use xlink:href="#DejaVuSans-65" transform="translate(139.697266 0)"/>
       <use xlink:href="#DejaVuSans-6e" transform="translate(201.220703 0)"/>
       <use xlink:href="#DejaVuSans-74" transform="translate(264.599609 0)"/>
       <use xlink:href="#DejaVuSans-69" transform="translate(303.808594 0)"/>
       <use xlink:href="#DejaVuSans-6f" transform="translate(331.591797 0)"/>
       <use xlink:href="#DejaVuSans-6e" transform="translate(392.773438 0)"/>
       <use xlink:href="#DejaVuSans-2f" transform="translate(456.152344 0)"/>
       <use xlink:href="#DejaVuSans-76" transform="translate(489.84375 0)"/>
       <use xlink:href="#DejaVuSans-61" transform="translate(549.023438 0)"/>
       <use xlink:href="#DejaVuSans-6c" transform="translate(610.302734 0)"/>
       <use xlink:href="#DejaVuSans-75" transform="translate(638.085938 0)"/>
       <use xlink:href="#DejaVuSans-65" transform="translate(701.464844 0)"/>
      </g>
     </g>
    </g>
    <g id="text_7">
     <!-- CPU annotation -->
     <g transform="translate(18.613393 170.437759) rotate(-90) scale(0.1 -0.1)">
      <defs>
       <path id="DejaVuSans-43" d="M 4122 4306
L 4122 3641
Q 3803 3938 3442 4084
Q 3081 4231 2675 4231
Q 1875 4231 1450 3742
Q 1025 3253 1025 2328
Q 1025 1406 1450 917
Q 1875 428 2675 428
Q 3081 428 3442 575
Q 3803 722 4122 1019
L 4122 359
Q 3791 134 3420 21
Q 3050 -91 2638 -91
Q 1578 -91 968 557
Q 359 1206 359 2328
Q 359 3453 968 4101
Q 1578 4750 2638 4750
Q 3056 4750 3426 4639
Q 3797 4528 4122 4306
z
" transform="scale(0.015625)"/>
       <path id="DejaVuSans-50" d="M 1259 4147
L 1259 2394
L 2053 2394
Q 2494 2394 2734 2622
Q 2975 2850 2975 3272
Q 2975 3691 2734 3919
Q 2494 4147 2053 4147
L 1259 4147
z
M 628 4666
L 2053 4666
Q 2838 4666 3239 4311
Q 3641 3956 3641 3272
Q 3641 2581 3239 2228
Q 2838 1875 2053 1875
L 1259 1875
L 1259 0
L 628 0
L 628 4666
z
" transform="scale(0.015625)"/>
       <path id="DejaVuSans-55" d="M 556 4666
L 1191 4666
L 1191 1831
Q 1191 1081 1462 751
Q 1734 422 2344 422
Q 2950 422 3222 751
Q 3494 1081 3494 1831
L 3494 4666
L 4128 4666
L 4128 1753
Q 4128 841 3676 375
Q 3225 -91 2344 -91
Q 1459 -91 1007 375
Q 556 841 556 1753
L 556 4666
z
" transform="scale(0.015625)"/>
       <path id="DejaVuSans-20" transform="scale(0.015625)"/>
      </defs>
      <use xlink:href="#DejaVuSans-43"/>
      <use xlink:href="#DejaVuSans-50" transform="translate(69.824219 0)"/>
      <use xlink:href="#DejaVuSans-55" transform="translate(130.126953 0)"/>
      <use xlink:href="#DejaVuSans-20" transform="translate(203.320312 0)"/>
      <use xlink:href="#DejaVuSans-61" transform="translate(235.107422 0)"/>
      <use xlink:href="#DejaVuSans-6e" transform="translate(296.386719 0)"/>
      <use xlink:href="#DejaVuSans-6e" transform="translate(359.765625 0)"/>
      <use xlink:href="#DejaVuSans-6f" transform="translate(423.144531 0)"/>
      <use xlink:href="#DejaVuSans-74" transform="translate(484.326172 0)"/>
      <use xlink:href="#DejaVuSans-61" transform="translate(523.535156 0)"/>
      <use xlink:href="#DejaVuSans-74" transform="translate(584.814453 0)"/>
      <use xlink:href="#DejaVuSans-69" transform="translate(624.023438 0)"/>
      <use xlink:href="#DejaVuSans-6f" transform="translate(651.806641 0)"/>
      <use xlink:href="#DejaVuSans-6e" transform="translate(712.988281 0)"/>
     </g>
    </g>
   </g>
   <g id="patch_3">
    <path d="M 121.057143 237.184001
L 121.057143 26.057143
" style="fill: none; stroke: #000000; stroke-width: 0.8; stroke-linejoin: miter; stroke-linecap: square"/>
   </g>
   <g id="patch_4">
    <path d="M 637.2 237.184001
L 637.2 26.057143
" style="fill: none; stroke: #000000; stroke-width: 0.8; stroke-linejoin: miter; stroke-linecap: square"/>
   </g>
   <g id="patch_5">
    <path d="M 121.057143 237.184001
L 637.2 237.184001
" style="fill: none; stroke: #000000; stroke-width: 0.8; stroke-linejoin: miter; stroke-linecap: square"/>
   </g>
   <g id="patch_6">
    <path d="M 121.057143 26.057143
L 637.2 26.057143
" style="fill: none; stroke: #000000; stroke-width: 0.8; stroke-linejoin: miter; stroke-linecap: square"/>
   </g>
   <g id="text_8">
    <!-- Medium context 1024 train_step: annotated ranges and CUDA kernels -->
    <g transform="translate(168.537946 20.057143) scale(0.12 -0.12)">
     <defs>
      <path id="DejaVuSans-4d" d="M 628 4666
L 1569 4666
L 2759 1491
L 3956 4666
L 4897 4666
L 4897 0
L 4281 0
L 4281 4097
L 3078 897
L 2444 897
L 1241 4097
L 1241 0
L 628 0
L 628 4666
z
" transform="scale(0.015625)"/>
      <path id="DejaVuSans-31" d="M 794 531
L 1825 531
L 1825 4091
L 703 3866
L 703 4441
L 1819 4666
L 2450 4666
L 2450 531
L 3481 531
L 3481 0
L 794 0
L 794 531
z
" transform="scale(0.015625)"/>
      <path id="DejaVuSans-30" d="M 2034 4250
Q 1547 4250 1301 3770
Q 1056 3291 1056 2328
Q 1056 1369 1301 889
Q 1547 409 2034 409
Q 2525 409 2770 889
Q 3016 1369 3016 2328
Q 3016 3291 2770 3770
Q 2525 4250 2034 4250
z
M 2034 4750
Q 2819 4750 3233 4129
Q 3647 3509 3647 2328
Q 3647 1150 3233 529
Q 2819 -91 2034 -91
Q 1250 -91 836 529
Q 422 1150 422 2328
Q 422 3509 836 4129
Q 1250 4750 2034 4750
z
" transform="scale(0.015625)"/>
      <path id="DejaVuSans-32" d="M 1228 531
L 3431 531
L 3431 0
L 469 0
L 469 531
Q 828 903 1448 1529
Q 2069 2156 2228 2338
Q 2531 2678 2651 2914
Q 2772 3150 2772 3378
Q 2772 3750 2511 3984
Q 2250 4219 1831 4219
Q 1534 4219 1204 4116
Q 875 4013 500 3803
L 500 4441
Q 881 4594 1212 4672
Q 1544 4750 1819 4750
Q 2544 4750 2975 4387
Q 3406 4025 3406 3419
Q 3406 3131 3298 2873
Q 3191 2616 2906 2266
Q 2828 2175 2409 1742
Q 1991 1309 1228 531
z
" transform="scale(0.015625)"/>
      <path id="DejaVuSans-34" d="M 2419 4116
L 825 1625
L 2419 1625
L 2419 4116
z
M 2253 4666
L 3047 4666
L 3047 1625
L 3713 1625
L 3713 1100
L 3047 1100
L 3047 0
L 2419 0
L 2419 1100
L 313 1100
L 313 1709
L 2253 4666
z
" transform="scale(0.015625)"/>
      <path id="DejaVuSans-5f" d="M 3263 -1063
L 3263 -1509
L -63 -1509
L -63 -1063
L 3263 -1063
z
" transform="scale(0.015625)"/>
      <path id="DejaVuSans-3a" d="M 750 794
L 1409 794
L 1409 0
L 750 0
L 750 794
z
M 750 3309
L 1409 3309
L 1409 2516
L 750 2516
L 750 3309
z
" transform="scale(0.015625)"/>
      <path id="DejaVuSans-67" d="M 2906 1791
Q 2906 2416 2648 2759
Q 2391 3103 1925 3103
Q 1463 3103 1205 2759
Q 947 2416 947 1791
Q 947 1169 1205 825
Q 1463 481 1925 481
Q 2391 481 2648 825
Q 2906 1169 2906 1791
z
M 3481 434
Q 3481 -459 3084 -895
Q 2688 -1331 1869 -1331
Q 1566 -1331 1297 -1286
Q 1028 -1241 775 -1147
L 775 -588
Q 1028 -725 1275 -790
Q 1522 -856 1778 -856
Q 2344 -856 2625 -561
Q 2906 -266 2906 331
L 2906 616
Q 2728 306 2450 153
Q 2172 0 1784 0
Q 1141 0 747 490
Q 353 981 353 1791
Q 353 2603 747 3093
Q 1141 3584 1784 3584
Q 2172 3584 2450 3431
Q 2728 3278 2906 2969
L 2906 3500
L 3481 3500
L 3481 434
z
" transform="scale(0.015625)"/>
      <path id="DejaVuSans-44" d="M 1259 4147
L 1259 519
L 2022 519
Q 2988 519 3436 956
Q 3884 1394 3884 2338
Q 3884 3275 3436 3711
Q 2988 4147 2022 4147
L 1259 4147
z
M 628 4666
L 1925 4666
Q 3281 4666 3915 4102
Q 4550 3538 4550 2338
Q 4550 1131 3912 565
Q 3275 0 1925 0
L 628 0
L 628 4666
z
" transform="scale(0.015625)"/>
      <path id="DejaVuSans-41" d="M 2188 4044
L 1331 1722
L 3047 1722
L 2188 4044
z
M 1831 4666
L 2547 4666
L 4325 0
L 3669 0
L 3244 1197
L 1141 1197
L 716 0
L 50 0
L 1831 4666
z
" transform="scale(0.015625)"/>
     </defs>
     <use xlink:href="#DejaVuSans-4d"/>
     <use xlink:href="#DejaVuSans-65" transform="translate(86.279297 0)"/>
     <use xlink:href="#DejaVuSans-64" transform="translate(147.802734 0)"/>
     <use xlink:href="#DejaVuSans-69" transform="translate(211.279297 0)"/>
     <use xlink:href="#DejaVuSans-75" transform="translate(239.0625 0)"/>
     <use xlink:href="#DejaVuSans-6d" transform="translate(302.441406 0)"/>
     <use xlink:href="#DejaVuSans-20" transform="translate(399.853516 0)"/>
     <use xlink:href="#DejaVuSans-63" transform="translate(431.640625 0)"/>
     <use xlink:href="#DejaVuSans-6f" transform="translate(486.621094 0)"/>
     <use xlink:href="#DejaVuSans-6e" transform="translate(547.802734 0)"/>
     <use xlink:href="#DejaVuSans-74" transform="translate(611.181641 0)"/>
     <use xlink:href="#DejaVuSans-65" transform="translate(650.390625 0)"/>
     <use xlink:href="#DejaVuSans-78" transform="translate(710.164062 0)"/>
     <use xlink:href="#DejaVuSans-74" transform="translate(769.34375 0)"/>
     <use xlink:href="#DejaVuSans-20" transform="translate(808.552734 0)"/>
     <use xlink:href="#DejaVuSans-31" transform="translate(840.339844 0)"/>
     <use xlink:href="#DejaVuSans-30" transform="translate(903.962891 0)"/>
     <use xlink:href="#DejaVuSans-32" transform="translate(967.585938 0)"/>
     <use xlink:href="#DejaVuSans-34" transform="translate(1031.208984 0)"/>
     <use xlink:href="#DejaVuSans-20" transform="translate(1094.832031 0)"/>
     <use xlink:href="#DejaVuSans-74" transform="translate(1126.619141 0)"/>
     <use xlink:href="#DejaVuSans-72" transform="translate(1165.828125 0)"/>
     <use xlink:href="#DejaVuSans-61" transform="translate(1206.941406 0)"/>
     <use xlink:href="#DejaVuSans-69" transform="translate(1268.220703 0)"/>
     <use xlink:href="#DejaVuSans-6e" transform="translate(1296.003906 0)"/>
     <use xlink:href="#DejaVuSans-5f" transform="translate(1359.382812 0)"/>
     <use xlink:href="#DejaVuSans-73" transform="translate(1409.382812 0)"/>
     <use xlink:href="#DejaVuSans-74" transform="translate(1461.482422 0)"/>
     <use xlink:href="#DejaVuSans-65" transform="translate(1500.691406 0)"/>
     <use xlink:href="#DejaVuSans-70" transform="translate(1562.214844 0)"/>
     <use xlink:href="#DejaVuSans-3a" transform="translate(1625.691406 0)"/>
     <use xlink:href="#DejaVuSans-20" transform="translate(1659.382812 0)"/>
     <use xlink:href="#DejaVuSans-61" transform="translate(1691.169922 0)"/>
     <use xlink:href="#DejaVuSans-6e" transform="translate(1752.449219 0)"/>
     <use xlink:href="#DejaVuSans-6e" transform="translate(1815.828125 0)"/>
     <use xlink:href="#DejaVuSans-6f" transform="translate(1879.207031 0)"/>
     <use xlink:href="#DejaVuSans-74" transform="translate(1940.388672 0)"/>
     <use xlink:href="#DejaVuSans-61" transform="translate(1979.597656 0)"/>
     <use xlink:href="#DejaVuSans-74" transform="translate(2040.876953 0)"/>
     <use xlink:href="#DejaVuSans-65" transform="translate(2080.085938 0)"/>
     <use xlink:href="#DejaVuSans-64" transform="translate(2141.609375 0)"/>
     <use xlink:href="#DejaVuSans-20" transform="translate(2205.085938 0)"/>
     <use xlink:href="#DejaVuSans-72" transform="translate(2236.873047 0)"/>
     <use xlink:href="#DejaVuSans-61" transform="translate(2277.986328 0)"/>
     <use xlink:href="#DejaVuSans-6e" transform="translate(2339.265625 0)"/>
     <use xlink:href="#DejaVuSans-67" transform="translate(2402.644531 0)"/>
     <use xlink:href="#DejaVuSans-65" transform="translate(2466.121094 0)"/>
     <use xlink:href="#DejaVuSans-73" transform="translate(2527.644531 0)"/>
     <use xlink:href="#DejaVuSans-20" transform="translate(2579.744141 0)"/>
     <use xlink:href="#DejaVuSans-61" transform="translate(2611.53125 0)"/>
     <use xlink:href="#DejaVuSans-6e" transform="translate(2672.810547 0)"/>
     <use xlink:href="#DejaVuSans-64" transform="translate(2736.189453 0)"/>
     <use xlink:href="#DejaVuSans-20" transform="translate(2799.666016 0)"/>
     <use xlink:href="#DejaVuSans-43" transform="translate(2831.453125 0)"/>
     <use xlink:href="#DejaVuSans-55" transform="translate(2901.277344 0)"/>
     <use xlink:href="#DejaVuSans-44" transform="translate(2974.470703 0)"/>
     <use xlink:href="#DejaVuSans-41" transform="translate(3049.722656 0)"/>
     <use xlink:href="#DejaVuSans-20" transform="translate(3118.130859 0)"/>
     <use xlink:href="#DejaVuSans-6b" transform="translate(3149.917969 0)"/>
     <use xlink:href="#DejaVuSans-65" transform="translate(3204.203125 0)"/>
     <use xlink:href="#DejaVuSans-72" transform="translate(3265.726562 0)"/>
     <use xlink:href="#DejaVuSans-6e" transform="translate(3305.089844 0)"/>
     <use xlink:href="#DejaVuSans-65" transform="translate(3368.46875 0)"/>
     <use xlink:href="#DejaVuSans-6c" transform="translate(3429.992188 0)"/>
     <use xlink:href="#DejaVuSans-73" transform="translate(3457.775391 0)"/>
    </g>
   </g>
  </g>
  <g id="axes_2">
   <g id="patch_7">
    <path d="M 121.057143 318.657143
L 637.2 318.657143
L 637.2 252.68
L 121.057143 252.68
z
" style="fill: #ffffff"/>
   </g>
   <g id="FillBetweenPolyCollection_1">
    <defs>
     <path id="mc16dfbdd86" d="M 122.670089 -44.341818
L 122.670089 -54.536189
L 125.895982 -95.524183
L 129.121875 -104.176565
L 132.347768 -90.273482
L 135.573661 -102.387864
L 138.799554 -104.205108
L 142.025446 -88.438576
L 145.251339 -104.232644
L 148.477232 -104.122522
L 151.703125 -87.73092
L 154.929018 -104.240113
L 158.154911 -95.895812
L 161.380804 -98.075182
L 164.606696 -104.195591
L 167.832589 -90.587355
L 171.058482 -104.233648
L 174.284375 -104.212913
L 177.510268 -88.254357
L 180.736161 -104.240455
L 183.962054 -97.915362
L 187.187946 -95.029483
L 190.413839 -104.173181
L 193.639732 -91.201523
L 196.865625 -100.208009
L 200.091518 -104.195946
L 203.317411 -88.440552
L 206.543304 -104.238113
L 209.769196 -104.138524
L 212.995089 -89.056867
L 216.220982 -104.244205
L 219.446875 -95.436576
L 222.672768 -98.102371
L 225.898661 -104.197954
L 229.124554 -89.921519
L 232.350446 -104.237076
L 235.576339 -104.198991
L 238.802232 -88.773723
L 242.028125 -104.241801
L 245.254018 -98.644217
L 248.479911 -96.256284
L 251.705804 -104.173837
L 254.931696 -90.469777
L 258.157589 -104.257093
L 261.383482 -104.181332
L 264.609375 -89.439601
L 267.835268 -104.242156
L 271.061161 -101.642815
L 274.287054 -92.711891
L 277.512946 -104.172836
L 280.738839 -94.088437
L 283.964732 -99.223819
L 287.190625 -104.210909
L 290.416518 -89.310338
L 293.642411 -104.239459
L 296.868304 -104.136828
L 300.094196 -89.675109
L 303.320089 -104.251341
L 306.545982 -96.468508
L 309.771875 -98.113579
L 312.997768 -104.204773
L 316.223661 -90.090775
L 319.449554 -104.23571
L 322.675446 -104.20274
L 325.901339 -89.185263
L 329.127232 -104.247259
L 332.353125 -104.177208
L 335.579018 -104.158896
L 338.804911 -103.671114
L 342.030804 -103.886293
L 345.256696 -104.286678
L 348.482589 -97.319201
L 351.708482 -103.702743
L 354.934375 -104.299939
L 358.160268 -98.125142
L 361.386161 -103.477029
L 364.612054 -103.695902
L 367.837946 -104.319323
L 371.063839 -98.13666
L 374.289732 -103.435611
L 377.515625 -103.750703
L 380.741518 -104.294838
L 383.967411 -97.921181
L 387.193304 -103.59095
L 390.419196 -103.7928
L 393.645089 -104.284966
L 396.870982 -97.321286
L 400.096875 -103.704141
L 403.322768 -104.253065
L 406.548661 -104.308429
L 409.774554 -97.33184
L 413.000446 -103.680701
L 416.226339 -104.310475
L 419.452232 -98.119346
L 422.678125 -103.467248
L 425.904018 -103.71735
L 429.129911 -104.291791
L 432.355804 -98.165929
L 435.581696 -103.330283
L 438.807589 -103.640215
L 442.033482 -104.291804
L 445.259375 -97.846071
L 448.485268 -103.577692
L 451.711161 -103.827512
L 454.937054 -104.284689
L 458.162946 -97.302271
L 461.388839 -103.70175
L 464.614732 -104.298583
L 467.840625 -101.674384
L 471.066518 -99.951208
L 474.292411 -103.695591
L 477.518304 -104.306419
L 480.744196 -98.134638
L 483.970089 -103.347556
L 487.195982 -103.732344
L 490.421875 -104.29824
L 493.647768 -98.100336
L 496.873661 -103.469947
L 500.099554 -103.775467
L 503.325446 -104.294509
L 506.551339 -97.813476
L 509.777232 -103.714321
L 513.003125 -103.817287
L 516.229018 -104.280216
L 519.454911 -97.314476
L 522.680804 -103.689489
L 525.906696 -104.293498
L 529.132589 -99.38882
L 532.358482 -102.243991
L 535.584375 -103.690887
L 538.810268 -104.321039
L 542.036161 -98.135315
L 545.262054 -103.452246
L 548.487946 -103.748953
L 551.713839 -104.293531
L 554.939732 -97.938872
L 558.165625 -103.606564
L 561.391518 -103.797934
L 564.617411 -104.293845
L 567.843304 -97.780802
L 571.069196 -103.700075
L 574.295089 -103.880834
L 577.520982 -104.280226
L 580.746875 -97.348187
L 583.972768 -103.715032
L 587.198661 -104.300636
L 590.424554 -98.109845
L 593.650446 -103.491351
L 596.876339 -103.733702
L 600.102232 -104.316955
L 603.328125 -98.113929
L 606.554018 -103.425706
L 609.779911 -103.753047
L 613.005804 -104.293871
L 616.231696 -97.91746
L 619.457589 -103.523975
L 622.683482 -103.792442
L 625.909375 -104.288073
L 629.135268 -97.363116
L 632.361161 -101.051046
L 635.587054 -100.930261
L 635.587054 -44.341818
L 635.587054 -44.341818
L 632.361161 -44.341818
L 629.135268 -44.341818
L 625.909375 -44.341818
L 622.683482 -44.341818
L 619.457589 -44.341818
L 616.231696 -44.341818
L 613.005804 -44.341818
L 609.779911 -44.341818
L 606.554018 -44.341818
L 603.328125 -44.341818
L 600.102232 -44.341818
L 596.876339 -44.341818
L 593.650446 -44.341818
L 590.424554 -44.341818
L 587.198661 -44.341818
L 583.972768 -44.341818
L 580.746875 -44.341818
L 577.520982 -44.341818
L 574.295089 -44.341818
L 571.069196 -44.341818
L 567.843304 -44.341818
L 564.617411 -44.341818
L 561.391518 -44.341818
L 558.165625 -44.341818
L 554.939732 -44.341818
L 551.713839 -44.341818
L 548.487946 -44.341818
L 545.262054 -44.341818
L 542.036161 -44.341818
L 538.810268 -44.341818
L 535.584375 -44.341818
L 532.358482 -44.341818
L 529.132589 -44.341818
L 525.906696 -44.341818
L 522.680804 -44.341818
L 519.454911 -44.341818
L 516.229018 -44.341818
L 513.003125 -44.341818
L 509.777232 -44.341818
L 506.551339 -44.341818
L 503.325446 -44.341818
L 500.099554 -44.341818
L 496.873661 -44.341818
L 493.647768 -44.341818
L 490.421875 -44.341818
L 487.195982 -44.341818
L 483.970089 -44.341818
L 480.744196 -44.341818
L 477.518304 -44.341818
L 474.292411 -44.341818
L 471.066518 -44.341818
L 467.840625 -44.341818
L 464.614732 -44.341818
L 461.388839 -44.341818
L 458.162946 -44.341818
L 454.937054 -44.341818
L 451.711161 -44.341818
L 448.485268 -44.341818
L 445.259375 -44.341818
L 442.033482 -44.341818
L 438.807589 -44.341818
L 435.581696 -44.341818
L 432.355804 -44.341818
L 429.129911 -44.341818
L 425.904018 -44.341818
L 422.678125 -44.341818
L 419.452232 -44.341818
L 416.226339 -44.341818
L 413.000446 -44.341818
L 409.774554 -44.341818
L 406.548661 -44.341818
L 403.322768 -44.341818
L 400.096875 -44.341818
L 396.870982 -44.341818
L 393.645089 -44.341818
L 390.419196 -44.341818
L 387.193304 -44.341818
L 383.967411 -44.341818
L 380.741518 -44.341818
L 377.515625 -44.341818
L 374.289732 -44.341818
L 371.063839 -44.341818
L 367.837946 -44.341818
L 364.612054 -44.341818
L 361.386161 -44.341818
L 358.160268 -44.341818
L 354.934375 -44.341818
L 351.708482 -44.341818
L 348.482589 -44.341818
L 345.256696 -44.341818
L 342.030804 -44.341818
L 338.804911 -44.341818
L 335.579018 -44.341818
L 332.353125 -44.341818
L 329.127232 -44.341818
L 325.901339 -44.341818
L 322.675446 -44.341818
L 319.449554 -44.341818
L 316.223661 -44.341818
L 312.997768 -44.341818
L 309.771875 -44.341818
L 306.545982 -44.341818
L 303.320089 -44.341818
L 300.094196 -44.341818
L 296.868304 -44.341818
L 293.642411 -44.341818
L 290.416518 -44.341818
L 287.190625 -44.341818
L 283.964732 -44.341818
L 280.738839 -44.341818
L 277.512946 -44.341818
L 274.287054 -44.341818
L 271.061161 -44.341818
L 267.835268 -44.341818
L 264.609375 -44.341818
L 261.383482 -44.341818
L 258.157589 -44.341818
L 254.931696 -44.341818
L 251.705804 -44.341818
L 248.479911 -44.341818
L 245.254018 -44.341818
L 242.028125 -44.341818
L 238.802232 -44.341818
L 235.576339 -44.341818
L 232.350446 -44.341818
L 229.124554 -44.341818
L 225.898661 -44.341818
L 222.672768 -44.341818
L 219.446875 -44.341818
L 216.220982 -44.341818
L 212.995089 -44.341818
L 209.769196 -44.341818
L 206.543304 -44.341818
L 203.317411 -44.341818
L 200.091518 -44.341818
L 196.865625 -44.341818
L 193.639732 -44.341818
L 190.413839 -44.341818
L 187.187946 -44.341818
L 183.962054 -44.341818
L 180.736161 -44.341818
L 177.510268 -44.341818
L 174.284375 -44.341818
L 171.058482 -44.341818
L 167.832589 -44.341818
L 164.606696 -44.341818
L 161.380804 -44.341818
L 158.154911 -44.341818
L 154.929018 -44.341818
L 151.703125 -44.341818
L 148.477232 -44.341818
L 145.251339 -44.341818
L 142.025446 -44.341818
L 138.799554 -44.341818
L 135.573661 -44.341818
L 132.347768 -44.341818
L 129.121875 -44.341818
L 125.895982 -44.341818
L 122.670089 -44.341818
z
" style="stroke: #f59e0b; stroke-opacity: 0.75"/>
    </defs>
    <g clip-path="url(#p20d89d31d6)">
     <use xlink:href="#mc16dfbdd86" x="0" y="360" style="fill: #f59e0b; fill-opacity: 0.75; stroke: #f59e0b; stroke-opacity: 0.75"/>
    </g>
   </g>
   <g id="matplotlib.axis_3">
    <g id="xtick_6">
     <g id="line2d_17">
      <path d="M 121.057143 318.657143
L 121.057143 252.68
" clip-path="url(#p20d89d31d6)" style="fill: none; stroke: #b0b0b0; stroke-opacity: 0.2; stroke-width: 0.8; stroke-linecap: square"/>
     </g>
     <g id="line2d_18">
      <g>
       <use xlink:href="#m838a19283a" x="121.057143" y="318.657143" style="stroke: #000000; stroke-width: 0.8"/>
      </g>
     </g>
     <g id="text_9">
      <!-- 0 -->
      <g transform="translate(117.875893 333.25558) scale(0.1 -0.1)">
       <use xlink:href="#DejaVuSans-30"/>
      </g>
     </g>
    </g>
    <g id="xtick_7">
     <g id="line2d_19">
      <path d="M 235.170812 318.657143
L 235.170812 252.68
" clip-path="url(#p20d89d31d6)" style="fill: none; stroke: #b0b0b0; stroke-opacity: 0.2; stroke-width: 0.8; stroke-linecap: square"/>
     </g>
     <g id="line2d_20">
      <g>
       <use xlink:href="#m838a19283a" x="235.170812" y="318.657143" style="stroke: #000000; stroke-width: 0.8"/>
      </g>
     </g>
     <g id="text_10">
      <!-- 200 -->
      <g transform="translate(225.627062 333.25558) scale(0.1 -0.1)">
       <use xlink:href="#DejaVuSans-32"/>
       <use xlink:href="#DejaVuSans-30" transform="translate(63.623047 0)"/>
       <use xlink:href="#DejaVuSans-30" transform="translate(127.246094 0)"/>
      </g>
     </g>
    </g>
    <g id="xtick_8">
     <g id="line2d_21">
      <path d="M 349.284482 318.657143
L 349.284482 252.68
" clip-path="url(#p20d89d31d6)" style="fill: none; stroke: #b0b0b0; stroke-opacity: 0.2; stroke-width: 0.8; stroke-linecap: square"/>
     </g>
     <g id="line2d_22">
      <g>
       <use xlink:href="#m838a19283a" x="349.284482" y="318.657143" style="stroke: #000000; stroke-width: 0.8"/>
      </g>
     </g>
     <g id="text_11">
      <!-- 400 -->
      <g transform="translate(339.740732 333.25558) scale(0.1 -0.1)">
       <use xlink:href="#DejaVuSans-34"/>
       <use xlink:href="#DejaVuSans-30" transform="translate(63.623047 0)"/>
       <use xlink:href="#DejaVuSans-30" transform="translate(127.246094 0)"/>
      </g>
     </g>
    </g>
    <g id="xtick_9">
     <g id="line2d_23">
      <path d="M 463.398151 318.657143
L 463.398151 252.68
" clip-path="url(#p20d89d31d6)" style="fill: none; stroke: #b0b0b0; stroke-opacity: 0.2; stroke-width: 0.8; stroke-linecap: square"/>
     </g>
     <g id="line2d_24">
      <g>
       <use xlink:href="#m838a19283a" x="463.398151" y="318.657143" style="stroke: #000000; stroke-width: 0.8"/>
      </g>
     </g>
     <g id="text_12">
      <!-- 600 -->
      <g transform="translate(453.854401 333.25558) scale(0.1 -0.1)">
       <defs>
        <path id="DejaVuSans-36" d="M 2113 2584
Q 1688 2584 1439 2293
Q 1191 2003 1191 1497
Q 1191 994 1439 701
Q 1688 409 2113 409
Q 2538 409 2786 701
Q 3034 994 3034 1497
Q 3034 2003 2786 2293
Q 2538 2584 2113 2584
z
M 3366 4563
L 3366 3988
Q 3128 4100 2886 4159
Q 2644 4219 2406 4219
Q 1781 4219 1451 3797
Q 1122 3375 1075 2522
Q 1259 2794 1537 2939
Q 1816 3084 2150 3084
Q 2853 3084 3261 2657
Q 3669 2231 3669 1497
Q 3669 778 3244 343
Q 2819 -91 2113 -91
Q 1303 -91 875 529
Q 447 1150 447 2328
Q 447 3434 972 4092
Q 1497 4750 2381 4750
Q 2619 4750 2861 4703
Q 3103 4656 3366 4563
z
" transform="scale(0.015625)"/>
       </defs>
       <use xlink:href="#DejaVuSans-36"/>
       <use xlink:href="#DejaVuSans-30" transform="translate(63.623047 0)"/>
       <use xlink:href="#DejaVuSans-30" transform="translate(127.246094 0)"/>
      </g>
     </g>
    </g>
    <g id="xtick_10">
     <g id="line2d_25">
      <path d="M 577.511821 318.657143
L 577.511821 252.68
" clip-path="url(#p20d89d31d6)" style="fill: none; stroke: #b0b0b0; stroke-opacity: 0.2; stroke-width: 0.8; stroke-linecap: square"/>
     </g>
     <g id="line2d_26">
      <g>
       <use xlink:href="#m838a19283a" x="577.511821" y="318.657143" style="stroke: #000000; stroke-width: 0.8"/>
      </g>
     </g>
     <g id="text_13">
      <!-- 800 -->
      <g transform="translate(567.968071 333.25558) scale(0.1 -0.1)">
       <defs>
        <path id="DejaVuSans-38" d="M 2034 2216
Q 1584 2216 1326 1975
Q 1069 1734 1069 1313
Q 1069 891 1326 650
Q 1584 409 2034 409
Q 2484 409 2743 651
Q 3003 894 3003 1313
Q 3003 1734 2745 1975
Q 2488 2216 2034 2216
z
M 1403 2484
Q 997 2584 770 2862
Q 544 3141 544 3541
Q 544 4100 942 4425
Q 1341 4750 2034 4750
Q 2731 4750 3128 4425
Q 3525 4100 3525 3541
Q 3525 3141 3298 2862
Q 3072 2584 2669 2484
Q 3125 2378 3379 2068
Q 3634 1759 3634 1313
Q 3634 634 3220 271
Q 2806 -91 2034 -91
Q 1263 -91 848 271
Q 434 634 434 1313
Q 434 1759 690 2068
Q 947 2378 1403 2484
z
M 1172 3481
Q 1172 3119 1398 2916
Q 1625 2713 2034 2713
Q 2441 2713 2670 2916
Q 2900 3119 2900 3481
Q 2900 3844 2670 4047
Q 2441 4250 2034 4250
Q 1625 4250 1398 4047
Q 1172 3844 1172 3481
z
" transform="scale(0.015625)"/>
       </defs>
       <use xlink:href="#DejaVuSans-38"/>
       <use xlink:href="#DejaVuSans-30" transform="translate(63.623047 0)"/>
       <use xlink:href="#DejaVuSans-30" transform="translate(127.246094 0)"/>
      </g>
     </g>
    </g>
    <g id="text_14">
     <!-- time from profile/measure start (ms) -->
     <g transform="translate(287.542634 346.933705) scale(0.1 -0.1)">
      <defs>
       <path id="DejaVuSans-28" d="M 1984 4856
Q 1566 4138 1362 3434
Q 1159 2731 1159 2009
Q 1159 1288 1364 580
Q 1569 -128 1984 -844
L 1484 -844
Q 1016 -109 783 600
Q 550 1309 550 2009
Q 550 2706 781 3412
Q 1013 4119 1484 4856
L 1984 4856
z
" transform="scale(0.015625)"/>
       <path id="DejaVuSans-29" d="M 513 4856
L 1013 4856
Q 1481 4119 1714 3412
Q 1947 2706 1947 2009
Q 1947 1309 1714 600
Q 1481 -109 1013 -844
L 513 -844
Q 928 -128 1133 580
Q 1338 1288 1338 2009
Q 1338 2731 1133 3434
Q 928 4138 513 4856
z
" transform="scale(0.015625)"/>
      </defs>
      <use xlink:href="#DejaVuSans-74"/>
      <use xlink:href="#DejaVuSans-69" transform="translate(39.208984 0)"/>
      <use xlink:href="#DejaVuSans-6d" transform="translate(66.992188 0)"/>
      <use xlink:href="#DejaVuSans-65" transform="translate(164.404297 0)"/>
      <use xlink:href="#DejaVuSans-20" transform="translate(225.927734 0)"/>
      <use xlink:href="#DejaVuSans-66" transform="translate(257.714844 0)"/>
      <use xlink:href="#DejaVuSans-72" transform="translate(292.919922 0)"/>
      <use xlink:href="#DejaVuSans-6f" transform="translate(331.783203 0)"/>
      <use xlink:href="#DejaVuSans-6d" transform="translate(392.964844 0)"/>
      <use xlink:href="#DejaVuSans-20" transform="translate(490.376953 0)"/>
      <use xlink:href="#DejaVuSans-70" transform="translate(522.164062 0)"/>
      <use xlink:href="#DejaVuSans-72" transform="translate(585.640625 0)"/>
      <use xlink:href="#DejaVuSans-6f" transform="translate(624.503906 0)"/>
      <use xlink:href="#DejaVuSans-66" transform="translate(685.685547 0)"/>
      <use xlink:href="#DejaVuSans-69" transform="translate(720.890625 0)"/>
      <use xlink:href="#DejaVuSans-6c" transform="translate(748.673828 0)"/>
      <use xlink:href="#DejaVuSans-65" transform="translate(776.457031 0)"/>
      <use xlink:href="#DejaVuSans-2f" transform="translate(837.980469 0)"/>
      <use xlink:href="#DejaVuSans-6d" transform="translate(871.671875 0)"/>
      <use xlink:href="#DejaVuSans-65" transform="translate(969.083984 0)"/>
      <use xlink:href="#DejaVuSans-61" transform="translate(1030.607422 0)"/>
      <use xlink:href="#DejaVuSans-73" transform="translate(1091.886719 0)"/>
      <use xlink:href="#DejaVuSans-75" transform="translate(1143.986328 0)"/>
      <use xlink:href="#DejaVuSans-72" transform="translate(1207.365234 0)"/>
      <use xlink:href="#DejaVuSans-65" transform="translate(1246.228516 0)"/>
      <use xlink:href="#DejaVuSans-20" transform="translate(1307.751953 0)"/>
      <use xlink:href="#DejaVuSans-73" transform="translate(1339.539062 0)"/>
      <use xlink:href="#DejaVuSans-74" transform="translate(1391.638672 0)"/>
      <use xlink:href="#DejaVuSans-61" transform="translate(1430.847656 0)"/>
      <use xlink:href="#DejaVuSans-72" transform="translate(1492.126953 0)"/>
      <use xlink:href="#DejaVuSans-74" transform="translate(1533.240234 0)"/>
      <use xlink:href="#DejaVuSans-20" transform="translate(1572.449219 0)"/>
      <use xlink:href="#DejaVuSans-28" transform="translate(1604.236328 0)"/>
      <use xlink:href="#DejaVuSans-6d" transform="translate(1643.25 0)"/>
      <use xlink:href="#DejaVuSans-73" transform="translate(1740.662109 0)"/>
      <use xlink:href="#DejaVuSans-29" transform="translate(1792.761719 0)"/>
     </g>
    </g>
   </g>
   <g id="matplotlib.axis_4">
    <g id="ytick_7">
     <g id="line2d_27">
      <g>
       <use xlink:href="#m7f730733b7" x="121.057143" y="315.658182" style="stroke: #000000; stroke-width: 0.8"/>
      </g>
     </g>
     <g id="text_15">
      <!-- 0.0 -->
      <g transform="translate(98.154018 319.457401) scale(0.1 -0.1)">
       <defs>
        <path id="DejaVuSans-2e" d="M 684 794
L 1344 794
L 1344 0
L 684 0
L 684 794
z
" transform="scale(0.015625)"/>
       </defs>
       <use xlink:href="#DejaVuSans-30"/>
       <use xlink:href="#DejaVuSans-2e" transform="translate(63.623047 0)"/>
       <use xlink:href="#DejaVuSans-30" transform="translate(95.410156 0)"/>
      </g>
     </g>
    </g>
    <g id="ytick_8">
     <g id="line2d_28">
      <g>
       <use xlink:href="#m7f730733b7" x="121.057143" y="285.632213" style="stroke: #000000; stroke-width: 0.8"/>
      </g>
     </g>
     <g id="text_16">
      <!-- 0.5 -->
      <g transform="translate(98.154018 289.431432) scale(0.1 -0.1)">
       <defs>
        <path id="DejaVuSans-35" d="M 691 4666
L 3169 4666
L 3169 4134
L 1269 4134
L 1269 2991
Q 1406 3038 1543 3061
Q 1681 3084 1819 3084
Q 2600 3084 3056 2656
Q 3513 2228 3513 1497
Q 3513 744 3044 326
Q 2575 -91 1722 -91
Q 1428 -91 1123 -41
Q 819 9 494 109
L 494 744
Q 775 591 1075 516
Q 1375 441 1709 441
Q 2250 441 2565 725
Q 2881 1009 2881 1497
Q 2881 1984 2565 2268
Q 2250 2553 1709 2553
Q 1456 2553 1204 2497
Q 953 2441 691 2322
L 691 4666
z
" transform="scale(0.015625)"/>
       </defs>
       <use xlink:href="#DejaVuSans-30"/>
       <use xlink:href="#DejaVuSans-2e" transform="translate(63.623047 0)"/>
       <use xlink:href="#DejaVuSans-35" transform="translate(95.410156 0)"/>
      </g>
     </g>
    </g>
    <g id="ytick_9">
     <g id="line2d_29">
      <g>
       <use xlink:href="#m7f730733b7" x="121.057143" y="255.606244" style="stroke: #000000; stroke-width: 0.8"/>
      </g>
     </g>
     <g id="text_17">
      <!-- 1.0 -->
      <g transform="translate(98.154018 259.405463) scale(0.1 -0.1)">
       <use xlink:href="#DejaVuSans-31"/>
       <use xlink:href="#DejaVuSans-2e" transform="translate(63.623047 0)"/>
       <use xlink:href="#DejaVuSans-30" transform="translate(95.410156 0)"/>
      </g>
     </g>
    </g>
    <g id="text_18">
     <!-- kernel -->
     <g transform="translate(80.876518 301.06154) rotate(-90) scale(0.1 -0.1)">
      <use xlink:href="#DejaVuSans-6b"/>
      <use xlink:href="#DejaVuSans-65" transform="translate(54.285156 0)"/>
      <use xlink:href="#DejaVuSans-72" transform="translate(115.808594 0)"/>
      <use xlink:href="#DejaVuSans-6e" transform="translate(155.171875 0)"/>
      <use xlink:href="#DejaVuSans-65" transform="translate(218.550781 0)"/>
      <use xlink:href="#DejaVuSans-6c" transform="translate(280.074219 0)"/>
     </g>
     <!-- activity -->
     <g transform="translate(92.07433 304.09904) rotate(-90) scale(0.1 -0.1)">
      <defs>
       <path id="DejaVuSans-79" d="M 2059 -325
Q 1816 -950 1584 -1140
Q 1353 -1331 966 -1331
L 506 -1331
L 506 -850
L 844 -850
Q 1081 -850 1212 -737
Q 1344 -625 1503 -206
L 1606 56
L 191 3500
L 800 3500
L 1894 763
L 2988 3500
L 3597 3500
L 2059 -325
z
" transform="scale(0.015625)"/>
      </defs>
      <use xlink:href="#DejaVuSans-61"/>
      <use xlink:href="#DejaVuSans-63" transform="translate(61.279297 0)"/>
      <use xlink:href="#DejaVuSans-74" transform="translate(116.259766 0)"/>
      <use xlink:href="#DejaVuSans-69" transform="translate(155.46875 0)"/>
      <use xlink:href="#DejaVuSans-76" transform="translate(183.251953 0)"/>
      <use xlink:href="#DejaVuSans-69" transform="translate(242.431641 0)"/>
      <use xlink:href="#DejaVuSans-74" transform="translate(270.214844 0)"/>
      <use xlink:href="#DejaVuSans-79" transform="translate(309.423828 0)"/>
     </g>
    </g>
   </g>
   <g id="patch_8">
    <path d="M 121.057143 318.657143
L 121.057143 252.68
" style="fill: none; stroke: #000000; stroke-width: 0.8; stroke-linejoin: miter; stroke-linecap: square"/>
   </g>
   <g id="patch_9">
    <path d="M 637.2 318.657143
L 637.2 252.68
" style="fill: none; stroke: #000000; stroke-width: 0.8; stroke-linejoin: miter; stroke-linecap: square"/>
   </g>
   <g id="patch_10">
    <path d="M 121.057143 318.657143
L 637.2 318.657143
" style="fill: none; stroke: #000000; stroke-width: 0.8; stroke-linejoin: miter; stroke-linecap: square"/>
   </g>
   <g id="patch_11">
    <path d="M 121.057143 252.68
L 637.2 252.68
" style="fill: none; stroke: #000000; stroke-width: 0.8; stroke-linejoin: miter; stroke-linecap: square"/>
   </g>
  </g>
 </g>
 <defs>
  <clipPath id="pb068cf786b">
   <rect x="121.057143" y="26.057143" width="516.142857" height="211.126858"/>
  </clipPath>
  <clipPath id="p20d89d31d6">
   <rect x="121.057143" y="252.68" width="516.142857" height="65.977143"/>
  </clipPath>
 </defs>
</svg>
