<?xml version="1.0" encoding="utf-8" standalone="no"?>
<!DOCTYPE svg PUBLIC "-//W3C//DTD SVG 1.1//EN"
  "http://www.w3.org/Graphics/SVG/1.1/DTD/svg11.dtd">
<svg xmlns:xlink="http://www.w3.org/1999/xlink" width="656.206641pt" height="303.757531pt" viewBox="0 0 656.206641 303.757531" xmlns="http://www.w3.org/2000/svg" version="1.1">
 <metadata>
  <rdf:RDF xmlns:dc="http://purl.org/dc/elements/1.1/" xmlns:cc="http://creativecommons.org/ns#" xmlns:rdf="http://www.w3.org/1999/02/22-rdf-syntax-ns#">
   <cc:Work>
    <dc:type rdf:resource="http://purl.org/dc/dcmitype/StillImage"/>
    <dc:date>2026-07-17T00:21:11.713114</dc:date>
    <dc:format>image/svg+xml</dc:format>
    <dc:creator>
     <cc:Agent>
      <dc:title>Matplotlib v3.11.0, https://matplotlib.org/</dc:title>
     </cc:Agent>
    </dc:creator>
   </cc:Work>
  </rdf:RDF>
 </metadata>
 <defs>
  <style type="text/css">*{stroke-linejoin: round; stroke-linecap: butt}</style>
 </defs>
 <g id="figure_1">
  <g id="patch_1">
   <path d="M 0 303.757531
L 656.206641 303.757531
L 656.206641 0
L 0 0
z
" style="fill: #ffffff"/>
  </g>
  <g id="axes_1">
   <g id="patch_2">
    <path d="M 35.206641 270.288
L 314.206641 270.288
L 314.206641 37.44
L 35.206641 37.44
z
" style="fill: #ffffff"/>
   </g>
   <g id="matplotlib.axis_1">
    <g id="xtick_1">
     <g id="line2d_1">
      <path d="M 47.761577 270.288
L 47.761577 37.44
" clip-path="url(#pbd79a47c8a)" style="fill: none; stroke: #cccccc; stroke-width: 0.8; stroke-linecap: round"/>
     </g>
     <g id="line2d_2"/>
     <g id="text_1">
      <text style="font-size: 10px; font-family: 'Arial', 'Liberation Sans', 'DejaVu Sans', 'Bitstream Vera Sans', sans-serif; text-anchor: middle; fill: #262626" x="47.761577" y="281.068273" transform="rotate(-0 47.761577 281.068273)">0</text>
     </g>
    </g>
    <g id="xtick_2">
     <g id="line2d_3">
      <path d="M 79.481983 270.288
L 79.481983 37.44
" clip-path="url(#pbd79a47c8a)" style="fill: none; stroke: #cccccc; stroke-width: 0.8; stroke-linecap: round"/>
     </g>
     <g id="line2d_4"/>
     <g id="text_2">
      <text style="font-size: 10px; font-family: 'Arial', 'Liberation Sans', 'DejaVu Sans', 'Bitstream Vera Sans', sans-serif; text-anchor: middle; fill: #262626" x="79.481983" y="281.068273" transform="rotate(-0 79.481983 281.068273)">2500</text>
     </g>
    </g>
    <g id="xtick_3">
     <g id="line2d_5">
      <path d="M 111.202388 270.288
L 111.202388 37.44
" clip-path="url(#pbd79a47c8a)" style="fill: none; stroke: #cccccc; stroke-width: 0.8; stroke-linecap: round"/>
     </g>
     <g id="line2d_6"/>
     <g id="text_3">
      <text style="font-size: 10px; font-family: 'Arial', 'Liberation Sans', 'DejaVu Sans', 'Bitstream Vera Sans', sans-serif; text-anchor: middle; fill: #262626" x="111.202388" y="281.068273" transform="rotate(-0 111.202388 281.068273)">5000</text>
     </g>
    </g>
    <g id="xtick_4">
     <g id="line2d_7">
      <path d="M 142.922794 270.288
L 142.922794 37.44
" clip-path="url(#pbd79a47c8a)" style="fill: none; stroke: #cccccc; stroke-width: 0.8; stroke-linecap: round"/>
     </g>
     <g id="line2d_8"/>
     <g id="text_4">
      <text style="font-size: 10px; font-family: 'Arial', 'Liberation Sans', 'DejaVu Sans', 'Bitstream Vera Sans', sans-serif; text-anchor: middle; fill: #262626" x="142.922794" y="281.068273" transform="rotate(-0 142.922794 281.068273)">7500</text>
     </g>
    </g>
    <g id="xtick_5">
     <g id="line2d_9">
      <path d="M 174.6432 270.288
L 174.6432 37.44
" clip-path="url(#pbd79a47c8a)" style="fill: none; stroke: #cccccc; stroke-width: 0.8; stroke-linecap: round"/>
     </g>
     <g id="line2d_10"/>
     <g id="text_5">
      <text style="font-size: 10px; font-family: 'Arial', 'Liberation Sans', 'DejaVu Sans', 'Bitstream Vera Sans', sans-serif; text-anchor: middle; fill: #262626" x="174.6432" y="281.068273" transform="rotate(-0 174.6432 281.068273)">10000</text>
     </g>
    </g>
    <g id="xtick_6">
     <g id="line2d_11">
      <path d="M 206.363605 270.288
L 206.363605 37.44
" clip-path="url(#pbd79a47c8a)" style="fill: none; stroke: #cccccc; stroke-width: 0.8; stroke-linecap: round"/>
     </g>
     <g id="line2d_12"/>
     <g id="text_6">
      <text style="font-size: 10px; font-family: 'Arial', 'Liberation Sans', 'DejaVu Sans', 'Bitstream Vera Sans', sans-serif; text-anchor: middle; fill: #262626" x="206.363605" y="281.068273" transform="rotate(-0 206.363605 281.068273)">12500</text>
     </g>
    </g>
    <g id="xtick_7">
     <g id="line2d_13">
      <path d="M 238.084011 270.288
L 238.084011 37.44
" clip-path="url(#pbd79a47c8a)" style="fill: none; stroke: #cccccc; stroke-width: 0.8; stroke-linecap: round"/>
     </g>
     <g id="line2d_14"/>
     <g id="text_7">
      <text style="font-size: 10px; font-family: 'Arial', 'Liberation Sans', 'DejaVu Sans', 'Bitstream Vera Sans', sans-serif; text-anchor: middle; fill: #262626" x="238.084011" y="281.068273" transform="rotate(-0 238.084011 281.068273)">15000</text>
     </g>
    </g>
    <g id="xtick_8">
     <g id="line2d_15">
      <path d="M 269.804417 270.288
L 269.804417 37.44
" clip-path="url(#pbd79a47c8a)" style="fill: none; stroke: #cccccc; stroke-width: 0.8; stroke-linecap: round"/>
     </g>
     <g id="line2d_16"/>
     <g id="text_8">
      <text style="font-size: 10px; font-family: 'Arial', 'Liberation Sans', 'DejaVu Sans', 'Bitstream Vera Sans', sans-serif; text-anchor: middle; fill: #262626" x="269.804417" y="281.068273" transform="rotate(-0 269.804417 281.068273)">17500</text>
     </g>
    </g>
    <g id="xtick_9">
     <g id="line2d_17">
      <path d="M 301.524822 270.288
L 301.524822 37.44
" clip-path="url(#pbd79a47c8a)" style="fill: none; stroke: #cccccc; stroke-width: 0.8; stroke-linecap: round"/>
     </g>
     <g id="line2d_18"/>
     <g id="text_9">
      <text style="font-size: 10px; font-family: 'Arial', 'Liberation Sans', 'DejaVu Sans', 'Bitstream Vera Sans', sans-serif; text-anchor: middle; fill: #262626" x="301.524822" y="281.068273" transform="rotate(-0 301.524822 281.068273)">20000</text>
     </g>
    </g>
    <g id="text_10">
     <text style="font-size: 10px; font-family: 'Arial', 'Liberation Sans', 'DejaVu Sans', 'Bitstream Vera Sans', sans-serif; text-anchor: middle; fill: #262626" x="174.706641" y="294.453039" transform="rotate(-0 174.706641 294.453039)">Optimizer step</text>
    </g>
   </g>
   <g id="matplotlib.axis_2">
    <g id="ytick_1">
     <g id="line2d_19">
      <path d="M 35.206641 258.008432
L 314.206641 258.008432
" clip-path="url(#pbd79a47c8a)" style="fill: none; stroke: #cccccc; stroke-width: 0.8; stroke-linecap: round"/>
     </g>
     <g id="line2d_20"/>
     <g id="text_11">
      <text style="font-size: 10px; font-family: 'Arial', 'Liberation Sans', 'DejaVu Sans', 'Bitstream Vera Sans', sans-serif; text-anchor: end; fill: #262626" x="31.706641" y="261.648569" transform="rotate(-0 31.706641 261.648569)">4</text>
     </g>
    </g>
    <g id="ytick_2">
     <g id="line2d_21">
      <path d="M 35.206641 224.980248
L 314.206641 224.980248
" clip-path="url(#pbd79a47c8a)" style="fill: none; stroke: #cccccc; stroke-width: 0.8; stroke-linecap: round"/>
     </g>
     <g id="line2d_22"/>
     <g id="text_12">
      <text style="font-size: 10px; font-family: 'Arial', 'Liberation Sans', 'DejaVu Sans', 'Bitstream Vera Sans', sans-serif; text-anchor: end; fill: #262626" x="31.706641" y="228.620385" transform="rotate(-0 31.706641 228.620385)">5</text>
     </g>
    </g>
    <g id="ytick_3">
     <g id="line2d_23">
      <path d="M 35.206641 191.952064
L 314.206641 191.952064
" clip-path="url(#pbd79a47c8a)" style="fill: none; stroke: #cccccc; stroke-width: 0.8; stroke-linecap: round"/>
     </g>
     <g id="line2d_24"/>
     <g id="text_13">
      <text style="font-size: 10px; font-family: 'Arial', 'Liberation Sans', 'DejaVu Sans', 'Bitstream Vera Sans', sans-serif; text-anchor: end; fill: #262626" x="31.706641" y="195.5922" transform="rotate(-0 31.706641 195.5922)">6</text>
     </g>
    </g>
    <g id="ytick_4">
     <g id="line2d_25">
      <path d="M 35.206641 158.923879
L 314.206641 158.923879
" clip-path="url(#pbd79a47c8a)" style="fill: none; stroke: #cccccc; stroke-width: 0.8; stroke-linecap: round"/>
     </g>
     <g id="line2d_26"/>
     <g id="text_14">
      <text style="font-size: 10px; font-family: 'Arial', 'Liberation Sans', 'DejaVu Sans', 'Bitstream Vera Sans', sans-serif; text-anchor: end; fill: #262626" x="31.706641" y="162.564016" transform="rotate(-0 31.706641 162.564016)">7</text>
     </g>
    </g>
    <g id="ytick_5">
     <g id="line2d_27">
      <path d="M 35.206641 125.895695
L 314.206641 125.895695
" clip-path="url(#pbd79a47c8a)" style="fill: none; stroke: #cccccc; stroke-width: 0.8; stroke-linecap: round"/>
     </g>
     <g id="line2d_28"/>
     <g id="text_15">
      <text style="font-size: 10px; font-family: 'Arial', 'Liberation Sans', 'DejaVu Sans', 'Bitstream Vera Sans', sans-serif; text-anchor: end; fill: #262626" x="31.706641" y="129.535832" transform="rotate(-0 31.706641 129.535832)">8</text>
     </g>
    </g>
    <g id="ytick_6">
     <g id="line2d_29">
      <path d="M 35.206641 92.867511
L 314.206641 92.867511
" clip-path="url(#pbd79a47c8a)" style="fill: none; stroke: #cccccc; stroke-width: 0.8; stroke-linecap: round"/>
     </g>
     <g id="line2d_30"/>
     <g id="text_16">
      <text style="font-size: 10px; font-family: 'Arial', 'Liberation Sans', 'DejaVu Sans', 'Bitstream Vera Sans', sans-serif; text-anchor: end; fill: #262626" x="31.706641" y="96.507648" transform="rotate(-0 31.706641 96.507648)">9</text>
     </g>
    </g>
    <g id="ytick_7">
     <g id="line2d_31">
      <path d="M 35.206641 59.839327
L 314.206641 59.839327
" clip-path="url(#pbd79a47c8a)" style="fill: none; stroke: #cccccc; stroke-width: 0.8; stroke-linecap: round"/>
     </g>
     <g id="line2d_32"/>
     <g id="text_17">
      <text style="font-size: 10px; font-family: 'Arial', 'Liberation Sans', 'DejaVu Sans', 'Bitstream Vera Sans', sans-serif; text-anchor: end; fill: #262626" x="31.706641" y="63.479464" transform="rotate(-0 31.706641 63.479464)">10</text>
     </g>
    </g>
    <g id="text_18">
     <text style="font-size: 10px; font-family: 'Arial', 'Liberation Sans', 'DejaVu Sans', 'Bitstream Vera Sans', sans-serif; text-anchor: middle; fill: #262626" x="14.480273" y="153.864" transform="rotate(-90 14.480273 153.864)">Cross-entropy loss</text>
    </g>
   </g>
   <g id="line2d_33">
    <path d="M 47.888459 48.024
L 48.01534 55.854687
L 48.649749 145.787222
L 49.284157 171.117026
L 50.29921 188.482733
L 50.426091 187.877402
L 50.933618 193.137827
L 51.187381 194.817653
L 51.441144 195.944751
L 51.694907 198.056779
L 51.821789 198.200395
L 52.075552 201.926435
L 52.202434 200.328236
L 52.329316 202.560256
L 52.456197 202.660971
L 52.583079 202.178861
L 52.70996 202.405254
L 52.963724 203.784573
L 53.217487 204.260116
L 53.344369 205.365054
L 53.47125 204.301552
L 53.598132 204.757849
L 53.851895 206.312014
L 53.978777 205.145402
L 54.105658 206.592568
L 54.23254 206.093512
L 54.486303 208.194217
L 54.613185 207.112587
L 54.866948 208.460911
L 54.99383 208.842322
L 55.120711 208.486519
L 55.374475 210.324766
L 55.501356 210.864896
L 55.628238 212.269949
L 55.755119 210.895748
L 55.882001 211.565383
L 56.135764 210.760291
L 56.262646 211.216478
L 56.516409 213.185836
L 56.643291 213.130005
L 57.023936 214.273923
L 57.150817 213.755259
L 57.277699 215.532777
L 57.404581 214.836495
L 57.531462 216.139431
L 57.785225 215.19014
L 57.912107 214.964724
L 58.038989 216.324435
L 58.16587 215.250081
L 58.292752 216.680522
L 58.419633 216.166661
L 58.546515 217.547728
L 58.800278 216.799128
L 58.92716 218.612003
L 59.054042 218.014704
L 59.180923 218.464828
L 59.307805 218.209457
L 59.561568 218.923488
L 59.68845 219.895079
L 59.815331 219.793687
L 59.942213 219.302725
L 60.069095 219.631739
L 60.195976 220.329612
L 60.449739 218.92374
L 60.703503 220.496316
L 60.830384 220.446029
L 60.957266 221.161934
L 61.084148 220.45603
L 61.211029 221.097741
L 61.337911 220.987938
L 61.464792 221.335363
L 61.591674 222.072608
L 61.718556 221.533644
L 61.845437 222.065978
L 61.972319 222.057646
L 62.099201 222.99922
L 62.226082 222.775205
L 62.352964 222.132596
L 62.479845 223.510766
L 62.733609 223.009189
L 62.86049 223.340487
L 62.987372 224.017082
L 63.114254 223.144332
L 63.241135 223.387529
L 63.494898 224.847814
L 63.62178 223.985521
L 63.748662 223.985064
L 64.002425 225.70639
L 64.129307 224.279777
L 64.256188 224.146933
L 64.509951 224.992327
L 64.636833 225.789104
L 64.763715 225.842399
L 64.890596 225.509212
L 65.017478 227.362058
L 65.271241 225.343406
L 65.398123 226.28353
L 65.525004 226.225432
L 65.651886 226.32914
L 65.778768 225.556065
L 65.905649 225.839974
L 66.032531 227.199622
L 66.159412 226.707054
L 66.286294 227.678582
L 66.413176 227.333993
L 66.540057 228.079554
L 66.666939 227.76536
L 66.793821 229.450289
L 66.920702 227.987831
L 67.047584 229.286326
L 67.174465 229.081446
L 67.301347 227.809772
L 67.428229 228.514984
L 67.55511 227.900314
L 67.681992 228.647103
L 67.808874 227.888171
L 68.062637 229.597842
L 68.189518 229.113039
L 68.3164 228.112942
L 68.443282 229.593417
L 68.570163 228.317191
L 68.697045 228.56116
L 68.950808 229.503206
L 69.07769 229.405184
L 69.204571 229.59611
L 69.458335 231.162323
L 69.585216 229.298815
L 69.712098 230.103057
L 69.83898 228.360926
L 69.965861 230.073606
L 70.092743 228.950209
L 70.346506 231.07879
L 70.473388 231.595769
L 70.600269 231.564286
L 70.727151 230.391532
L 70.854033 230.762801
L 70.980914 230.364286
L 71.234677 230.988784
L 71.361559 230.6996
L 71.615322 231.103327
L 71.742204 232.087533
L 71.869085 231.01077
L 71.995967 232.724756
L 72.24973 230.810064
L 72.376612 231.415914
L 72.503494 231.141644
L 72.630375 232.233086
L 72.757257 231.576996
L 72.884138 231.647709
L 73.264783 232.803832
L 73.391665 231.057623
L 73.645428 232.718126
L 73.77231 231.808302
L 74.152955 233.222679
L 74.406718 233.177936
L 74.5336 232.17661
L 74.660481 233.601554
L 74.787363 232.795485
L 74.914244 232.8759
L 75.041126 233.112057
L 75.168008 231.741747
L 75.421771 233.67033
L 75.548653 233.026634
L 75.675534 233.999706
L 75.802416 233.817332
L 75.929297 233.213954
L 76.056179 233.207197
L 76.309942 233.736618
L 76.436824 232.994412
L 76.690587 234.546955
L 76.817469 234.608171
L 76.94435 233.423479
L 77.198114 234.648977
L 77.324995 233.684489
L 77.451877 233.776841
L 77.578759 234.107524
L 77.832522 234.982936
L 77.959403 235.170429
L 78.086285 232.853206
L 78.213167 234.82039
L 78.593811 234.50922
L 78.720693 234.509535
L 78.847575 235.09255
L 78.974456 234.641827
L 79.22822 234.933531
L 79.355101 234.699642
L 79.481983 234.887371
L 79.608864 233.975736
L 79.735746 235.1283
L 79.862628 234.596674
L 79.989509 235.025616
L 80.116391 234.462114
L 80.243273 235.873183
L 80.497036 234.735424
L 80.623917 236.291116
L 80.750799 234.548325
L 81.004562 236.510028
L 81.131444 235.102235
L 81.258326 235.05272
L 81.385207 235.928793
L 81.512089 235.996231
L 81.765852 235.36167
L 82.019615 235.961441
L 82.146497 236.785275
L 82.40026 235.373655
L 82.527142 236.289132
L 82.654023 236.386855
L 82.780905 237.154732
L 82.907787 236.298392
L 83.034668 236.374697
L 83.16155 236.247665
L 83.288432 236.866068
L 83.415313 235.747585
L 83.542195 235.643326
L 83.669076 237.256487
L 83.92284 235.125418
L 84.176603 237.213319
L 84.303485 237.727037
L 84.430366 237.554349
L 84.557248 235.843937
L 84.684129 236.748469
L 84.811011 236.725932
L 84.937893 235.866096
L 85.064774 238.334573
L 85.572301 236.163155
L 85.826064 237.09287
L 85.952946 237.516425
L 86.079827 236.122507
L 86.206709 236.933789
L 86.460472 236.111199
L 86.714235 237.893946
L 86.841117 237.932909
L 86.967999 237.100209
L 87.09488 237.748976
L 87.221762 237.211807
L 87.475525 237.532757
L 87.602407 237.257337
L 87.729288 237.958501
L 87.85617 236.906621
L 87.983052 238.161097
L 88.109933 236.809198
L 88.236815 238.096794
L 88.363696 237.56509
L 88.490578 236.399438
L 88.61746 236.748312
L 88.744341 238.01482
L 88.998105 236.713491
L 89.124986 237.957824
L 89.251868 237.870984
L 89.378749 236.758454
L 89.505631 238.146293
L 89.759394 237.018345
L 90.013158 238.375033
L 90.140039 238.487954
L 90.266921 238.099849
L 90.393802 238.34059
L 90.520684 237.639929
L 90.647566 237.761764
L 91.028211 239.89192
L 91.155092 239.769235
L 91.281974 238.340511
L 91.408855 238.906753
L 91.535737 238.781516
L 91.662619 239.285313
L 91.7895 239.007232
L 91.916382 239.161667
L 92.043263 239.674409
L 92.170145 237.799578
L 92.297027 238.737324
L 92.423908 238.826653
L 92.55079 237.805295
L 92.804553 239.534101
L 92.931435 238.01975
L 93.438961 239.653006
L 93.565843 237.732943
L 93.692725 239.598042
L 93.819606 237.562979
L 94.073369 238.883476
L 94.200251 238.348291
L 94.327133 240.273252
L 94.454014 238.90165
L 94.580896 239.048274
L 94.707778 239.646801
L 94.834659 238.786887
L 95.088422 239.694316
L 95.342186 238.156152
L 95.469067 238.520948
L 95.722831 239.346986
L 95.849712 239.290479
L 95.976594 239.412124
L 96.103475 238.813172
L 96.230357 237.315357
L 96.48412 239.238019
L 96.611002 238.860923
L 96.737884 239.755564
L 96.864765 238.683541
L 97.24541 239.937718
L 97.372292 239.117633
L 97.499173 240.601636
L 97.626055 238.113016
L 97.752937 240.682098
L 98.0067 238.902611
L 98.133581 240.420017
L 98.260463 238.750553
L 98.387345 240.300734
L 98.514226 239.869367
L 98.641108 239.911575
L 98.767989 240.232399
L 98.894871 239.750131
L 99.021753 238.710047
L 99.275516 240.735062
L 99.529279 239.655747
L 99.656161 239.711672
L 99.783042 240.400646
L 99.909924 239.863508
L 100.036806 240.186553
L 100.163687 239.084323
L 100.417451 241.031884
L 100.544332 239.102372
L 100.671214 239.621918
L 100.798095 239.086969
L 100.924977 239.54229
L 101.051859 241.16857
L 101.17874 238.785516
L 101.305622 241.125576
L 101.559385 239.000412
L 101.813148 240.736826
L 101.94003 240.852676
L 102.066912 239.330261
L 102.320675 240.437467
L 102.574438 240.399008
L 102.70132 241.586692
L 102.828201 241.214369
L 103.081965 239.737421
L 103.335728 240.907514
L 103.46261 241.301776
L 103.589491 239.206284
L 103.716373 240.394126
L 103.843254 240.058151
L 103.970136 240.368297
L 104.097018 240.26774
L 104.223899 239.729626
L 104.477662 240.781758
L 104.604544 241.048011
L 104.731426 240.437751
L 104.985189 241.348015
L 105.112071 240.549963
L 105.238952 240.957659
L 105.619597 240.441436
L 105.746479 241.623498
L 105.87336 241.362788
L 106.000242 240.714793
L 106.127124 241.601938
L 106.254005 240.754087
L 106.380887 240.69487
L 106.507768 240.978527
L 106.63465 240.737471
L 106.761532 241.880743
L 107.015295 240.403701
L 107.269058 241.269742
L 107.39594 241.654618
L 107.522821 241.211518
L 107.649703 241.455928
L 107.776585 240.94443
L 107.903466 241.878255
L 108.030348 240.439861
L 108.15723 241.024404
L 108.284111 240.569555
L 108.410993 240.787286
L 108.537874 240.391984
L 108.664756 240.462288
L 108.791638 241.186603
L 108.918519 241.191926
L 109.045401 240.865401
L 109.172283 240.862881
L 109.299164 242.082221
L 109.552927 240.911341
L 109.679809 241.344283
L 109.806691 240.872567
L 109.933572 242.362129
L 110.060454 241.451959
L 110.187336 241.597544
L 110.314217 240.988748
L 110.441099 241.665076
L 110.56798 240.974133
L 110.694862 241.639058
L 110.821744 241.24193
L 110.948625 241.415248
L 111.075507 240.823493
L 111.202388 241.572723
L 111.456152 240.413371
L 111.709915 242.506517
L 111.963678 241.684919
L 112.344323 241.552863
L 112.471205 242.111751
L 112.598086 241.181296
L 112.724968 241.513995
L 112.85185 242.483869
L 112.978731 241.886192
L 113.232494 242.496988
L 113.359376 241.717677
L 113.486258 241.944952
L 113.613139 243.009794
L 113.740021 241.142333
L 113.866903 243.140275
L 113.993784 241.562785
L 114.374429 242.140256
L 114.501311 241.199108
L 114.628192 241.412335
L 114.881956 241.422729
L 115.008837 242.513478
L 115.135719 241.907958
L 115.2626 242.459852
L 115.389482 241.374852
L 115.516364 242.741587
L 115.643245 242.027619
L 115.770127 242.139563
L 116.02389 243.037953
L 116.150772 241.629735
L 116.277653 242.728641
L 116.531417 241.787745
L 116.658298 241.971474
L 116.912062 241.968151
L 117.038943 242.756108
L 117.165825 242.703506
L 117.292706 242.027682
L 117.419588 243.310884
L 117.673351 241.612379
L 117.800233 243.823784
L 118.180878 240.703611
L 118.307759 242.288518
L 118.434641 241.651153
L 118.561523 241.882413
L 118.688404 242.415141
L 118.815286 243.486297
L 119.069049 242.885408
L 119.195931 242.767699
L 119.322812 241.701802
L 119.576576 242.033178
L 119.703457 241.662871
L 119.830339 242.814757
L 120.084102 242.113735
L 120.210984 242.362224
L 120.464747 243.249935
L 120.591629 241.839985
L 120.71851 241.716811
L 120.845392 242.208938
L 120.972273 241.697975
L 121.226037 242.756108
L 121.352918 242.866745
L 121.4798 242.228199
L 121.606682 242.534109
L 121.733563 243.272441
L 121.860445 241.98842
L 121.987326 244.008017
L 122.114208 241.743096
L 122.24109 243.153913
L 122.367971 242.890668
L 122.494853 243.17034
L 122.875498 241.747538
L 123.002379 243.895269
L 123.129261 241.858033
L 123.256143 242.921126
L 123.383024 242.503745
L 123.636788 243.538584
L 123.763669 242.86043
L 123.890551 244.059752
L 124.017432 243.533025
L 124.144314 241.258435
L 124.271196 243.038126
L 124.398077 241.860899
L 124.524959 243.936122
L 124.778722 243.444846
L 124.905604 242.852744
L 125.159367 244.135285
L 125.286249 243.709666
L 125.41313 244.281373
L 125.540012 242.26332
L 125.666893 243.66738
L 125.793775 242.531983
L 125.920657 243.988315
L 126.047538 242.924544
L 126.301302 244.429351
L 126.428183 242.61687
L 126.555065 243.614495
L 126.808828 243.539325
L 126.93571 243.365597
L 127.062591 243.388811
L 127.316355 243.863976
L 127.570118 242.623926
L 127.696999 244.081644
L 127.823881 242.622241
L 127.950763 243.146622
L 128.077644 244.147238
L 128.204526 243.693555
L 128.331408 243.72729
L 128.585171 242.610303
L 128.712052 242.697364
L 128.965816 243.893521
L 129.092697 243.496361
L 129.219579 242.40125
L 129.346461 243.79668
L 129.600224 242.696891
L 129.980869 243.539041
L 130.10775 244.273499
L 130.234632 243.239951
L 130.361514 244.30569
L 130.488395 243.059655
L 130.615277 244.264112
L 130.86904 242.633297
L 130.995922 244.084179
L 131.249685 243.294112
L 131.376566 244.887964
L 131.63033 243.700485
L 131.757211 243.63163
L 132.010975 244.272003
L 132.137856 242.861012
L 132.391619 243.857834
L 132.518501 245.220774
L 132.899146 243.47899
L 133.152909 244.533106
L 133.279791 243.563767
L 133.406672 244.464377
L 133.533554 244.062209
L 133.660436 244.10585
L 133.787317 243.986362
L 134.041081 244.769831
L 134.167962 244.400562
L 134.294844 243.538836
L 134.421725 245.041108
L 134.80237 244.027388
L 134.929252 243.986362
L 135.056134 244.905902
L 135.183015 244.05854
L 135.309897 245.059125
L 135.56366 243.438688
L 135.690542 245.370689
L 135.944305 243.806712
L 136.071187 244.049468
L 136.198068 244.70548
L 136.32495 244.438297
L 136.451831 243.327673
L 136.705595 245.166282
L 136.959358 244.453022
L 137.08624 244.324337
L 137.213121 243.948092
L 137.340003 244.7263
L 137.466884 244.470535
L 137.593766 243.635347
L 137.974411 244.57418
L 138.101292 243.626259
L 138.355056 244.7655
L 138.481937 244.675541
L 138.608819 244.375852
L 138.735701 245.273029
L 139.116345 243.436971
L 139.243227 244.580842
L 139.370109 243.95562
L 139.49699 245.296621
L 139.750754 244.380514
L 139.877635 244.656768
L 140.004517 243.434767
L 140.25828 244.92214
L 140.385162 244.925888
L 140.512043 245.10486
L 140.638925 244.084636
L 140.765807 244.204423
L 140.892688 245.439371
L 141.01957 244.16168
L 141.146451 244.075627
L 141.273333 244.455873
L 141.400215 245.539456
L 141.527096 244.576164
L 141.907741 245.815143
L 142.034623 244.500348
L 142.288386 245.118279
L 142.415268 246.239329
L 142.542149 243.931429
L 142.669031 244.386451
L 142.795913 244.425414
L 142.922794 244.324116
L 143.303439 245.035817
L 143.430321 243.951966
L 143.557202 244.860545
L 143.684084 244.932896
L 143.810966 244.840528
L 143.937847 244.493765
L 144.064729 246.318609
L 144.318492 244.117048
L 144.445374 244.547501
L 144.572255 246.133495
L 144.826018 245.998636
L 144.9529 246.322657
L 145.079782 245.38469
L 145.333545 245.631478
L 145.587308 243.872701
L 145.71419 245.693749
L 145.967953 244.880216
L 146.094835 244.694707
L 146.348598 246.350391
L 146.47548 245.238349
L 146.602361 245.409306
L 146.729243 245.327867
L 146.856124 244.500348
L 146.983006 244.896705
L 147.109888 244.649996
L 147.236769 246.241565
L 147.363651 245.089552
L 147.744296 247.061776
L 147.871177 244.901823
L 148.124941 246.187278
L 148.378704 244.93666
L 148.505586 245.21723
L 148.632467 245.819726
L 148.759349 245.574734
L 148.88623 244.590559
L 149.013112 244.823708
L 149.139994 244.248001
L 149.393757 246.59384
L 149.520639 246.268842
L 149.64752 245.613744
L 149.774402 245.996824
L 149.901283 245.546212
L 150.028165 245.880848
L 150.155047 245.864958
L 150.281928 246.93802
L 150.40881 245.405746
L 150.535692 245.695104
L 150.662573 245.518699
L 150.789455 244.953181
L 150.916336 246.384094
L 151.043218 245.353601
L 151.1701 246.560515
L 151.296981 246.075948
L 151.423863 245.011043
L 151.677626 245.893038
L 151.804508 246.501944
L 151.931389 245.179763
L 152.058271 246.854849
L 152.312034 245.332529
L 152.438916 245.938096
L 152.692679 245.904409
L 152.819561 245.656487
L 152.946442 245.871147
L 153.200206 245.232743
L 153.327087 246.360596
L 153.453969 246.116832
L 153.707732 244.954646
L 153.961495 246.660758
L 154.088377 245.104797
L 154.215259 246.82406
L 154.34214 245.385052
L 154.469022 245.599854
L 154.595903 244.520271
L 154.849667 246.234824
L 155.10343 245.731358
L 155.230312 245.779787
L 155.357193 245.079473
L 155.484075 246.069207
L 155.610956 246.016763
L 155.737838 246.181167
L 155.86472 246.13844
L 155.991601 245.543157
L 156.118483 247.090345
L 156.245365 245.69775
L 156.372246 246.79368
L 156.499128 245.574466
L 156.626009 246.452791
L 156.752891 245.318433
L 156.879773 247.200053
L 157.006654 246.587084
L 157.133536 246.990134
L 157.260418 245.887479
L 157.387299 245.929025
L 157.514181 246.180837
L 157.641062 246.906553
L 157.767944 246.945737
L 157.894826 246.449201
L 158.021707 246.577052
L 158.148589 246.122723
L 158.27547 247.531854
L 158.402352 246.595068
L 158.529234 246.839022
L 158.782997 245.472885
L 158.909879 246.962463
L 159.03676 246.029598
L 159.163642 247.228748
L 159.290523 244.650673
L 159.544287 246.731849
L 159.671168 247.159641
L 159.79805 246.839667
L 160.051813 245.751375
L 160.178695 246.056734
L 160.305576 245.688977
L 160.55934 247.181091
L 160.686221 246.152929
L 160.813103 247.243001
L 160.939985 247.20966
L 161.066866 245.523581
L 161.193748 245.974729
L 161.320629 245.596294
L 161.447511 247.060343
L 161.574393 245.835397
L 161.701274 247.419343
L 161.828156 247.223866
L 161.955038 247.597937
L 162.081919 245.49413
L 162.208801 246.601494
L 162.335682 246.453626
L 162.462564 246.837226
L 162.589446 245.723074
L 162.843209 246.412836
L 162.970091 245.664929
L 163.096972 247.363969
L 163.223854 245.639478
L 163.350735 246.778844
L 163.477617 246.409938
L 163.604499 246.845258
L 163.73138 247.815117
L 163.985144 246.094689
L 164.112025 246.978527
L 164.238907 246.314893
L 164.365788 247.104393
L 164.619552 246.401733
L 164.746433 246.935989
L 164.873315 246.626157
L 165.127078 247.617608
L 165.380841 246.44287
L 165.507723 247.149136
L 165.634605 247.1283
L 165.761486 247.38101
L 165.888368 246.931374
L 166.015249 248.215584
L 166.269013 246.252495
L 166.395894 246.359746
L 166.522776 246.813288
L 166.649658 246.448224
L 166.903421 247.40435
L 167.030302 246.534765
L 167.157184 246.612392
L 167.284066 246.946698
L 167.410947 245.99588
L 167.537829 247.544958
L 167.664711 247.397704
L 167.791592 248.218451
L 168.045355 246.501409
L 168.299119 247.606442
L 168.426 246.340595
L 168.679764 248.577624
L 168.806645 247.550375
L 168.933527 247.88772
L 169.18729 247.13019
L 169.314172 247.662997
L 169.441053 246.53508
L 169.694817 247.444809
L 169.821698 246.025929
L 169.94858 247.60997
L 170.075461 246.650852
L 170.329225 247.534894
L 170.456106 246.607069
L 170.836751 247.886712
L 170.963633 246.789191
L 171.090514 247.120505
L 171.217396 246.73722
L 171.344278 246.801602
L 171.471159 247.116174
L 171.598041 247.76135
L 171.724922 247.517712
L 171.851804 246.850266
L 171.978686 247.237441
L 172.105567 246.968762
L 172.232449 247.490986
L 172.359331 247.063083
L 172.613094 247.692038
L 172.739975 248.058755
L 172.866857 247.003946
L 173.12062 248.411865
L 173.247502 246.859338
L 173.374384 247.059855
L 173.501265 247.587953
L 173.755028 247.202447
L 174.008792 248.105435
L 174.135673 247.079431
L 174.262555 249.005605
L 174.6432 246.963597
L 174.896963 248.069354
L 175.023845 247.726859
L 175.150726 246.70832
L 175.40449 248.502422
L 175.658253 247.468464
L 175.785134 248.375012
L 175.912016 248.103797
L 176.038898 247.517743
L 176.165779 247.491915
L 176.419543 249.229919
L 176.546424 247.050626
L 176.673306 247.472323
L 176.800187 247.259222
L 176.927069 248.660228
L 177.180832 248.208356
L 177.307714 246.329429
L 177.561477 248.129138
L 177.688359 247.543808
L 177.81524 248.720043
L 177.942122 248.108475
L 178.069004 248.418684
L 178.195885 247.774878
L 178.322767 247.804628
L 178.449648 248.266611
L 178.57653 246.972495
L 178.703412 248.293526
L 178.830293 247.547351
L 178.957175 249.118919
L 179.084057 248.556662
L 179.210938 248.660684
L 179.464701 247.720434
L 179.591583 249.281103
L 179.718465 247.850238
L 179.845346 248.082804
L 179.972228 249.381047
L 180.225991 248.420448
L 180.352873 248.036754
L 180.479754 248.653944
L 180.606636 248.69612
L 180.733518 247.520909
L 180.860399 248.582112
L 180.987281 248.434701
L 181.114163 248.669882
L 181.241044 248.426102
L 181.367926 248.521258
L 181.494807 247.68692
L 181.621689 247.772295
L 181.748571 249.499385
L 181.875452 248.969177
L 182.002334 247.733395
L 182.382979 249.781451
L 182.763624 248.266942
L 182.890505 248.273604
L 183.017387 249.149567
L 183.27115 247.493742
L 183.651795 249.678074
L 184.03244 247.416036
L 184.286203 248.522723
L 184.413085 247.959851
L 184.539966 248.306897
L 184.920611 247.112803
L 185.174374 249.100241
L 185.301256 249.786711
L 185.428138 247.815023
L 185.555019 248.706152
L 185.808783 248.27099
L 185.935664 249.942091
L 186.189427 248.789654
L 186.443191 248.881864
L 186.570072 248.788693
L 186.696954 248.88199
L 186.823836 249.623267
L 187.077599 248.592759
L 187.20448 248.767542
L 187.331362 247.903973
L 187.585125 249.211004
L 187.838889 248.184149
L 188.092652 249.992299
L 188.346415 248.503477
L 188.473297 249.776222
L 188.600178 248.40177
L 188.853942 249.121502
L 188.980823 249.688862
L 189.234586 247.781414
L 189.48835 249.429774
L 189.742113 248.295401
L 190.122758 249.564193
L 190.376521 248.97102
L 190.630284 249.968739
L 190.757166 250.371553
L 191.010929 248.797213
L 191.137811 248.49617
L 191.264692 248.610492
L 191.518456 249.900419
L 191.645337 248.542456
L 191.772219 249.04756
L 191.8991 249.036835
L 192.025982 248.15862
L 192.152864 249.101753
L 192.279745 249.087972
L 192.406627 249.92809
L 192.533509 249.507055
L 193.041035 249.52619
L 193.167917 248.98102
L 193.294798 250.024727
L 193.42168 249.007164
L 193.548562 249.418529
L 193.675443 249.049119
L 193.802325 250.136718
L 193.929206 249.683555
L 194.056088 249.733904
L 194.18297 249.622385
L 194.309851 249.323972
L 194.436733 249.413065
L 194.563615 248.583703
L 194.817378 249.690437
L 194.944259 247.803368
L 195.071141 250.268963
L 195.198023 249.43757
L 195.324904 250.711528
L 195.451786 249.679995
L 195.705549 251.203166
L 195.959312 249.355958
L 196.213076 250.040035
L 196.339957 249.892403
L 196.466839 250.318699
L 196.593721 248.294487
L 196.720602 249.907176
L 196.847484 249.808476
L 196.974365 250.225779
L 197.228129 249.879457
L 197.35501 250.424328
L 197.481892 249.908656
L 197.608774 250.019152
L 197.735655 249.962313
L 197.862537 250.625648
L 198.1163 250.123332
L 198.243182 250.102779
L 198.370063 249.967967
L 198.496945 250.407744
L 198.750708 250.369017
L 198.87759 249.623094
L 199.004471 250.502947
L 199.131353 250.197147
L 199.258235 250.686896
L 199.385116 250.427509
L 199.511998 250.703055
L 199.765761 250.059579
L 199.892643 251.290274
L 200.146406 249.334335
L 200.273288 250.54254
L 200.527051 250.041169
L 200.653932 250.044964
L 200.780814 249.460138
L 200.907696 249.51304
L 201.034577 250.941905
L 201.161459 250.759452
L 201.288341 250.048272
L 201.415222 250.715874
L 201.542104 250.701464
L 201.795867 249.515402
L 201.922749 249.83495
L 202.04963 249.613156
L 202.176512 250.73564
L 202.430275 249.684311
L 202.557157 250.957938
L 202.684038 250.957969
L 202.81092 251.104624
L 202.937802 249.650088
L 203.318447 251.00698
L 203.445328 250.738128
L 203.825973 249.570335
L 204.079736 251.044715
L 204.3335 250.191998
L 204.460381 251.239011
L 204.587263 250.083927
L 204.714144 250.161129
L 204.841026 250.732852
L 204.967908 249.707714
L 205.094789 250.704126
L 205.221671 249.703414
L 205.348552 250.562085
L 205.475434 250.013876
L 205.729197 250.119032
L 205.856079 249.206799
L 205.982961 249.698107
L 206.109842 251.063362
L 206.236724 250.963544
L 206.363605 249.773183
L 206.490487 249.783073
L 206.617369 251.89192
L 206.74425 250.97334
L 206.871132 251.606768
L 207.124895 251.64803
L 207.251777 250.598638
L 207.378658 251.744462
L 207.632422 250.438392
L 207.886185 251.843508
L 208.013067 250.443416
L 208.139948 251.392328
L 208.26683 250.064304
L 208.393711 250.335566
L 208.520593 251.890692
L 208.647475 251.139603
L 208.774356 251.673733
L 208.901238 251.334293
L 209.02812 251.411794
L 209.155001 251.032131
L 209.408764 251.123082
L 209.535646 250.84445
L 209.662528 251.056212
L 209.789409 250.252568
L 209.916291 251.750336
L 210.043173 251.32308
L 210.170054 251.926017
L 210.550699 250.98964
L 210.677581 251.53859
L 210.804462 251.459687
L 210.931344 252.117037
L 211.058226 251.806466
L 211.185107 250.183588
L 211.311989 251.087647
L 211.565752 250.901241
L 211.692634 251.179354
L 211.946397 250.71463
L 212.073278 251.535598
L 212.327042 250.897571
L 212.453923 251.694537
L 212.707687 250.982553
L 212.96145 251.491311
L 213.215213 251.528967
L 213.342095 251.477121
L 213.468976 251.805143
L 213.72274 250.404689
L 213.849621 251.409416
L 213.976503 250.744821
L 214.103384 252.324736
L 214.357148 251.091364
L 214.484029 251.109428
L 214.737793 252.159182
L 214.864674 251.130957
L 215.245319 252.026449
L 215.372201 250.628688
L 215.499082 252.246794
L 215.625964 251.956161
L 215.752846 252.110895
L 215.879727 251.129382
L 216.006609 251.514856
L 216.13349 251.065567
L 216.260372 251.054086
L 216.387254 252.177766
L 216.641017 251.447702
L 216.767899 251.748446
L 216.89478 251.453261
L 217.148543 253.124174
L 217.275425 251.760132
L 217.65607 252.275221
L 217.909833 250.814968
L 218.163596 252.794751
L 218.41736 251.780826
L 218.544241 252.720353
L 218.671123 252.666239
L 218.924886 252.190444
L 219.178649 252.982086
L 219.305531 251.319379
L 219.432413 252.297915
L 219.559294 252.320436
L 219.686176 253.101622
L 219.813057 251.556906
L 219.939939 251.39099
L 220.066821 252.25418
L 220.193702 251.959074
L 220.320584 252.389638
L 220.447466 251.518841
L 220.574347 251.998904
L 220.701229 251.508871
L 220.82811 251.727909
L 220.954992 250.888264
L 221.208755 252.021267
L 221.335637 251.147982
L 221.5894 252.768986
L 221.716282 251.534448
L 221.843163 251.564655
L 221.970045 252.404741
L 222.096927 252.369841
L 222.223808 252.925579
L 222.35069 252.840597
L 222.477572 253.109228
L 222.731335 252.755504
L 223.11198 251.516636
L 223.365743 252.631811
L 223.619506 251.924993
L 223.746388 252.079586
L 223.873269 251.279439
L 224.000151 252.577619
L 224.127033 252.616802
L 224.253914 250.816243
L 224.507678 253.022152
L 224.888322 252.230746
L 225.015204 253.227819
L 225.142086 252.565697
L 225.268967 252.743614
L 225.395849 251.427433
L 225.776494 253.487112
L 225.903375 252.485219
L 226.030257 252.949659
L 226.157139 252.346596
L 226.28402 252.852503
L 226.410902 252.84129
L 226.537783 252.25481
L 226.664665 253.61849
L 226.791547 253.251836
L 227.04531 252.250085
L 227.172192 253.210416
L 227.299073 252.181482
L 227.425955 254.465821
L 227.679718 252.177073
L 228.060363 253.361591
L 228.187245 253.071872
L 228.314126 252.040339
L 228.441008 253.439864
L 228.694771 252.276859
L 228.821653 254.063307
L 229.202298 252.364928
L 229.329179 252.42753
L 229.582942 253.293241
L 229.709824 253.754751
L 229.963587 251.932789
L 230.217351 253.327306
L 230.344232 252.07798
L 230.471114 252.105131
L 230.597995 253.513853
L 230.724877 253.147562
L 230.851759 253.505002
L 230.97864 253.447298
L 231.105522 253.68881
L 231.232404 253.295855
L 231.359285 251.888786
L 231.486167 253.6658
L 231.613048 253.088125
L 231.866812 253.741711
L 231.993693 253.038468
L 232.247456 253.72834
L 232.50122 252.901514
L 232.628101 253.512515
L 232.754983 253.348598
L 232.881865 253.765917
L 233.008746 254.720326
L 233.135628 254.547496
L 233.389391 252.24262
L 233.516273 253.952307
L 233.643154 252.787853
L 233.896918 254.613611
L 234.023799 252.99341
L 234.150681 253.097716
L 234.277562 252.866803
L 234.404444 254.199064
L 234.531326 253.413957
L 234.658207 254.842476
L 234.785089 253.451834
L 235.038852 254.623848
L 235.292615 253.24319
L 235.419497 253.843907
L 235.546379 253.786218
L 235.67326 254.234972
L 235.927024 253.18495
L 236.053905 253.161216
L 236.180787 253.924022
L 236.307668 253.911754
L 236.43455 253.462874
L 236.561432 253.875924
L 236.815195 253.029869
L 236.942077 253.417154
L 237.068958 253.079053
L 237.576485 254.046156
L 237.703366 253.481284
L 237.830248 254.883361
L 237.95713 254.429945
L 238.084011 252.656663
L 238.210893 254.106806
L 238.591538 253.163704
L 239.099064 255.059152
L 239.352827 253.383971
L 239.479709 254.024816
L 239.733472 252.873622
L 239.987235 254.466861
L 240.114117 252.983929
L 240.240999 254.822459
L 240.36788 253.861561
L 240.494762 254.771574
L 240.621644 253.360851
L 240.875407 254.088663
L 241.002288 252.986212
L 241.382933 254.620761
L 241.636697 253.793179
L 241.763578 253.774154
L 242.017341 255.153268
L 242.144223 254.490878
L 242.271105 255.339139
L 242.397986 253.328329
L 242.524868 254.400857
L 242.65175 253.778579
L 242.778631 254.235365
L 242.905513 253.147089
L 243.032394 254.925899
L 243.159276 254.034392
L 243.286158 254.415645
L 243.413039 253.877736
L 243.539921 254.32093
L 243.666803 255.593974
L 243.793684 253.941551
L 243.920566 254.256343
L 244.174329 253.420997
L 244.301211 253.629452
L 244.428092 254.058582
L 244.554974 253.744089
L 244.681856 255.234864
L 244.935619 253.934983
L 245.189382 255.035512
L 245.316264 255.097453
L 245.443145 253.187344
L 245.696908 254.599295
L 245.82379 254.61402
L 245.950672 254.13769
L 246.077553 255.307546
L 246.204435 255.057026
L 246.331317 255.451555
L 246.458198 254.358444
L 246.58508 255.731936
L 246.711961 254.408589
L 246.965725 255.075594
L 247.092606 255.136842
L 247.219488 254.960153
L 247.727014 255.390512
L 247.853896 254.878037
L 247.980778 255.762348
L 248.107659 255.063325
L 248.361423 255.296081
L 248.488304 255.550066
L 248.742067 254.020044
L 248.868949 254.965539
L 248.995831 254.252878
L 249.122712 255.309987
L 249.249594 254.515872
L 249.376476 254.481618
L 249.75712 255.154796
L 249.884002 253.926668
L 250.010884 255.355833
L 250.264647 254.080095
L 250.391529 254.914764
L 250.645292 253.936165
L 250.772173 255.251968
L 251.025937 254.566883
L 251.152818 254.53003
L 251.2797 254.614792
L 251.406582 255.019102
L 251.533463 256.166311
L 251.914108 254.063433
L 252.04099 255.911664
L 252.167871 254.887865
L 252.421634 255.099847
L 252.548516 254.735808
L 252.675398 254.725272
L 252.802279 255.059104
L 252.929161 254.00587
L 253.056043 255.247133
L 253.182924 255.252346
L 253.436687 255.448847
L 253.817332 254.645172
L 254.071096 255.117864
L 254.197977 255.855613
L 254.45174 254.745367
L 254.578622 255.681634
L 254.705504 255.721935
L 254.832385 254.876211
L 255.086149 255.9039
L 255.21303 255.538081
L 255.466793 254.168763
L 255.847438 256.181556
L 255.97432 256.257939
L 256.101202 255.372983
L 256.228083 255.464076
L 256.354965 254.18133
L 256.481846 255.65023
L 256.608728 255.497259
L 256.73561 255.778994
L 256.989373 255.374763
L 257.116255 255.511087
L 257.243136 256.407697
L 257.623781 255.324539
L 257.750663 256.150373
L 258.004426 254.772409
L 258.258189 255.644261
L 258.385071 255.995796
L 258.511952 255.714045
L 258.638834 257.316544
L 258.765716 255.651458
L 258.892597 256.432108
L 259.14636 255.880292
L 259.273242 255.074161
L 259.400124 255.015606
L 259.653887 256.237198
L 260.034532 255.303593
L 260.161413 255.347612
L 260.288295 255.25129
L 260.415177 256.701354
L 260.542058 255.113297
L 260.66894 255.889442
L 260.795822 255.743212
L 260.922703 256.464488
L 261.049585 256.285468
L 261.176466 256.394924
L 261.303348 256.184517
L 261.43023 254.613091
L 261.557111 255.818162
L 261.683993 255.410261
L 261.937756 256.013986
L 262.191519 254.43026
L 262.445283 255.751213
L 262.699046 255.615298
L 262.825928 256.72397
L 262.952809 255.528474
L 263.079691 256.853537
L 263.206572 255.533073
L 263.333454 255.889742
L 263.460336 255.851582
L 263.587217 256.359521
L 263.714099 255.983008
L 263.840981 256.265467
L 263.967862 257.550355
L 264.094744 255.967999
L 264.348507 256.305092
L 264.475389 254.764187
L 264.729152 256.687306
L 264.982915 255.034284
L 265.109797 256.090306
L 265.236678 256.098322
L 265.36356 255.415506
L 265.617323 256.872562
L 265.997968 255.944958
L 266.12485 254.753336
L 266.251731 256.557833
L 266.505495 254.702341
L 266.632376 256.840733
L 266.759258 255.170403
L 266.886139 256.946504
L 267.139903 255.892844
L 267.266784 256.485828
L 267.393666 255.085705
L 267.520548 257.028525
L 267.647429 255.124684
L 267.901192 257.128091
L 268.154956 255.993701
L 268.281837 256.255215
L 268.408719 255.731794
L 268.535601 256.5009
L 268.789364 255.995717
L 268.916245 256.254632
L 269.043127 255.987228
L 269.170009 257.777582
L 269.29689 256.778241
L 269.423772 257.116421
L 269.677535 256.014742
L 269.804417 255.866197
L 269.931298 256.649177
L 270.185062 255.662073
L 270.438825 257.462711
L 270.565707 256.946835
L 270.692588 255.11158
L 270.946351 256.431116
L 271.073233 256.381459
L 271.200115 256.910596
L 271.453878 256.227213
L 271.58076 255.798287
L 271.707641 255.789452
L 271.834523 256.545092
L 271.961404 256.439069
L 272.088286 256.088133
L 272.342049 257.100042
L 272.468931 257.306291
L 272.595812 255.932737
L 272.849576 256.756208
L 272.976457 255.967621
L 273.103339 256.690314
L 273.230221 255.388575
L 273.357102 256.606119
L 273.483984 256.104449
L 273.610865 256.433163
L 273.864629 255.777876
L 273.99151 256.335299
L 274.118392 256.10059
L 274.245274 257.317993
L 274.372155 256.428612
L 274.499037 257.677339
L 274.625918 256.496254
L 274.7528 257.242177
L 275.006563 256.26983
L 275.133445 258.176238
L 275.387208 256.081849
L 275.51409 256.370986
L 275.767853 257.6025
L 275.894735 257.01117
L 276.021616 255.815894
L 276.27538 257.537362
L 276.529143 256.720174
L 276.656024 257.150691
L 276.782906 257.995313
L 277.036669 256.451542
L 277.290433 257.842705
L 277.417314 256.738349
L 277.544196 257.105333
L 277.671077 256.757405
L 277.797959 257.758998
L 277.924841 256.777186
L 278.051722 257.943719
L 278.178604 257.033313
L 278.305486 257.089112
L 278.432367 255.815327
L 278.68613 256.464677
L 278.813012 257.183732
L 278.939894 256.910927
L 279.066775 255.670609
L 279.193657 257.31456
L 279.320538 256.517058
L 279.44742 256.789927
L 279.574302 255.968944
L 279.701183 257.424441
L 279.954947 256.347614
L 280.081828 256.369175
L 280.20871 257.353743
L 280.335591 256.407571
L 280.589355 257.531424
L 280.716236 257.079836
L 280.97 258.030654
L 281.096881 257.6723
L 281.223763 258.131802
L 281.350644 257.001578
L 281.477526 257.2106
L 281.858171 255.739149
L 281.985053 257.228759
L 282.111934 256.485324
L 282.238816 256.501876
L 282.365697 257.909244
L 282.492579 256.294745
L 282.619461 256.73208
L 282.746342 256.451842
L 282.873224 257.16392
L 283.000106 256.986727
L 283.253869 257.139399
L 283.507632 257.155904
L 283.761395 257.693592
L 284.14204 256.877665
L 284.268922 258.117014
L 284.395803 256.482804
L 284.522685 256.503861
L 284.649567 257.214569
L 284.776448 256.611758
L 284.90333 256.597568
L 285.030212 257.120783
L 285.157093 256.745672
L 285.283975 256.967655
L 285.410856 256.953308
L 285.537738 257.313599
L 285.66462 256.768366
L 285.791501 258.422239
L 285.918383 256.882027
L 286.045264 257.586074
L 286.172146 257.02254
L 286.299028 257.618406
L 286.552791 256.419871
L 286.806554 257.853272
L 287.060317 257.118452
L 287.440962 258.450839
L 287.567844 256.2672
L 287.821607 258.126109
L 287.948489 256.343992
L 288.07537 257.728036
L 288.329134 257.251233
L 288.456015 257.391053
L 288.582897 258.077122
L 288.709779 257.869368
L 288.83666 257.432489
L 288.963542 258.240573
L 289.090423 256.372876
L 289.344187 256.734396
L 289.59795 258.236266
L 289.724832 256.685794
L 289.851713 256.627444
L 290.105476 258.081807
L 290.232358 257.70038
L 290.35924 257.863556
L 290.486121 258.719896
L 290.613003 257.084718
L 290.739885 257.741895
L 290.866766 257.705672
L 290.993648 257.936081
L 291.120529 257.424441
L 291.247411 257.955405
L 291.374293 257.458097
L 291.501174 258.305215
L 291.628056 257.284148
L 291.754938 257.902173
L 292.008701 256.908549
L 292.135582 259.498443
L 292.389346 257.565127
L 292.516227 257.554875
L 292.643109 257.859619
L 292.76999 257.261722
L 292.896872 257.878849
L 293.023754 257.863761
L 293.150635 257.103491
L 293.53128 257.94394
L 293.658162 256.743924
L 293.785043 258.063325
L 293.911925 258.105832
L 294.038807 258.528427
L 294.165688 257.253705
L 294.29257 258.073027
L 294.419452 257.206868
L 294.546333 257.909166
L 294.800096 256.880311
L 294.926978 257.908032
L 295.05386 256.899588
L 295.307623 258.319547
L 295.561386 257.874628
L 295.688268 256.513861
L 295.942031 257.53963
L 296.068913 257.138328
L 296.195794 258.690642
L 296.322676 257.416472
L 296.449558 258.217682
L 296.576439 257.750777
L 296.703321 258.456658
L 296.830202 258.046734
L 297.083966 257.016635
L 297.210847 258.134409
L 297.337729 257.975942
L 297.464611 255.892277
L 297.591492 257.857146
L 297.718374 257.660913
L 297.845255 258.796807
L 297.972137 256.975183
L 298.099019 257.695278
L 298.2259 257.543457
L 298.352782 257.859068
L 298.606545 256.999878
L 298.733427 257.515896
L 298.860308 256.837064
L 298.98719 257.044778
L 299.114072 257.600279
L 299.240953 257.146848
L 299.621598 257.780086
L 299.74848 257.627525
L 300.002243 258.047049
L 300.129125 259.704
L 300.382888 257.157872
L 300.509769 258.090996
L 300.636651 257.754069
L 300.763533 257.790544
L 300.890414 257.944396
L 301.017296 257.56171
L 301.271059 257.896141
L 301.397941 256.978679
L 301.524822 257.018603
L 301.524822 257.018603
" clip-path="url(#pbd79a47c8a)" style="fill: none; stroke: #56b4e9; stroke-opacity: 0.55; stroke-linecap: round"/>
   </g>
   <g id="line2d_34">
    <path d="M 50.933618 194.399484
L 54.105658 205.954511
L 57.277699 215.02961
L 60.449739 220.445493
L 63.62178 224.948513
L 66.793821 228.003864
L 69.965861 230.13487
L 73.137902 232.10155
L 76.309942 233.756131
L 79.481983 235.726071
L 82.654023 236.396761
L 85.826064 237.054411
L 88.998105 238.419036
L 92.170145 238.513105
L 95.342186 239.447796
L 98.514226 239.959389
L 101.686267 240.975518
L 104.858307 240.394346
L 108.030348 240.694744
L 111.202388 241.552296
L 114.374429 241.661028
L 117.54647 242.648683
L 120.71851 242.591672
L 123.890551 242.985729
L 127.062591 242.69697
L 130.234632 243.480707
L 133.406672 244.125835
L 136.578713 243.868811
L 139.750754 245.278588
L 142.922794 245.04503
L 146.094835 245.716302
L 149.266875 246.108643
L 152.438916 245.774826
L 155.610956 246.621826
L 158.782997 245.833192
L 161.955038 246.904538
L 165.127078 247.096928
L 168.299119 247.702133
L 171.471159 247.618679
L 174.6432 247.632333
L 177.81524 247.935645
L 180.987281 248.840003
L 184.159322 248.456073
L 187.331362 249.138574
L 190.503403 249.83914
L 193.675443 250.00819
L 196.847484 249.924783
L 200.019524 250.079014
L 203.191565 249.573862
L 206.363605 251.64603
L 209.535646 250.430438
L 212.707687 251.365618
L 215.879727 251.597224
L 219.051768 252.415419
L 222.223808 252.181719
L 225.395849 252.260291
L 228.567889 252.370723
L 231.73993 253.714749
L 234.911971 253.344472
L 238.084011 253.639279
L 241.256052 254.232688
L 244.428092 254.091529
L 247.600133 255.091248
L 250.772173 254.641613
L 253.944214 254.867234
L 257.116255 256.182044
L 260.288295 255.89864
L 263.460336 256.379711
L 266.632376 257.058748
L 269.804417 256.43436
L 272.976457 256.061816
L 276.148498 256.549958
L 279.320538 256.71515
L 282.492579 257.122689
L 285.66462 257.950617
L 288.83666 258.107942
L 292.008701 257.698821
L 295.180741 257.457797
L 298.352782 257.410345
L 301.524822 257.506997
" clip-path="url(#pbd79a47c8a)" style="fill: none; stroke: #0072b2; stroke-width: 2; stroke-linecap: round"/>
   </g>
   <g id="patch_3">
    <path d="M 35.206641 270.288
L 35.206641 37.44
" style="fill: none; stroke: #cccccc; stroke-linejoin: miter; stroke-linecap: square"/>
   </g>
   <g id="patch_4">
    <path d="M 314.206641 270.288
L 314.206641 37.44
" style="fill: none; stroke: #cccccc; stroke-linejoin: miter; stroke-linecap: square"/>
   </g>
   <g id="patch_5">
    <path d="M 35.206641 270.288
L 314.206641 270.288
" style="fill: none; stroke: #cccccc; stroke-linejoin: miter; stroke-linecap: square"/>
   </g>
   <g id="patch_6">
    <path d="M 35.206641 37.44
L 314.206641 37.44
" style="fill: none; stroke: #cccccc; stroke-linejoin: miter; stroke-linecap: square"/>
   </g>
   <g id="text_19">
    <text style="font-size: 12px; font-family: 'Arial', 'Liberation Sans', 'DejaVu Sans', 'Bitstream Vera Sans', sans-serif; text-anchor: middle; fill: #262626" x="174.706641" y="31.44" transform="rotate(-0 174.706641 31.44)">OpenWebText baseline</text>
   </g>
   <g id="legend_1">
    <g id="line2d_35">
     <path d="M 242.047734 48.942246
L 251.047734 48.942246
L 260.047734 48.942246
" style="fill: none; stroke: #56b4e9; stroke-opacity: 0.55; stroke-linecap: round"/>
    </g>
    <g id="text_20">
     <text style="font-size: 9px; font-family: 'Arial', 'Liberation Sans', 'DejaVu Sans', 'Bitstream Vera Sans', sans-serif; text-anchor: start; fill: #262626" x="267.247734" y="52.092246" transform="rotate(-0 267.247734 52.092246)">Train</text>
    </g>
    <g id="line2d_36">
     <path d="M 242.047734 61.888535
L 251.047734 61.888535
L 260.047734 61.888535
" style="fill: none; stroke: #0072b2; stroke-width: 2; stroke-linecap: round"/>
    </g>
    <g id="text_21">
     <text style="font-size: 9px; font-family: 'Arial', 'Liberation Sans', 'DejaVu Sans', 'Bitstream Vera Sans', sans-serif; text-anchor: start; fill: #262626" x="267.247734" y="65.038535" transform="rotate(-0 267.247734 65.038535)">Validation</text>
    </g>
   </g>
  </g>
  <g id="axes_2">
   <g id="patch_7">
    <path d="M 370.006641 270.288
L 649.006641 270.288
L 649.006641 37.44
L 370.006641 37.44
z
" style="fill: #ffffff"/>
   </g>
   <g id="matplotlib.axis_3">
    <g id="xtick_10">
     <g id="line2d_37">
      <path d="M 379.017118 270.288
L 379.017118 37.44
" clip-path="url(#p81e7dcf860)" style="fill: none; stroke: #cccccc; stroke-width: 0.8; stroke-linecap: round"/>
     </g>
     <g id="line2d_38"/>
     <g id="text_22">
      <text style="font-size: 10px; font-family: 'Arial', 'Liberation Sans', 'DejaVu Sans', 'Bitstream Vera Sans', sans-serif; text-anchor: middle; fill: #262626" x="379.017118" y="281.068273" transform="rotate(-0 379.017118 281.068273)">0</text>
     </g>
    </g>
    <g id="xtick_11">
     <g id="line2d_39">
      <path d="M 415.728807 270.288
L 415.728807 37.44
" clip-path="url(#p81e7dcf860)" style="fill: none; stroke: #cccccc; stroke-width: 0.8; stroke-linecap: round"/>
     </g>
     <g id="line2d_40"/>
     <g id="text_23">
      <text style="font-size: 10px; font-family: 'Arial', 'Liberation Sans', 'DejaVu Sans', 'Bitstream Vera Sans', sans-serif; text-anchor: middle; fill: #262626" x="415.728807" y="281.068273" transform="rotate(-0 415.728807 281.068273)">10</text>
     </g>
    </g>
    <g id="xtick_12">
     <g id="line2d_41">
      <path d="M 452.440497 270.288
L 452.440497 37.44
" clip-path="url(#p81e7dcf860)" style="fill: none; stroke: #cccccc; stroke-width: 0.8; stroke-linecap: round"/>
     </g>
     <g id="line2d_42"/>
     <g id="text_24">
      <text style="font-size: 10px; font-family: 'Arial', 'Liberation Sans', 'DejaVu Sans', 'Bitstream Vera Sans', sans-serif; text-anchor: middle; fill: #262626" x="452.440497" y="281.068273" transform="rotate(-0 452.440497 281.068273)">20</text>
     </g>
    </g>
    <g id="xtick_13">
     <g id="line2d_43">
      <path d="M 489.152186 270.288
L 489.152186 37.44
" clip-path="url(#p81e7dcf860)" style="fill: none; stroke: #cccccc; stroke-width: 0.8; stroke-linecap: round"/>
     </g>
     <g id="line2d_44"/>
     <g id="text_25">
      <text style="font-size: 10px; font-family: 'Arial', 'Liberation Sans', 'DejaVu Sans', 'Bitstream Vera Sans', sans-serif; text-anchor: middle; fill: #262626" x="489.152186" y="281.068273" transform="rotate(-0 489.152186 281.068273)">30</text>
     </g>
    </g>
    <g id="xtick_14">
     <g id="line2d_45">
      <path d="M 525.863875 270.288
L 525.863875 37.44
" clip-path="url(#p81e7dcf860)" style="fill: none; stroke: #cccccc; stroke-width: 0.8; stroke-linecap: round"/>
     </g>
     <g id="line2d_46"/>
     <g id="text_26">
      <text style="font-size: 10px; font-family: 'Arial', 'Liberation Sans', 'DejaVu Sans', 'Bitstream Vera Sans', sans-serif; text-anchor: middle; fill: #262626" x="525.863875" y="281.068273" transform="rotate(-0 525.863875 281.068273)">40</text>
     </g>
    </g>
    <g id="xtick_15">
     <g id="line2d_47">
      <path d="M 562.575564 270.288
L 562.575564 37.44
" clip-path="url(#p81e7dcf860)" style="fill: none; stroke: #cccccc; stroke-width: 0.8; stroke-linecap: round"/>
     </g>
     <g id="line2d_48"/>
     <g id="text_27">
      <text style="font-size: 10px; font-family: 'Arial', 'Liberation Sans', 'DejaVu Sans', 'Bitstream Vera Sans', sans-serif; text-anchor: middle; fill: #262626" x="562.575564" y="281.068273" transform="rotate(-0 562.575564 281.068273)">50</text>
     </g>
    </g>
    <g id="xtick_16">
     <g id="line2d_49">
      <path d="M 599.287253 270.288
L 599.287253 37.44
" clip-path="url(#p81e7dcf860)" style="fill: none; stroke: #cccccc; stroke-width: 0.8; stroke-linecap: round"/>
     </g>
     <g id="line2d_50"/>
     <g id="text_28">
      <text style="font-size: 10px; font-family: 'Arial', 'Liberation Sans', 'DejaVu Sans', 'Bitstream Vera Sans', sans-serif; text-anchor: middle; fill: #262626" x="599.287253" y="281.068273" transform="rotate(-0 599.287253 281.068273)">60</text>
     </g>
    </g>
    <g id="xtick_17">
     <g id="line2d_51">
      <path d="M 635.998942 270.288
L 635.998942 37.44
" clip-path="url(#p81e7dcf860)" style="fill: none; stroke: #cccccc; stroke-width: 0.8; stroke-linecap: round"/>
     </g>
     <g id="line2d_52"/>
     <g id="text_29">
      <text style="font-size: 10px; font-family: 'Arial', 'Liberation Sans', 'DejaVu Sans', 'Bitstream Vera Sans', sans-serif; text-anchor: middle; fill: #262626" x="635.998942" y="281.068273" transform="rotate(-0 635.998942 281.068273)">70</text>
     </g>
    </g>
    <g id="text_30">
     <text style="font-size: 10px; font-family: 'Arial', 'Liberation Sans', 'DejaVu Sans', 'Bitstream Vera Sans', sans-serif; text-anchor: middle; fill: #262626" x="509.506641" y="294.453039" transform="rotate(-0 509.506641 294.453039)">Wall-clock minutes</text>
    </g>
   </g>
   <g id="matplotlib.axis_4">
    <g id="ytick_8">
     <g id="line2d_53">
      <path d="M 370.006641 259.373363
L 649.006641 259.373363
" clip-path="url(#p81e7dcf860)" style="fill: none; stroke: #cccccc; stroke-width: 0.8; stroke-linecap: round"/>
     </g>
     <g id="line2d_54"/>
     <g id="text_31">
      <text style="font-size: 10px; font-family: 'Arial', 'Liberation Sans', 'DejaVu Sans', 'Bitstream Vera Sans', sans-serif; text-anchor: end; fill: #262626" x="366.506641" y="263.0135" transform="rotate(-0 366.506641 263.0135)">4.00</text>
     </g>
    </g>
    <g id="ytick_9">
     <g id="line2d_55">
      <path d="M 370.006641 231.938207
L 649.006641 231.938207
" clip-path="url(#p81e7dcf860)" style="fill: none; stroke: #cccccc; stroke-width: 0.8; stroke-linecap: round"/>
     </g>
     <g id="line2d_56"/>
     <g id="text_32">
      <text style="font-size: 10px; font-family: 'Arial', 'Liberation Sans', 'DejaVu Sans', 'Bitstream Vera Sans', sans-serif; text-anchor: end; fill: #262626" x="366.506641" y="235.578343" transform="rotate(-0 366.506641 235.578343)">4.25</text>
     </g>
    </g>
    <g id="ytick_10">
     <g id="line2d_57">
      <path d="M 370.006641 204.50305
L 649.006641 204.50305
" clip-path="url(#p81e7dcf860)" style="fill: none; stroke: #cccccc; stroke-width: 0.8; stroke-linecap: round"/>
     </g>
     <g id="line2d_58"/>
     <g id="text_33">
      <text style="font-size: 10px; font-family: 'Arial', 'Liberation Sans', 'DejaVu Sans', 'Bitstream Vera Sans', sans-serif; text-anchor: end; fill: #262626" x="366.506641" y="208.143187" transform="rotate(-0 366.506641 208.143187)">4.50</text>
     </g>
    </g>
    <g id="ytick_11">
     <g id="line2d_59">
      <path d="M 370.006641 177.067894
L 649.006641 177.067894
" clip-path="url(#p81e7dcf860)" style="fill: none; stroke: #cccccc; stroke-width: 0.8; stroke-linecap: round"/>
     </g>
     <g id="line2d_60"/>
     <g id="text_34">
      <text style="font-size: 10px; font-family: 'Arial', 'Liberation Sans', 'DejaVu Sans', 'Bitstream Vera Sans', sans-serif; text-anchor: end; fill: #262626" x="366.506641" y="180.708031" transform="rotate(-0 366.506641 180.708031)">4.75</text>
     </g>
    </g>
    <g id="ytick_12">
     <g id="line2d_61">
      <path d="M 370.006641 149.632738
L 649.006641 149.632738
" clip-path="url(#p81e7dcf860)" style="fill: none; stroke: #cccccc; stroke-width: 0.8; stroke-linecap: round"/>
     </g>
     <g id="line2d_62"/>
     <g id="text_35">
      <text style="font-size: 10px; font-family: 'Arial', 'Liberation Sans', 'DejaVu Sans', 'Bitstream Vera Sans', sans-serif; text-anchor: end; fill: #262626" x="366.506641" y="153.272875" transform="rotate(-0 366.506641 153.272875)">5.00</text>
     </g>
    </g>
    <g id="ytick_13">
     <g id="line2d_63">
      <path d="M 370.006641 122.197582
L 649.006641 122.197582
" clip-path="url(#p81e7dcf860)" style="fill: none; stroke: #cccccc; stroke-width: 0.8; stroke-linecap: round"/>
     </g>
     <g id="line2d_64"/>
     <g id="text_36">
      <text style="font-size: 10px; font-family: 'Arial', 'Liberation Sans', 'DejaVu Sans', 'Bitstream Vera Sans', sans-serif; text-anchor: end; fill: #262626" x="366.506641" y="125.837719" transform="rotate(-0 366.506641 125.837719)">5.25</text>
     </g>
    </g>
    <g id="ytick_14">
     <g id="line2d_65">
      <path d="M 370.006641 94.762426
L 649.006641 94.762426
" clip-path="url(#p81e7dcf860)" style="fill: none; stroke: #cccccc; stroke-width: 0.8; stroke-linecap: round"/>
     </g>
     <g id="line2d_66"/>
     <g id="text_37">
      <text style="font-size: 10px; font-family: 'Arial', 'Liberation Sans', 'DejaVu Sans', 'Bitstream Vera Sans', sans-serif; text-anchor: end; fill: #262626" x="366.506641" y="98.402562" transform="rotate(-0 366.506641 98.402562)">5.50</text>
     </g>
    </g>
    <g id="ytick_15">
     <g id="line2d_67">
      <path d="M 370.006641 67.327269
L 649.006641 67.327269
" clip-path="url(#p81e7dcf860)" style="fill: none; stroke: #cccccc; stroke-width: 0.8; stroke-linecap: round"/>
     </g>
     <g id="line2d_68"/>
     <g id="text_38">
      <text style="font-size: 10px; font-family: 'Arial', 'Liberation Sans', 'DejaVu Sans', 'Bitstream Vera Sans', sans-serif; text-anchor: end; fill: #262626" x="366.506641" y="70.967406" transform="rotate(-0 366.506641 70.967406)">5.75</text>
     </g>
    </g>
    <g id="ytick_16">
     <g id="line2d_69">
      <path d="M 370.006641 39.892113
L 649.006641 39.892113
" clip-path="url(#p81e7dcf860)" style="fill: none; stroke: #cccccc; stroke-width: 0.8; stroke-linecap: round"/>
     </g>
     <g id="line2d_70"/>
     <g id="text_39">
      <text style="font-size: 10px; font-family: 'Arial', 'Liberation Sans', 'DejaVu Sans', 'Bitstream Vera Sans', sans-serif; text-anchor: end; fill: #262626" x="366.506641" y="43.53225" transform="rotate(-0 366.506641 43.53225)">6.00</text>
     </g>
    </g>
    <g id="text_40">
     <text style="font-size: 10px; font-family: 'Arial', 'Liberation Sans', 'DejaVu Sans', 'Bitstream Vera Sans', sans-serif; text-anchor: middle; fill: #262626" x="340.941211" y="153.864" transform="rotate(-90 340.941211 153.864)">Validation loss</text>
    </g>
   </g>
   <g id="line2d_71">
    <path d="M 382.688459 48.024
L 386.180608 86.417143
L 389.655672 116.570394
L 393.012776 134.565401
L 396.407095 149.527296
L 399.759745 159.679112
L 403.045535 166.759669
L 406.416767 173.294231
L 410.097207 178.791801
L 413.452506 185.337196
L 416.817568 187.565653
L 420.192448 189.750783
L 423.716456 194.284935
L 427.129195 194.597492
L 430.486743 197.703131
L 433.816777 199.402967
L 437.168693 202.779196
L 440.421308 200.848173
L 443.686537 201.846285
L 446.912147 204.695619
L 450.242388 205.056894
L 453.494722 208.338513
L 456.761031 208.149085
L 460.020619 209.458394
L 463.305207 208.498952
L 466.550829 211.103023
L 469.835584 213.246552
L 473.061302 212.392552
L 476.346717 217.07673
L 479.549353 216.300699
L 482.731072 218.531093
L 485.933234 219.834698
L 489.200498 218.725545
L 492.39566 221.53982
L 495.570431 218.919474
L 498.785556 222.479167
L 501.977989 223.118411
L 505.156764 225.129287
L 508.354941 224.851998
L 511.555212 224.897367
L 514.808023 225.90516
L 517.975986 228.910014
L 521.104287 227.634352
L 524.306573 229.902056
L 527.534563 232.229781
L 530.659869 232.791474
L 533.781998 232.514342
L 536.958262 233.026795
L 540.226307 231.348361
L 543.386947 238.233419
L 546.402915 234.194451
L 549.47481 237.301712
L 552.74607 238.071253
L 555.952458 240.789819
L 559.126869 240.013317
L 562.244845 240.274384
L 565.382404 240.641311
L 568.542009 245.107017
L 571.657258 243.876724
L 574.654501 244.856259
L 577.803546 246.827941
L 580.989681 246.358922
L 584.013656 249.680624
L 587.016036 248.186648
L 590.067217 248.936305
L 593.115369 253.304942
L 596.302655 252.363292
L 599.306778 253.961716
L 602.450839 256.217908
L 605.501754 254.143296
L 608.629668 252.905467
L 611.682964 254.527386
L 614.74887 255.076259
L 617.889124 256.430361
L 620.929122 259.181265
L 623.980344 259.704
L 627.188322 258.344639
L 630.221447 257.543805
L 633.258376 257.386139
L 636.324822 257.707279
" clip-path="url(#p81e7dcf860)" style="fill: none; stroke: #0072b2; stroke-width: 2; stroke-linecap: round"/>
   </g>
   <g id="patch_8">
    <path d="M 370.006641 270.288
L 370.006641 37.44
" style="fill: none; stroke: #cccccc; stroke-linejoin: miter; stroke-linecap: square"/>
   </g>
   <g id="patch_9">
    <path d="M 649.006641 270.288
L 649.006641 37.44
" style="fill: none; stroke: #cccccc; stroke-linejoin: miter; stroke-linecap: square"/>
   </g>
   <g id="patch_10">
    <path d="M 370.006641 270.288
L 649.006641 270.288
" style="fill: none; stroke: #cccccc; stroke-linejoin: miter; stroke-linecap: square"/>
   </g>
   <g id="patch_11">
    <path d="M 370.006641 37.44
L 649.006641 37.44
" style="fill: none; stroke: #cccccc; stroke-linejoin: miter; stroke-linecap: square"/>
   </g>
   <g id="text_41">
    <text style="font-size: 12px; font-family: 'Arial', 'Liberation Sans', 'DejaVu Sans', 'Bitstream Vera Sans', sans-serif; text-anchor: middle; fill: #262626" x="509.506641" y="31.44" transform="rotate(-0 509.506641 31.44)">Validation loss by wall clock</text>
   </g>
  </g>
  <g id="text_42">
   <text style="font-size: 12px; font-family: 'Arial', 'Liberation Sans', 'DejaVu Sans', 'Bitstream Vera Sans', sans-serif; text-anchor: middle; fill: #262626" x="332.206641" y="15.936328" transform="rotate(-0 332.206641 15.936328)">OpenWebText full baseline: 327.68M training tokens</text>
  </g>
 </g>
 <defs>
  <clipPath id="pbd79a47c8a">
   <rect x="35.206641" y="37.44" width="279" height="232.848"/>
  </clipPath>
  <clipPath id="p81e7dcf860">
   <rect x="370.006641" y="37.44" width="279" height="232.848"/>
  </clipPath>
 </defs>
</svg>
