<?xml version="1.0" encoding="utf-8" standalone="no"?>
<!DOCTYPE svg PUBLIC "-//W3C//DTD SVG 1.1//EN"
  "http://www.w3.org/Graphics/SVG/1.1/DTD/svg11.dtd">
<svg xmlns:xlink="http://www.w3.org/1999/xlink" width="650.645703pt" height="303.757531pt" viewBox="0 0 650.645703 303.757531" xmlns="http://www.w3.org/2000/svg" version="1.1">
 <metadata>
  <rdf:RDF xmlns:dc="http://purl.org/dc/elements/1.1/" xmlns:cc="http://creativecommons.org/ns#" xmlns:rdf="http://www.w3.org/1999/02/22-rdf-syntax-ns#">
   <cc:Work>
    <dc:type rdf:resource="http://purl.org/dc/dcmitype/StillImage"/>
    <dc:date>2026-07-16T18:31:17.655883</dc:date>
    <dc:format>image/svg+xml</dc:format>
    <dc:creator>
     <cc:Agent>
      <dc:title>Matplotlib v3.11.0, https://matplotlib.org/</dc:title>
     </cc:Agent>
    </dc:creator>
   </cc:Work>
  </rdf:RDF>
 </metadata>
 <defs>
  <style type="text/css">*{stroke-linejoin: round; stroke-linecap: butt}</style>
 </defs>
 <g id="figure_1">
  <g id="patch_1">
   <path d="M 0 303.757531
L 650.645703 303.757531
L 650.645703 0
L 0 0
z
" style="fill: #ffffff"/>
  </g>
  <g id="axes_1">
   <g id="patch_2">
    <path d="M 29.645703 270.288
L 308.645703 270.288
L 308.645703 37.44
L 29.645703 37.44
z
" style="fill: #ffffff"/>
   </g>
   <g id="matplotlib.axis_1">
    <g id="xtick_1">
     <g id="line2d_1">
      <path d="M 42.20064 270.288
L 42.20064 37.44
" clip-path="url(#pcf3eacb16b)" style="fill: none; stroke: #cccccc; stroke-width: 0.8; stroke-linecap: round"/>
     </g>
     <g id="line2d_2"/>
     <g id="text_1">
      <text style="font-size: 10px; font-family: 'Arial', 'Liberation Sans', 'DejaVu Sans', 'Bitstream Vera Sans', sans-serif; text-anchor: middle; fill: #262626" x="42.20064" y="281.068273" transform="rotate(-0 42.20064 281.068273)">0</text>
     </g>
    </g>
    <g id="xtick_2">
     <g id="line2d_3">
      <path d="M 73.921045 270.288
L 73.921045 37.44
" clip-path="url(#pcf3eacb16b)" style="fill: none; stroke: #cccccc; stroke-width: 0.8; stroke-linecap: round"/>
     </g>
     <g id="line2d_4"/>
     <g id="text_2">
      <text style="font-size: 10px; font-family: 'Arial', 'Liberation Sans', 'DejaVu Sans', 'Bitstream Vera Sans', sans-serif; text-anchor: middle; fill: #262626" x="73.921045" y="281.068273" transform="rotate(-0 73.921045 281.068273)">2500</text>
     </g>
    </g>
    <g id="xtick_3">
     <g id="line2d_5">
      <path d="M 105.641451 270.288
L 105.641451 37.44
" clip-path="url(#pcf3eacb16b)" style="fill: none; stroke: #cccccc; stroke-width: 0.8; stroke-linecap: round"/>
     </g>
     <g id="line2d_6"/>
     <g id="text_3">
      <text style="font-size: 10px; font-family: 'Arial', 'Liberation Sans', 'DejaVu Sans', 'Bitstream Vera Sans', sans-serif; text-anchor: middle; fill: #262626" x="105.641451" y="281.068273" transform="rotate(-0 105.641451 281.068273)">5000</text>
     </g>
    </g>
    <g id="xtick_4">
     <g id="line2d_7">
      <path d="M 137.361857 270.288
L 137.361857 37.44
" clip-path="url(#pcf3eacb16b)" style="fill: none; stroke: #cccccc; stroke-width: 0.8; stroke-linecap: round"/>
     </g>
     <g id="line2d_8"/>
     <g id="text_4">
      <text style="font-size: 10px; font-family: 'Arial', 'Liberation Sans', 'DejaVu Sans', 'Bitstream Vera Sans', sans-serif; text-anchor: middle; fill: #262626" x="137.361857" y="281.068273" transform="rotate(-0 137.361857 281.068273)">7500</text>
     </g>
    </g>
    <g id="xtick_5">
     <g id="line2d_9">
      <path d="M 169.082262 270.288
L 169.082262 37.44
" clip-path="url(#pcf3eacb16b)" style="fill: none; stroke: #cccccc; stroke-width: 0.8; stroke-linecap: round"/>
     </g>
     <g id="line2d_10"/>
     <g id="text_5">
      <text style="font-size: 10px; font-family: 'Arial', 'Liberation Sans', 'DejaVu Sans', 'Bitstream Vera Sans', sans-serif; text-anchor: middle; fill: #262626" x="169.082262" y="281.068273" transform="rotate(-0 169.082262 281.068273)">10000</text>
     </g>
    </g>
    <g id="xtick_6">
     <g id="line2d_11">
      <path d="M 200.802668 270.288
L 200.802668 37.44
" clip-path="url(#pcf3eacb16b)" style="fill: none; stroke: #cccccc; stroke-width: 0.8; stroke-linecap: round"/>
     </g>
     <g id="line2d_12"/>
     <g id="text_6">
      <text style="font-size: 10px; font-family: 'Arial', 'Liberation Sans', 'DejaVu Sans', 'Bitstream Vera Sans', sans-serif; text-anchor: middle; fill: #262626" x="200.802668" y="281.068273" transform="rotate(-0 200.802668 281.068273)">12500</text>
     </g>
    </g>
    <g id="xtick_7">
     <g id="line2d_13">
      <path d="M 232.523074 270.288
L 232.523074 37.44
" clip-path="url(#pcf3eacb16b)" style="fill: none; stroke: #cccccc; stroke-width: 0.8; stroke-linecap: round"/>
     </g>
     <g id="line2d_14"/>
     <g id="text_7">
      <text style="font-size: 10px; font-family: 'Arial', 'Liberation Sans', 'DejaVu Sans', 'Bitstream Vera Sans', sans-serif; text-anchor: middle; fill: #262626" x="232.523074" y="281.068273" transform="rotate(-0 232.523074 281.068273)">15000</text>
     </g>
    </g>
    <g id="xtick_8">
     <g id="line2d_15">
      <path d="M 264.243479 270.288
L 264.243479 37.44
" clip-path="url(#pcf3eacb16b)" style="fill: none; stroke: #cccccc; stroke-width: 0.8; stroke-linecap: round"/>
     </g>
     <g id="line2d_16"/>
     <g id="text_8">
      <text style="font-size: 10px; font-family: 'Arial', 'Liberation Sans', 'DejaVu Sans', 'Bitstream Vera Sans', sans-serif; text-anchor: middle; fill: #262626" x="264.243479" y="281.068273" transform="rotate(-0 264.243479 281.068273)">17500</text>
     </g>
    </g>
    <g id="xtick_9">
     <g id="line2d_17">
      <path d="M 295.963885 270.288
L 295.963885 37.44
" clip-path="url(#pcf3eacb16b)" style="fill: none; stroke: #cccccc; stroke-width: 0.8; stroke-linecap: round"/>
     </g>
     <g id="line2d_18"/>
     <g id="text_9">
      <text style="font-size: 10px; font-family: 'Arial', 'Liberation Sans', 'DejaVu Sans', 'Bitstream Vera Sans', sans-serif; text-anchor: middle; fill: #262626" x="295.963885" y="281.068273" transform="rotate(-0 295.963885 281.068273)">20000</text>
     </g>
    </g>
    <g id="text_10">
     <text style="font-size: 10px; font-family: 'Arial', 'Liberation Sans', 'DejaVu Sans', 'Bitstream Vera Sans', sans-serif; text-anchor: middle; fill: #262626" x="169.145703" y="294.453039" transform="rotate(-0 169.145703 294.453039)">Optimizer step</text>
    </g>
   </g>
   <g id="matplotlib.axis_2">
    <g id="ytick_1">
     <g id="line2d_19">
      <path d="M 29.645703 268.350536
L 308.645703 268.350536
" clip-path="url(#pcf3eacb16b)" style="fill: none; stroke: #cccccc; stroke-width: 0.8; stroke-linecap: round"/>
     </g>
     <g id="line2d_20"/>
     <g id="text_11">
      <text style="font-size: 10px; font-family: 'Arial', 'Liberation Sans', 'DejaVu Sans', 'Bitstream Vera Sans', sans-serif; text-anchor: end; fill: #262626" x="26.145703" y="271.990673" transform="rotate(-0 26.145703 271.990673)">1</text>
     </g>
    </g>
    <g id="ytick_2">
     <g id="line2d_21">
      <path d="M 29.645703 241.292547
L 308.645703 241.292547
" clip-path="url(#pcf3eacb16b)" style="fill: none; stroke: #cccccc; stroke-width: 0.8; stroke-linecap: round"/>
     </g>
     <g id="line2d_22"/>
     <g id="text_12">
      <text style="font-size: 10px; font-family: 'Arial', 'Liberation Sans', 'DejaVu Sans', 'Bitstream Vera Sans', sans-serif; text-anchor: end; fill: #262626" x="26.145703" y="244.932684" transform="rotate(-0 26.145703 244.932684)">2</text>
     </g>
    </g>
    <g id="ytick_3">
     <g id="line2d_23">
      <path d="M 29.645703 214.234558
L 308.645703 214.234558
" clip-path="url(#pcf3eacb16b)" style="fill: none; stroke: #cccccc; stroke-width: 0.8; stroke-linecap: round"/>
     </g>
     <g id="line2d_24"/>
     <g id="text_13">
      <text style="font-size: 10px; font-family: 'Arial', 'Liberation Sans', 'DejaVu Sans', 'Bitstream Vera Sans', sans-serif; text-anchor: end; fill: #262626" x="26.145703" y="217.874695" transform="rotate(-0 26.145703 217.874695)">3</text>
     </g>
    </g>
    <g id="ytick_4">
     <g id="line2d_25">
      <path d="M 29.645703 187.17657
L 308.645703 187.17657
" clip-path="url(#pcf3eacb16b)" style="fill: none; stroke: #cccccc; stroke-width: 0.8; stroke-linecap: round"/>
     </g>
     <g id="line2d_26"/>
     <g id="text_14">
      <text style="font-size: 10px; font-family: 'Arial', 'Liberation Sans', 'DejaVu Sans', 'Bitstream Vera Sans', sans-serif; text-anchor: end; fill: #262626" x="26.145703" y="190.816706" transform="rotate(-0 26.145703 190.816706)">4</text>
     </g>
    </g>
    <g id="ytick_5">
     <g id="line2d_27">
      <path d="M 29.645703 160.118581
L 308.645703 160.118581
" clip-path="url(#pcf3eacb16b)" style="fill: none; stroke: #cccccc; stroke-width: 0.8; stroke-linecap: round"/>
     </g>
     <g id="line2d_28"/>
     <g id="text_15">
      <text style="font-size: 10px; font-family: 'Arial', 'Liberation Sans', 'DejaVu Sans', 'Bitstream Vera Sans', sans-serif; text-anchor: end; fill: #262626" x="26.145703" y="163.758717" transform="rotate(-0 26.145703 163.758717)">5</text>
     </g>
    </g>
    <g id="ytick_6">
     <g id="line2d_29">
      <path d="M 29.645703 133.060592
L 308.645703 133.060592
" clip-path="url(#pcf3eacb16b)" style="fill: none; stroke: #cccccc; stroke-width: 0.8; stroke-linecap: round"/>
     </g>
     <g id="line2d_30"/>
     <g id="text_16">
      <text style="font-size: 10px; font-family: 'Arial', 'Liberation Sans', 'DejaVu Sans', 'Bitstream Vera Sans', sans-serif; text-anchor: end; fill: #262626" x="26.145703" y="136.700729" transform="rotate(-0 26.145703 136.700729)">6</text>
     </g>
    </g>
    <g id="ytick_7">
     <g id="line2d_31">
      <path d="M 29.645703 106.002603
L 308.645703 106.002603
" clip-path="url(#pcf3eacb16b)" style="fill: none; stroke: #cccccc; stroke-width: 0.8; stroke-linecap: round"/>
     </g>
     <g id="line2d_32"/>
     <g id="text_17">
      <text style="font-size: 10px; font-family: 'Arial', 'Liberation Sans', 'DejaVu Sans', 'Bitstream Vera Sans', sans-serif; text-anchor: end; fill: #262626" x="26.145703" y="109.64274" transform="rotate(-0 26.145703 109.64274)">7</text>
     </g>
    </g>
    <g id="ytick_8">
     <g id="line2d_33">
      <path d="M 29.645703 78.944614
L 308.645703 78.944614
" clip-path="url(#pcf3eacb16b)" style="fill: none; stroke: #cccccc; stroke-width: 0.8; stroke-linecap: round"/>
     </g>
     <g id="line2d_34"/>
     <g id="text_18">
      <text style="font-size: 10px; font-family: 'Arial', 'Liberation Sans', 'DejaVu Sans', 'Bitstream Vera Sans', sans-serif; text-anchor: end; fill: #262626" x="26.145703" y="82.584751" transform="rotate(-0 26.145703 82.584751)">8</text>
     </g>
    </g>
    <g id="ytick_9">
     <g id="line2d_35">
      <path d="M 29.645703 51.886625
L 308.645703 51.886625
" clip-path="url(#pcf3eacb16b)" style="fill: none; stroke: #cccccc; stroke-width: 0.8; stroke-linecap: round"/>
     </g>
     <g id="line2d_36"/>
     <g id="text_19">
      <text style="font-size: 10px; font-family: 'Arial', 'Liberation Sans', 'DejaVu Sans', 'Bitstream Vera Sans', sans-serif; text-anchor: end; fill: #262626" x="26.145703" y="55.526762" transform="rotate(-0 26.145703 55.526762)">9</text>
     </g>
    </g>
    <g id="text_20">
     <text style="font-size: 10px; font-family: 'Arial', 'Liberation Sans', 'DejaVu Sans', 'Bitstream Vera Sans', sans-serif; text-anchor: middle; fill: #262626" x="14.480273" y="153.864" transform="rotate(-90 14.480273 153.864)">Cross-entropy loss</text>
    </g>
   </g>
   <g id="line2d_37">
    <path d="M 42.327521 48.024
L 42.581285 89.438547
L 42.961929 159.73519
L 43.215693 182.149451
L 43.596338 197.432933
L 44.103864 208.749171
L 44.865154 218.996974
L 44.992035 219.174225
L 45.499562 223.801729
L 45.626443 223.132405
L 46.007088 225.976649
L 46.387733 227.494522
L 46.514615 227.294214
L 46.768378 228.906331
L 46.89526 228.846607
L 47.022141 229.679073
L 47.149023 229.2806
L 47.275905 230.240779
L 47.402786 230.00163
L 47.656549 230.503269
L 47.783431 230.412141
L 47.910313 230.99658
L 48.037194 230.650316
L 48.164076 231.486795
L 48.290958 231.143569
L 48.417839 232.127876
L 48.544721 231.38081
L 48.671602 232.322074
L 48.798484 231.662066
L 48.925366 232.105813
L 49.052247 233.027995
L 49.179129 232.838997
L 49.432892 233.969415
L 49.559774 233.689733
L 49.686655 233.833431
L 49.813537 234.884327
L 50.0673 234.677878
L 50.194182 234.30806
L 50.321064 234.697637
L 50.447945 235.619632
L 50.574827 235.709297
L 50.701708 235.254041
L 50.82859 237.01636
L 50.955472 236.953377
L 51.082353 235.553683
L 51.209235 237.053415
L 51.336117 235.972819
L 51.462998 237.405853
L 51.58988 236.664928
L 51.716761 237.02463
L 51.843643 238.143836
L 51.970525 237.765813
L 52.097406 238.148565
L 52.351169 237.722132
L 52.478051 238.13465
L 52.604933 238.167447
L 53.112459 239.277815
L 53.239341 238.923822
L 53.366222 238.941492
L 53.493104 238.711206
L 53.746867 239.967853
L 54.000631 239.066244
L 54.127512 240.319034
L 54.254394 239.895898
L 54.635039 240.967888
L 54.76192 240.614153
L 55.015684 241.037025
L 55.142565 240.608883
L 55.269447 241.441801
L 55.396328 241.263395
L 55.52321 241.573723
L 55.650092 241.086176
L 55.776973 241.468431
L 55.903855 241.304046
L 56.030737 242.401306
L 56.157618 241.691856
L 56.2845 242.344175
L 56.538263 241.631299
L 56.665145 242.222887
L 56.918908 241.504277
L 57.04579 241.60863
L 57.299553 242.639288
L 57.426434 241.601685
L 57.553316 242.402486
L 57.807079 242.421169
L 57.933961 242.22279
L 58.060843 243.061875
L 58.314606 243.10533
L 58.441487 244.057381
L 58.568369 242.857291
L 58.949014 243.71383
L 59.075895 243.579982
L 59.202777 243.612547
L 59.329659 244.30285
L 59.583422 244.197483
L 59.710304 243.911989
L 59.964067 244.126815
L 60.090948 243.927759
L 60.21783 243.969562
L 60.344712 244.201148
L 60.471593 244.154267
L 60.598475 244.31373
L 60.725357 243.828211
L 60.852238 244.679612
L 60.97912 244.288828
L 61.106001 244.940831
L 61.359765 244.389846
L 61.486646 245.22359
L 61.613528 244.600582
L 61.74041 244.572062
L 61.994173 245.067118
L 62.121054 244.468015
L 62.247936 245.195447
L 62.374818 244.682918
L 62.628581 245.574641
L 62.882344 244.407687
L 63.009226 245.280431
L 63.136107 245.243143
L 63.262989 244.733675
L 63.516752 245.804985
L 63.643634 245.407215
L 63.770516 245.390513
L 63.897397 245.750357
L 64.024279 245.079956
L 64.278042 246.198417
L 64.404924 245.22021
L 64.531805 245.800692
L 64.658687 245.226619
L 64.785569 246.427751
L 65.039332 245.522897
L 65.166213 246.13835
L 65.419977 245.276893
L 65.67374 246.649841
L 65.927503 245.571764
L 66.054385 246.764935
L 66.181266 246.096324
L 66.308148 246.565408
L 66.43503 246.226473
L 66.688793 246.191749
L 66.815674 246.794501
L 66.942556 246.740373
L 67.069438 246.548894
L 67.196319 246.146334
L 67.323201 246.19093
L 67.450083 247.142578
L 67.576964 245.90729
L 67.703846 246.542749
L 67.830727 246.586746
L 67.957609 245.611413
L 68.211372 247.101607
L 68.338254 246.79362
L 68.465136 247.069458
L 68.592017 246.53033
L 68.718899 247.867994
L 68.972662 246.952792
L 69.099544 246.992663
L 69.226425 247.326674
L 69.353307 246.583823
L 69.480189 246.935094
L 69.60707 246.7258
L 69.733952 247.124789
L 70.114597 246.56755
L 70.36836 247.392143
L 70.495242 246.988625
L 70.622123 247.494174
L 70.749005 246.78404
L 71.002768 247.937483
L 71.12965 246.337255
L 71.383413 247.672883
L 71.510295 247.907924
L 71.764058 246.755801
L 71.890939 247.509025
L 72.144703 246.972213
L 72.271584 247.169337
L 72.398466 248.457534
L 72.525347 247.206492
L 72.652229 248.070379
L 72.779111 247.285957
L 72.905992 248.038604
L 73.032874 247.540364
L 73.286637 248.289921
L 73.413519 247.932944
L 73.5404 248.328689
L 73.667282 247.582896
L 73.794164 247.832778
L 73.921045 247.304885
L 74.174809 247.68066
L 74.30169 247.971822
L 74.555453 247.57691
L 74.809217 248.298971
L 74.936098 248.629766
L 75.06298 248.164736
L 75.189862 248.642513
L 75.316743 248.325421
L 75.443625 248.626128
L 75.570506 247.865904
L 75.697388 247.801764
L 76.078033 248.450796
L 76.204915 248.103486
L 76.458678 248.324589
L 76.585559 248.029401
L 76.712441 248.085191
L 76.839323 247.989911
L 76.966204 248.166188
L 77.093086 248.060931
L 77.219968 248.616399
L 77.346849 248.574502
L 77.473731 248.832138
L 77.600612 247.562311
L 77.727494 248.811236
L 77.854376 248.736384
L 78.108139 248.789018
L 78.361902 248.075356
L 78.488784 248.987094
L 78.615665 248.567554
L 78.742547 249.260518
L 78.869429 249.047257
L 78.99631 249.259654
L 79.123192 248.413544
L 79.376955 249.084374
L 79.630718 248.32494
L 79.7576 249.229527
L 80.138245 248.465662
L 80.265126 248.754453
L 80.51889 248.39849
L 80.645771 249.077116
L 80.772653 248.55393
L 80.899535 249.344138
L 81.026416 248.682675
L 81.153298 248.915173
L 81.280179 248.856168
L 81.407061 248.451415
L 81.787706 249.421648
L 81.914588 249.176331
L 82.041469 249.513735
L 82.168351 248.868741
L 82.295232 249.561138
L 82.548996 248.619731
L 82.802759 248.959083
L 82.929641 249.653573
L 83.056522 249.035742
L 83.183404 249.349628
L 83.437167 248.681069
L 83.69093 249.165961
L 83.944694 248.701841
L 84.071575 249.396731
L 84.198457 249.007786
L 84.325338 249.920237
L 84.579102 248.768785
L 84.832865 248.765346
L 85.086628 249.290252
L 85.340391 248.765269
L 85.467273 249.959966
L 85.594155 250.026048
L 85.847918 249.207916
L 86.101681 250.034676
L 86.228563 249.331178
L 86.355444 249.795794
L 86.609208 249.013731
L 86.736089 249.330404
L 86.862971 249.207393
L 86.989852 249.761426
L 87.116734 249.726977
L 87.243616 249.227185
L 87.370497 249.800107
L 87.497379 249.698315
L 87.624261 248.897559
L 87.751142 249.417168
L 87.878024 249.350489
L 88.004905 250.047846
L 88.131787 249.516567
L 88.258669 250.303466
L 88.512432 249.7179
L 88.639314 249.932571
L 88.766195 249.17366
L 88.893077 250.028577
L 89.14684 249.48725
L 89.273722 249.888884
L 89.400603 249.390828
L 89.654367 250.585138
L 89.90813 249.49352
L 90.035011 249.323288
L 90.161893 249.454091
L 90.288775 250.521798
L 90.415656 249.821199
L 90.542538 250.227978
L 90.66942 249.436389
L 90.796301 250.344995
L 91.050064 249.30368
L 91.176946 250.52333
L 91.430709 249.292574
L 91.557591 250.894915
L 91.684473 249.848094
L 91.938236 250.697739
L 92.445762 249.383122
L 92.572644 250.423695
L 92.699525 250.160312
L 93.08017 250.286983
L 93.207052 250.102442
L 93.333934 249.49223
L 93.587697 250.801586
L 93.84146 249.944722
L 93.968342 249.726716
L 94.095223 250.217769
L 94.222105 250.026703
L 94.475868 250.82114
L 94.60275 250.488826
L 94.729631 250.798035
L 94.856513 250.50209
L 94.983395 250.899118
L 95.237158 250.293128
L 95.36404 250.707755
L 95.490921 250.050204
L 95.617803 250.060636
L 95.744684 250.781785
L 95.998448 249.889984
L 96.125329 251.207156
L 96.252211 250.0574
L 96.632856 251.325757
L 96.759737 250.412628
L 97.013501 250.714267
L 97.267264 250.515043
L 97.394146 250.149387
L 97.521027 250.687427
L 97.647909 250.676222
L 97.77479 251.186532
L 98.028554 250.416973
L 98.282317 251.430513
L 98.409199 250.192584
L 98.662962 250.882767
L 98.789843 250.41058
L 98.916725 251.380607
L 99.170488 250.287202
L 99.29737 250.973506
L 99.424251 249.925746
L 99.804896 250.906533
L 99.931778 250.876784
L 100.05866 250.421489
L 100.185541 250.385566
L 100.312423 250.576329
L 100.439304 250.240564
L 100.693068 250.864594
L 100.819949 250.397007
L 100.946831 250.37338
L 101.073713 250.650907
L 101.200594 250.49399
L 101.327476 250.143162
L 101.581239 250.930996
L 101.708121 250.645592
L 101.835002 250.753729
L 101.961884 251.181919
L 102.088766 250.800632
L 102.215647 251.146093
L 102.342529 251.06328
L 102.46941 251.273802
L 102.596292 251.788818
L 102.850055 250.433746
L 102.976937 251.236237
L 103.2307 251.134339
L 103.357582 250.742075
L 103.484463 251.160469
L 103.611345 250.550925
L 103.738227 251.364821
L 103.865108 250.970683
L 103.99199 250.97248
L 104.118872 251.110276
L 104.245753 250.72544
L 104.372635 250.990311
L 104.499516 250.863278
L 104.626398 251.170755
L 104.75328 250.944724
L 104.880161 251.082497
L 105.007043 250.87948
L 105.133925 251.328431
L 105.387688 250.748877
L 105.514569 251.802869
L 105.641451 251.184387
L 105.895214 251.371634
L 106.022096 251.051996
L 106.275859 251.52419
L 106.402741 251.088665
L 106.529622 251.690913
L 106.656504 250.883803
L 106.783386 251.757311
L 106.910267 250.880151
L 107.037149 251.463233
L 107.16403 250.828675
L 107.290912 251.306435
L 107.417794 251.205875
L 107.544675 250.924574
L 107.671557 251.387084
L 107.798439 251.08273
L 107.92532 251.145906
L 108.052202 251.484674
L 108.179083 250.764902
L 108.559728 251.908745
L 108.813492 251.082123
L 108.940373 251.145796
L 109.067255 250.890047
L 109.194136 251.754324
L 109.321018 251.37664
L 109.4479 251.903068
L 109.828545 251.205101
L 110.082308 251.731255
L 110.209189 251.628389
L 110.336071 250.961042
L 110.462953 251.460298
L 110.843598 251.375772
L 110.970479 251.275747
L 111.224242 251.416021
L 111.351124 251.055599
L 111.478006 251.18937
L 111.731769 251.109366
L 111.985532 251.458372
L 112.112414 251.173587
L 112.239295 252.120484
L 112.366177 251.602568
L 112.493059 251.870264
L 112.61994 251.754711
L 112.746822 251.170265
L 113.000585 251.826293
L 113.127467 250.494129
L 113.254348 251.700412
L 113.38123 251.372056
L 113.508112 251.819068
L 113.634993 251.120404
L 114.015638 251.932446
L 114.269401 251.150534
L 114.396283 251.436687
L 114.523165 251.368253
L 114.650046 250.933389
L 114.776928 251.966557
L 115.157573 251.55601
L 115.284454 250.9236
L 115.538218 251.825503
L 115.791981 251.938181
L 116.045744 251.338556
L 116.172626 251.749328
L 116.299507 251.348429
L 116.426389 252.006615
L 116.553271 251.310864
L 116.807034 252.288155
L 116.933915 251.503124
L 117.060797 251.736442
L 117.31456 251.51879
L 117.695205 252.46997
L 117.948968 251.57758
L 118.07585 251.343239
L 118.202732 252.255338
L 118.456495 251.78417
L 118.583377 251.332695
L 118.710258 251.325815
L 118.83714 251.903671
L 118.964021 251.787173
L 119.090903 252.496614
L 119.344666 251.692219
L 119.471548 251.844982
L 119.725311 251.733594
L 119.852193 252.172115
L 119.979074 251.656799
L 120.105956 252.127096
L 120.232838 251.86808
L 120.359719 252.089354
L 120.486601 251.414701
L 120.613482 252.001248
L 120.740364 252.032516
L 120.867246 251.642162
L 120.994127 251.958819
L 121.121009 251.58404
L 121.247891 252.260476
L 121.501654 251.412785
L 121.755417 252.006918
L 121.882299 252.105766
L 122.00918 251.870919
L 122.136062 252.06962
L 122.262944 251.990823
L 122.389825 252.179841
L 122.516707 251.89851
L 122.643588 252.221437
L 122.77047 252.187763
L 122.897352 251.675062
L 123.024233 251.736293
L 123.277997 252.4221
L 123.404878 252.057198
L 123.53176 252.393528
L 123.658641 251.442786
L 124.039286 252.480931
L 124.166168 252.338122
L 124.29305 252.066062
L 124.419931 252.47127
L 124.673694 252.004518
L 124.800576 252.198155
L 124.927458 251.336894
L 125.054339 252.194359
L 125.181221 252.007447
L 125.308103 252.309086
L 125.434984 252.135992
L 125.561866 253.00334
L 125.688747 252.956514
L 125.815629 252.337267
L 125.942511 252.434779
L 126.069392 251.316793
L 126.196274 252.17755
L 126.323155 252.074823
L 126.450037 252.674932
L 126.576919 252.307554
L 126.7038 252.336622
L 126.830682 251.45145
L 127.084445 252.695321
L 127.211327 252.000957
L 127.46509 252.768306
L 127.591972 251.252743
L 127.718853 252.42718
L 127.845735 252.515051
L 127.972617 253.034118
L 128.22638 251.969515
L 128.353261 251.789402
L 128.607025 252.543978
L 128.860788 252.089557
L 128.98767 252.470403
L 129.114551 252.432122
L 129.241433 251.788728
L 129.368314 252.681042
L 129.495196 252.475451
L 129.622078 252.804197
L 129.748959 252.284791
L 129.875841 252.461997
L 130.002723 252.197978
L 130.256486 252.360617
L 130.383367 252.221467
L 130.637131 252.504958
L 131.017776 252.373303
L 131.271539 252.612418
L 131.39842 252.529424
L 131.525302 252.700469
L 131.779065 251.98131
L 131.905947 252.702917
L 132.032829 251.762488
L 132.15971 252.661256
L 132.286592 252.181053
L 132.413473 252.582668
L 132.540355 252.563257
L 132.667237 252.894838
L 132.794118 252.900696
L 132.921 252.467819
L 133.047881 252.803558
L 133.428526 252.519692
L 133.555408 252.259677
L 133.809171 252.802897
L 133.936053 252.587449
L 134.062934 252.978071
L 134.189816 251.910261
L 134.570461 253.189107
L 134.697343 252.062578
L 134.824224 253.090137
L 134.951106 252.265454
L 135.077987 253.422757
L 135.204869 252.582852
L 135.331751 252.860125
L 135.712396 252.043403
L 135.839277 252.872934
L 135.966159 252.45762
L 136.09304 252.883436
L 136.346804 252.400927
L 136.473685 252.654547
L 136.600567 253.34655
L 136.727449 252.630691
L 136.85433 253.014
L 136.981212 252.188853
L 137.108093 252.678268
L 137.234975 252.567734
L 137.361857 253.370693
L 137.488738 252.340164
L 137.61562 252.482611
L 137.742502 253.021445
L 137.869383 252.912356
L 137.996265 252.305083
L 138.250028 253.024519
L 138.37691 252.453059
L 138.503791 253.524726
L 138.630673 252.892016
L 138.757555 253.225162
L 138.884436 252.851042
L 139.011318 253.348853
L 139.265081 252.655382
L 139.645726 252.486472
L 139.899489 253.363123
L 140.026371 252.341825
L 140.407016 253.341063
L 140.533897 252.399172
L 140.660779 253.14931
L 140.914542 253.016771
L 141.168305 252.338632
L 141.422069 253.353604
L 141.675832 252.996731
L 141.802713 252.444237
L 141.929595 253.319168
L 142.056477 253.004382
L 142.183358 253.156283
L 142.31024 252.736344
L 142.437122 253.751909
L 142.564003 252.306292
L 142.817766 253.33188
L 142.944648 253.717835
L 143.07153 252.908941
L 143.198411 253.072673
L 143.325293 252.866247
L 143.452175 253.128637
L 143.579056 252.878459
L 143.705938 253.594744
L 143.832819 253.367183
L 143.959701 252.748072
L 144.086583 253.379399
L 144.213464 253.418228
L 144.340346 252.653711
L 144.467228 253.485387
L 144.594109 253.378708
L 144.720991 253.099849
L 144.974754 253.494432
L 145.101636 252.655089
L 145.228517 252.724683
L 145.355399 252.409965
L 145.609162 253.219675
L 145.736044 253.686979
L 145.862925 252.945067
L 145.989807 253.710674
L 146.116689 252.822337
L 146.370452 253.078557
L 146.497333 252.41809
L 146.751097 253.509821
L 147.00486 253.051085
L 147.131742 253.680547
L 147.258623 253.516753
L 147.385505 253.119957
L 147.512386 253.50947
L 147.639268 253.114309
L 147.893031 253.581635
L 148.019913 253.218927
L 148.146795 253.40351
L 148.273676 253.84289
L 148.400558 253.733191
L 148.527439 252.685835
L 148.654321 253.453271
L 148.781203 252.714529
L 148.908084 253.705535
L 149.034966 253.559366
L 149.161848 253.156528
L 149.288729 252.226727
L 149.415611 252.64228
L 149.542492 253.62699
L 149.669374 253.671044
L 149.796256 253.525649
L 149.923137 253.638015
L 150.050019 252.809703
L 150.176901 252.996366
L 150.303782 253.67297
L 150.430664 253.389653
L 150.557545 253.521024
L 150.684427 253.209566
L 150.811309 253.316952
L 150.93819 253.592647
L 151.065072 253.072893
L 151.191954 254.256026
L 151.318835 253.925603
L 151.445717 253.216872
L 151.69948 253.464731
L 151.826362 253.007701
L 151.953243 253.894457
L 152.080125 253.176856
L 152.207007 253.314687
L 152.46077 253.900298
L 152.587651 254.040017
L 152.714533 253.144326
L 152.841415 254.064128
L 152.968296 253.530791
L 153.095178 253.566149
L 153.222059 253.31232
L 153.348941 253.486607
L 153.475823 253.967609
L 153.602704 253.968925
L 153.856468 253.160689
L 153.983349 253.562427
L 154.110231 253.43164
L 154.237112 253.488578
L 154.363994 253.88287
L 154.871521 252.590007
L 154.998402 254.259278
L 155.379047 253.409219
L 155.505929 253.839029
L 155.63281 253.151909
L 155.886574 253.683411
L 156.013455 253.594982
L 156.140337 253.906917
L 156.267218 253.705977
L 156.520982 254.033724
L 156.647863 254.181606
L 156.901627 253.228723
L 157.028508 253.874649
L 157.15539 253.105023
L 157.282271 253.339037
L 157.409153 253.105119
L 157.662916 253.977367
L 158.170443 253.390904
L 158.297324 254.012861
L 158.424206 253.229197
L 158.551088 254.524645
L 158.804851 253.386208
L 158.931733 253.64834
L 159.058614 253.043311
L 159.185496 254.365683
L 159.312377 254.130474
L 159.439259 254.253268
L 159.693022 253.598521
L 159.819904 254.098312
L 159.946785 253.128395
L 160.073667 253.929315
L 160.454312 253.37488
L 160.581194 254.07115
L 160.708075 253.739175
L 160.961838 253.868004
L 161.08872 253.525655
L 161.596247 254.035343
L 161.85001 253.882358
L 161.976891 254.519271
L 162.103773 253.91522
L 162.230655 254.058709
L 162.357536 253.907075
L 162.6113 254.247214
L 162.738181 254.07076
L 162.991944 254.346265
L 163.245708 253.927812
L 163.626353 254.265122
L 163.753234 253.676567
L 163.880116 254.099409
L 164.133879 253.528481
L 164.514524 254.362373
L 164.641406 252.858967
L 164.768287 254.223287
L 164.895169 254.08062
L 165.148932 253.396733
L 165.275814 254.052329
L 165.402695 253.403468
L 165.529577 253.707529
L 165.78334 254.515452
L 165.910222 254.809043
L 166.163985 253.306243
L 166.417748 254.252868
L 166.54463 253.982827
L 166.671511 254.147657
L 166.798393 254.070092
L 166.925275 253.848341
L 167.179038 254.009871
L 167.30592 253.458973
L 167.559683 253.854073
L 167.686564 253.520288
L 167.940328 254.184612
L 168.194091 253.889002
L 168.320973 254.62646
L 168.447854 254.015809
L 168.701617 254.277054
L 168.828499 254.202263
L 169.082262 253.893176
L 169.209144 254.361728
L 169.336026 254.095542
L 169.462907 254.605839
L 169.589789 254.103418
L 169.71667 255.110943
L 169.970434 253.641666
L 170.097315 253.819201
L 170.224197 253.585777
L 170.47796 254.827761
L 170.604842 254.071963
L 170.858605 254.6877
L 170.985487 254.070173
L 171.112368 254.881779
L 171.23925 253.861824
L 171.366132 254.501027
L 171.493013 254.323724
L 171.619895 254.839324
L 171.873658 253.912204
L 172.00054 254.116185
L 172.127421 254.801998
L 172.254303 254.871848
L 172.381185 254.172542
L 172.508066 254.159911
L 172.634948 253.868472
L 172.761829 253.988395
L 173.015593 254.413679
L 173.142474 254.551278
L 173.269356 253.690056
L 173.396237 254.481677
L 173.523119 254.554904
L 173.650001 254.931408
L 173.903764 253.980486
L 174.284409 254.687955
L 174.41129 254.802172
L 174.665054 254.104789
L 174.918817 255.114613
L 175.045699 254.348661
L 175.299462 254.200037
L 175.426343 254.666963
L 175.553225 254.234334
L 175.680107 254.666263
L 175.806988 254.099548
L 176.060752 254.956593
L 176.187633 254.535941
L 176.314515 255.353121
L 176.441396 254.026663
L 176.69516 254.558216
L 176.822041 254.749889
L 176.948923 254.505543
L 177.075805 254.876251
L 177.202686 254.451712
L 177.583331 254.891656
L 177.710213 254.731368
L 177.837094 254.341807
L 177.963976 254.359915
L 178.090858 253.777998
L 178.217739 254.68522
L 178.344621 254.645678
L 178.725266 255.33948
L 178.852147 254.201069
L 178.979029 254.779687
L 179.105911 254.168852
L 179.232792 254.335556
L 179.359674 254.964589
L 179.613437 254.392432
L 179.740319 254.830512
L 179.8672 254.716469
L 180.120963 254.826887
L 180.247845 254.416314
L 180.374727 254.706818
L 180.62849 254.14648
L 180.755372 254.692287
L 180.882253 254.654019
L 181.136016 254.148044
L 181.262898 255.120826
L 181.38978 255.115655
L 181.516661 254.911558
L 181.643543 254.936175
L 181.770425 255.165497
L 182.024188 254.309629
L 182.151069 255.37042
L 182.277951 254.866184
L 182.531714 255.158791
L 182.658596 254.944478
L 182.785478 254.481545
L 182.912359 254.650255
L 183.039241 254.536828
L 183.546767 255.254854
L 183.673649 254.682623
L 183.800531 255.066659
L 183.927412 254.619828
L 184.054294 254.737422
L 184.181175 255.439744
L 184.308057 255.22205
L 184.434939 254.497647
L 184.56182 255.022352
L 184.815584 254.54854
L 184.942465 254.990048
L 185.069347 254.957696
L 185.196228 254.633472
L 185.32311 254.908084
L 185.449992 254.795986
L 185.576873 255.079016
L 185.703755 254.780367
L 185.830637 255.339638
L 185.957518 255.234927
L 186.211281 254.453895
L 186.338163 254.810826
L 186.465045 254.355387
L 186.591926 255.629165
L 186.718808 254.887488
L 186.972571 254.847927
L 187.226334 255.182044
L 187.353216 254.664912
L 187.480098 254.630572
L 187.606979 254.480271
L 187.733861 254.721411
L 187.860742 255.350128
L 187.987624 254.925605
L 188.114506 255.307683
L 188.241387 255.336474
L 188.368269 254.805391
L 188.495151 255.627349
L 188.622032 255.644702
L 188.875795 255.14176
L 189.002677 255.091154
L 189.129559 254.405257
L 189.383322 255.177299
L 189.510204 254.730342
L 189.637085 254.764314
L 189.763967 255.108401
L 189.890848 254.934401
L 190.144612 255.074652
L 190.271493 255.455439
L 190.525257 254.61936
L 190.77902 255.251951
L 190.905901 255.028236
L 191.032783 255.598922
L 191.159665 255.381716
L 191.286546 254.73978
L 191.413428 255.293593
L 191.54031 254.792328
L 191.667191 255.152423
L 191.920954 254.796421
L 192.047836 255.256535
L 192.174718 255.212035
L 192.428481 255.452826
L 192.555363 255.230095
L 192.809126 255.294038
L 192.936007 254.35687
L 193.062889 255.439902
L 193.189771 255.450801
L 193.316652 256.216814
L 193.443534 255.861841
L 193.570415 254.687291
L 193.697297 255.749517
L 193.95106 254.85952
L 194.077942 255.551032
L 194.204824 255.582923
L 194.331705 254.841643
L 194.458587 255.440208
L 194.585468 255.032942
L 194.71235 255.343615
L 194.839232 255.35526
L 195.092995 255.611395
L 195.219877 255.356582
L 195.346758 255.862844
L 195.600521 255.063878
L 195.727403 255.623417
L 195.854285 255.169777
L 195.981166 255.40834
L 196.23493 254.786664
L 196.361811 255.815444
L 196.488693 255.23242
L 196.615574 255.51606
L 196.742456 255.185998
L 196.869338 255.784827
L 196.996219 255.114629
L 197.123101 255.12498
L 197.249983 254.644033
L 197.503746 255.469316
L 197.630627 255.327778
L 198.011272 255.9316
L 198.138154 255.254119
L 198.265036 255.55359
L 198.391917 255.137811
L 198.518799 255.531233
L 198.64568 255.542794
L 198.772562 255.179405
L 198.899444 255.962998
L 199.153207 255.28213
L 199.280088 255.897309
L 199.533852 255.602854
L 199.787615 255.838556
L 199.914497 255.45413
L 200.16826 256.098136
L 200.422023 255.538278
L 200.548905 254.836076
L 200.675786 256.113873
L 200.802668 255.425003
L 201.183313 256.152364
L 201.310194 256.147626
L 201.563958 255.598706
L 201.817721 255.671258
L 201.944603 255.856628
L 202.071484 255.516796
L 202.198366 256.034899
L 202.325247 255.940141
L 202.452129 255.648041
L 202.579011 255.037809
L 202.705892 255.897593
L 202.832774 255.49632
L 202.959656 256.618855
L 203.213419 255.159636
L 203.3403 256.142852
L 203.467182 255.491133
L 203.720945 256.056358
L 203.847827 255.929407
L 203.974709 255.626607
L 204.10159 254.811339
L 204.482235 256.619139
L 204.609117 255.626007
L 204.735998 256.024951
L 204.86288 255.719494
L 204.989762 256.190168
L 205.116643 255.659727
L 205.370406 255.925165
L 205.497288 256.00752
L 205.62417 255.869376
L 205.751051 255.921594
L 205.877933 256.233206
L 206.131696 255.437808
L 206.258578 256.585477
L 206.385459 255.710955
L 206.512341 256.129385
L 206.639223 255.809658
L 206.766104 254.6926
L 206.892986 255.928613
L 207.019867 255.903422
L 207.273631 256.067042
L 207.400512 256.058678
L 207.527394 256.66418
L 207.654276 255.47876
L 207.781157 255.802287
L 207.908039 255.252942
L 208.03492 256.252921
L 208.161802 255.290229
L 208.542447 256.172966
L 208.669329 256.012817
L 208.79621 255.558915
L 208.923092 255.598622
L 209.049973 256.248657
L 209.176855 255.446104
L 209.303737 256.127937
L 209.5575 255.282075
L 209.811263 256.174904
L 209.938145 256.235909
L 210.065026 256.140504
L 210.191908 255.365488
L 210.31879 255.892242
L 210.445671 255.705333
L 210.699435 256.259746
L 210.826316 256.491464
L 210.953198 256.028141
L 211.080079 256.278377
L 211.206961 256.887425
L 211.460724 256.018484
L 211.587606 255.807419
L 211.841369 256.837587
L 212.095132 256.239054
L 212.222014 256.681866
L 212.475777 255.937442
L 212.602659 256.049146
L 212.72954 256.43422
L 212.856422 255.714004
L 212.983304 256.244764
L 213.110185 255.963659
L 213.237067 256.524143
L 213.363949 256.206947
L 213.49083 256.263733
L 213.617712 255.859389
L 213.744593 256.409793
L 213.871475 256.138972
L 213.998357 256.415941
L 214.125238 256.040802
L 214.25212 256.062977
L 214.379002 256.342314
L 214.505883 256.298363
L 214.632765 256.487765
L 214.759646 255.842613
L 214.886528 255.822553
L 215.01341 256.316081
L 215.140291 255.891626
L 215.394055 256.86214
L 215.520936 255.775447
L 215.901581 256.739817
L 216.155344 256.085498
L 216.282226 256.826968
L 216.409108 256.250402
L 216.535989 256.490319
L 216.662871 256.463163
L 216.916634 256.221382
L 217.043516 256.534722
L 217.170397 255.884133
L 217.297279 256.798919
L 217.424161 256.442326
L 217.677924 256.720308
L 217.804805 256.687179
L 218.058569 256.216314
L 218.312332 256.469608
L 218.439214 256.4079
L 218.566095 256.527271
L 218.692977 256.030799
L 218.819858 256.647898
L 218.94674 256.247354
L 219.200503 256.908172
L 219.327385 256.384427
L 219.454266 256.469305
L 219.581148 256.844773
L 219.834911 256.392449
L 220.088675 256.035844
L 220.215556 256.656139
L 220.342438 256.360094
L 220.723083 257.041839
L 220.849964 256.738017
L 220.976846 257.286611
L 221.230609 256.02439
L 221.357491 256.293383
L 221.484372 257.233892
L 221.865017 256.470698
L 221.991899 256.388598
L 222.245662 256.997952
L 222.372544 256.185158
L 222.626307 256.72696
L 222.753189 256.679257
L 222.88007 255.909205
L 223.133834 257.608796
L 223.260715 256.163989
L 223.387597 256.47933
L 223.514478 257.125749
L 223.768242 256.420612
L 224.148887 257.05477
L 224.275768 256.517237
L 224.40265 256.489355
L 224.529531 256.972893
L 224.656413 256.238922
L 224.783295 256.67108
L 224.910176 256.651717
L 225.037058 256.408642
L 225.16394 256.552795
L 225.290821 256.085885
L 225.544584 257.02436
L 225.671466 257.28265
L 225.925229 256.614313
L 226.052111 256.810418
L 226.178992 257.238547
L 226.305874 256.475327
L 226.432756 256.566281
L 226.559637 257.138909
L 226.686519 256.209192
L 226.813401 257.334459
L 226.940282 256.826778
L 227.194045 256.883351
L 227.320927 257.083188
L 227.447809 256.470676
L 227.57469 256.687982
L 227.701572 257.291714
L 227.828454 256.970364
L 227.955335 257.203327
L 228.209098 256.281077
L 228.462862 257.195334
L 228.970388 256.375157
L 229.224151 256.986453
L 229.351033 256.792168
L 229.604796 257.022486
L 229.731678 256.67189
L 229.85856 256.752235
L 229.985441 257.010816
L 230.239204 256.851986
L 230.366086 257.29622
L 230.619849 257.232857
L 230.746731 256.744236
L 230.873613 257.440183
L 231.000494 256.729917
L 231.127376 256.984695
L 231.254257 256.862856
L 231.381139 256.99772
L 231.508021 256.587799
L 231.761784 257.460082
L 232.015547 257.031682
L 232.26931 257.187286
L 232.396192 256.692501
L 232.523074 257.227364
L 232.649955 256.82251
L 233.0306 257.430958
L 233.284363 256.357933
L 233.411245 256.803399
L 233.538127 257.662783
L 233.79189 256.939744
L 233.918771 257.411479
L 234.172535 256.792113
L 234.299416 256.622455
L 234.55318 257.526764
L 234.680061 256.424611
L 234.806943 257.423268
L 234.933824 257.237328
L 235.060706 257.352845
L 235.187588 257.69119
L 235.314469 257.434126
L 235.568233 257.499395
L 235.695114 257.165901
L 235.821996 257.153498
L 236.202641 256.866533
L 236.583286 257.524916
L 236.710167 257.01647
L 236.837049 257.099941
L 236.96393 257.913793
L 237.090812 256.871942
L 237.217694 257.391235
L 237.471457 257.036417
L 237.598339 257.844808
L 237.978983 256.824514
L 238.105865 257.473336
L 238.232747 257.215013
L 238.359628 256.634254
L 238.613392 257.625531
L 238.740273 257.677124
L 238.867155 257.575802
L 238.994036 257.627721
L 239.2478 257.014754
L 239.374681 257.271264
L 239.501563 257.241489
L 239.628444 257.050967
L 239.755326 257.635262
L 239.882208 257.305955
L 240.009089 257.745035
L 240.135971 257.423885
L 240.262853 257.48517
L 240.389734 257.825977
L 240.643497 256.964632
L 240.897261 257.661844
L 241.277906 256.967142
L 241.404787 257.797027
L 241.531669 257.41474
L 241.65855 257.869651
L 241.785432 257.314248
L 241.912314 258.125264
L 242.039195 257.56978
L 242.166077 257.884601
L 242.41984 257.446857
L 242.546722 258.107182
L 242.673603 257.574012
L 242.800485 257.730271
L 242.927367 257.19277
L 243.054248 257.930201
L 243.18113 257.784596
L 243.434893 257.01726
L 243.561775 257.748189
L 243.688656 257.432148
L 243.815538 257.554868
L 243.94242 257.92776
L 244.069301 257.3923
L 244.196183 257.510559
L 244.323065 257.867625
L 244.449946 257.760566
L 244.576828 257.23846
L 244.703709 257.401735
L 244.830591 258.166242
L 245.084354 256.921974
L 245.338118 258.259028
L 245.464999 258.176615
L 245.591881 257.781477
L 245.718762 258.093915
L 245.845644 257.482261
L 245.972526 257.928795
L 246.099407 257.848875
L 246.226289 257.6099
L 246.35317 257.689765
L 246.480052 257.33344
L 246.733815 257.645868
L 246.860697 258.311379
L 246.987579 257.533389
L 247.11446 258.003718
L 247.368223 257.676043
L 247.495105 257.822777
L 247.621987 257.574044
L 247.748868 258.14096
L 247.87575 257.355445
L 248.002632 257.545721
L 248.129513 257.431581
L 248.383276 257.859965
L 248.510158 257.775297
L 248.63704 258.043499
L 248.763921 257.532241
L 248.890803 257.566951
L 249.144566 257.916809
L 249.271448 257.660834
L 249.525211 257.779309
L 249.778974 257.338678
L 249.905856 257.67822
L 250.032738 257.698974
L 250.159619 257.945307
L 250.286501 257.568874
L 250.540264 258.074765
L 250.667146 257.235944
L 250.794027 257.367934
L 251.047791 257.815326
L 251.301554 258.032258
L 251.428435 257.520268
L 251.555317 258.202216
L 251.682199 257.144896
L 251.935962 258.118819
L 252.062844 257.505775
L 252.189725 257.810597
L 252.443488 257.421246
L 252.57037 257.899649
L 252.697252 257.753124
L 252.824133 257.878086
L 252.951015 257.755634
L 253.077896 257.869754
L 253.458541 257.319967
L 253.712305 258.508625
L 253.839186 257.457072
L 253.966068 257.921699
L 254.092949 257.918986
L 254.219831 258.050863
L 254.346713 258.411294
L 254.600476 257.881424
L 254.727358 257.771336
L 254.854239 258.064972
L 254.981121 257.713876
L 255.108002 258.568653
L 255.234884 257.934436
L 255.361766 258.234617
L 255.488647 257.848898
L 255.615529 258.381974
L 255.742411 257.646148
L 255.869292 258.302302
L 255.996174 257.145586
L 256.123055 258.293364
L 256.376819 257.390245
L 256.5037 257.818471
L 256.630582 257.326111
L 256.884345 258.217973
L 257.011227 258.249087
L 257.26499 257.667566
L 257.391872 258.022846
L 257.518753 257.817577
L 257.645635 258.887013
L 257.772517 258.050283
L 257.899398 257.95517
L 258.280043 258.512009
L 258.406925 258.22566
L 258.660688 258.477386
L 258.78757 257.365383
L 259.041333 258.306799
L 259.421978 257.393445
L 259.548859 258.247242
L 259.802622 258.362672
L 259.929504 257.694067
L 260.183267 257.981446
L 260.310149 257.971676
L 260.437031 257.757282
L 260.690794 258.508725
L 260.817675 257.892359
L 261.071439 258.027868
L 261.19832 258.549358
L 261.452084 258.147653
L 261.578965 258.004883
L 261.705847 258.417074
L 261.832728 258.359714
L 261.95961 257.770397
L 262.086492 258.223905
L 262.213373 258.205171
L 262.340255 258.013443
L 262.467137 258.798617
L 262.594018 258.846519
L 262.7209 258.297554
L 262.847781 258.833295
L 262.974663 258.677206
L 263.228426 257.834402
L 263.355308 258.13546
L 263.48219 259.035489
L 263.735953 257.931872
L 263.862834 258.032277
L 263.989716 258.780486
L 264.116598 257.864922
L 264.243479 257.97424
L 264.370361 258.701559
L 264.497243 258.688338
L 264.751006 257.998299
L 264.877887 258.691767
L 265.004769 258.635355
L 265.131651 258.072539
L 265.258532 258.172977
L 265.385414 258.53204
L 265.766059 257.634656
L 265.89294 258.592406
L 266.019822 257.880186
L 266.400467 258.260283
L 266.527348 257.951013
L 266.65423 258.649221
L 266.781112 258.318766
L 267.034875 258.475454
L 267.161757 258.035197
L 267.542401 258.498404
L 267.669283 258.0814
L 267.796165 258.579056
L 267.923046 257.994703
L 268.049928 258.197607
L 268.17681 257.770846
L 268.303691 257.912061
L 268.430573 259.131298
L 268.557454 258.3754
L 268.684336 258.306608
L 268.811218 258.422735
L 268.938099 257.726681
L 269.064981 258.712678
L 269.191863 257.811301
L 269.318744 257.877537
L 269.445626 258.384835
L 269.572507 258.145424
L 269.699389 257.313919
L 269.826271 258.749188
L 269.953152 258.537591
L 270.080034 258.01912
L 270.206916 258.045944
L 270.460679 258.628075
L 270.58756 258.529408
L 270.714442 258.029278
L 270.841324 258.624159
L 270.968205 258.662627
L 271.095087 259.091853
L 271.221969 258.692131
L 271.34885 258.847042
L 271.475732 258.495356
L 271.602613 258.779028
L 271.729495 258.390863
L 271.856377 258.709136
L 271.983258 258.183863
L 272.11014 258.599515
L 272.237022 258.547448
L 272.363903 258.32084
L 272.490785 258.543226
L 272.617666 257.909712
L 272.87143 258.523718
L 272.998311 258.343261
L 273.252074 258.712088
L 273.378956 257.994764
L 273.505838 258.624291
L 273.632719 258.128064
L 273.759601 258.13985
L 274.013364 258.617795
L 274.140246 258.466148
L 274.267127 257.94402
L 274.394009 258.749298
L 274.520891 258.789982
L 274.647772 258.23174
L 274.774654 258.997373
L 274.901536 258.20629
L 275.155299 259.019187
L 275.28218 258.445459
L 275.409062 258.536236
L 275.535944 258.398914
L 275.662825 258.564741
L 275.789707 258.419893
L 275.916589 258.077639
L 276.04347 258.625842
L 276.424115 258.159255
L 276.550997 258.459249
L 276.677878 258.335806
L 276.80476 258.854022
L 276.931642 258.609466
L 277.058523 257.807291
L 277.185405 259.191087
L 277.439168 258.363027
L 277.56605 258.95525
L 277.692931 258.912937
L 277.819813 258.582388
L 277.946695 259.215895
L 278.073576 258.706701
L 278.200458 258.880452
L 278.327339 258.25229
L 278.454221 258.449878
L 278.581103 259.254095
L 278.707984 258.480586
L 278.834866 258.799755
L 278.961748 259.704
L 279.088629 259.345088
L 279.342392 258.346222
L 279.469274 258.752939
L 279.723037 258.091325
L 279.9768 259.13611
L 280.103682 258.443592
L 280.230564 259.287883
L 280.357445 258.026575
L 280.611209 258.661449
L 280.73809 258.685022
L 280.864972 259.236306
L 281.118735 258.587778
L 281.245617 258.182015
L 281.49938 258.808084
L 281.626262 258.897554
L 281.753143 258.297167
L 282.006906 259.118512
L 282.133788 258.782692
L 282.387551 259.364748
L 282.514433 258.155617
L 282.641315 258.869537
L 282.768196 258.608124
L 282.895078 259.249647
L 283.021959 258.075597
L 283.148841 258.245029
L 283.275723 259.036479
L 283.402604 258.438434
L 283.656368 258.678697
L 283.783249 258.520847
L 283.910131 259.202983
L 284.037012 257.774987
L 284.290776 258.976861
L 284.417657 258.222024
L 284.544539 259.494832
L 284.671421 258.908376
L 284.798302 259.391472
L 285.305829 258.134086
L 285.43271 258.950444
L 285.686474 258.349841
L 285.813355 259.035541
L 285.940237 258.683506
L 286.067118 259.377202
L 286.194 258.415068
L 286.320882 259.128408
L 286.447763 258.451917
L 286.574645 258.442124
L 286.701526 258.972726
L 286.828408 258.271518
L 286.95529 259.539483
L 287.082171 258.636716
L 287.209053 259.015258
L 287.335935 258.803555
L 287.462816 258.93689
L 287.589698 258.629207
L 287.716579 259.059578
L 287.843461 259.012797
L 288.097224 258.344841
L 288.224106 258.731631
L 288.477869 258.403598
L 288.604751 258.983877
L 288.731632 258.631197
L 288.985396 258.705878
L 289.112277 258.781824
L 289.239159 258.659559
L 289.492922 259.114064
L 289.619804 258.435341
L 289.746685 258.582491
L 289.873567 258.497259
L 290.000449 259.228491
L 290.12733 259.119512
L 290.381094 258.369833
L 290.507975 258.249739
L 290.634857 259.156661
L 290.761738 258.863028
L 290.88862 258.970317
L 291.142383 258.432925
L 291.269265 258.708259
L 291.396147 259.256808
L 291.523028 258.556503
L 291.776791 258.947338
L 291.903673 258.82905
L 292.030555 258.770777
L 292.157436 259.004366
L 292.284318 258.847987
L 292.4112 258.27153
L 292.664963 259.054388
L 292.791844 258.46748
L 293.045608 259.052078
L 293.172489 258.285623
L 293.426252 258.881436
L 293.553134 258.910476
L 293.680016 259.623364
L 293.933779 258.222115
L 294.060661 258.238139
L 294.187542 258.437021
L 294.314424 258.256528
L 294.441305 258.990812
L 294.568187 258.528453
L 294.695069 259.123318
L 294.82195 258.830559
L 295.075714 258.787214
L 295.202595 258.679061
L 295.329477 258.78155
L 295.456358 258.703485
L 295.58324 259.017861
L 295.710122 258.497281
L 295.837003 259.20986
L 295.963885 258.810348
L 295.963885 258.810348
" clip-path="url(#pcf3eacb16b)" style="fill: none; stroke: #56b4e9; stroke-opacity: 0.55; stroke-linecap: round"/>
   </g>
   <g id="line2d_38">
    <path d="M 45.37268 222.673168
L 48.544721 232.615968
L 51.716761 237.442766
L 54.888802 241.19829
L 58.060843 243.151765
L 61.232883 244.856873
L 64.404924 245.591675
L 67.576964 246.812161
L 70.749005 247.814466
L 73.921045 248.1309
L 77.093086 248.620202
L 80.265126 248.993764
L 83.437167 249.138737
L 86.609208 249.584733
L 89.781248 249.779015
L 92.953289 249.848616
L 96.125329 250.244999
L 99.29737 250.842557
L 102.46941 250.715993
L 105.641451 251.22878
L 108.813492 251.133013
L 111.985532 251.439683
L 115.157573 251.3484
L 118.329613 251.847985
L 121.501654 251.900058
L 124.673694 251.676611
L 127.845735 252.647483
L 131.017776 252.248316
L 134.189816 252.439063
L 137.361857 253.205009
L 140.533897 252.712452
L 143.705938 252.790269
L 146.877978 252.836259
L 150.050019 253.170663
L 153.222059 253.641556
L 156.3941 253.245096
L 159.566141 253.874981
L 162.738181 253.983247
L 165.910222 253.7854
L 169.082262 254.120091
L 172.254303 254.258916
L 175.426343 254.285121
L 178.598384 255.052108
L 181.770425 254.579402
L 184.942465 254.729591
L 188.114506 255.124425
L 191.286546 254.976578
L 194.458587 255.125961
L 197.630627 255.347499
L 200.802668 255.148798
L 203.974709 255.730754
L 207.146749 255.182766
L 210.31879 256.113664
L 213.49083 255.861144
L 216.662871 256.159222
L 219.834911 256.292031
L 223.006952 257.151321
L 226.178992 256.75099
L 229.351033 256.649149
L 232.523074 257.18978
L 235.695114 257.617067
L 238.867155 256.968419
L 242.039195 257.450208
L 245.211236 257.304158
L 248.383276 257.4715
L 251.555317 257.528664
L 254.727358 257.817026
L 257.899398 257.911141
L 261.071439 258.142721
L 264.243479 258.270647
L 267.41552 257.744583
L 270.58756 258.41619
L 273.759601 258.446201
L 276.931642 258.270098
L 280.103682 258.650228
L 283.275723 258.354582
L 286.447763 258.578972
L 289.619804 258.841368
L 292.791844 258.635974
L 295.963885 258.730309
" clip-path="url(#pcf3eacb16b)" style="fill: none; stroke: #0072b2; stroke-width: 2; stroke-linecap: round"/>
   </g>
   <g id="patch_3">
    <path d="M 29.645703 270.288
L 29.645703 37.44
" style="fill: none; stroke: #cccccc; stroke-linejoin: miter; stroke-linecap: square"/>
   </g>
   <g id="patch_4">
    <path d="M 308.645703 270.288
L 308.645703 37.44
" style="fill: none; stroke: #cccccc; stroke-linejoin: miter; stroke-linecap: square"/>
   </g>
   <g id="patch_5">
    <path d="M 29.645703 270.288
L 308.645703 270.288
" style="fill: none; stroke: #cccccc; stroke-linejoin: miter; stroke-linecap: square"/>
   </g>
   <g id="patch_6">
    <path d="M 29.645703 37.44
L 308.645703 37.44
" style="fill: none; stroke: #cccccc; stroke-linejoin: miter; stroke-linecap: square"/>
   </g>
   <g id="text_21">
    <text style="font-size: 12px; font-family: 'Arial', 'Liberation Sans', 'DejaVu Sans', 'Bitstream Vera Sans', sans-serif; text-anchor: middle; fill: #262626" x="169.145703" y="31.44" transform="rotate(-0 169.145703 31.44)">TinyStories baseline</text>
   </g>
   <g id="legend_1">
    <g id="line2d_39">
     <path d="M 236.486797 48.942246
L 245.486797 48.942246
L 254.486797 48.942246
" style="fill: none; stroke: #56b4e9; stroke-opacity: 0.55; stroke-linecap: round"/>
    </g>
    <g id="text_22">
     <text style="font-size: 9px; font-family: 'Arial', 'Liberation Sans', 'DejaVu Sans', 'Bitstream Vera Sans', sans-serif; text-anchor: start; fill: #262626" x="261.686797" y="52.092246" transform="rotate(-0 261.686797 52.092246)">Train</text>
    </g>
    <g id="line2d_40">
     <path d="M 236.486797 61.888535
L 245.486797 61.888535
L 254.486797 61.888535
" style="fill: none; stroke: #0072b2; stroke-width: 2; stroke-linecap: round"/>
    </g>
    <g id="text_23">
     <text style="font-size: 9px; font-family: 'Arial', 'Liberation Sans', 'DejaVu Sans', 'Bitstream Vera Sans', sans-serif; text-anchor: start; fill: #262626" x="261.686797" y="65.038535" transform="rotate(-0 261.686797 65.038535)">Validation</text>
    </g>
   </g>
  </g>
  <g id="axes_2">
   <g id="patch_7">
    <path d="M 364.445703 270.288
L 643.445703 270.288
L 643.445703 37.44
L 364.445703 37.44
z
" style="fill: #ffffff"/>
   </g>
   <g id="matplotlib.axis_3">
    <g id="xtick_10">
     <g id="line2d_41">
      <path d="M 373.923651 270.288
L 373.923651 37.44
" clip-path="url(#p97a1cce5cb)" style="fill: none; stroke: #cccccc; stroke-width: 0.8; stroke-linecap: round"/>
     </g>
     <g id="line2d_42"/>
     <g id="text_24">
      <text style="font-size: 10px; font-family: 'Arial', 'Liberation Sans', 'DejaVu Sans', 'Bitstream Vera Sans', sans-serif; text-anchor: middle; fill: #262626" x="373.923651" y="281.068273" transform="rotate(-0 373.923651 281.068273)">0</text>
     </g>
    </g>
    <g id="xtick_11">
     <g id="line2d_43">
      <path d="M 410.610193 270.288
L 410.610193 37.44
" clip-path="url(#p97a1cce5cb)" style="fill: none; stroke: #cccccc; stroke-width: 0.8; stroke-linecap: round"/>
     </g>
     <g id="line2d_44"/>
     <g id="text_25">
      <text style="font-size: 10px; font-family: 'Arial', 'Liberation Sans', 'DejaVu Sans', 'Bitstream Vera Sans', sans-serif; text-anchor: middle; fill: #262626" x="410.610193" y="281.068273" transform="rotate(-0 410.610193 281.068273)">25</text>
     </g>
    </g>
    <g id="xtick_12">
     <g id="line2d_45">
      <path d="M 447.296736 270.288
L 447.296736 37.44
" clip-path="url(#p97a1cce5cb)" style="fill: none; stroke: #cccccc; stroke-width: 0.8; stroke-linecap: round"/>
     </g>
     <g id="line2d_46"/>
     <g id="text_26">
      <text style="font-size: 10px; font-family: 'Arial', 'Liberation Sans', 'DejaVu Sans', 'Bitstream Vera Sans', sans-serif; text-anchor: middle; fill: #262626" x="447.296736" y="281.068273" transform="rotate(-0 447.296736 281.068273)">50</text>
     </g>
    </g>
    <g id="xtick_13">
     <g id="line2d_47">
      <path d="M 483.983279 270.288
L 483.983279 37.44
" clip-path="url(#p97a1cce5cb)" style="fill: none; stroke: #cccccc; stroke-width: 0.8; stroke-linecap: round"/>
     </g>
     <g id="line2d_48"/>
     <g id="text_27">
      <text style="font-size: 10px; font-family: 'Arial', 'Liberation Sans', 'DejaVu Sans', 'Bitstream Vera Sans', sans-serif; text-anchor: middle; fill: #262626" x="483.983279" y="281.068273" transform="rotate(-0 483.983279 281.068273)">75</text>
     </g>
    </g>
    <g id="xtick_14">
     <g id="line2d_49">
      <path d="M 520.669821 270.288
L 520.669821 37.44
" clip-path="url(#p97a1cce5cb)" style="fill: none; stroke: #cccccc; stroke-width: 0.8; stroke-linecap: round"/>
     </g>
     <g id="line2d_50"/>
     <g id="text_28">
      <text style="font-size: 10px; font-family: 'Arial', 'Liberation Sans', 'DejaVu Sans', 'Bitstream Vera Sans', sans-serif; text-anchor: middle; fill: #262626" x="520.669821" y="281.068273" transform="rotate(-0 520.669821 281.068273)">100</text>
     </g>
    </g>
    <g id="xtick_15">
     <g id="line2d_51">
      <path d="M 557.356364 270.288
L 557.356364 37.44
" clip-path="url(#p97a1cce5cb)" style="fill: none; stroke: #cccccc; stroke-width: 0.8; stroke-linecap: round"/>
     </g>
     <g id="line2d_52"/>
     <g id="text_29">
      <text style="font-size: 10px; font-family: 'Arial', 'Liberation Sans', 'DejaVu Sans', 'Bitstream Vera Sans', sans-serif; text-anchor: middle; fill: #262626" x="557.356364" y="281.068273" transform="rotate(-0 557.356364 281.068273)">125</text>
     </g>
    </g>
    <g id="xtick_16">
     <g id="line2d_53">
      <path d="M 594.042907 270.288
L 594.042907 37.44
" clip-path="url(#p97a1cce5cb)" style="fill: none; stroke: #cccccc; stroke-width: 0.8; stroke-linecap: round"/>
     </g>
     <g id="line2d_54"/>
     <g id="text_30">
      <text style="font-size: 10px; font-family: 'Arial', 'Liberation Sans', 'DejaVu Sans', 'Bitstream Vera Sans', sans-serif; text-anchor: middle; fill: #262626" x="594.042907" y="281.068273" transform="rotate(-0 594.042907 281.068273)">150</text>
     </g>
    </g>
    <g id="xtick_17">
     <g id="line2d_55">
      <path d="M 630.729449 270.288
L 630.729449 37.44
" clip-path="url(#p97a1cce5cb)" style="fill: none; stroke: #cccccc; stroke-width: 0.8; stroke-linecap: round"/>
     </g>
     <g id="line2d_56"/>
     <g id="text_31">
      <text style="font-size: 10px; font-family: 'Arial', 'Liberation Sans', 'DejaVu Sans', 'Bitstream Vera Sans', sans-serif; text-anchor: middle; fill: #262626" x="630.729449" y="281.068273" transform="rotate(-0 630.729449 281.068273)">175</text>
     </g>
    </g>
    <g id="text_32">
     <text style="font-size: 10px; font-family: 'Arial', 'Liberation Sans', 'DejaVu Sans', 'Bitstream Vera Sans', sans-serif; text-anchor: middle; fill: #262626" x="503.945703" y="294.453039" transform="rotate(-0 503.945703 294.453039)">Wall-clock minutes</text>
    </g>
   </g>
   <g id="matplotlib.axis_4">
    <g id="ytick_10">
     <g id="line2d_57">
      <path d="M 364.445703 252.01345
L 643.445703 252.01345
" clip-path="url(#p97a1cce5cb)" style="fill: none; stroke: #cccccc; stroke-width: 0.8; stroke-linecap: round"/>
     </g>
     <g id="line2d_58"/>
     <g id="text_33">
      <text style="font-size: 10px; font-family: 'Arial', 'Liberation Sans', 'DejaVu Sans', 'Bitstream Vera Sans', sans-serif; text-anchor: end; fill: #262626" x="360.945703" y="255.653587" transform="rotate(-0 360.945703 255.653587)">1.4</text>
     </g>
    </g>
    <g id="ytick_11">
     <g id="line2d_59">
      <path d="M 364.445703 220.341235
L 643.445703 220.341235
" clip-path="url(#p97a1cce5cb)" style="fill: none; stroke: #cccccc; stroke-width: 0.8; stroke-linecap: round"/>
     </g>
     <g id="line2d_60"/>
     <g id="text_34">
      <text style="font-size: 10px; font-family: 'Arial', 'Liberation Sans', 'DejaVu Sans', 'Bitstream Vera Sans', sans-serif; text-anchor: end; fill: #262626" x="360.945703" y="223.981371" transform="rotate(-0 360.945703 223.981371)">1.6</text>
     </g>
    </g>
    <g id="ytick_12">
     <g id="line2d_61">
      <path d="M 364.445703 188.669019
L 643.445703 188.669019
" clip-path="url(#p97a1cce5cb)" style="fill: none; stroke: #cccccc; stroke-width: 0.8; stroke-linecap: round"/>
     </g>
     <g id="line2d_62"/>
     <g id="text_35">
      <text style="font-size: 10px; font-family: 'Arial', 'Liberation Sans', 'DejaVu Sans', 'Bitstream Vera Sans', sans-serif; text-anchor: end; fill: #262626" x="360.945703" y="192.309156" transform="rotate(-0 360.945703 192.309156)">1.8</text>
     </g>
    </g>
    <g id="ytick_13">
     <g id="line2d_63">
      <path d="M 364.445703 156.996804
L 643.445703 156.996804
" clip-path="url(#p97a1cce5cb)" style="fill: none; stroke: #cccccc; stroke-width: 0.8; stroke-linecap: round"/>
     </g>
     <g id="line2d_64"/>
     <g id="text_36">
      <text style="font-size: 10px; font-family: 'Arial', 'Liberation Sans', 'DejaVu Sans', 'Bitstream Vera Sans', sans-serif; text-anchor: end; fill: #262626" x="360.945703" y="160.63694" transform="rotate(-0 360.945703 160.63694)">2.0</text>
     </g>
    </g>
    <g id="ytick_14">
     <g id="line2d_65">
      <path d="M 364.445703 125.324588
L 643.445703 125.324588
" clip-path="url(#p97a1cce5cb)" style="fill: none; stroke: #cccccc; stroke-width: 0.8; stroke-linecap: round"/>
     </g>
     <g id="line2d_66"/>
     <g id="text_37">
      <text style="font-size: 10px; font-family: 'Arial', 'Liberation Sans', 'DejaVu Sans', 'Bitstream Vera Sans', sans-serif; text-anchor: end; fill: #262626" x="360.945703" y="128.964725" transform="rotate(-0 360.945703 128.964725)">2.2</text>
     </g>
    </g>
    <g id="ytick_15">
     <g id="line2d_67">
      <path d="M 364.445703 93.652373
L 643.445703 93.652373
" clip-path="url(#p97a1cce5cb)" style="fill: none; stroke: #cccccc; stroke-width: 0.8; stroke-linecap: round"/>
     </g>
     <g id="line2d_68"/>
     <g id="text_38">
      <text style="font-size: 10px; font-family: 'Arial', 'Liberation Sans', 'DejaVu Sans', 'Bitstream Vera Sans', sans-serif; text-anchor: end; fill: #262626" x="360.945703" y="97.29251" transform="rotate(-0 360.945703 97.29251)">2.4</text>
     </g>
    </g>
    <g id="ytick_16">
     <g id="line2d_69">
      <path d="M 364.445703 61.980157
L 643.445703 61.980157
" clip-path="url(#p97a1cce5cb)" style="fill: none; stroke: #cccccc; stroke-width: 0.8; stroke-linecap: round"/>
     </g>
     <g id="line2d_70"/>
     <g id="text_39">
      <text style="font-size: 10px; font-family: 'Arial', 'Liberation Sans', 'DejaVu Sans', 'Bitstream Vera Sans', sans-serif; text-anchor: end; fill: #262626" x="360.945703" y="65.620294" transform="rotate(-0 360.945703 65.620294)">2.6</text>
     </g>
    </g>
    <g id="text_40">
     <text style="font-size: 10px; font-family: 'Arial', 'Liberation Sans', 'DejaVu Sans', 'Bitstream Vera Sans', sans-serif; text-anchor: middle; fill: #262626" x="340.941211" y="153.864" transform="rotate(-90 340.941211 153.864)">Validation loss</text>
    </g>
   </g>
   <g id="line2d_71">
    <path d="M 377.127521 48.024
L 380.327254 106.215779
L 383.529727 134.465362
L 386.736569 156.445148
L 389.942484 167.878166
L 393.150613 177.85757
L 396.354016 182.158117
L 399.555735 189.301198
L 402.763637 195.167345
L 405.96875 197.019325
L 409.171603 199.88304
L 412.377116 202.069371
L 415.580861 202.917848
L 418.782531 205.528105
L 421.983439 206.665172
L 425.186465 207.072524
L 428.400749 209.392417
L 431.600229 212.889719
L 434.800986 212.14898
L 438.007492 215.150147
L 441.212406 214.589655
L 444.423046 216.384492
L 447.621399 215.850241
L 450.830332 218.77414
L 454.039436 219.078908
L 457.239371 217.771146
L 460.442621 223.453325
L 463.644376 221.11714
L 466.84943 222.233516
L 470.053558 226.716331
L 473.25671 223.833568
L 476.46038 224.289003
L 479.662751 224.558167
L 482.875229 226.515317
L 486.072568 229.271295
L 489.273758 226.950948
L 492.483897 230.637447
L 495.68476 231.271091
L 498.891965 230.113164
L 502.092359 232.071995
L 505.297979 232.88449
L 508.501431 233.037856
L 511.711572 237.526769
L 514.918146 234.760181
L 518.168294 235.639184
L 521.386339 237.950016
L 524.593665 237.084719
L 527.816605 237.959002
L 531.038322 239.255588
L 534.245358 238.092659
L 537.476785 241.498648
L 540.753874 238.291464
L 544.036585 243.739687
L 547.310421 242.261777
L 550.572014 244.006322
L 553.833913 244.783609
L 557.050721 249.812738
L 560.253669 247.469738
L 563.454215 246.873699
L 566.656865 250.037822
L 569.873469 252.538586
L 573.070537 248.742274
L 576.27344 251.562022
L 579.479509 250.70724
L 582.688611 251.686636
L 585.889224 252.021194
L 589.095595 253.708878
L 592.293332 254.259704
L 595.500938 255.615058
L 598.702771 256.363764
L 601.907033 253.284895
L 605.123959 257.215582
L 608.334258 257.391224
L 611.534663 256.360554
L 614.742178 258.585321
L 617.945472 256.85501
L 621.153051 258.168285
L 624.35546 259.704
L 627.564181 258.501898
L 630.763885 259.054008
" clip-path="url(#p97a1cce5cb)" style="fill: none; stroke: #0072b2; stroke-width: 2; stroke-linecap: round"/>
   </g>
   <g id="patch_8">
    <path d="M 364.445703 270.288
L 364.445703 37.44
" style="fill: none; stroke: #cccccc; stroke-linejoin: miter; stroke-linecap: square"/>
   </g>
   <g id="patch_9">
    <path d="M 643.445703 270.288
L 643.445703 37.44
" style="fill: none; stroke: #cccccc; stroke-linejoin: miter; stroke-linecap: square"/>
   </g>
   <g id="patch_10">
    <path d="M 364.445703 270.288
L 643.445703 270.288
" style="fill: none; stroke: #cccccc; stroke-linejoin: miter; stroke-linecap: square"/>
   </g>
   <g id="patch_11">
    <path d="M 364.445703 37.44
L 643.445703 37.44
" style="fill: none; stroke: #cccccc; stroke-linejoin: miter; stroke-linecap: square"/>
   </g>
   <g id="text_41">
    <text style="font-size: 12px; font-family: 'Arial', 'Liberation Sans', 'DejaVu Sans', 'Bitstream Vera Sans', sans-serif; text-anchor: middle; fill: #262626" x="503.945703" y="31.44" transform="rotate(-0 503.945703 31.44)">Validation loss by wall clock</text>
   </g>
  </g>
  <g id="text_42">
   <text style="font-size: 12px; font-family: 'Arial', 'Liberation Sans', 'DejaVu Sans', 'Bitstream Vera Sans', sans-serif; text-anchor: middle; fill: #262626" x="326.645703" y="15.936328" transform="rotate(-0 326.645703 15.936328)">TinyStories full baseline: 327.68M training tokens</text>
  </g>
 </g>
 <defs>
  <clipPath id="pcf3eacb16b">
   <rect x="29.645703" y="37.44" width="279" height="232.848"/>
  </clipPath>
  <clipPath id="p97a1cce5cb">
   <rect x="364.445703" y="37.44" width="279" height="232.848"/>
  </clipPath>
 </defs>
</svg>
