<?xml version="1.0" encoding="utf-8" standalone="no"?>
<!DOCTYPE svg PUBLIC "-//W3C//DTD SVG 1.1//EN"
  "http://www.w3.org/Graphics/SVG/1.1/DTD/svg11.dtd">
<svg xmlns:xlink="http://www.w3.org/1999/xlink" width="430.185703pt" height="304.885859pt" viewBox="0 0 430.185703 304.885859" xmlns="http://www.w3.org/2000/svg" version="1.1">
 <metadata>
  <rdf:RDF xmlns:dc="http://purl.org/dc/elements/1.1/" xmlns:cc="http://creativecommons.org/ns#" xmlns:rdf="http://www.w3.org/1999/02/22-rdf-syntax-ns#">
   <cc:Work>
    <dc:type rdf:resource="http://purl.org/dc/dcmitype/StillImage"/>
    <dc:date>2026-07-16T18:31:17.862357</dc:date>
    <dc:format>image/svg+xml</dc:format>
    <dc:creator>
     <cc:Agent>
      <dc:title>Matplotlib v3.11.0, https://matplotlib.org/</dc:title>
     </cc:Agent>
    </dc:creator>
   </cc:Work>
  </rdf:RDF>
 </metadata>
 <defs>
  <style type="text/css">*{stroke-linejoin: round; stroke-linecap: butt}</style>
 </defs>
 <g id="figure_1">
  <g id="patch_1">
   <path d="M 0 304.885859
L 430.185703 304.885859
L 430.185703 0
L 0 0
z
" style="fill: #ffffff"/>
  </g>
  <g id="axes_1">
   <g id="patch_2">
    <path d="M 43.545703 271.416328
L 422.985703 271.416328
L 422.985703 21.936328
L 43.545703 21.936328
z
" style="fill: #ffffff"/>
   </g>
   <g id="matplotlib.axis_1">
    <g id="xtick_1">
     <g id="line2d_1">
      <path d="M 77.397406 271.416328
L 77.397406 21.936328
" clip-path="url(#p8e451c1164)" style="fill: none; stroke: #cccccc; stroke-width: 0.8; stroke-linecap: round"/>
     </g>
     <g id="line2d_2"/>
     <g id="text_1">
      <text style="font-size: 10px; font-family: 'Arial', 'Liberation Sans', 'DejaVu Sans', 'Bitstream Vera Sans', sans-serif; text-anchor: middle; fill: #262626" x="77.397406" y="282.196602" transform="rotate(-0 77.397406 282.196602)">0.6</text>
     </g>
    </g>
    <g id="xtick_2">
     <g id="line2d_3">
      <path d="M 121.259489 271.416328
L 121.259489 21.936328
" clip-path="url(#p8e451c1164)" style="fill: none; stroke: #cccccc; stroke-width: 0.8; stroke-linecap: round"/>
     </g>
     <g id="line2d_4"/>
     <g id="text_2">
      <text style="font-size: 10px; font-family: 'Arial', 'Liberation Sans', 'DejaVu Sans', 'Bitstream Vera Sans', sans-serif; text-anchor: middle; fill: #262626" x="121.259489" y="282.196602" transform="rotate(-0 121.259489 282.196602)">0.8</text>
     </g>
    </g>
    <g id="xtick_3">
     <g id="line2d_5">
      <path d="M 165.121571 271.416328
L 165.121571 21.936328
" clip-path="url(#p8e451c1164)" style="fill: none; stroke: #cccccc; stroke-width: 0.8; stroke-linecap: round"/>
     </g>
     <g id="line2d_6"/>
     <g id="text_3">
      <text style="font-size: 10px; font-family: 'Arial', 'Liberation Sans', 'DejaVu Sans', 'Bitstream Vera Sans', sans-serif; text-anchor: middle; fill: #262626" x="165.121571" y="282.196602" transform="rotate(-0 165.121571 282.196602)">1.0</text>
     </g>
    </g>
    <g id="xtick_4">
     <g id="line2d_7">
      <path d="M 208.983654 271.416328
L 208.983654 21.936328
" clip-path="url(#p8e451c1164)" style="fill: none; stroke: #cccccc; stroke-width: 0.8; stroke-linecap: round"/>
     </g>
     <g id="line2d_8"/>
     <g id="text_4">
      <text style="font-size: 10px; font-family: 'Arial', 'Liberation Sans', 'DejaVu Sans', 'Bitstream Vera Sans', sans-serif; text-anchor: middle; fill: #262626" x="208.983654" y="282.196602" transform="rotate(-0 208.983654 282.196602)">1.2</text>
     </g>
    </g>
    <g id="xtick_5">
     <g id="line2d_9">
      <path d="M 252.845737 271.416328
L 252.845737 21.936328
" clip-path="url(#p8e451c1164)" style="fill: none; stroke: #cccccc; stroke-width: 0.8; stroke-linecap: round"/>
     </g>
     <g id="line2d_10"/>
     <g id="text_5">
      <text style="font-size: 10px; font-family: 'Arial', 'Liberation Sans', 'DejaVu Sans', 'Bitstream Vera Sans', sans-serif; text-anchor: middle; fill: #262626" x="252.845737" y="282.196602" transform="rotate(-0 252.845737 282.196602)">1.4</text>
     </g>
    </g>
    <g id="xtick_6">
     <g id="line2d_11">
      <path d="M 296.70782 271.416328
L 296.70782 21.936328
" clip-path="url(#p8e451c1164)" style="fill: none; stroke: #cccccc; stroke-width: 0.8; stroke-linecap: round"/>
     </g>
     <g id="line2d_12"/>
     <g id="text_6">
      <text style="font-size: 10px; font-family: 'Arial', 'Liberation Sans', 'DejaVu Sans', 'Bitstream Vera Sans', sans-serif; text-anchor: middle; fill: #262626" x="296.70782" y="282.196602" transform="rotate(-0 296.70782 282.196602)">1.6</text>
     </g>
    </g>
    <g id="xtick_7">
     <g id="line2d_13">
      <path d="M 340.569902 271.416328
L 340.569902 21.936328
" clip-path="url(#p8e451c1164)" style="fill: none; stroke: #cccccc; stroke-width: 0.8; stroke-linecap: round"/>
     </g>
     <g id="line2d_14"/>
     <g id="text_7">
      <text style="font-size: 10px; font-family: 'Arial', 'Liberation Sans', 'DejaVu Sans', 'Bitstream Vera Sans', sans-serif; text-anchor: middle; fill: #262626" x="340.569902" y="282.196602" transform="rotate(-0 340.569902 282.196602)">1.8</text>
     </g>
    </g>
    <g id="xtick_8">
     <g id="line2d_15">
      <path d="M 384.431985 271.416328
L 384.431985 21.936328
" clip-path="url(#p8e451c1164)" style="fill: none; stroke: #cccccc; stroke-width: 0.8; stroke-linecap: round"/>
     </g>
     <g id="line2d_16"/>
     <g id="text_8">
      <text style="font-size: 10px; font-family: 'Arial', 'Liberation Sans', 'DejaVu Sans', 'Bitstream Vera Sans', sans-serif; text-anchor: middle; fill: #262626" x="384.431985" y="282.196602" transform="rotate(-0 384.431985 282.196602)">2.0</text>
     </g>
    </g>
    <g id="text_9">
     <text style="font-size: 10px; font-family: 'Arial', 'Liberation Sans', 'DejaVu Sans', 'Bitstream Vera Sans', sans-serif; text-anchor: middle; fill: #262626" x="233.265703" y="295.581367" transform="rotate(-0 233.265703 295.581367)">Processed tokens (millions)</text>
    </g>
   </g>
   <g id="matplotlib.axis_2">
    <g id="ytick_1">
     <g id="line2d_17">
      <path d="M 43.545703 240.498205
L 422.985703 240.498205
" clip-path="url(#p8e451c1164)" style="fill: none; stroke: #cccccc; stroke-width: 0.8; stroke-linecap: round"/>
     </g>
     <g id="line2d_18"/>
     <g id="text_10">
      <text style="font-size: 10px; font-family: 'Arial', 'Liberation Sans', 'DejaVu Sans', 'Bitstream Vera Sans', sans-serif; text-anchor: end; fill: #262626" x="40.045703" y="244.138342" transform="rotate(-0 40.045703 244.138342)">2.75</text>
     </g>
    </g>
    <g id="ytick_2">
     <g id="line2d_19">
      <path d="M 43.545703 208.828757
L 422.985703 208.828757
" clip-path="url(#p8e451c1164)" style="fill: none; stroke: #cccccc; stroke-width: 0.8; stroke-linecap: round"/>
     </g>
     <g id="line2d_20"/>
     <g id="text_11">
      <text style="font-size: 10px; font-family: 'Arial', 'Liberation Sans', 'DejaVu Sans', 'Bitstream Vera Sans', sans-serif; text-anchor: end; fill: #262626" x="40.045703" y="212.468893" transform="rotate(-0 40.045703 212.468893)">3.00</text>
     </g>
    </g>
    <g id="ytick_3">
     <g id="line2d_21">
      <path d="M 43.545703 177.159308
L 422.985703 177.159308
" clip-path="url(#p8e451c1164)" style="fill: none; stroke: #cccccc; stroke-width: 0.8; stroke-linecap: round"/>
     </g>
     <g id="line2d_22"/>
     <g id="text_12">
      <text style="font-size: 10px; font-family: 'Arial', 'Liberation Sans', 'DejaVu Sans', 'Bitstream Vera Sans', sans-serif; text-anchor: end; fill: #262626" x="40.045703" y="180.799445" transform="rotate(-0 40.045703 180.799445)">3.25</text>
     </g>
    </g>
    <g id="ytick_4">
     <g id="line2d_23">
      <path d="M 43.545703 145.489859
L 422.985703 145.489859
" clip-path="url(#p8e451c1164)" style="fill: none; stroke: #cccccc; stroke-width: 0.8; stroke-linecap: round"/>
     </g>
     <g id="line2d_24"/>
     <g id="text_13">
      <text style="font-size: 10px; font-family: 'Arial', 'Liberation Sans', 'DejaVu Sans', 'Bitstream Vera Sans', sans-serif; text-anchor: end; fill: #262626" x="40.045703" y="149.129996" transform="rotate(-0 40.045703 149.129996)">3.50</text>
     </g>
    </g>
    <g id="ytick_5">
     <g id="line2d_25">
      <path d="M 43.545703 113.820411
L 422.985703 113.820411
" clip-path="url(#p8e451c1164)" style="fill: none; stroke: #cccccc; stroke-width: 0.8; stroke-linecap: round"/>
     </g>
     <g id="line2d_26"/>
     <g id="text_14">
      <text style="font-size: 10px; font-family: 'Arial', 'Liberation Sans', 'DejaVu Sans', 'Bitstream Vera Sans', sans-serif; text-anchor: end; fill: #262626" x="40.045703" y="117.460548" transform="rotate(-0 40.045703 117.460548)">3.75</text>
     </g>
    </g>
    <g id="ytick_6">
     <g id="line2d_27">
      <path d="M 43.545703 82.150962
L 422.985703 82.150962
" clip-path="url(#p8e451c1164)" style="fill: none; stroke: #cccccc; stroke-width: 0.8; stroke-linecap: round"/>
     </g>
     <g id="line2d_28"/>
     <g id="text_15">
      <text style="font-size: 10px; font-family: 'Arial', 'Liberation Sans', 'DejaVu Sans', 'Bitstream Vera Sans', sans-serif; text-anchor: end; fill: #262626" x="40.045703" y="85.791099" transform="rotate(-0 40.045703 85.791099)">4.00</text>
     </g>
    </g>
    <g id="ytick_7">
     <g id="line2d_29">
      <path d="M 43.545703 50.481514
L 422.985703 50.481514
" clip-path="url(#p8e451c1164)" style="fill: none; stroke: #cccccc; stroke-width: 0.8; stroke-linecap: round"/>
     </g>
     <g id="line2d_30"/>
     <g id="text_16">
      <text style="font-size: 10px; font-family: 'Arial', 'Liberation Sans', 'DejaVu Sans', 'Bitstream Vera Sans', sans-serif; text-anchor: end; fill: #262626" x="40.045703" y="54.12165" transform="rotate(-0 40.045703 54.12165)">4.25</text>
     </g>
    </g>
    <g id="text_17">
     <text style="font-size: 10px; font-family: 'Arial', 'Liberation Sans', 'DejaVu Sans', 'Bitstream Vera Sans', sans-serif; text-anchor: middle; fill: #262626" x="14.480273" y="146.676328" transform="rotate(-90 14.480273 146.676328)">Validation loss</text>
    </g>
   </g>
   <g id="line2d_31">
    <path d="M 60.792976 159.400393
L 175.774794 201.375816
L 290.756612 222.721591
L 405.73843 237.157554
" clip-path="url(#p8e451c1164)" style="fill: none; stroke: #222222; stroke-width: 1.8; stroke-linecap: round"/>
    <defs>
     <path id="m363ca23d22" d="M 0 3
C 0.795609 3 1.55874 2.683901 2.12132 2.12132
C 2.683901 1.55874 3 0.795609 3 0
C 3 -0.795609 2.683901 -1.55874 2.12132 -2.12132
C 1.55874 -2.683901 0.795609 -3 0 -3
C -0.795609 -3 -1.55874 -2.683901 -2.12132 -2.12132
C -2.683901 -1.55874 -3 -0.795609 -3 0
C -3 0.795609 -2.683901 1.55874 -2.12132 2.12132
C -1.55874 2.683901 -0.795609 3 0 3
z
" style="stroke: #222222"/>
    </defs>
    <g clip-path="url(#p8e451c1164)">
     <use xlink:href="#m363ca23d22" x="60.792976" y="159.400393" style="fill: #222222; stroke: #222222"/>
     <use xlink:href="#m363ca23d22" x="175.774794" y="201.375816" style="fill: #222222; stroke: #222222"/>
     <use xlink:href="#m363ca23d22" x="290.756612" y="222.721591" style="fill: #222222; stroke: #222222"/>
     <use xlink:href="#m363ca23d22" x="405.73843" y="237.157554" style="fill: #222222; stroke: #222222"/>
    </g>
   </g>
   <g id="line2d_32">
    <path d="M 60.792976 158.024978
L 175.774794 216.73141
L 290.756612 241.265647
L 405.73843 260.076328
" clip-path="url(#p8e451c1164)" style="fill: none; stroke: #009e73; stroke-width: 1.8; stroke-linecap: round"/>
    <defs>
     <path id="m077a49a8f4" d="M 0 3
C 0.795609 3 1.55874 2.683901 2.12132 2.12132
C 2.683901 1.55874 3 0.795609 3 0
C 3 -0.795609 2.683901 -1.55874 2.12132 -2.12132
C 1.55874 -2.683901 0.795609 -3 0 -3
C -0.795609 -3 -1.55874 -2.683901 -2.12132 -2.12132
C -2.683901 -1.55874 -3 -0.795609 -3 0
C -3 0.795609 -2.683901 1.55874 -2.12132 2.12132
C -1.55874 2.683901 -0.795609 3 0 3
z
" style="stroke: #009e73"/>
    </defs>
    <g clip-path="url(#p8e451c1164)">
     <use xlink:href="#m077a49a8f4" x="60.792976" y="158.024978" style="fill: #009e73; stroke: #009e73"/>
     <use xlink:href="#m077a49a8f4" x="175.774794" y="216.73141" style="fill: #009e73; stroke: #009e73"/>
     <use xlink:href="#m077a49a8f4" x="290.756612" y="241.265647" style="fill: #009e73; stroke: #009e73"/>
     <use xlink:href="#m077a49a8f4" x="405.73843" y="260.076328" style="fill: #009e73; stroke: #009e73"/>
    </g>
   </g>
   <g id="line2d_33">
    <path d="M 60.792976 132.337707
L 175.774794 198.739484
L 290.756612 227.755476
L 405.73843 247.631303
" clip-path="url(#p8e451c1164)" style="fill: none; stroke: #0072b2; stroke-width: 1.8; stroke-linecap: round"/>
    <defs>
     <path id="m7a05eb0ee1" d="M 0 3
C 0.795609 3 1.55874 2.683901 2.12132 2.12132
C 2.683901 1.55874 3 0.795609 3 0
C 3 -0.795609 2.683901 -1.55874 2.12132 -2.12132
C 1.55874 -2.683901 0.795609 -3 0 -3
C -0.795609 -3 -1.55874 -2.683901 -2.12132 -2.12132
C -2.683901 -1.55874 -3 -0.795609 -3 0
C -3 0.795609 -2.683901 1.55874 -2.12132 2.12132
C -1.55874 2.683901 -0.795609 3 0 3
z
" style="stroke: #0072b2"/>
    </defs>
    <g clip-path="url(#p8e451c1164)">
     <use xlink:href="#m7a05eb0ee1" x="60.792976" y="132.337707" style="fill: #0072b2; stroke: #0072b2"/>
     <use xlink:href="#m7a05eb0ee1" x="175.774794" y="198.739484" style="fill: #0072b2; stroke: #0072b2"/>
     <use xlink:href="#m7a05eb0ee1" x="290.756612" y="227.755476" style="fill: #0072b2; stroke: #0072b2"/>
     <use xlink:href="#m7a05eb0ee1" x="405.73843" y="247.631303" style="fill: #0072b2; stroke: #0072b2"/>
    </g>
   </g>
   <g id="line2d_34">
    <path d="M 60.792976 33.276328
L 175.774794 119.501199
L 290.756612 153.315557
L 405.73843 175.152876
" clip-path="url(#p8e451c1164)" style="fill: none; stroke: #e69f00; stroke-width: 1.8; stroke-linecap: round"/>
    <defs>
     <path id="m7cce2071df" d="M 0 3
C 0.795609 3 1.55874 2.683901 2.12132 2.12132
C 2.683901 1.55874 3 0.795609 3 0
C 3 -0.795609 2.683901 -1.55874 2.12132 -2.12132
C 1.55874 -2.683901 0.795609 -3 0 -3
C -0.795609 -3 -1.55874 -2.683901 -2.12132 -2.12132
C -2.683901 -1.55874 -3 -0.795609 -3 0
C -3 0.795609 -2.683901 1.55874 -2.12132 2.12132
C -1.55874 2.683901 -0.795609 3 0 3
z
" style="stroke: #e69f00"/>
    </defs>
    <g clip-path="url(#p8e451c1164)">
     <use xlink:href="#m7cce2071df" x="60.792976" y="33.276328" style="fill: #e69f00; stroke: #e69f00"/>
     <use xlink:href="#m7cce2071df" x="175.774794" y="119.501199" style="fill: #e69f00; stroke: #e69f00"/>
     <use xlink:href="#m7cce2071df" x="290.756612" y="153.315557" style="fill: #e69f00; stroke: #e69f00"/>
     <use xlink:href="#m7cce2071df" x="405.73843" y="175.152876" style="fill: #e69f00; stroke: #e69f00"/>
    </g>
   </g>
   <g id="patch_3">
    <path d="M 43.545703 271.416328
L 43.545703 21.936328
" style="fill: none; stroke: #cccccc; stroke-linejoin: miter; stroke-linecap: square"/>
   </g>
   <g id="patch_4">
    <path d="M 422.985703 271.416328
L 422.985703 21.936328
" style="fill: none; stroke: #cccccc; stroke-linejoin: miter; stroke-linecap: square"/>
   </g>
   <g id="patch_5">
    <path d="M 43.545703 271.416328
L 422.985703 271.416328
" style="fill: none; stroke: #cccccc; stroke-linejoin: miter; stroke-linecap: square"/>
   </g>
   <g id="patch_6">
    <path d="M 43.545703 21.936328
L 422.985703 21.936328
" style="fill: none; stroke: #cccccc; stroke-linejoin: miter; stroke-linecap: square"/>
   </g>
   <g id="text_18">
    <text style="font-size: 12px; font-family: 'Arial', 'Liberation Sans', 'DejaVu Sans', 'Bitstream Vera Sans', sans-serif; text-anchor: middle; fill: #262626" x="233.265703" y="15.936328" transform="rotate(-0 233.265703 15.936328)">Batch-size sweep at a fixed 2.10M-token budget</text>
   </g>
   <g id="legend_1">
    <g id="line2d_35">
     <path d="M 354.162422 33.438574
L 363.162422 33.438574
L 372.162422 33.438574
" style="fill: none; stroke: #222222; stroke-width: 1.8; stroke-linecap: round"/>
     <g>
      <use xlink:href="#m363ca23d22" x="363.162422" y="33.438574" style="fill: #222222; stroke: #222222"/>
     </g>
    </g>
    <g id="text_19">
     <text style="font-size: 9px; font-family: 'Arial', 'Liberation Sans', 'DejaVu Sans', 'Bitstream Vera Sans', sans-serif; text-anchor: start; fill: #262626" x="379.362422" y="36.588574" transform="rotate(-0 379.362422 36.588574)">Batch 1</text>
    </g>
    <g id="line2d_36">
     <path d="M 354.162422 46.384863
L 363.162422 46.384863
L 372.162422 46.384863
" style="fill: none; stroke: #009e73; stroke-width: 1.8; stroke-linecap: round"/>
     <g>
      <use xlink:href="#m077a49a8f4" x="363.162422" y="46.384863" style="fill: #009e73; stroke: #009e73"/>
     </g>
    </g>
    <g id="text_20">
     <text style="font-size: 9px; font-family: 'Arial', 'Liberation Sans', 'DejaVu Sans', 'Bitstream Vera Sans', sans-serif; text-anchor: start; fill: #262626" x="379.362422" y="49.534863" transform="rotate(-0 379.362422 49.534863)">Batch 16</text>
    </g>
    <g id="line2d_37">
     <path d="M 354.162422 59.331152
L 363.162422 59.331152
L 372.162422 59.331152
" style="fill: none; stroke: #0072b2; stroke-width: 1.8; stroke-linecap: round"/>
     <g>
      <use xlink:href="#m7a05eb0ee1" x="363.162422" y="59.331152" style="fill: #0072b2; stroke: #0072b2"/>
     </g>
    </g>
    <g id="text_21">
     <text style="font-size: 9px; font-family: 'Arial', 'Liberation Sans', 'DejaVu Sans', 'Bitstream Vera Sans', sans-serif; text-anchor: start; fill: #262626" x="379.362422" y="62.481152" transform="rotate(-0 379.362422 62.481152)">Batch 32</text>
    </g>
    <g id="line2d_38">
     <path d="M 354.162422 72.277441
L 363.162422 72.277441
L 372.162422 72.277441
" style="fill: none; stroke: #e69f00; stroke-width: 1.8; stroke-linecap: round"/>
     <g>
      <use xlink:href="#m7cce2071df" x="363.162422" y="72.277441" style="fill: #e69f00; stroke: #e69f00"/>
     </g>
    </g>
    <g id="text_22">
     <text style="font-size: 9px; font-family: 'Arial', 'Liberation Sans', 'DejaVu Sans', 'Bitstream Vera Sans', sans-serif; text-anchor: start; fill: #262626" x="379.362422" y="75.427441" transform="rotate(-0 379.362422 75.427441)">Batch 64</text>
    </g>
   </g>
  </g>
 </g>
 <defs>
  <clipPath id="p8e451c1164">
   <rect x="43.545703" y="21.936328" width="379.44" height="249.48"/>
  </clipPath>
 </defs>
</svg>
