<svg xmlns="http://www.w3.org/2000/svg" width="980" height="560" viewBox="0 0 980 560">
<rect width="100%" height="100%" fill="white"/>
<text x="70" y="26" font-family="Arial, sans-serif" font-size="18" font-weight="700">A1 validation loss curves</text>
<line x1="70" y1="498" x2="720" y2="498" stroke="#111" stroke-width="1"/>
<line x1="70" y1="42" x2="70" y2="498" stroke="#111" stroke-width="1"/>
<line x1="70" y1="498.0" x2="720" y2="498.0" stroke="#e5e7eb" stroke-width="1"/>
<text x="58" y="502.0" text-anchor="end" font-family="Arial, sans-serif" font-size="11" fill="#374151">1</text>
<line x1="70" y1="447.3" x2="720" y2="447.3" stroke="#e5e7eb" stroke-width="1"/>
<text x="58" y="451.3" text-anchor="end" font-family="Arial, sans-serif" font-size="11" fill="#374151">2</text>
<line x1="70" y1="396.7" x2="720" y2="396.7" stroke="#e5e7eb" stroke-width="1"/>
<text x="58" y="400.7" text-anchor="end" font-family="Arial, sans-serif" font-size="11" fill="#374151">3</text>
<line x1="70" y1="346.0" x2="720" y2="346.0" stroke="#e5e7eb" stroke-width="1"/>
<text x="58" y="350.0" text-anchor="end" font-family="Arial, sans-serif" font-size="11" fill="#374151">4</text>
<line x1="70" y1="295.3" x2="720" y2="295.3" stroke="#e5e7eb" stroke-width="1"/>
<text x="58" y="299.3" text-anchor="end" font-family="Arial, sans-serif" font-size="11" fill="#374151">5</text>
<line x1="70" y1="244.7" x2="720" y2="244.7" stroke="#e5e7eb" stroke-width="1"/>
<text x="58" y="248.7" text-anchor="end" font-family="Arial, sans-serif" font-size="11" fill="#374151">6</text>
<line x1="70" y1="194.0" x2="720" y2="194.0" stroke="#e5e7eb" stroke-width="1"/>
<text x="58" y="198.0" text-anchor="end" font-family="Arial, sans-serif" font-size="11" fill="#374151">7</text>
<line x1="70" y1="143.3" x2="720" y2="143.3" stroke="#e5e7eb" stroke-width="1"/>
<text x="58" y="147.3" text-anchor="end" font-family="Arial, sans-serif" font-size="11" fill="#374151">8</text>
<line x1="70" y1="92.7" x2="720" y2="92.7" stroke="#e5e7eb" stroke-width="1"/>
<text x="58" y="96.7" text-anchor="end" font-family="Arial, sans-serif" font-size="11" fill="#374151">9</text>
<line x1="70" y1="42.0" x2="720" y2="42.0" stroke="#e5e7eb" stroke-width="1"/>
<text x="58" y="46.0" text-anchor="end" font-family="Arial, sans-serif" font-size="11" fill="#374151">10</text>
<line x1="70.0" y1="498" x2="70.0" y2="503" stroke="#111"/>
<text x="70.0" y="520" text-anchor="middle" font-family="Arial, sans-serif" font-size="11" fill="#374151">0</text>
<line x1="200.0" y1="498" x2="200.0" y2="503" stroke="#111"/>
<text x="200.0" y="520" text-anchor="middle" font-family="Arial, sans-serif" font-size="11" fill="#374151">300</text>
<line x1="330.0" y1="498" x2="330.0" y2="503" stroke="#111"/>
<text x="330.0" y="520" text-anchor="middle" font-family="Arial, sans-serif" font-size="11" fill="#374151">600</text>
<line x1="460.0" y1="498" x2="460.0" y2="503" stroke="#111"/>
<text x="460.0" y="520" text-anchor="middle" font-family="Arial, sans-serif" font-size="11" fill="#374151">900</text>
<line x1="590.0" y1="498" x2="590.0" y2="503" stroke="#111"/>
<text x="590.0" y="520" text-anchor="middle" font-family="Arial, sans-serif" font-size="11" fill="#374151">1200</text>
<line x1="720.0" y1="498" x2="720.0" y2="503" stroke="#111"/>
<text x="720.0" y="520" text-anchor="middle" font-family="Arial, sans-serif" font-size="11" fill="#374151">1500</text>
<polyline fill="none" stroke="#1f77b4" stroke-width="2.2" points="70.4,76.3 135.0,400.2 200.0,430.8 265.0,440.4 330.0,445.2 395.0,448.0 460.0,448.4 525.0,449.9 590.0,448.7 655.0,447.3 720.0,448.6"/>
<circle cx="720.0" cy="448.6" r="3" fill="#1f77b4"/>
<polyline fill="none" stroke="#d62728" stroke-width="2.2" points="70.4,82.0 135.0,335.1 200.0,391.4 265.0,407.2 330.0,414.4 395.0,417.6"/>
<circle cx="395.0" cy="417.6" r="3" fill="#d62728"/>
<polyline fill="none" stroke="#2ca02c" stroke-width="2.2" points="70.4,76.1 135.0,409.0 200.0,434.5 265.0,443.0 330.0,446.9 395.0,448.5"/>
<circle cx="395.0" cy="448.5" r="3" fill="#2ca02c"/>
<polyline fill="none" stroke="#9467bd" stroke-width="2.2" points="70.4,76.4 135.0,376.5 200.0,413.9 265.0,431.6 330.0,436.4 395.0,441.3"/>
<circle cx="395.0" cy="441.3" r="3" fill="#9467bd"/>
<polyline fill="none" stroke="#ff7f0e" stroke-width="2.2" points="70.4,75.6 135.0,400.8 200.0,425.1 265.0,435.7 330.0,440.7 395.0,442.4"/>
<circle cx="395.0" cy="442.4" r="3" fill="#ff7f0e"/>
<polyline fill="none" stroke="#111827" stroke-width="2.2" points="70.4,42.0 135.0,231.2 200.0,241.1 265.0,205.8 330.0,153.6 395.0,112.9 460.0,85.7 525.0,69.5 590.0,63.3 655.0,59.9 720.0,58.2"/>
<circle cx="720.0" cy="58.2" r="3" fill="#111827"/>
<text x="395.0" y="542" text-anchor="middle" font-family="Arial, sans-serif" font-size="13" fill="#111827">training step</text>
<text transform="translate(20,270.0) rotate(-90)" text-anchor="middle" font-family="Arial, sans-serif" font-size="13" fill="#111827">validation loss</text>
<line x1="755" y1="72" x2="777" y2="72" stroke="#1f77b4" stroke-width="3"/>
<text x="787" y="76" font-family="Arial, sans-serif" font-size="12" fill="#111827">TinyStories baseline: 1.976</text>
<line x1="755" y1="98" x2="777" y2="98" stroke="#d62728" stroke-width="3"/>
<text x="787" y="102" font-family="Arial, sans-serif" font-size="12" fill="#111827">no RMSNorm: 2.587</text>
<line x1="755" y1="124" x2="777" y2="124" stroke="#2ca02c" stroke-width="3"/>
<text x="787" y="128" font-family="Arial, sans-serif" font-size="12" fill="#111827">Post-Norm: 1.976</text>
<line x1="755" y1="150" x2="777" y2="150" stroke="#9467bd" stroke-width="3"/>
<text x="787" y="154" font-family="Arial, sans-serif" font-size="12" fill="#111827">NoPE: 2.120</text>
<line x1="755" y1="176" x2="777" y2="176" stroke="#ff7f0e" stroke-width="3"/>
<text x="787" y="180" font-family="Arial, sans-serif" font-size="12" fill="#111827">SiLU FFN: 2.097</text>
<line x1="755" y1="202" x2="777" y2="202" stroke="#111827" stroke-width="3"/>
<text x="787" y="206" font-family="Arial, sans-serif" font-size="12" fill="#111827">OWT: 9.680</text>
<text x="70" y="538" font-family="Arial, sans-serif" font-size="11" fill="#6b7280">OWT is clipped at y=10 for readability; full final val loss is recorded in logs/summary_owt.json.</text>
</svg>