<svg xmlns="http://www.w3.org/2000/svg" width="1000" height="620" viewBox="0 0 1000 620">
<rect width="100%" height="100%" fill="white"/>
<text x="500.0" y="36" text-anchor="middle" font-family="sans-serif" font-size="22">TinyStories lr=30 divergent validation loss by wall-clock time</text>
<line x1="90.00" y1="70" x2="90.00" y2="540" stroke="#e5e7eb"/>
<text x="90.00" y="568" text-anchor="middle" font-family="sans-serif" font-size="12">2.16</text>
<line x1="90" y1="540.00" x2="750" y2="540.00" stroke="#e5e7eb"/>
<text x="78" y="544.00" text-anchor="end" font-family="sans-serif" font-size="12">-6478</text>
<line x1="222.00" y1="70" x2="222.00" y2="540" stroke="#e5e7eb"/>
<text x="222.00" y="568" text-anchor="middle" font-family="sans-serif" font-size="12">2.57</text>
<line x1="90" y1="446.00" x2="750" y2="446.00" stroke="#e5e7eb"/>
<text x="78" y="450.00" text-anchor="end" font-family="sans-serif" font-size="12">25622</text>
<line x1="354.00" y1="70" x2="354.00" y2="540" stroke="#e5e7eb"/>
<text x="354.00" y="568" text-anchor="middle" font-family="sans-serif" font-size="12">2.98</text>
<line x1="90" y1="352.00" x2="750" y2="352.00" stroke="#e5e7eb"/>
<text x="78" y="356.00" text-anchor="end" font-family="sans-serif" font-size="12">57722</text>
<line x1="486.00" y1="70" x2="486.00" y2="540" stroke="#e5e7eb"/>
<text x="486.00" y="568" text-anchor="middle" font-family="sans-serif" font-size="12">3.39</text>
<line x1="90" y1="258.00" x2="750" y2="258.00" stroke="#e5e7eb"/>
<text x="78" y="262.00" text-anchor="end" font-family="sans-serif" font-size="12">89822</text>
<line x1="618.00" y1="70" x2="618.00" y2="540" stroke="#e5e7eb"/>
<text x="618.00" y="568" text-anchor="middle" font-family="sans-serif" font-size="12">3.81</text>
<line x1="90" y1="164.00" x2="750" y2="164.00" stroke="#e5e7eb"/>
<text x="78" y="168.00" text-anchor="end" font-family="sans-serif" font-size="12">121923</text>
<line x1="750.00" y1="70" x2="750.00" y2="540" stroke="#e5e7eb"/>
<text x="750.00" y="568" text-anchor="middle" font-family="sans-serif" font-size="12">4.22</text>
<line x1="90" y1="70.00" x2="750" y2="70.00" stroke="#e5e7eb"/>
<text x="78" y="74.00" text-anchor="end" font-family="sans-serif" font-size="12">154023</text>
<line x1="90" y1="540" x2="750" y2="540" stroke="#111827" stroke-width="1.5"/>
<line x1="90" y1="70" x2="90" y2="540" stroke="#111827" stroke-width="1.5"/>
<text x="420.00" y="596" text-anchor="middle" font-family="sans-serif" font-size="14">wall_clock_sec</text>
<text x="24" y="305.00" text-anchor="middle" transform="rotate(-90 24 305.00)" font-family="sans-serif" font-size="14">loss</text>
<polyline points="120.00,518.64 720.00,91.36" fill="none" stroke="#1f77b4" stroke-width="2" stroke-linejoin="round" stroke-linecap="round"/>
<line x1="778" y1="70" x2="802" y2="70" stroke="#1f77b4" stroke-width="3"/>
<text x="810" y="74" font-family="sans-serif" font-size="12">lr_30_diverged</text>
</svg>
