<svg xmlns="http://www.w3.org/2000/svg" width="1000" height="620" viewBox="0 0 1000 620">
<rect width="100%" height="100%" fill="white"/>
<text x="500.0" y="36" text-anchor="middle" font-family="sans-serif" font-size="22">TinyStories best validation loss by step</text>
<line x1="90.00" y1="70" x2="90.00" y2="540" stroke="#e5e7eb"/>
<text x="90.00" y="568" text-anchor="middle" font-family="sans-serif" font-size="12">-395</text>
<line x1="90" y1="540.00" x2="750" y2="540.00" stroke="#e5e7eb"/>
<text x="78" y="544.00" text-anchor="end" font-family="sans-serif" font-size="12">1.22</text>
<line x1="222.00" y1="70" x2="222.00" y2="540" stroke="#e5e7eb"/>
<text x="222.00" y="568" text-anchor="middle" font-family="sans-serif" font-size="12">1783</text>
<line x1="90" y1="446.00" x2="750" y2="446.00" stroke="#e5e7eb"/>
<text x="78" y="450.00" text-anchor="end" font-family="sans-serif" font-size="12">1.92</text>
<line x1="354.00" y1="70" x2="354.00" y2="540" stroke="#e5e7eb"/>
<text x="354.00" y="568" text-anchor="middle" font-family="sans-serif" font-size="12">3961</text>
<line x1="90" y1="352.00" x2="750" y2="352.00" stroke="#e5e7eb"/>
<text x="78" y="356.00" text-anchor="end" font-family="sans-serif" font-size="12">2.63</text>
<line x1="486.00" y1="70" x2="486.00" y2="540" stroke="#e5e7eb"/>
<text x="486.00" y="568" text-anchor="middle" font-family="sans-serif" font-size="12">6139</text>
<line x1="90" y1="258.00" x2="750" y2="258.00" stroke="#e5e7eb"/>
<text x="78" y="262.00" text-anchor="end" font-family="sans-serif" font-size="12">3.33</text>
<line x1="618.00" y1="70" x2="618.00" y2="540" stroke="#e5e7eb"/>
<text x="618.00" y="568" text-anchor="middle" font-family="sans-serif" font-size="12">8317</text>
<line x1="90" y1="164.00" x2="750" y2="164.00" stroke="#e5e7eb"/>
<text x="78" y="168.00" text-anchor="end" font-family="sans-serif" font-size="12">4.03</text>
<line x1="750.00" y1="70" x2="750.00" y2="540" stroke="#e5e7eb"/>
<text x="750.00" y="568" text-anchor="middle" font-family="sans-serif" font-size="12">10495</text>
<line x1="90" y1="70.00" x2="750" y2="70.00" stroke="#e5e7eb"/>
<text x="78" y="74.00" text-anchor="end" font-family="sans-serif" font-size="12">4.73</text>
<line x1="90" y1="540" x2="750" y2="540" stroke="#111827" stroke-width="1.5"/>
<line x1="90" y1="70" x2="90" y2="540" stroke="#111827" stroke-width="1.5"/>
<text x="420.00" y="596" text-anchor="middle" font-family="sans-serif" font-size="14">step</text>
<text x="24" y="305.00" text-anchor="middle" transform="rotate(-90 24 305.00)" font-family="sans-serif" font-size="14">loss</text>
<polyline points="120.00,91.36 126.06,276.75 132.12,338.81 138.18,372.74 144.24,396.07 150.30,415.25 156.36,428.30 162.42,437.25 168.48,444.22 174.55,450.42 180.61,454.44 186.67,458.74 192.73,462.24 198.79,464.93 204.85,467.47 210.91,469.57 216.97,471.90 223.03,474.05 229.09,475.92 235.15,477.40 241.21,478.91 247.27,480.42 253.33,481.60 259.39,483.14 265.45,484.15 271.52,485.29 277.58,486.64 283.64,487.68 289.70,488.60 295.76,489.55 301.82,490.25 307.88,491.23 313.94,491.79 320.00,492.91 326.06,493.73 332.12,494.46 338.18,495.20 344.24,495.88 350.30,496.58 356.36,497.10 362.42,497.83 368.48,498.37 374.55,499.10 380.61,499.71 386.67,500.25 392.73,501.19 398.79,501.45 404.85,502.13 410.91,502.58 416.97,503.00 423.03,503.69 429.09,504.26 435.15,504.90 441.21,505.34 447.27,505.92 453.33,506.19 459.39,506.86 465.45,507.13 471.52,507.74 477.58,508.09 483.64,508.56 489.70,508.94 495.76,509.35 501.82,509.71 507.88,510.12 513.94,510.64 520.00,511.04 526.06,511.37 532.12,511.71 538.18,512.12 544.24,512.52 550.30,512.90 556.36,513.14 562.42,513.46 568.48,513.84 574.55,514.16 580.61,514.49 586.67,514.81 592.73,515.04 598.79,515.36 604.85,515.59 610.91,515.88 616.97,516.08 623.03,516.37 629.09,516.64 635.15,516.75 641.21,517.02 647.27,517.17 653.33,517.37 659.39,517.54 665.45,517.69 671.52,517.92 677.58,517.95 683.64,518.09 689.70,518.23 695.76,518.37 701.82,518.45 707.88,518.52 713.94,518.55 720.00,518.64" fill="none" stroke="#1f77b4" stroke-width="2" stroke-linejoin="round" stroke-linecap="round"/>
<line x1="778" y1="70" x2="802" y2="70" stroke="#1f77b4" stroke-width="3"/>
<text x="810" y="74" font-family="sans-serif" font-size="12">best</text>
</svg>
