<svg xmlns="http://www.w3.org/2000/svg" width="1000" height="620" viewBox="0 0 1000 620">
<rect width="100%" height="100%" fill="white"/>
<text x="500.0" y="36" text-anchor="middle" font-family="sans-serif" font-size="22">TinyStories batch-size validation loss by step</text>
<line x1="90.00" y1="70" x2="90.00" y2="540" stroke="#e5e7eb"/>
<text x="90.00" y="568" text-anchor="middle" font-family="sans-serif" font-size="12">-817</text>
<line x1="90" y1="540.00" x2="750" y2="540.00" stroke="#e5e7eb"/>
<text x="78" y="544.00" text-anchor="end" font-family="sans-serif" font-size="12">2.28</text>
<line x1="222.00" y1="70" x2="222.00" y2="540" stroke="#e5e7eb"/>
<text x="222.00" y="568" text-anchor="middle" font-family="sans-serif" font-size="12">2787</text>
<line x1="90" y1="446.00" x2="750" y2="446.00" stroke="#e5e7eb"/>
<text x="78" y="450.00" text-anchor="end" font-family="sans-serif" font-size="12">3.66</text>
<line x1="354.00" y1="70" x2="354.00" y2="540" stroke="#e5e7eb"/>
<text x="354.00" y="568" text-anchor="middle" font-family="sans-serif" font-size="12">6391</text>
<line x1="90" y1="352.00" x2="750" y2="352.00" stroke="#e5e7eb"/>
<text x="78" y="356.00" text-anchor="end" font-family="sans-serif" font-size="12">5.05</text>
<line x1="486.00" y1="70" x2="486.00" y2="540" stroke="#e5e7eb"/>
<text x="486.00" y="568" text-anchor="middle" font-family="sans-serif" font-size="12">9995</text>
<line x1="90" y1="258.00" x2="750" y2="258.00" stroke="#e5e7eb"/>
<text x="78" y="262.00" text-anchor="end" font-family="sans-serif" font-size="12">6.43</text>
<line x1="618.00" y1="70" x2="618.00" y2="540" stroke="#e5e7eb"/>
<text x="618.00" y="568" text-anchor="middle" font-family="sans-serif" font-size="12">13599</text>
<line x1="90" y1="164.00" x2="750" y2="164.00" stroke="#e5e7eb"/>
<text x="78" y="168.00" text-anchor="end" font-family="sans-serif" font-size="12">7.82</text>
<line x1="750.00" y1="70" x2="750.00" y2="540" stroke="#e5e7eb"/>
<text x="750.00" y="568" text-anchor="middle" font-family="sans-serif" font-size="12">17203</text>
<line x1="90" y1="70.00" x2="750" y2="70.00" stroke="#e5e7eb"/>
<text x="78" y="74.00" text-anchor="end" font-family="sans-serif" font-size="12">9.20</text>
<line x1="90" y1="540" x2="750" y2="540" stroke="#111827" stroke-width="1.5"/>
<line x1="90" y1="70" x2="90" y2="540" stroke="#111827" stroke-width="1.5"/>
<text x="420.00" y="596" text-anchor="middle" font-family="sans-serif" font-size="14">step</text>
<text x="24" y="305.00" text-anchor="middle" transform="rotate(-90 24 305.00)" font-family="sans-serif" font-size="14">loss</text>
<polyline points="157.43,437.17 194.94,465.29 232.44,477.05 269.95,484.17 307.45,491.16 344.95,496.21 382.46,499.29 419.96,502.98 457.47,506.55 494.97,508.94 532.48,511.86 569.98,513.90 607.49,515.52 644.99,516.94 682.50,517.99 720.00,518.64" fill="none" stroke="#1f77b4" stroke-width="2" stroke-linejoin="round" stroke-linecap="round"/>
<line x1="778" y1="70" x2="802" y2="70" stroke="#1f77b4" stroke-width="3"/>
<text x="810" y="74" font-family="sans-serif" font-size="12">batch_1</text>
<polyline points="120.51,189.83 121.10,324.45 121.68,380.00 122.27,409.50 122.86,426.78 123.44,437.94 124.03,446.03 124.61,452.64 125.20,458.05 125.79,462.18 126.37,465.30 126.96,467.69 127.54,469.53 128.13,470.82 128.72,471.87 129.30,472.72" fill="none" stroke="#d62728" stroke-width="2" stroke-linejoin="round" stroke-linecap="round"/>
<line x1="778" y1="94" x2="802" y2="94" stroke="#d62728" stroke-width="3"/>
<text x="810" y="98" font-family="sans-serif" font-size="12">batch_64</text>
<polyline points="120.22,139.02 120.51,232.40 120.81,301.31 121.10,343.92 121.39,370.59 121.68,389.39 121.98,402.89 122.27,412.87 122.56,420.19 122.86,425.82 123.15,429.93 123.44,432.99 123.74,435.24 124.03,436.88 124.32,438.09 124.61,439.12" fill="none" stroke="#2ca02c" stroke-width="2" stroke-linejoin="round" stroke-linecap="round"/>
<line x1="778" y1="118" x2="802" y2="118" stroke="#2ca02c" stroke-width="3"/>
<text x="810" y="122" font-family="sans-serif" font-size="12">batch_128</text>
<polyline points="120.00,91.36 120.07,129.20 120.15,158.76 120.22,181.52 120.29,200.76 120.37,217.29 120.44,230.91 120.51,241.60 120.59,249.55 120.66,255.24 120.73,259.16 120.81,261.94 120.84,263.09" fill="none" stroke="#9467bd" stroke-width="2" stroke-linejoin="round" stroke-linecap="round"/>
<line x1="778" y1="142" x2="802" y2="142" stroke="#9467bd" stroke-width="3"/>
<text x="810" y="146" font-family="sans-serif" font-size="12">batch_682</text>
</svg>
